<svg width="401" height="418" viewBox="0 0 401 418" fill="none" xmlns="http://www.w3.org/2000/svg">
<g opacity="0.2">
<path d="M29.3594 180.293C30.3849 179.625 31.2385 178.724 31.851 177.664C32.4634 176.605 32.8174 175.415 32.8844 174.193V167.07C32.8844 164.824 31.3045 163.91 29.3594 165.034L6.10019 178.467C5.03174 183.946 4.08201 189.617 3.26013 195.361L29.3594 180.293Z" fill="black"/>
<path d="M21.0675 127.629L29.3594 122.835C30.3849 122.166 31.2385 121.266 31.8509 120.206C32.4634 119.146 32.8174 117.957 32.8843 116.734V109.611C32.9386 109.153 32.8578 108.688 32.6518 108.274C32.4457 107.861 32.1235 107.516 31.7246 107.283C30.8783 108.64 30.0382 110.013 29.2041 111.401C26.1217 116.617 23.403 122.039 21.0675 127.629Z" fill="black"/>
<path d="M64.7733 64.9742L71.805 60.9105C72.8274 60.244 73.6785 59.3461 74.2893 58.2895C74.9001 57.2328 75.2535 56.0472 75.3208 54.8286C71.7167 58.0491 68.2009 61.431 64.7733 64.9742Z" fill="black"/>
<path d="M32.8843 249.139V242.016C32.8843 239.77 31.3045 238.857 29.3594 239.98L0.136963 256.874C0.331779 261.769 0.660531 266.652 1.12322 271.522L29.3594 255.221C30.3825 254.555 31.2346 253.657 31.8469 252.601C32.4592 251.544 32.8146 250.359 32.8843 249.139Z" fill="black"/>
<path d="M117.739 142.761V135.638C117.739 133.391 116.159 132.478 114.214 133.601L81.6128 152.422C80.5884 153.091 79.7362 153.992 79.1253 155.052C78.5145 156.112 78.1621 157.301 78.0969 158.523V165.645C78.0969 167.892 79.6676 168.805 81.6128 167.682L114.214 148.861C115.24 148.193 116.093 147.292 116.706 146.232C117.318 145.172 117.672 143.983 117.739 142.761Z" fill="black"/>
<path d="M8.54761 311.748C9.24164 314.095 9.9722 316.415 10.7667 318.689V314.232C10.7667 312.525 9.84435 311.593 8.54761 311.748Z" fill="black"/>
<path d="M8.77586 228.309C9.8002 227.64 10.6524 226.74 11.2633 225.68C11.8742 224.62 12.2265 223.431 12.2917 222.209V215.086C12.2917 212.84 10.721 211.926 8.77586 213.05L0.849277 217.643C0.435293 222.867 0.1522 228.118 0 233.396L8.77586 228.309Z" fill="black"/>
<path d="M124.003 105.794L156.596 86.9732C157.621 86.3049 158.475 85.4043 159.087 84.3444C159.7 83.2846 160.054 82.0953 160.121 80.8731V73.741C160.121 71.5036 158.541 70.5904 156.596 71.7136L124.003 90.5347C122.978 91.203 122.124 92.1037 121.512 93.1635C120.899 94.2234 120.545 95.4126 120.479 96.6349V103.758C120.479 106.004 122.058 106.918 124.003 105.794Z" fill="black"/>
<path d="M145.82 224.291L178.421 205.47C179.445 204.803 180.297 203.903 180.908 202.845C181.518 201.787 181.871 200.599 181.937 199.379V192.247C181.937 190.001 180.366 189.097 178.421 190.22L145.82 209.041C144.796 209.708 143.944 210.608 143.334 211.666C142.723 212.724 142.37 213.912 142.304 215.132V222.264C142.304 224.51 143.875 225.415 145.82 224.291Z" fill="black"/>
<path d="M61.0019 85.8226L93.594 66.965C94.6195 66.2967 95.4731 65.3961 96.0856 64.3362C96.698 63.2764 97.052 62.0871 97.1189 60.8648V53.7419C97.1189 51.4954 95.5391 50.5822 93.594 51.7054L61.0019 70.563C59.9746 71.2303 59.1193 72.1305 58.5052 73.1904C57.8911 74.2503 57.5357 75.4401 57.4678 76.6632V83.7862C57.4678 86.0326 59.0567 86.9458 61.0019 85.8226Z" fill="black"/>
<path d="M120.479 141.226C120.479 143.473 122.058 144.386 124.003 143.263L156.596 124.442C157.621 123.774 158.475 122.873 159.087 121.813C159.7 120.753 160.054 119.564 160.121 118.342V111.219C160.121 108.972 158.541 108.059 156.596 109.182L124.003 128.003C122.978 128.672 122.124 129.572 121.512 130.632C120.899 131.692 120.545 132.881 120.479 134.104V141.226Z" fill="black"/>
<path d="M71.7777 233.021L39.2038 251.843C38.1783 252.511 37.3247 253.411 36.7122 254.471C36.0998 255.531 35.7458 256.72 35.6788 257.943V265.066C35.6788 267.312 37.2587 268.225 39.2038 267.102L71.8051 248.281C72.8294 247.612 73.6816 246.711 74.2925 245.651C74.9034 244.591 75.2557 243.402 75.3209 242.181V235.058C75.2935 232.811 73.7228 231.898 71.7777 233.021Z" fill="black"/>
<path d="M202.301 0C192.52 0.723611 182.801 2.13033 173.216 4.20986L166.413 8.13662C165.387 8.80495 164.533 9.70556 163.921 10.7654C163.309 11.8253 162.955 13.0145 162.888 14.2368V21.3689C162.888 23.6154 164.467 24.5194 166.413 23.3962L199.014 4.57514C200.64 3.51172 201.812 1.88065 202.301 0Z" fill="black"/>
<path d="M97.1189 210.794V203.671C97.1189 201.425 95.5391 200.511 93.594 201.635L61.0019 220.456C59.9746 221.123 59.1193 222.023 58.5052 223.083C57.8911 224.143 57.5357 225.333 57.4678 226.556V233.679C57.4678 235.925 59.0476 236.839 60.9927 235.715L93.5849 216.894C94.6121 216.227 95.4675 215.327 96.0815 214.267C96.6956 213.207 97.051 212.017 97.1189 210.794Z" fill="black"/>
<path d="M139.528 261.294V254.171C139.528 251.925 137.957 251.011 136.012 252.135L103.411 270.956C102.385 271.624 101.532 272.525 100.919 273.585C100.307 274.644 99.9528 275.834 99.8859 277.056V284.179C99.8859 286.425 101.466 287.339 103.411 286.215L136.003 267.394C137.029 266.727 137.883 265.826 138.495 264.766C139.108 263.706 139.462 262.517 139.528 261.294Z" fill="black"/>
<path d="M251.231 182.348L283.832 163.527C284.857 162.859 285.711 161.958 286.323 160.898C286.936 159.838 287.29 158.649 287.357 157.427V150.304C287.357 148.057 285.777 147.144 283.832 148.267L251.231 167.088C250.206 167.757 249.354 168.658 248.743 169.718C248.132 170.778 247.78 171.967 247.715 173.189V180.311C247.715 182.558 249.286 183.471 251.231 182.348Z" fill="black"/>
<path d="M273.056 188.421L305.657 169.6C306.682 168.931 307.534 168.03 308.145 166.97C308.756 165.91 309.108 164.721 309.173 163.499V156.377C309.173 154.13 307.603 153.217 305.657 154.34L273.056 173.161C272.031 173.829 271.177 174.73 270.565 175.79C269.952 176.85 269.598 178.039 269.531 179.261V186.384C269.531 188.64 271.157 189.553 273.056 188.421Z" fill="black"/>
<path d="M247.715 81.7589V88.8818C247.715 91.1283 249.286 92.0415 251.231 90.9183L283.832 72.0972C284.857 71.4289 285.711 70.5283 286.323 69.4684C286.936 68.4086 287.29 67.2193 287.357 65.997V58.8741C287.357 56.6276 285.777 55.7144 283.832 56.8376L251.231 75.6587C250.206 76.3275 249.354 77.2284 248.743 78.2883C248.132 79.3482 247.78 80.5373 247.715 81.7589Z" fill="black"/>
<path d="M269.823 13.9994C268.798 14.6677 267.944 15.5683 267.332 16.6282C266.719 17.6881 266.365 18.8773 266.298 20.0996V27.2317C266.298 29.469 267.878 30.3822 269.823 29.259L295.713 14.2734C290.3 12.1304 284.8 10.2127 279.211 8.5202L269.823 13.9994Z" fill="black"/>
<path d="M263.239 49.8973L230.647 68.7183C229.622 69.3867 228.768 70.2873 228.155 71.3471C227.543 72.407 227.189 73.5963 227.122 74.8185V81.9415C227.122 84.188 228.702 85.1012 230.647 83.9779L263.239 65.1386C264.265 64.4703 265.118 63.5697 265.731 62.5098C266.343 61.4499 266.697 60.2607 266.764 59.0384V51.9155C266.764 49.6872 265.184 48.774 263.239 49.8973Z" fill="black"/>
<path d="M309.173 81.4392C309.173 79.1928 307.603 78.2796 305.657 79.4028L273.056 98.2239C272.031 98.8922 271.177 99.7928 270.565 100.853C269.952 101.913 269.598 103.102 269.531 104.324V111.447C269.531 113.694 271.111 114.607 273.056 113.483L305.657 94.6624C306.682 93.9936 307.534 93.0927 308.145 92.0328C308.756 90.9728 309.108 89.7838 309.173 88.5622V81.4392Z" fill="black"/>
<path d="M390.476 105.466L357.911 124.277C356.885 124.946 356.032 125.846 355.419 126.906C354.807 127.966 354.453 129.155 354.386 130.378V137.51C354.386 139.756 355.957 140.66 357.902 139.537L390.503 120.716C391.528 120.048 392.382 119.147 392.994 118.087C393.607 117.027 393.961 115.838 394.028 114.616V107.493C394 105.246 392.421 104.342 390.476 105.466Z" fill="black"/>
<path d="M390.01 87.0554L378.467 93.74C377.441 94.4084 376.588 95.309 375.975 96.3688C375.363 97.4287 375.009 98.618 374.942 99.8402V106.963C374.942 109.21 376.522 110.123 378.467 109L397.462 98.0412C394.972 94.1266 392.488 90.4647 390.01 87.0554Z" fill="black"/>
<path d="M224.355 137.455V130.332C224.355 128.086 222.775 127.172 220.83 128.296L188.229 147.117C187.206 147.787 186.354 148.688 185.743 149.747C185.133 150.807 184.78 151.996 184.713 153.217V160.34C184.713 162.586 186.293 163.499 188.229 162.376L220.83 143.555C221.856 142.887 222.709 141.986 223.322 140.926C223.934 139.866 224.288 138.677 224.355 137.455Z" fill="black"/>
<path d="M348.067 54.9564L315.465 73.7775C314.441 74.4463 313.589 75.3472 312.978 76.4071C312.367 77.467 312.015 78.656 311.949 79.8777V87.0006C311.949 89.2471 313.52 90.1603 315.465 89.0371L348.067 70.216C349.092 69.5477 349.946 68.647 350.558 67.5872C351.171 66.5273 351.525 65.3381 351.591 64.1158V56.9928C351.591 54.7464 350.012 53.8332 348.067 54.9564Z" fill="black"/>
<path d="M199.014 197.16L166.413 215.981C165.387 216.649 164.533 217.55 163.921 218.61C163.309 219.67 162.955 220.859 162.888 222.081V229.204C162.888 231.451 164.467 232.364 166.413 231.241L199.014 212.42C200.039 211.751 200.893 210.851 201.505 209.791C202.118 208.731 202.472 207.542 202.539 206.319V199.196C202.53 196.95 200.95 196.037 199.014 197.16Z" fill="black"/>
<path d="M29.0673 333.547C30.0916 332.878 30.9438 331.977 31.5547 330.917C32.1656 329.857 32.5179 328.668 32.5831 327.446V320.323C32.5831 318.077 31.0124 317.164 29.0673 318.287L13.972 326.999C15.6856 331.074 17.6027 335.061 19.7161 338.944L29.0673 333.547Z" fill="black"/>
<path d="M332.533 124.296V131.419C332.533 133.665 334.113 134.578 336.058 133.455L368.65 114.634C369.676 113.966 370.529 113.065 371.142 112.005C371.754 110.945 372.108 109.756 372.175 108.534V101.411C372.175 99.1645 370.595 98.2513 368.65 99.3745L336.058 118.196C335.032 118.864 334.179 119.765 333.566 120.824C332.954 121.884 332.6 123.073 332.533 124.296Z" fill="black"/>
</g>
<path opacity="0.15" d="M144.669 353.098C144.305 352.89 143.93 352.701 143.546 352.532L143.683 352.45L79.7589 317.474V293.941L65.3668 302.242V325.775L124.67 358.221C124.798 359.847 125.93 361.463 128.085 362.705C132.651 365.353 140.076 365.353 144.66 362.705C146.961 361.39 148.103 359.637 148.103 357.892C148.103 356.148 146.961 354.413 144.669 353.098Z" fill="black"/>
<path opacity="0.15" d="M125.903 364.422C125.537 364.211 125.159 364.022 124.771 363.856L124.908 363.773L60.9835 328.798V305.31L46.6097 313.529V337.062L105.913 369.508C106.041 371.134 107.164 372.75 109.328 373.992C113.894 376.641 121.319 376.641 125.903 373.992C128.204 372.668 129.346 370.924 129.346 369.18C129.346 367.435 128.204 365.737 125.903 364.422Z" fill="black"/>
<path opacity="0.15" d="M343.464 406.018C337.109 402.195 330.247 399.287 323.081 397.379C313.894 394.749 302.991 392.813 295.21 389.626C285.056 385.489 280.508 379.362 280.206 372.568C280.033 368.723 281.668 364.184 289.868 360.121C292.269 358.919 294.817 358.038 297.448 357.5C301.122 356.825 304.886 356.797 308.57 357.418C325.118 359.865 332.926 366.239 339.291 372.604C345.656 378.969 352.724 382.165 365.317 387.215C370.705 389.361 376.44 391.398 381.563 393.608L381.681 393.663C384.253 394.645 386.757 395.795 389.179 397.105C392.521 399.206 395.525 401.443 397.014 404.055C398.502 406.667 398.393 409.698 395.635 412.922C394.723 414.011 393.556 414.858 392.238 415.388C390.565 416.06 388.822 416.544 387.042 416.83C383.543 417.465 379.983 417.707 376.43 417.552C373.615 417.406 370.817 417.024 368.065 416.41C359.282 414.531 350.935 411.005 343.464 406.018Z" fill="black"/>
<path d="M77.1563 290.507L81.8501 293.247L72.4441 309.493L67.7503 306.753C66.5449 306.059 65.8052 304.571 65.8052 302.452C65.9289 300.146 66.5946 297.901 67.7481 295.901C68.9016 293.9 70.5104 292.199 72.4441 290.937C74.2888 289.905 75.9508 289.786 77.1563 290.507Z" fill="#455A64"/>
<path d="M70.4991 305.192C70.6247 302.885 71.292 300.64 72.447 298.639C73.6021 296.639 75.2123 294.938 77.1473 293.676C80.8001 291.558 83.7954 293.274 83.7954 297.512C83.6698 299.818 83.0025 302.063 81.8475 304.064C80.6924 306.065 79.0822 307.765 77.1473 309.027C73.4762 311.146 70.4991 309.429 70.4991 305.192Z" fill="#263238"/>
<g opacity="0.3">
<path d="M72.4442 304.068C72.5324 302.437 73.0042 300.848 73.8214 299.433C74.6385 298.018 75.778 296.815 77.1472 295.923C79.7407 294.425 81.8502 295.64 81.8502 298.662C81.762 300.294 81.2902 301.882 80.473 303.298C79.6559 304.713 78.5164 305.916 77.1472 306.808C74.5537 308.278 72.4442 307.064 72.4442 304.068Z" fill="black"/>
</g>
<g opacity="0.3">
<path d="M78.5261 296.717C78.4379 298.349 77.9661 299.937 77.149 301.353C76.3318 302.768 75.1924 303.971 73.8231 304.863C73.4458 305.075 73.0441 305.241 72.6269 305.356C72.5061 304.937 72.4446 304.504 72.4442 304.068C72.5324 302.437 73.0042 300.848 73.8214 299.433C74.6385 298.018 75.778 296.815 77.1472 295.923C77.527 295.709 77.9319 295.543 78.3526 295.43C78.4657 295.849 78.524 296.282 78.5261 296.717Z" fill="black"/>
</g>
<path d="M73.8231 307.137L128.916 338.98C129.171 339.126 129.382 339.336 129.53 339.589C129.677 339.842 129.755 340.13 129.757 340.423V359.271H143.053V342.898V338.651C143.054 336.558 142.503 334.501 141.456 332.688C140.409 330.874 138.903 329.369 137.09 328.323L80.4712 295.603C79.9389 295.356 79.3501 295.255 78.7657 295.311C78.1813 295.367 77.6226 295.578 77.1471 295.923C75.7779 296.815 74.6385 298.018 73.8213 299.433C73.0042 300.848 72.5323 302.437 72.4442 304.068C72.3774 304.658 72.4711 305.254 72.7155 305.794C72.9598 306.334 73.3457 306.798 73.8322 307.137H73.8231Z" fill="#455A64"/>
<path d="M143.053 339.281C143.049 338.358 142.936 337.438 142.715 336.542C142.761 336.898 142.907 339.437 138.021 341.062C132.743 342.816 129.757 341.062 129.757 341.062V359.281H143.053V343.528V339.281Z" fill="#37474F"/>
<g opacity="0.3">
<path d="M73.8231 307.137L128.916 338.98C129.171 339.126 129.382 339.336 129.53 339.589C129.677 339.842 129.755 340.13 129.757 340.423V359.271H134.688V345.199V343.373C134.685 341.275 134.13 339.216 133.078 337.401C132.026 335.586 130.516 334.081 128.697 333.035L73.1656 300.936C72.7359 301.927 72.4914 302.989 72.4442 304.068C72.3774 304.658 72.4711 305.254 72.7155 305.794C72.9598 306.334 73.3457 306.798 73.8322 307.137H73.8231Z" fill="black"/>
</g>
<path d="M145.811 351.692V357.125C145.811 358.523 144.898 359.929 143.071 360.988C141.007 362.037 138.725 362.584 136.409 362.584C134.094 362.584 131.812 362.037 129.748 360.988C127.921 359.929 127.008 358.523 127.008 357.135V351.655H129.811C129.824 352.02 129.912 352.379 130.069 352.709C130.226 353.039 130.449 353.333 130.725 353.573L130.953 353.792C131.207 354.009 131.479 354.205 131.766 354.377C133.224 355.119 134.837 355.506 136.473 355.506C138.11 355.506 139.723 355.119 141.181 354.377C141.469 354.207 141.741 354.011 141.994 353.792L142.222 353.573C142.497 353.333 142.72 353.039 142.877 352.709C143.034 352.379 143.122 352.02 143.135 351.655L145.811 351.692Z" fill="#263238"/>
<path d="M145.811 351.692C145.811 353.08 144.898 354.486 143.071 355.546C141.006 356.59 138.724 357.135 136.409 357.135C134.095 357.135 131.813 356.59 129.748 355.546C127.921 354.486 127.008 353.08 127.008 351.692C127.008 350.304 127.921 348.907 129.748 347.847V351.719C129.76 352.084 129.848 352.443 130.005 352.773C130.162 353.103 130.385 353.397 130.661 353.637L130.889 353.856C131.143 354.073 131.415 354.269 131.702 354.441C133.16 355.183 134.773 355.57 136.409 355.57C138.046 355.57 139.659 355.183 141.117 354.441C141.405 354.271 141.677 354.075 141.93 353.856L142.158 353.637C142.433 353.397 142.656 353.102 142.813 352.773C142.97 352.443 143.058 352.084 143.071 351.719V347.875C144.898 348.907 145.811 350.304 145.811 351.692Z" fill="#455A64"/>
<path d="M57.9608 301.594L62.6547 304.333L53.2578 320.579L48.5549 317.839C47.3494 317.145 46.6097 315.657 46.6097 313.538C46.7352 311.232 47.4026 308.987 48.5576 306.986C49.7127 304.985 51.3229 303.285 53.2578 302.023C55.0934 300.991 56.7645 300.89 57.9608 301.594Z" fill="#455A64"/>
<path d="M51.3036 316.269C51.4291 313.962 52.0964 311.717 53.2515 309.717C54.4065 307.716 56.0168 306.016 57.9517 304.753C61.6045 302.635 64.5998 304.352 64.5998 308.589C64.4743 310.896 63.807 313.14 62.6519 315.141C61.4969 317.142 59.8866 318.842 57.9517 320.104C54.2806 322.232 51.3036 320.515 51.3036 316.269Z" fill="#263238"/>
<g opacity="0.3">
<path d="M53.2578 315.155C53.3457 313.524 53.8164 311.936 54.6319 310.521C55.4474 309.106 56.5847 307.903 57.9517 307.009C60.5543 305.511 62.6546 306.726 62.6546 309.749C62.5679 311.381 62.0967 312.969 61.2794 314.385C60.4621 315.801 59.3219 317.003 57.9517 317.894C55.3582 319.365 53.2578 318.15 53.2578 315.155Z" fill="black"/>
</g>
<g opacity="0.3">
<path d="M59.2941 307.803C59.2074 309.436 58.7361 311.024 57.9189 312.44C57.1016 313.856 55.9613 315.058 54.5911 315.949C54.2145 316.163 53.8126 316.328 53.3948 316.442C53.2818 316.022 53.2235 315.59 53.2213 315.155C53.3092 313.524 53.7799 311.936 54.5954 310.521C55.4109 309.106 56.5482 307.903 57.9152 307.009C58.2957 306.797 58.7004 306.631 59.1206 306.516C59.2336 306.936 59.2919 307.369 59.2941 307.803Z" fill="black"/>
</g>
<path d="M54.6368 318.205L109.73 350.057C109.982 350.205 110.191 350.415 110.337 350.668C110.483 350.921 110.56 351.208 110.561 351.5V369.718H123.857V353.984V349.738C123.857 347.644 123.306 345.588 122.259 343.775C121.213 341.962 119.707 340.456 117.894 339.409L61.2757 306.689C60.7418 306.442 60.1516 306.341 59.5658 306.397C58.9801 306.454 58.4198 306.665 57.9426 307.009C56.5756 307.903 55.4383 309.106 54.6228 310.521C53.8073 311.936 53.3366 313.524 53.2487 315.155C53.188 315.738 53.2837 316.328 53.526 316.862C53.7684 317.396 54.1486 317.857 54.6276 318.196L54.6368 318.205Z" fill="#455A64"/>
<path d="M123.857 349.738C123.854 348.814 123.74 347.895 123.52 346.998C123.574 347.363 123.711 349.893 118.826 351.518C113.547 353.272 110.561 351.518 110.561 351.518V369.737H123.857V353.984V349.738Z" fill="#37474F"/>
<g opacity="0.3">
<path d="M54.6367 318.205L109.73 350.057C109.982 350.205 110.191 350.415 110.337 350.668C110.483 350.921 110.56 351.208 110.561 351.5V369.718H115.492V356.294V354.468C115.494 352.372 114.943 350.312 113.894 348.497C112.845 346.682 111.337 345.176 109.52 344.131L53.9792 312.022C53.5451 313.012 53.3004 314.075 53.2577 315.155C53.197 315.738 53.2927 316.328 53.5351 316.862C53.7774 317.396 54.1576 317.857 54.6367 318.196V318.205Z" fill="black"/>
</g>
<path d="M126.624 362.778V368.212C126.624 369.609 125.711 371.015 123.885 372.074C121.819 373.124 119.535 373.67 117.218 373.67C114.902 373.67 112.618 373.124 110.552 372.074C108.726 371.015 107.812 369.609 107.812 368.221V362.742H110.616C110.627 363.107 110.714 363.466 110.871 363.796C111.028 364.126 111.252 364.42 111.529 364.659C111.598 364.737 111.671 364.81 111.748 364.878C112 365.098 112.272 365.294 112.561 365.463C114.021 366.206 115.635 366.593 117.273 366.593C118.911 366.593 120.526 366.206 121.985 365.463C122.273 365.292 122.544 365.096 122.798 364.878C122.88 364.805 122.944 364.732 123.017 364.659C123.289 364.417 123.51 364.122 123.667 363.793C123.824 363.463 123.914 363.106 123.93 362.742L126.624 362.778Z" fill="#263238"/>
<path d="M126.624 362.778C126.624 364.166 125.711 365.572 123.885 366.632C121.818 367.677 119.534 368.221 117.218 368.221C114.902 368.221 112.619 367.677 110.552 366.632C108.726 365.572 107.812 364.166 107.812 362.778C107.812 361.39 108.726 359.993 110.552 358.934V362.805C110.563 363.171 110.65 363.53 110.807 363.86C110.964 364.19 111.189 364.484 111.465 364.723C111.534 364.801 111.607 364.874 111.684 364.942C111.936 365.162 112.209 365.358 112.497 365.527C113.957 366.269 115.572 366.657 117.209 366.657C118.847 366.657 120.462 366.269 121.921 365.527C122.209 365.356 122.481 365.16 122.734 364.942C122.816 364.869 122.88 364.796 122.953 364.723C123.226 364.48 123.447 364.186 123.603 363.856C123.76 363.527 123.85 363.17 123.867 362.805V358.961C125.702 359.993 126.624 361.39 126.624 362.778Z" fill="#455A64"/>
<path d="M210.383 92.4252C210.383 64.116 200.438 44.2173 184.375 34.9392C168.312 25.6611 146.112 27.0035 121.584 41.1672C72.5447 69.4764 32.8113 138.332 32.8113 194.959C32.8113 223.269 42.756 243.167 58.8192 252.436C74.8824 261.705 97.0824 260.372 121.611 246.217C170.632 217.908 210.383 149.053 210.383 92.4252Z" fill="#E82C2A"/>
<path opacity="0.95" d="M210.383 92.4252C210.383 64.116 200.438 44.2173 184.375 34.9392C168.312 25.6611 146.112 27.0035 121.584 41.1672C72.5447 69.4764 32.8113 138.332 32.8113 194.959C32.8113 223.269 42.756 243.167 58.8192 252.436C74.8824 261.705 97.0824 260.372 121.611 246.217C170.632 217.908 210.383 149.053 210.383 92.4252Z" fill="white"/>
<g opacity="0.2">
<path d="M71.7775 233.021L49.9429 245.624C52.5848 248.272 55.5629 250.563 58.8009 252.436C59.7872 253.011 60.7917 253.541 61.8236 254.025L71.7775 248.281C72.8018 247.612 73.654 246.711 74.2649 245.651C74.8758 244.591 75.2281 243.402 75.2933 242.181V235.058C75.2933 232.811 73.7226 231.898 71.7775 233.021Z" fill="#E82C2A"/>
<path d="M120.479 103.758C120.479 106.004 122.058 106.918 124.003 105.794L156.596 86.9733C157.621 86.3049 158.475 85.4043 159.087 84.3445C159.7 83.2846 160.054 82.0953 160.121 80.8731V73.741C160.121 71.5036 158.541 70.5904 156.596 71.7137L124.003 90.5347C122.978 91.2031 122.124 92.1037 121.512 93.1635C120.899 94.2234 120.545 95.4127 120.479 96.6349V103.758Z" fill="#E82C2A"/>
<path d="M156.596 109.182L124.003 128.003C122.978 128.672 122.124 129.572 121.512 130.632C120.899 131.692 120.545 132.881 120.479 134.104V141.227C120.479 143.473 122.058 144.386 124.003 143.263L156.596 124.442C157.621 123.774 158.475 122.873 159.087 121.813C159.7 120.753 160.054 119.564 160.121 118.342V111.219C160.121 108.972 158.541 108.059 156.596 109.182Z" fill="#E82C2A"/>
<path d="M97.1188 60.9014V59.2393C92.5035 63.4611 88.1082 67.9173 83.9504 72.5903L93.5938 66.965C94.6146 66.3003 95.4652 65.4055 96.0774 64.3524C96.6896 63.2993 97.0463 62.1173 97.1188 60.9014Z" fill="#E82C2A"/>
<path d="M177.827 190.558L145.82 209.041C144.796 209.708 143.944 210.608 143.333 211.666C142.723 212.724 142.37 213.912 142.304 215.132V222.264C142.304 224.51 143.875 225.414 145.82 224.291L155.865 218.483C163.984 209.832 171.333 200.487 177.827 190.558Z" fill="#E82C2A"/>
<path d="M188.229 147.117C187.206 147.787 186.354 148.688 185.743 149.747C185.133 150.807 184.78 151.996 184.713 153.217V160.34C184.713 162.586 186.293 163.499 188.229 162.376L195.306 158.294C198.076 151.926 200.515 145.418 202.612 138.797L188.229 147.117Z" fill="#E82C2A"/>
<path d="M97.1188 210.794V203.671C97.1188 201.425 95.539 200.512 93.5939 201.635L61.0017 220.456C59.9745 221.123 59.1191 222.023 58.5051 223.083C57.891 224.143 57.5356 225.333 57.4677 226.556V233.679C57.4677 235.925 59.0475 236.839 60.9926 235.715L93.5847 216.894C94.612 216.227 95.4673 215.327 96.0814 214.267C96.6955 213.207 97.0509 212.017 97.1188 210.794Z" fill="#E82C2A"/>
<path d="M114.187 133.629L81.5853 152.45C80.5609 153.119 79.7087 154.019 79.0979 155.079C78.487 156.139 78.1347 157.328 78.0695 158.55V165.673C78.0695 167.919 79.6402 168.833 81.5853 167.709L114.187 148.888C115.221 148.22 116.082 147.317 116.699 146.252C117.317 145.186 117.673 143.99 117.739 142.761V135.638C117.739 133.419 116.132 132.505 114.187 133.629Z" fill="#E82C2A"/>
</g>
<path opacity="0.2" d="M267.011 227.314L91.6762 257.523C79.2019 259.577 68.006 257.751 58.801 252.445C42.7378 243.158 32.8113 223.268 32.8113 194.959C32.8113 138.341 72.572 69.4763 121.611 41.158C146.13 27.0034 168.33 25.6336 184.393 34.9391C193.58 40.2448 200.758 49.0206 205.224 60.8557L267.011 227.314Z" fill="#E82C2A"/>
<path opacity="0.2" d="M267.011 227.314L91.6762 257.523C79.2019 259.577 68.006 257.751 58.801 252.445C42.7378 243.158 32.8113 223.268 32.8113 194.959C32.8113 138.341 72.572 69.4763 121.611 41.158C146.13 27.0034 168.33 25.6336 184.393 34.9391C193.58 40.2448 200.758 49.0206 205.224 60.8557L267.011 227.314Z" fill="white"/>
<path d="M385.197 222.392L376.293 201.288C372.038 190.411 373.636 175.718 373.636 175.718C378.759 175.627 383.563 177.362 386.887 183.38C390.211 189.398 396.767 210.776 398.265 215.424C399.598 219.422 400.337 223.594 400.457 227.807C400.749 233.177 399.379 243.057 399.023 248.4C398.859 250.874 398.886 253.249 398.895 255.705C398.904 258.162 398.238 260.819 397.891 263.404C397.686 264.626 397.163 265.772 396.375 266.728C395.882 267.339 395.096 267.54 394.631 268.116C394.165 268.691 394.174 269.54 393.462 270.07C392.749 270.6 391.635 270.572 390.969 271.157C390.327 271.849 389.644 272.502 388.923 273.111C388.22 273.46 387.615 273.978 387.161 274.618C386.768 275.248 386.512 276.545 385.608 276.618C384.704 276.691 384.257 275.768 384.056 274.946C383.79 273.315 384.052 271.642 384.805 270.17C385.572 268.636 385.973 266.947 386.923 265.513C387.706 264.094 388.165 262.519 388.266 260.901C388.384 259.815 388.046 258.518 386.832 259.367C385.398 260.363 384.019 262.162 382.083 262.189C380.741 262.189 380.485 261.194 381.079 260.198C382.065 258.559 382.928 256.85 383.663 255.084C384.412 253.258 384.969 251.432 385.772 249.651C386.208 248.72 386.705 247.82 387.261 246.957C388.768 244.537 388.174 241.724 387.909 239.058C387.526 235.359 386.01 227.113 385.197 222.392Z" fill="#FFA8A7"/>
<path d="M372.768 174.878C379.992 175.417 384.028 176.896 387.882 184.01C391.736 191.124 396.877 208.274 398 211.808C399.457 216.072 400.378 220.502 400.74 224.994C400.945 227.568 400.963 230.153 400.795 232.729C400.795 232.729 399.817 234.62 394.037 234.62C388.256 234.62 386.549 233.606 386.549 233.606L384.722 222.574L372.851 196.384L372.768 174.878Z" fill="#455A64"/>
<path d="M288.507 368.449C287.923 368.193 287.439 369.673 287.594 370.495C288.014 372.878 290.334 376.038 294.37 378.421C298.407 380.805 307.392 382.421 310.022 383.161C312.652 383.9 316.716 386.677 319.154 387.928C323.629 390.211 327.282 389.946 329.309 388.932C329.664 388.708 329.968 388.413 330.204 388.066C330.44 387.718 330.601 387.326 330.679 386.914C331.209 385.088 331.172 384.695 330.971 384.64L288.507 368.449Z" fill="#263238"/>
<path d="M332.131 379.28C331.902 381.551 331.339 383.776 330.46 385.882C329.937 386.389 329.312 386.779 328.628 387.028C327.943 387.277 327.214 387.378 326.487 387.325C323.09 387.325 320.095 386.129 316.972 384.302C314.965 383.041 312.796 382.058 310.525 381.38C307.785 380.659 301.676 379.344 298.973 378.513C296.446 377.736 294.105 376.45 292.096 374.732C290.589 373.335 288.443 370.632 288.334 369.061C288.79 365.646 289.74 363.837 291.987 363.344C294.233 362.851 297.201 363.5 301.173 364.458C302.361 364.751 303.84 365.152 304.488 365.289C306.918 365.783 309.164 366.321 310.981 366.778C312.491 367.282 314.095 367.441 315.675 367.244C316.396 367.172 317.069 366.849 317.575 366.33C318.214 365.627 318.588 364.422 319.337 364.586C319.337 364.586 331.875 371.134 332.916 371.591C334.076 372.056 332.697 373.563 332.131 379.28Z" fill="#37474F"/>
<path d="M288.334 369.024C288.535 366.65 289.366 363.545 292.16 363.171C296.343 362.605 300.434 364.312 304.452 365.253L299.575 364.13C293.95 362.952 289.183 361.637 288.334 369.024Z" fill="white"/>
<path d="M303.466 364.796C302.957 364.976 302.493 365.262 302.105 365.636C301.685 366.042 301.315 366.496 301 366.988C300.607 367.609 301.393 368.011 301.977 367.335C302.428 366.763 302.946 366.248 303.52 365.801C303.928 365.496 304.427 365.338 304.936 365.353L305.63 365.499C305.621 364.942 304.087 364.668 303.466 364.796Z" fill="#FAFAFA"/>
<path d="M309.675 366.029C309.46 365.934 309.226 365.885 308.991 365.885C308.755 365.885 308.521 365.934 308.306 366.029C307.75 366.257 307.269 366.637 306.918 367.125C306.471 367.7 306.074 368.31 305.73 368.951C305.539 369.371 306.571 369.691 306.835 369.253C307.178 368.683 307.55 368.131 307.949 367.6C308.16 367.335 309.064 366.358 309.776 366.477L310.105 366.559C310.159 366.413 309.986 366.239 309.858 366.157L309.675 366.029Z" fill="#FAFAFA"/>
<path d="M313.228 367.061C312.909 367.023 312.588 367.094 312.315 367.262C311.963 367.515 311.655 367.824 311.401 368.175C310.981 368.781 310.652 369.446 310.424 370.148C310.233 370.705 311.337 370.887 311.456 370.522C311.743 369.53 312.288 368.632 313.036 367.919C313.37 367.612 313.775 367.392 314.214 367.28C314.214 367.171 314.077 367.107 313.967 367.088C313.858 367.07 313.392 367.061 313.228 367.061Z" fill="#FAFAFA"/>
<path d="M337.82 357.6C337.82 357.6 333.884 369.554 332.679 372.275C332.295 373.189 330.478 372.96 329.474 373.061C328.266 373.111 327.075 373.361 325.949 373.8C323.008 375.298 321.154 375.271 321.072 370.951C321.072 370.038 320.652 369.563 319.575 369.417C318.751 369.434 317.933 369.291 317.164 368.997C317.072 368.887 317.164 368.723 317.319 368.632C317.806 368.322 318.221 367.912 318.536 367.428C318.851 366.945 319.059 366.399 319.145 365.828C320.369 360.714 320.972 356.304 322.351 350.021L337.82 357.6Z" fill="#FFA8A7"/>
<path d="M347.336 239.359C347.336 239.359 341.318 246.564 337.683 260.052C334.389 272.577 331.882 285.295 330.177 298.133C329.309 303.877 328.67 307.968 327.108 318.424C325.812 327.127 320.095 359.518 320.095 359.518C320.095 359.518 324.287 363.171 327.812 364.486C331.099 365.728 334.14 366.221 335.346 365.728C335.346 365.728 339.391 355.336 344.395 341.729C346.811 335.496 348.737 329.084 350.158 322.552C350.815 319.182 350.66 313.191 350.596 310.169L377.499 268.618C379.671 266.045 381.371 263.108 382.522 259.943C386.056 251.066 381.544 238.263 381.544 238.263L347.336 239.359Z" fill="#263238"/>
<path d="M337.683 260.052C333.391 276.088 331.063 293.274 328.661 309.712C326.195 325.839 322.953 343.391 320.095 359.509C322.616 343.309 325.857 325.812 328.204 309.648C330.743 293.211 333.044 276.015 337.683 260.052Z" fill="white"/>
<path d="M373.81 251.03H340.77C339.538 253.964 338.507 256.978 337.683 260.052C334.615 271.585 332.261 283.296 330.633 295.119C331.437 300.525 332.341 306.077 333.19 309.895C335.409 319.94 336.788 327.099 338.551 331.254C340.313 335.41 344.523 341.3 344.541 341.3C346.889 335.181 348.766 328.892 350.158 322.488C350.815 319.118 350.66 313.127 350.596 310.105L370.138 279.969L371.654 270.609C376.65 262.463 376.093 256.363 373.81 251.03Z" fill="black"/>
<path d="M385.362 376.43C383.663 373.691 382.741 368.495 379.015 357.874L364.486 369.746L373.097 383.444C373.37 384.145 373.578 384.869 373.718 385.608C375.572 388.302 385.362 376.43 385.362 376.43Z" fill="#FFA8A7"/>
<path d="M390.485 382.22C390.485 382.065 390.549 380.786 390.485 380.631C390.119 379.252 389.27 378.869 388.174 378.102C387.076 377.359 386.066 376.495 385.161 375.526C384.795 375.015 384.722 374.75 384.156 374.522C383.418 374.291 382.639 374.224 381.873 374.325C381.106 374.426 380.371 374.693 379.718 375.106C376.577 376.75 375.618 378.759 375.8 380.896C375.937 382.531 376.074 384.713 374.622 385.69C374.02 386.101 373.07 383.48 373.07 383.48C372.157 384.969 373.435 387.042 374.084 390.074C374.461 391.748 374.492 393.482 374.175 395.169C373.855 397.827 373.49 397.818 372.074 398C370.86 398.165 367.408 397.936 365.308 399.397C364.508 399.864 363.874 400.57 363.494 401.414C363.114 402.259 363.008 403.201 363.189 404.11C363.563 405.132 366.714 410.091 378.202 408.237C381.535 407.698 388.539 402.457 388.439 401.973C388.38 401.472 388.38 400.966 388.439 400.466C388.439 399.288 388.521 398.11 388.576 396.941C388.533 395.817 388.6 394.691 388.777 393.58C388.989 392.68 389.129 391.764 389.197 390.841C389.416 388.476 389.644 386.12 389.864 383.763C389.982 383.042 390.576 382.932 390.485 382.22Z" fill="#37474F"/>
<path d="M391.937 381.754C393.069 382.85 392.375 386.037 390.859 389.855C390.183 391.544 388.932 394.466 389.297 397.562C389.663 400.658 389.727 402.128 388.932 403.58C387.681 405.854 380.996 408.767 377.061 409.68C379.441 406.341 380.828 402.396 381.06 398.302C381.462 391.462 381.974 387.051 385.115 384.01C389.069 380.193 391.937 381.754 391.937 381.754Z" fill="black"/>
<path d="M363.216 404.11C363.216 404.11 365.518 408.429 374.412 408.283C377.919 408.228 379.791 406.52 379.891 401.206C380.001 394.813 380.512 388.311 382.585 385.133C384.658 381.955 387.964 380.403 390.53 380.631C391.13 380.813 391.639 381.214 391.955 381.754C391.955 381.754 389.389 380.914 385.398 384.22C382.448 386.667 381.654 391.772 381.7 398.11C381.7 400.849 381.882 403.936 381.088 406.009C380.719 406.92 380.144 407.733 379.407 408.382C378.67 409.032 377.791 409.502 376.841 409.753C372.001 411.105 365.39 408.84 363.719 406.831C363.433 406.445 363.24 406 363.153 405.528C363.066 405.057 363.088 404.572 363.216 404.11Z" fill="#263238"/>
<path d="M373.901 396.841C373.54 397.095 373.284 397.471 373.179 397.9C373.139 398.447 373.248 398.995 373.494 399.485C373.74 399.975 374.114 400.39 374.577 400.685C375.115 401.023 375.581 400.904 374.732 399.772C374.188 398.891 373.9 397.876 373.901 396.841Z" fill="#FAFAFA"/>
<path d="M374.348 393.516C374.348 393.516 374.065 393.699 374.001 394.594C374.148 395.725 374.736 396.752 375.636 397.452C376.549 397.909 376.065 396.831 375.636 396.302C375.004 395.481 374.563 394.53 374.348 393.516Z" fill="#FAFAFA"/>
<path d="M374.065 389.855C374.065 389.855 373.755 389.937 374.065 391.16C374.497 391.933 375.18 392.536 376.001 392.868C376.604 392.941 376.914 392.64 376.156 392.101C375.59 391.681 374.175 390.448 374.065 389.855Z" fill="#FAFAFA"/>
<path d="M368.202 239.359C369.773 240.966 373.682 246.363 374.321 254.664C374.563 260.12 372.85 265.482 369.49 269.787C368.23 288.197 367.034 322.953 367.034 322.953C371.307 328.99 372.394 332.862 375.207 341.838C376.914 347.318 382.832 368.924 382.832 368.924C374.175 370.23 368.915 377.837 368.915 377.837C368.915 377.837 356.915 358.504 348.934 345.053C343.089 335.209 341.08 330.971 339.126 325.392C337.3 320.259 336.021 314.05 334.268 302.069C332.515 290.087 330.798 274.316 329.939 262.518C329.081 250.719 329.574 238.4 329.574 238.4L368.202 239.359Z" fill="#263238"/>
<path d="M368.915 377.837C364.778 371.289 356.605 358.093 352.596 351.473C347.345 342.587 341.491 333.875 338.441 323.912C336.005 313.855 334.175 303.661 332.962 293.384C331.674 283.129 330.652 272.837 329.967 262.518C330.387 267.668 330.883 272.813 331.455 277.951C333.09 293.347 335.108 308.781 338.907 323.794C341.884 333.702 347.692 342.45 352.879 351.317L368.942 377.8L368.915 377.837Z" fill="white"/>
<path d="M383.809 253.788C382.401 253.333 381.168 252.456 380.275 251.276C379.851 250.455 379.544 249.579 379.362 248.674C378.996 247.16 378.497 245.681 377.873 244.254L376.96 244.656C377.554 246.038 378.031 247.467 378.385 248.929C378.588 249.933 378.936 250.902 379.417 251.806C380.484 253.245 381.995 254.291 383.718 254.783C383.754 254.454 383.791 254.171 383.809 253.788Z" fill="black"/>
<path d="M360.166 264.335C360.381 264.336 360.595 264.315 360.806 264.271C362.248 263.952 363.372 262.984 365.609 260.125C367.308 257.943 367.134 256.381 366.851 253.788C366.741 252.829 365.737 247.742 365.682 246.4L364.723 246.929C364.787 248.308 365.755 252.929 365.856 253.897C366.148 256.472 366.276 257.65 364.824 259.504C362.751 262.153 361.764 263.038 360.586 263.303C359.408 263.568 354.395 262.719 353.043 261.787C352.267 261.248 350.97 254.6 350.203 248.738L349.217 248.875C349.601 251.833 350.97 261.568 352.477 262.573C353.82 263.531 358.157 264.39 360.166 264.335Z" fill="black"/>
<path d="M350.514 169.508L352.331 182.823L370.422 181.9L368.467 167.481L350.514 169.508Z" fill="#FFA8A7"/>
<path d="M343.3 144.587C341.912 146.35 337.656 151.153 336.907 152.413L340.962 154.87L343.3 144.587Z" fill="#F28F8F"/>
<path d="M343.3 144.587C341.345 147.335 339.209 149.949 336.907 152.413C338.721 149.561 340.867 146.934 343.3 144.587Z" fill="white"/>
<path d="M353.345 131.209C347.756 130.606 344.131 134.569 342.505 146.468C342.441 146.934 341.756 147.665 341.236 149.445C338.989 157.08 340.24 164.349 341.537 166.285C344.779 168.887 348.377 169.864 353.591 169.417C357.564 169.079 367.7 167.874 372.851 162.504C378.896 156.194 381.983 146.669 377.654 141.738C371.609 134.788 356.45 131.537 353.345 131.209Z" fill="#FFA8A7"/>
<path d="M353.345 131.209C344.943 130.505 343.784 140.77 342.578 146.934C340.286 151.272 339.939 156.486 340.295 161.317C340.38 163.038 340.802 164.726 341.537 166.285C340.734 164.748 340.234 163.07 340.067 161.344C339.555 156.45 339.875 151.162 342.176 146.733C343.281 140.542 344.916 130.104 353.345 131.209Z" fill="white"/>
<path d="M341.555 166.285C342.268 167.353 347.391 169.983 350.605 170.184L350.304 167.682C347.339 167.605 344.397 167.136 341.555 166.285Z" fill="#F28F8F"/>
<path d="M352.258 152.057C352.313 152.248 352.42 152.42 352.569 152.552C352.717 152.684 352.9 152.772 353.096 152.804C353.292 152.837 353.493 152.813 353.676 152.736C353.859 152.658 354.017 152.531 354.13 152.368C354.719 151.506 355.402 150.712 356.167 150.002C357.138 149.202 358.37 148.786 359.628 148.833C364.321 149.19 363.171 155.372 360.869 157.527C357.098 161.043 355.098 158.002 355.098 158.002C355.098 158.002 352.358 163.983 356.331 167.481C356.331 167.481 363.143 170.422 368.495 168.759C372.495 164.449 375.17 161.728 377.864 158.02C384.257 149.235 384.257 140.542 380.156 138.058C380.385 134.944 378.704 130.25 372.294 127.547C366.193 124.962 362.111 125.218 357.682 125.465C353.253 125.711 347.847 127.729 343.747 124.305C343.245 125.542 343.045 126.88 343.165 128.209C343.284 129.539 343.718 130.821 344.432 131.948C343.769 131.63 343.008 131.588 342.314 131.831C341.62 132.074 341.052 132.583 340.733 133.245C340.415 133.908 340.373 134.669 340.616 135.363C340.859 136.057 341.368 136.625 342.03 136.944C341.592 137.194 341.254 137.588 341.073 138.059C340.891 138.529 340.878 139.048 341.035 139.528C341.216 139.999 341.528 140.408 341.934 140.707C342.341 141.006 342.824 141.183 343.327 141.217C344.244 141.271 345.164 141.213 346.067 141.044C347.354 144.642 351.418 145.902 353.838 145.756C353.774 145.756 353.454 146.249 353.409 146.313C353.272 146.514 353.144 146.724 353.025 146.934C352.794 147.364 352.601 147.813 352.45 148.276C352.151 149.21 352.037 150.194 352.112 151.171C352.109 151.473 352.158 151.773 352.258 152.057Z" fill="#455A64"/>
<path d="M343.765 124.305C343.288 125.542 343.107 126.874 343.239 128.194C343.371 129.514 343.811 130.784 344.523 131.903L344.679 132.14L344.414 132.021C343.776 131.739 343.053 131.717 342.398 131.959C341.744 132.201 341.209 132.688 340.907 133.317C340.606 133.946 340.561 134.668 340.783 135.33C341.004 135.991 341.475 136.541 342.094 136.861L342.259 136.944L342.094 137.026C339.802 138.487 341.482 141.4 343.921 141.208C344.654 141.213 345.387 141.158 346.112 141.044C345.031 141.294 343.913 141.341 342.816 141.181C340.788 140.733 340.076 137.93 342.003 136.861V137.026C341.319 136.699 340.792 136.113 340.54 135.398C340.287 134.683 340.329 133.897 340.656 133.213C340.983 132.529 341.568 132.003 342.283 131.75C342.998 131.497 343.784 131.539 344.469 131.866L344.368 131.994C343.651 130.858 343.221 129.564 343.115 128.225C343.008 126.886 343.228 125.54 343.756 124.305H343.765Z" fill="white"/>
<path d="M377.791 176.896C382.485 179.526 386.056 188.293 385.709 195.608C385.489 200.247 383.882 212.2 382.476 222.775C382.037 226.108 383.389 231.734 383.973 238.491C384.43 243.505 384.494 248.838 384.494 248.838C384.494 248.838 378.202 256.619 360.943 257.632C338.898 258.938 329.136 253.605 329.136 253.605C329.136 253.605 329.008 235.651 329.538 221.424C330.323 200.338 330.369 194.174 333.665 186.987C334.752 184.868 335.893 180.147 339.482 179.207C342.332 178.467 348.888 176.896 351.491 176.467C355.746 177.563 366.796 177.654 369.536 175.325L369.49 174.714C374.23 174.723 374.896 175.28 377.791 176.896Z" fill="#E82C2A"/>
<path d="M259.705 230.848C260.427 231.012 261.395 230.638 262.445 229.716C264.575 227.683 266.005 225.025 266.527 222.127C266.718 220.748 266.527 219.734 265.97 219.223L261.65 215.086C261.05 214.602 260.319 214.309 259.551 214.244C258.783 214.178 258.013 214.345 257.34 214.721C253.687 216.602 250.783 222.026 251.203 226.118C251.395 227.953 259.285 230.748 259.705 230.848Z" fill="#455A64"/>
<path d="M266.298 221.707C266.427 221.125 266.363 220.517 266.115 219.975C265.867 219.433 265.449 218.986 264.924 218.703C264.399 218.42 263.797 218.316 263.208 218.407C262.618 218.497 262.075 218.777 261.659 219.205C260.355 220.111 259.283 221.311 258.529 222.709C257.776 224.107 257.362 225.663 257.322 227.25C257.189 227.834 257.252 228.445 257.5 228.99C257.748 229.535 258.168 229.983 258.695 230.267C259.222 230.551 259.828 230.654 260.419 230.561C261.011 230.468 261.555 230.184 261.97 229.752C263.276 228.849 264.349 227.649 265.102 226.25C265.854 224.852 266.264 223.295 266.298 221.707Z" fill="#263238"/>
<path d="M288.946 243.405C289.26 243.528 289.6 243.569 289.935 243.522C290.269 243.476 290.586 243.344 290.854 243.14C291.609 242.613 292.23 241.916 292.666 241.106C293.103 240.295 293.342 239.393 293.366 238.473C293.389 238.137 293.324 237.8 293.178 237.496C293.033 237.192 292.811 236.931 292.535 236.738L265.029 221.049C264.621 220.837 264.167 220.731 263.707 220.74C263.247 220.75 262.798 220.875 262.399 221.104C261.384 221.658 260.552 222.495 260.004 223.513C259.456 224.531 259.215 225.687 259.312 226.839C259.342 227.297 259.486 227.74 259.732 228.128C259.978 228.516 260.317 228.836 260.719 229.058L288.946 243.405Z" fill="#455A64"/>
<path d="M293.366 238.473C293.389 238.137 293.324 237.8 293.178 237.496C293.033 237.192 292.811 236.931 292.535 236.738C292.23 236.593 291.892 236.535 291.557 236.57C291.221 236.606 290.902 236.733 290.635 236.939C289.853 237.464 289.211 238.172 288.764 239.001C288.317 239.83 288.078 240.755 288.069 241.697C288.046 242.038 288.119 242.38 288.281 242.682C288.442 242.984 288.685 243.234 288.982 243.404C289.296 243.528 289.637 243.569 289.971 243.522C290.306 243.476 290.622 243.344 290.891 243.14C291.639 242.609 292.253 241.911 292.683 241.1C293.112 240.29 293.346 239.39 293.366 238.473Z" fill="#263238"/>
<path d="M323.437 234.4C325.921 233.569 327.757 230.693 331.318 223.278C335.775 214.054 338.176 211.972 341.446 202.53C344.185 195.617 340.533 182.868 338.871 180.211C333.309 182.193 329.428 184.028 325.675 191.827C322.305 198.84 315.557 212.995 312.479 219.223C312.479 219.223 294.571 223.086 289.759 223.405C287.892 223.57 286.015 223.22 284.334 222.392C283.329 221.876 282.213 221.613 281.083 221.625C280.64 221.609 280.197 221.674 279.777 221.816C278.992 222.197 278.295 222.738 277.732 223.405C276.532 224.395 275.272 225.31 273.96 226.145C272.508 227.232 270.801 227.971 269.33 229.076C268.07 229.99 266.682 230.784 265.888 232.19C265.74 232.417 265.64 232.672 265.595 232.939C265.571 233.171 265.598 233.406 265.674 233.627C265.749 233.848 265.872 234.049 266.034 234.218C266.361 234.556 266.77 234.805 267.221 234.939C267.86 235.049 268.476 235.262 269.047 235.569C269.641 236.008 269.686 236.875 270.225 237.396C271.065 238.19 272.444 238.071 273.403 238.729C274.143 239.24 274.554 240.172 275.348 240.555C275.781 240.747 276.245 240.858 276.718 240.884C277.558 240.966 278.389 241.222 279.229 241.222C280.234 241.222 280.672 240.747 281.503 240.309C284.371 238.711 285.923 236.793 290.991 236.455C294.379 236.236 320.954 235.231 323.437 234.4Z" fill="#FFA8A7"/>
<path d="M339.409 179.207C333.355 180.649 329.775 182.859 325.793 190.165C322.141 196.932 312.095 218.556 312.095 218.556L302.05 221.378C301.249 222.549 300.698 223.873 300.431 225.267C300.164 226.66 300.187 228.094 300.498 229.478C301.457 234.172 303.539 236.282 303.539 236.282C303.539 236.282 308.662 236.135 317.392 235.834C326.122 235.533 326.752 233.515 328.67 229.716C330.588 225.917 342.368 202.995 342.368 202.995C342.368 202.995 347.135 186.046 339.409 179.207Z" fill="#455A64"/>
<path d="M351.518 176.549C347.445 177.298 343.427 178.376 339.428 179.38C336.413 179.975 333.591 181.302 331.209 183.243C327.337 186.722 325.282 191.644 322.99 196.21C319.337 203.644 315.913 211.169 312.397 218.657V218.748H312.296L302.251 221.542C297.375 222.282 292.206 223.917 287.256 223.46C285.549 223.305 284.115 222.2 282.49 221.88C281.682 221.711 280.849 221.711 280.042 221.88C279.279 222.185 278.605 222.674 278.079 223.305C275.549 225.57 272.526 227.113 269.705 228.912C268.381 229.907 266.81 230.738 265.961 232.2C266.792 230.702 268.353 229.862 269.613 228.848C272.399 227.022 275.412 225.387 277.832 223.141C278.382 222.475 279.092 221.959 279.896 221.643C280.739 221.465 281.61 221.465 282.453 221.643C284.124 221.953 285.503 223.04 287.211 223.195C292.16 223.606 297.256 221.972 302.078 221.196L312.068 218.355L311.931 218.474C315.371 210.943 318.923 203.467 322.588 196.046C324.935 191.48 327.035 186.521 330.962 183.033C333.402 181.004 336.347 179.676 339.482 179.188C342.98 178.211 347.573 177.225 351.482 176.54L351.518 176.549Z" fill="white"/>
<path opacity="0.3" d="M335.546 309.876C331.383 325.448 328.331 341.295 326.414 357.299C325.793 362.477 325.008 368.212 320.999 371.536C317.922 374.084 313.694 374.558 309.694 374.851C302.224 375.38 294.124 375.426 287.859 371.517C288.663 373.736 290.845 376.376 294.361 378.439C298.434 380.823 307.383 382.439 310.022 383.179C312.662 383.919 316.707 386.686 319.154 387.946C323.629 390.229 327.282 389.964 329.318 388.95C329.671 388.723 329.974 388.426 330.208 388.077C330.442 387.729 330.603 387.336 330.679 386.923C331.218 385.097 331.172 384.704 330.971 384.658C331.549 382.907 331.947 381.102 332.158 379.27C332.697 373.791 333.985 372.193 333.017 371.609C333.537 370.294 334.323 368.084 335.108 365.81C335.195 365.791 335.28 365.767 335.364 365.737C335.364 365.737 339.409 355.345 344.423 341.747C344.761 340.834 345.08 339.921 345.391 339.062C341.994 333.245 340.259 329.812 339.144 325.41C338.03 321.008 336.825 316.808 335.546 309.876ZM400.703 224.949C400.347 220.457 399.442 216.025 398.009 211.753C396.877 208.219 391.736 191.023 387.882 183.955C384.028 176.887 379.992 175.398 372.768 174.823C371.68 174.706 370.585 174.66 369.49 174.686C369.49 174.686 369.49 175.033 369.49 175.207L368.577 168.568C372.504 164.34 375.161 161.627 377.818 157.965C384.211 149.171 384.211 140.487 380.111 138.003C380.348 134.88 378.659 130.195 372.257 127.492C370.21 126.604 368.064 125.966 365.865 125.592C363.712 125.844 361.59 126.306 359.527 126.971C356.687 127.885 353.865 129.282 352.057 131.656C350.486 133.738 349.838 136.35 349.226 138.88C347.263 146.998 345.299 155.271 345.948 163.591C345.978 165.011 346.328 166.406 346.971 167.673C347.377 168.311 347.909 168.86 348.533 169.287C349.158 169.714 349.863 170.01 350.605 170.157C350.605 170.157 354.541 170.412 356.513 170.449C356.787 172.129 357.18 174.65 357.427 176.33C357.577 176.887 357.552 177.477 357.354 178.019C357.144 178.326 356.874 178.588 356.56 178.787C356.246 178.987 355.894 179.12 355.527 179.179C348.386 181.142 340.058 181.316 335.035 186.759C333.267 188.896 331.849 191.3 330.834 193.882L322.999 211.132C321.3 214.885 319.483 218.785 316.241 221.323C310.388 225.889 302.032 224.666 294.818 226.446C289.585 227.743 284.928 230.656 279.75 232.099C278.563 232.437 277.375 232.757 276.17 233.012C274.965 233.268 273.631 233.149 272.371 233.341C271.891 233.39 271.438 233.588 271.076 233.907C270.714 234.227 270.461 234.651 270.353 235.122C270.32 235.624 270.405 236.128 270.6 236.592C270.846 237.206 271.26 237.738 271.796 238.126C272.356 238.235 272.894 238.439 273.385 238.729C274.134 239.24 274.535 240.172 275.33 240.555C275.762 240.748 276.227 240.857 276.7 240.875C277.529 241.037 278.368 241.15 279.211 241.213C280.216 241.213 280.654 240.738 281.485 240.3L282.133 239.916C284.617 238.409 286.307 236.747 290.982 236.437L291.95 236.382C294.069 236.272 298.443 236.081 303.292 235.852C303.493 236.099 303.612 236.218 303.612 236.218C303.612 236.218 308.735 236.081 317.465 235.779C326.195 235.478 326.825 233.451 328.743 229.661L329.328 228.51V228.602C332.131 223.122 337.117 213.324 338.761 210.118C338.761 210.118 338.158 236.601 338.222 248.098C338.341 269.531 341.701 290.79 345.044 311.958C345.875 317.164 348.085 322.113 349.938 327.072C351.984 332.551 354.093 338.03 356.331 343.418C360.677 354.101 365.939 364.389 372.056 374.166C373.525 376.218 374.75 378.434 375.709 380.768C376.86 384.065 376.796 387.645 376.686 391.124C376.757 393.992 376.34 396.851 375.453 399.58C373.627 404.457 367.28 404.922 363.335 402.046C363.12 402.719 363.085 403.437 363.235 404.128C363.103 404.591 363.078 405.079 363.162 405.553C363.246 406.028 363.436 406.477 363.719 406.867C365.39 408.913 372.001 411.15 376.841 409.79L377.079 409.717C381.015 408.803 387.699 405.899 388.95 403.626C389.754 402.174 389.69 400.703 389.316 397.608C388.941 394.512 390.229 391.59 390.877 389.891C392.402 386.074 393.087 382.896 391.955 381.791C391.638 381.251 391.129 380.85 390.53 380.668C390.165 379.298 389.316 378.914 388.229 378.147C387.124 377.407 386.109 376.539 385.206 375.563C385.03 375.242 384.795 374.956 384.512 374.723C383.928 373.316 383.362 371.454 382.622 369.015H382.859C382.859 369.015 376.914 347.318 375.207 341.838C372.394 332.862 371.307 328.99 367.034 322.953C367.034 322.953 367.81 300.443 368.769 282.06L377.499 268.572C379.195 266.595 380.586 264.376 381.627 261.988C381.598 262.038 381.574 262.09 381.553 262.143C381.725 262.194 381.904 262.216 382.083 262.207C384.019 262.207 385.398 260.381 386.832 259.385C386.953 259.275 387.101 259.197 387.26 259.159C387.42 259.121 387.587 259.123 387.745 259.166L387.845 259.102C389.389 258.363 389.48 261.842 389.453 262.582C389.326 264.34 388.9 266.063 388.192 267.677C387.115 270.362 385.754 273.065 385.882 275.951C385.882 276.152 385.909 276.351 385.964 276.545C386.603 276.225 386.877 275.184 387.179 274.636C387.638 274.001 388.242 273.484 388.941 273.129C389.664 272.526 390.348 271.876 390.987 271.184C391.663 270.6 392.704 270.691 393.489 270.097C394.274 269.504 394.156 268.746 394.649 268.143C395.142 267.54 395.9 267.367 396.402 266.746C397.188 265.79 397.707 264.643 397.909 263.422C398.256 260.838 398.923 258.335 398.913 255.733C398.904 253.13 398.913 250.865 399.05 248.427C399.297 244.564 400.082 238.327 400.393 233.14C400.543 233.025 400.67 232.882 400.767 232.72C400.932 230.131 400.911 227.534 400.703 224.949ZM391.005 245.103C390.475 247.066 388.96 248.564 387.8 250.226C385.48 253.55 384.521 257.687 382.101 260.947C382.247 260.6 382.403 260.244 382.549 259.869C383.703 256.579 384.127 253.076 383.791 249.605C384.043 249.379 384.278 249.135 384.494 248.875C384.494 248.875 384.43 243.541 383.973 238.537C383.362 231.77 382.037 226.154 382.476 222.821C382.996 218.858 383.553 214.693 384.046 210.794C385.45 213.563 386.67 216.422 387.699 219.351C390.165 226.519 390.777 234.154 391.169 241.669C391.294 242.819 391.239 243.98 391.005 245.112V245.103Z" fill="black"/>
<path d="M79.2252 161.491C79.2436 162.233 79.1499 162.981 78.9442 163.736C78.7426 164.488 78.4465 165.204 78.056 165.885C77.6697 166.562 77.1989 167.187 76.6436 167.758C76.0882 168.324 75.4681 168.793 74.7832 169.165C74.0983 169.537 73.4717 169.745 72.9034 169.789C72.3349 169.828 71.844 169.725 71.4306 169.482C71.0173 169.238 70.692 168.859 70.4548 168.345C70.2217 167.829 70.096 167.199 70.0776 166.458C70.0592 165.716 70.1509 164.971 70.3526 164.223C70.5584 163.469 70.8565 162.751 71.2469 162.071C71.6374 161.391 72.1103 160.768 72.6657 160.202C73.221 159.631 73.8411 159.159 74.5259 158.787C75.2108 158.415 75.8375 158.21 76.406 158.171C76.9743 158.127 77.4631 158.23 77.8725 158.481C78.2859 158.724 78.6091 159.104 78.8422 159.621C79.0793 160.131 79.2069 160.754 79.2252 161.491ZM77.3366 162.516C77.3235 161.985 77.2501 161.542 77.1167 161.189C76.9831 160.831 76.7958 160.569 76.5548 160.402C76.3177 160.228 76.0312 160.154 75.6952 160.181C75.3631 160.2 74.988 160.324 74.5697 160.551C74.1513 160.778 73.7781 161.061 73.4498 161.4C73.1214 161.734 72.844 162.114 72.6177 162.54C72.3953 162.958 72.2279 163.413 72.1153 163.905C72.0027 164.391 71.953 164.9 71.9662 165.432C71.9795 165.969 72.0529 166.416 72.1865 166.774C72.3199 167.127 72.5051 167.388 72.7421 167.557C72.9831 167.724 73.2717 167.797 73.6078 167.775C73.9438 167.749 74.321 167.622 74.7393 167.395C75.1576 167.167 75.5289 166.888 75.8532 166.556C76.1815 166.217 76.4568 165.838 76.6792 165.419C76.9056 164.999 77.0752 164.545 77.1878 164.058C77.3003 163.567 77.3499 163.053 77.3366 162.516ZM83.072 157.126C83.5478 156.867 83.9826 156.719 84.3765 156.68C84.7703 156.641 85.1107 156.707 85.3976 156.877C85.6843 157.043 85.9092 157.313 86.0723 157.688C86.2354 158.063 86.324 158.537 86.3383 159.111C86.3525 159.685 86.2894 160.244 86.1491 160.788C86.0087 161.328 85.8031 161.834 85.5322 162.308C85.2613 162.781 84.9332 163.21 84.5478 163.594C84.1625 163.978 83.732 164.299 83.2563 164.557C82.7764 164.818 82.3375 164.969 81.9395 165.01C81.5456 165.049 81.2053 164.983 80.9184 164.813C80.6315 164.642 80.4045 164.371 80.2373 163.998C80.0742 163.619 79.9854 163.142 79.9712 162.568C79.957 161.994 80.0201 161.438 80.1605 160.898C80.305 160.356 80.5128 159.851 80.7838 159.382C81.0547 158.909 81.3828 158.48 81.7681 158.096C82.1576 157.71 82.5922 157.386 83.072 157.126ZM83.2203 163.109C83.7043 162.846 84.0584 162.462 84.2828 161.958C84.5071 161.448 84.61 160.818 84.5913 160.067C84.5728 159.32 84.442 158.822 84.1989 158.571C83.9556 158.315 83.592 158.319 83.1081 158.581C82.6119 158.851 82.2516 159.24 82.0273 159.75C81.8029 160.254 81.7 160.88 81.7185 161.627C81.7371 162.378 81.868 162.881 82.1113 163.137C82.3544 163.388 82.7241 163.378 83.2203 163.109ZM89.1447 159.325C89.3098 159.448 89.4857 159.501 89.6724 159.485C89.8631 159.467 90.0651 159.4 90.2784 159.284C90.4834 159.172 90.6689 159.027 90.8349 158.847C91.0008 158.667 91.141 158.451 91.2553 158.2C91.3736 157.942 91.4619 157.648 91.5202 157.319C91.5785 156.989 91.6027 156.622 91.5926 156.216C91.5827 155.814 91.5455 155.49 91.4812 155.241C91.4209 154.99 91.3374 154.806 91.2306 154.689C91.1279 154.57 91.0038 154.512 90.8584 154.515C90.7129 154.514 90.552 154.561 90.3756 154.657C90.0763 154.819 89.8257 155.024 89.624 155.27C89.4263 155.51 89.2404 155.807 89.0663 156.162L89.1447 159.325ZM88.938 155.012C89.0612 154.784 89.193 154.566 89.3333 154.357C89.4735 154.144 89.6244 153.946 89.7862 153.764C89.9478 153.577 90.1223 153.407 90.3097 153.253C90.4969 153.094 90.7013 152.955 90.9228 152.835C91.2631 152.65 91.5769 152.565 91.8641 152.579C92.1552 152.586 92.4072 152.693 92.6201 152.899C92.8329 153.1 93.0024 153.398 93.1286 153.793C93.2548 154.188 93.3251 154.679 93.3397 155.267C93.3531 155.808 93.2999 156.345 93.1801 156.879C93.0643 157.405 92.8917 157.9 92.6621 158.365C92.4326 158.83 92.152 159.25 91.8205 159.624C91.4929 159.991 91.1241 160.286 90.714 160.508C90.3695 160.695 90.0748 160.796 89.8299 160.811C89.5892 160.823 89.372 160.781 89.1784 160.682L89.2496 163.559L87.5518 164.48L87.3152 154.935L88.361 154.368C88.5742 154.252 88.7185 154.287 88.7938 154.473L88.938 155.012ZM98.324 150.462C98.2809 150.565 98.2351 150.649 98.1869 150.713C98.1426 150.771 98.0794 150.821 97.9974 150.866C97.9153 150.91 97.8307 150.933 97.7434 150.933C97.6561 150.933 97.5585 150.936 97.4506 150.943C97.3426 150.945 97.2183 150.96 97.0777 150.989C96.9412 151.016 96.7828 151.079 96.6023 151.177C96.3275 151.326 96.1159 151.507 95.9674 151.72C95.8188 151.928 95.7471 152.137 95.7523 152.347C95.7558 152.492 95.8019 152.59 95.8905 152.641C95.979 152.692 96.0939 152.717 96.2352 152.716C96.3805 152.708 96.5442 152.688 96.7262 152.655C96.9082 152.618 97.0944 152.585 97.2849 152.558C97.4795 152.528 97.6683 152.513 97.8512 152.513C98.034 152.513 98.197 152.549 98.3402 152.623C98.4873 152.69 98.6065 152.805 98.6979 152.968C98.7891 153.126 98.8383 153.352 98.8456 153.646C98.8543 153.996 98.8049 154.352 98.6975 154.713C98.594 155.067 98.4363 155.41 98.2242 155.743C98.0122 156.075 97.7457 156.39 97.4247 156.687C97.1037 156.985 96.732 157.248 96.3096 157.477C96.0922 157.595 95.8764 157.689 95.6619 157.758C95.4476 157.832 95.2431 157.881 95.0484 157.907C94.8536 157.927 94.6708 157.93 94.4999 157.914C94.3291 157.898 94.1807 157.86 94.0545 157.801L94.4303 156.866C94.4734 156.758 94.5271 156.663 94.5916 156.58C94.6601 156.496 94.7477 156.425 94.8544 156.367C94.9569 156.311 95.052 156.29 95.1396 156.304C95.2271 156.313 95.3251 156.324 95.4334 156.336C95.5417 156.343 95.6683 156.338 95.8134 156.321C95.9624 156.297 96.1456 156.226 96.3629 156.108C96.527 156.019 96.668 155.921 96.7858 155.814C96.9037 155.708 96.9987 155.6 97.0708 155.489C97.1428 155.375 97.1941 155.264 97.2247 155.158C97.2593 155.044 97.2754 154.939 97.2729 154.841C97.269 154.682 97.2207 154.578 97.1281 154.529C97.0394 154.473 96.9224 154.447 96.777 154.45C96.6357 154.451 96.472 154.472 96.286 154.511C96.0999 154.551 95.9096 154.586 95.715 154.616C95.5245 154.644 95.3357 154.656 95.1486 154.654C94.9656 154.649 94.8004 154.609 94.653 154.533C94.5097 154.45 94.39 154.319 94.2942 154.139C94.2024 153.957 94.1524 153.703 94.1443 153.376C94.1369 153.078 94.1812 152.768 94.2771 152.446C94.3729 152.12 94.5208 151.798 94.7208 151.482C94.9208 151.165 95.171 150.864 95.4715 150.578C95.7761 150.289 96.1293 150.036 96.5312 149.818C96.9823 149.573 97.3945 149.434 97.7678 149.402C98.1411 149.369 98.45 149.424 98.6946 149.565L98.324 150.462ZM100.002 157.103C99.956 157.086 99.9222 157.062 99.9006 157.031C99.8832 156.998 99.8737 156.951 99.8722 156.89C99.8712 156.848 99.8823 156.795 99.9056 156.73C99.9332 156.668 99.9649 156.606 100.001 156.544C100.045 156.463 100.098 156.363 100.162 156.244C100.225 156.129 100.289 156.002 100.352 155.864C100.415 155.73 100.472 155.588 100.522 155.438C100.576 155.286 100.616 155.134 100.642 154.983C100.506 155.052 100.382 155.086 100.27 155.086C100.158 155.085 100.062 155.057 99.9812 155.001C99.9009 154.946 99.8365 154.865 99.7882 154.759C99.7438 154.646 99.7197 154.512 99.7159 154.358C99.7125 154.218 99.7318 154.075 99.7739 153.93C99.816 153.784 99.8769 153.644 99.9568 153.511C100.041 153.376 100.139 153.251 100.253 153.138C100.371 153.022 100.501 152.925 100.645 152.847C100.813 152.756 100.959 152.711 101.084 152.715C101.213 152.711 101.32 152.743 101.405 152.81C101.489 152.878 101.554 152.977 101.599 153.109C101.644 153.236 101.668 153.383 101.672 153.551C101.678 153.78 101.653 154.039 101.598 154.329C101.543 154.615 101.457 154.919 101.34 155.242C101.223 155.566 101.078 155.898 100.903 156.238C100.733 156.581 100.534 156.916 100.305 157.244L100.002 157.103ZM110.659 141.254C110.604 141.392 110.546 141.504 110.486 141.589C110.43 141.667 110.354 141.731 110.26 141.782C110.17 141.831 110.071 141.85 109.962 141.838C109.858 141.819 109.735 141.805 109.593 141.797C109.452 141.789 109.29 141.798 109.108 141.826C108.926 141.85 108.713 141.927 108.471 142.058C108.045 142.29 107.728 142.573 107.52 142.908C107.312 143.239 107.212 143.579 107.221 143.929C107.227 144.153 107.289 144.308 107.407 144.395C107.53 144.475 107.687 144.518 107.878 144.523C108.073 144.525 108.293 144.503 108.537 144.455C108.781 144.408 109.032 144.367 109.288 144.331C109.545 144.291 109.796 144.273 110.041 144.277C110.287 144.281 110.506 144.334 110.7 144.437C110.898 144.538 111.058 144.706 111.18 144.942C111.306 145.172 111.375 145.499 111.385 145.923C111.397 146.385 111.336 146.858 111.202 147.342C111.073 147.818 110.878 148.281 110.619 148.729C110.36 149.172 110.036 149.587 109.646 149.973C109.261 150.358 108.82 150.684 108.324 150.954C108.041 151.107 107.757 151.228 107.473 151.317C107.192 151.403 106.919 151.459 106.654 151.485C106.393 151.508 106.145 151.501 105.911 151.462C105.678 151.424 105.472 151.351 105.295 151.244L105.812 149.956C105.855 149.857 105.913 149.764 105.986 149.677C106.058 149.586 106.136 149.518 106.218 149.474C106.328 149.413 106.446 149.397 106.572 149.423C106.697 149.45 106.841 149.475 107.004 149.501C107.166 149.526 107.354 149.528 107.565 149.508C107.781 149.485 108.036 149.394 108.331 149.234C108.762 149 109.091 148.707 109.32 148.357C109.552 148.004 109.663 147.605 109.652 147.162C109.645 146.906 109.581 146.73 109.458 146.636C109.339 146.54 109.184 146.489 108.993 146.485C108.801 146.48 108.584 146.506 108.34 146.562C108.096 146.614 107.846 146.663 107.589 146.708C107.333 146.752 107.082 146.775 106.836 146.776C106.591 146.777 106.372 146.721 106.178 146.609C105.984 146.497 105.823 146.314 105.697 146.061C105.574 145.807 105.507 145.444 105.495 144.972C105.486 144.594 105.542 144.193 105.665 143.767C105.787 143.341 105.972 142.921 106.219 142.508C106.467 142.095 106.773 141.704 107.138 141.336C107.507 140.965 107.932 140.65 108.411 140.389C108.949 140.097 109.447 139.923 109.907 139.868C110.371 139.805 110.765 139.856 111.089 140.02L110.659 141.254ZM115.236 139.662C115.712 139.404 116.147 139.255 116.541 139.216C116.935 139.177 117.275 139.243 117.562 139.413C117.849 139.579 118.074 139.85 118.237 140.224C118.4 140.599 118.488 141.073 118.503 141.647C118.517 142.221 118.454 142.78 118.314 143.324C118.173 143.864 117.967 144.37 117.697 144.844C117.426 145.317 117.098 145.746 116.712 146.13C116.327 146.514 115.896 146.835 115.421 147.094C114.941 147.354 114.502 147.505 114.104 147.546C113.71 147.585 113.37 147.519 113.083 147.349C112.796 147.178 112.569 146.907 112.402 146.534C112.239 146.155 112.15 145.678 112.136 145.104C112.121 144.53 112.184 143.974 112.325 143.434C112.469 142.892 112.677 142.387 112.948 141.919C113.219 141.445 113.547 141.016 113.932 140.632C114.322 140.246 114.757 139.922 115.236 139.662ZM115.385 145.645C115.869 145.382 116.223 144.999 116.447 144.494C116.671 143.984 116.774 143.354 116.756 142.603C116.737 141.856 116.606 141.358 116.363 141.107C116.12 140.851 115.756 140.855 115.272 141.117C114.776 141.387 114.416 141.776 114.192 142.286C113.967 142.791 113.864 143.416 113.883 144.163C113.901 144.914 114.032 145.417 114.276 145.673C114.519 145.924 114.888 145.915 115.385 145.645ZM119.658 144.686L119.48 137.472L120.525 136.904C120.739 136.788 120.883 136.823 120.958 137.009L121.068 137.425C121.176 137.234 121.285 137.051 121.397 136.877C121.514 136.7 121.638 136.536 121.772 136.383C121.905 136.226 122.049 136.081 122.204 135.95C122.362 135.816 122.534 135.7 122.719 135.599C123.108 135.388 123.433 135.332 123.693 135.432C123.953 135.527 124.154 135.735 124.295 136.056C124.392 135.771 124.512 135.507 124.656 135.264C124.803 135.014 124.964 134.789 125.138 134.591C125.316 134.39 125.502 134.213 125.698 134.06C125.898 133.899 126.098 133.765 126.299 133.655C126.656 133.462 126.973 133.351 127.251 133.323C127.529 133.295 127.763 133.35 127.953 133.488C128.148 133.619 128.298 133.828 128.405 134.115C128.512 134.402 128.571 134.762 128.582 135.196L128.695 139.78L126.997 140.702L126.884 136.118C126.863 135.274 126.535 135.024 125.899 135.369C125.755 135.447 125.623 135.547 125.501 135.67C125.383 135.786 125.279 135.923 125.187 136.082C125.1 136.238 125.031 136.41 124.982 136.598C124.936 136.783 124.916 136.978 124.921 137.184L125.035 141.767L123.337 142.689L123.223 138.105C123.212 137.648 123.124 137.367 122.959 137.263C122.799 137.152 122.565 137.179 122.257 137.346C122.06 137.453 121.875 137.608 121.701 137.811C121.531 138.008 121.373 138.24 121.226 138.509L121.356 143.764L119.658 144.686ZM133.952 132.408C133.947 132.207 133.918 132.029 133.864 131.874C133.814 131.717 133.737 131.596 133.631 131.512C133.525 131.427 133.393 131.388 133.235 131.393C133.077 131.394 132.889 131.453 132.672 131.571C132.266 131.791 131.951 132.095 131.728 132.481C131.505 132.867 131.365 133.321 131.307 133.844L133.952 132.408ZM131.311 135.005C131.381 135.653 131.561 136.056 131.852 136.215C132.147 136.371 132.524 136.325 132.983 136.076C133.217 135.949 133.417 135.809 133.584 135.657C133.754 135.499 133.902 135.347 134.028 135.204C134.157 135.053 134.272 134.92 134.373 134.803C134.478 134.68 134.582 134.591 134.684 134.535C134.816 134.464 134.92 134.464 134.996 134.536L135.506 134.969C135.331 135.304 135.137 135.611 134.924 135.887C134.71 136.159 134.488 136.405 134.256 136.626C134.025 136.841 133.79 137.03 133.553 137.192C133.316 137.358 133.087 137.502 132.866 137.622C132.423 137.862 132.006 138.006 131.617 138.052C131.231 138.091 130.891 138.027 130.596 137.861C130.305 137.688 130.071 137.406 129.895 137.015C129.719 136.623 129.624 136.11 129.608 135.476C129.596 134.986 129.654 134.486 129.783 133.977C129.915 133.465 130.111 132.976 130.37 132.509C130.628 132.042 130.946 131.612 131.323 131.218C131.7 130.82 132.128 130.491 132.608 130.23C133.014 130.01 133.389 129.882 133.733 129.846C134.081 129.804 134.381 129.856 134.634 130.002C134.892 130.146 135.093 130.387 135.238 130.724C135.388 131.054 135.469 131.48 135.482 132.003C135.486 132.147 135.482 132.27 135.472 132.37C135.462 132.47 135.444 132.555 135.416 132.627C135.389 132.699 135.351 132.759 135.302 132.809C135.254 132.855 135.19 132.899 135.112 132.941L131.311 135.005ZM138.756 134.43C138.469 134.586 138.214 134.678 137.99 134.705C137.766 134.727 137.576 134.691 137.42 134.596C137.264 134.501 137.144 134.349 137.06 134.139C136.975 133.929 136.929 133.666 136.922 133.349L136.825 129.458L136.228 129.782C136.138 129.831 136.059 129.841 135.992 129.811C135.929 129.779 135.896 129.698 135.893 129.567L135.874 128.811L136.884 128.05L137.182 125.995C137.222 125.76 137.344 125.587 137.549 125.476L138.435 124.995L138.49 127.192L140.126 126.304L140.159 127.648L138.523 128.536L138.616 132.301C138.621 132.501 138.666 132.638 138.751 132.71C138.84 132.78 138.963 132.772 139.118 132.688C139.2 132.643 139.27 132.596 139.327 132.546C139.384 132.492 139.432 132.442 139.473 132.396C139.513 132.346 139.549 132.303 139.582 132.266C139.618 132.223 139.655 132.191 139.692 132.171C139.741 132.144 139.782 132.136 139.816 132.146C139.849 132.152 139.883 132.176 139.917 132.219L140.451 132.865C140.222 133.202 139.962 133.504 139.669 133.772C139.376 134.039 139.072 134.259 138.756 134.43ZM142.75 125.553C142.866 125.367 142.986 125.191 143.111 125.024C143.24 124.85 143.375 124.689 143.517 124.541C143.662 124.386 143.817 124.246 143.98 124.119C144.147 123.986 144.327 123.867 144.52 123.762C144.864 123.575 145.172 123.477 145.441 123.468C145.711 123.458 145.94 123.526 146.126 123.67C146.317 123.813 146.461 124.027 146.56 124.314C146.662 124.599 146.719 124.942 146.729 125.343L146.842 129.927L145.151 130.845L145.037 126.262C145.027 125.86 144.937 125.595 144.768 125.465C144.598 125.33 144.353 125.349 144.034 125.523C143.796 125.652 143.574 125.832 143.367 126.062C143.161 126.292 142.966 126.563 142.783 126.876L142.911 132.061L141.213 132.983L140.955 122.549L142.653 121.627L142.75 125.553ZM149.762 121.029L149.941 128.244L148.243 129.166L148.065 121.951L149.762 121.029ZM149.915 118.869C149.919 119.032 149.894 119.199 149.84 119.37C149.786 119.541 149.711 119.707 149.615 119.868C149.524 120.027 149.413 120.172 149.283 120.304C149.157 120.433 149.021 120.538 148.873 120.619C148.734 120.694 148.6 120.736 148.471 120.745C148.347 120.751 148.236 120.726 148.139 120.67C148.042 120.614 147.963 120.531 147.902 120.422C147.845 120.311 147.815 120.174 147.811 120.011C147.807 119.848 147.83 119.682 147.879 119.513C147.933 119.337 148.006 119.17 148.098 119.011C148.189 118.853 148.296 118.71 148.417 118.582C148.543 118.453 148.676 118.35 148.815 118.274C148.963 118.194 149.101 118.15 149.229 118.141C149.362 118.131 149.477 118.154 149.574 118.21C149.675 118.264 149.756 118.347 149.817 118.461C149.878 118.569 149.911 118.705 149.915 118.869ZM152.807 120.227C152.931 120.018 153.059 119.819 153.191 119.629C153.328 119.436 153.471 119.257 153.62 119.091C153.774 118.922 153.939 118.766 154.114 118.624C154.293 118.479 154.487 118.35 154.697 118.237C155.041 118.05 155.348 117.952 155.618 117.942C155.888 117.933 156.116 118 156.303 118.145C156.493 118.287 156.638 118.502 156.736 118.789C156.839 119.073 156.895 119.416 156.905 119.818L157.019 124.401L155.327 125.32L155.214 120.736C155.204 120.335 155.114 120.069 154.945 119.939C154.775 119.804 154.53 119.824 154.21 119.997C153.972 120.126 153.75 120.306 153.544 120.536C153.338 120.766 153.143 121.038 152.96 121.35L153.088 126.536L151.39 127.457L151.211 120.243L152.257 119.675C152.47 119.559 152.615 119.594 152.69 119.78L152.807 120.227ZM160.637 118.508C160.986 118.318 161.24 118.079 161.399 117.789C161.562 117.497 161.639 117.193 161.632 116.876C161.623 116.544 161.533 116.331 161.36 116.236C161.191 116.134 160.933 116.177 160.584 116.366C160.235 116.556 159.981 116.79 159.822 117.071C159.663 117.346 159.587 117.65 159.595 117.981C159.603 118.294 159.692 118.508 159.861 118.624C160.034 118.734 160.293 118.695 160.637 118.508ZM162.346 121.807C162.343 121.681 162.306 121.597 162.234 121.556C162.162 121.514 162.066 121.502 161.946 121.52C161.83 121.536 161.692 121.578 161.532 121.646C161.371 121.71 161.201 121.786 161.02 121.874C160.839 121.958 160.652 122.048 160.459 122.143C160.266 122.239 160.077 122.325 159.892 122.402C159.751 122.577 159.635 122.759 159.544 122.945C159.457 123.125 159.415 123.299 159.42 123.467C159.423 123.583 159.448 123.678 159.495 123.752C159.547 123.823 159.629 123.864 159.741 123.873C159.854 123.883 160.001 123.858 160.182 123.797C160.364 123.741 160.59 123.64 160.86 123.493C161.139 123.341 161.375 123.192 161.566 123.046C161.758 122.899 161.912 122.754 162.029 122.61C162.146 122.471 162.228 122.334 162.275 122.2C162.325 122.064 162.349 121.933 162.346 121.807ZM163.851 113.621L163.869 114.328C163.872 114.439 163.845 114.544 163.789 114.64C163.738 114.734 163.649 114.832 163.522 114.934L163.009 115.334C163.084 115.524 163.125 115.75 163.131 116.012C163.14 116.371 163.083 116.731 162.959 117.091C162.839 117.445 162.668 117.786 162.448 118.113C162.227 118.436 161.965 118.737 161.66 119.016C161.355 119.291 161.024 119.525 160.667 119.718C160.442 119.841 160.23 119.935 160.032 119.999C159.863 120.214 159.78 120.394 159.783 120.539C159.787 120.674 159.847 120.741 159.963 120.739C160.083 120.735 160.238 120.696 160.428 120.621C160.621 120.54 160.839 120.438 161.081 120.316C161.327 120.187 161.576 120.067 161.826 119.954C162.081 119.839 162.33 119.747 162.574 119.676C162.821 119.598 163.041 119.576 163.233 119.609C163.429 119.635 163.587 119.726 163.707 119.883C163.832 120.038 163.898 120.288 163.907 120.633C163.915 120.955 163.853 121.305 163.721 121.684C163.589 122.063 163.393 122.444 163.132 122.827C162.875 123.207 162.556 123.574 162.174 123.928C161.792 124.282 161.355 124.593 160.863 124.86C160.375 125.125 159.949 125.302 159.586 125.39C159.226 125.482 158.926 125.503 158.683 125.455C158.445 125.409 158.266 125.303 158.146 125.137C158.025 124.971 157.962 124.764 157.956 124.517C157.948 124.195 158.027 123.875 158.194 123.558C158.36 123.24 158.594 122.932 158.894 122.631C158.731 122.616 158.599 122.553 158.496 122.443C158.398 122.326 158.345 122.135 158.339 121.869C158.334 121.654 158.396 121.391 158.525 121.08C158.659 120.766 158.867 120.452 159.15 120.138C158.821 120.118 158.558 119.996 158.362 119.772C158.165 119.543 158.061 119.209 158.05 118.771C158.041 118.411 158.097 118.053 158.217 117.694C158.341 117.334 158.515 116.991 158.74 116.666C158.964 116.336 159.231 116.032 159.54 115.756C159.849 115.479 160.186 115.242 160.551 115.044C161.093 114.75 161.573 114.612 161.994 114.629L163.851 113.621ZM93.4286 172.953L90.9121 184.61L89.2449 185.515L87.2533 179.866C87.2222 179.788 87.191 179.701 87.1595 179.605C87.128 179.509 87.0984 179.404 87.0707 179.291C87.0492 179.431 87.0255 179.564 86.9996 179.692C86.9736 179.819 86.9475 179.938 86.9211 180.046L85.2402 187.689L83.5669 188.598L80.5531 179.944L82.1033 179.102C82.2633 179.015 82.3976 178.985 82.5063 179.011C82.6191 179.035 82.6937 179.108 82.7299 179.23L84.256 184.203C84.2927 184.343 84.3298 184.498 84.3672 184.667C84.4087 184.829 84.4483 185.004 84.4862 185.191C84.5179 184.961 84.552 184.744 84.5885 184.54C84.625 184.336 84.6659 184.141 84.7112 183.955L86.1811 177.356C86.211 177.222 86.2781 177.079 86.3824 176.928C86.4907 176.77 86.6228 176.648 86.7786 176.564L87.32 176.27C87.4799 176.183 87.6102 176.157 87.7108 176.192C87.8154 176.221 87.894 176.289 87.9466 176.398L89.6941 181.25C89.747 181.373 89.7962 181.511 89.8416 181.666C89.8869 181.817 89.9304 181.98 89.9722 182.156C90.0001 181.942 90.0263 181.741 90.0507 181.553C90.0791 181.358 90.1079 181.177 90.137 181.01L91.3793 174.534C91.405 174.397 91.472 174.252 91.5804 174.098C91.6889 173.945 91.821 173.826 91.9768 173.741L93.4286 172.953ZM97.5825 176.471C97.5775 176.27 97.5482 176.092 97.4944 175.937C97.4448 175.779 97.367 175.658 97.261 175.574C97.155 175.49 97.0231 175.45 96.8653 175.456C96.7074 175.456 96.5197 175.516 96.3024 175.634C95.8964 175.854 95.5818 176.157 95.3586 176.543C95.1354 176.929 94.9949 177.384 94.9372 177.907L97.5825 176.471ZM94.9411 179.068C95.0112 179.715 95.1916 180.118 95.4823 180.277C95.7771 180.434 96.1542 180.388 96.6135 180.138C96.8473 180.011 97.0475 179.872 97.2142 179.72C97.3848 179.561 97.5327 179.41 97.658 179.266C97.7873 179.116 97.9024 178.982 98.0035 178.866C98.1085 178.743 98.2122 178.653 98.3148 178.598C98.446 178.526 98.5499 178.527 98.6265 178.599L99.136 179.031C98.9615 179.367 98.7675 179.673 98.554 179.95C98.3405 180.222 98.118 180.468 97.8865 180.688C97.655 180.904 97.4207 181.093 97.1836 181.254C96.9467 181.421 96.7175 181.564 96.496 181.684C96.0531 181.925 95.6368 182.068 95.2473 182.114C94.8617 182.153 94.5214 182.09 94.2263 181.924C93.9353 181.751 93.7017 181.469 93.5258 181.077C93.3498 180.686 93.254 180.173 93.2383 179.538C93.2261 179.049 93.2844 178.549 93.4131 178.039C93.5459 177.527 93.7416 177.038 94.0001 176.572C94.2587 176.105 94.5764 175.675 94.9532 175.281C95.3299 174.883 95.7581 174.553 96.238 174.293C96.644 174.072 97.019 173.944 97.3631 173.909C97.7112 173.866 98.0117 173.918 98.2648 174.065C98.5219 174.209 98.7232 174.449 98.8687 174.786C99.0182 175.117 99.0994 175.543 99.1124 176.065C99.116 176.21 99.1128 176.332 99.1028 176.432C99.0928 176.532 99.0741 176.618 99.0468 176.69C99.0195 176.761 98.9815 176.822 98.9329 176.872C98.8841 176.917 98.8208 176.961 98.7429 177.004L94.9411 179.068ZM101.683 172.301C101.807 172.092 101.935 171.892 102.067 171.702C102.204 171.51 102.347 171.331 102.496 171.164C102.65 170.996 102.815 170.84 102.99 170.698C103.169 170.553 103.363 170.424 103.572 170.31C103.917 170.123 104.224 170.025 104.494 170.016C104.764 170.006 104.992 170.074 105.179 170.219C105.369 170.361 105.514 170.576 105.612 170.862C105.715 171.147 105.771 171.49 105.781 171.891L105.895 176.475L104.203 177.393L104.09 172.81C104.08 172.409 103.99 172.143 103.82 172.013C103.651 171.878 103.406 171.897 103.086 172.071C102.848 172.2 102.626 172.38 102.42 172.61C102.214 172.84 102.019 173.111 101.835 173.424L101.964 178.609L100.266 179.531L100.087 172.316L101.133 171.748C101.346 171.633 101.491 171.668 101.566 171.854L101.683 172.301ZM109.355 174.709C109.068 174.865 108.813 174.957 108.589 174.984C108.365 175.006 108.175 174.97 108.019 174.875C107.863 174.78 107.743 174.628 107.659 174.418C107.575 174.208 107.529 173.945 107.521 173.628L107.424 169.737L106.827 170.061C106.737 170.11 106.659 170.119 106.591 170.09C106.528 170.058 106.495 169.977 106.492 169.846L106.473 169.09L107.483 168.329L107.781 166.274C107.821 166.039 107.943 165.866 108.148 165.755L109.034 165.274L109.089 167.471L110.725 166.583L110.758 167.927L109.122 168.815L109.215 172.58C109.22 172.78 109.265 172.917 109.35 172.989C109.439 173.059 109.562 173.051 109.718 172.967C109.8 172.922 109.869 172.875 109.926 172.825C109.983 172.771 110.031 172.721 110.072 172.675C110.112 172.625 110.149 172.581 110.181 172.545C110.217 172.502 110.254 172.47 110.291 172.45C110.34 172.423 110.381 172.415 110.415 172.425C110.448 172.431 110.482 172.455 110.516 172.498L111.05 173.144C110.821 173.481 110.561 173.783 110.268 174.051C109.975 174.318 109.671 174.538 109.355 174.709ZM126.674 154.902L124.158 166.559L122.491 167.464L120.499 161.815C120.468 161.737 120.437 161.65 120.405 161.554C120.374 161.458 120.344 161.353 120.316 161.241C120.295 161.38 120.271 161.513 120.245 161.641C120.219 161.768 120.193 161.887 120.167 161.996L118.486 169.639L116.813 170.547L113.799 161.893L115.349 161.051C115.509 160.964 115.643 160.934 115.752 160.96C115.865 160.984 115.939 161.057 115.976 161.179L117.502 166.152C117.538 166.293 117.576 166.447 117.613 166.616C117.654 166.778 117.694 166.953 117.732 167.14C117.764 166.91 117.798 166.693 117.834 166.489C117.871 166.285 117.912 166.09 117.957 165.905L119.427 159.305C119.457 159.171 119.524 159.028 119.628 158.877C119.736 158.719 119.868 158.597 120.024 158.513L120.566 158.219C120.726 158.132 120.856 158.106 120.957 158.141C121.061 158.17 121.14 158.238 121.192 158.347L122.94 163.199C122.993 163.322 123.042 163.46 123.087 163.615C123.133 163.766 123.176 163.929 123.218 164.105C123.246 163.891 123.272 163.69 123.296 163.502C123.325 163.307 123.354 163.126 123.383 162.959L124.625 156.483C124.651 156.346 124.718 156.201 124.826 156.047C124.935 155.894 125.067 155.775 125.223 155.69L126.674 154.902ZM128.552 158.067C128.742 157.547 128.966 157.097 129.223 156.717C129.479 156.336 129.784 156.05 130.137 155.859C130.424 155.703 130.659 155.653 130.844 155.709L130.768 157.197C130.75 157.301 130.719 157.384 130.675 157.446C130.635 157.501 130.577 157.549 130.504 157.589C130.438 157.624 130.343 157.666 130.22 157.714C130.096 157.758 129.981 157.809 129.875 157.866C129.719 157.951 129.58 158.052 129.458 158.171C129.341 158.286 129.236 158.417 129.144 158.561C129.052 158.706 128.968 158.867 128.894 159.044C128.823 159.22 128.757 159.411 128.696 159.62L128.806 164.035L127.108 164.957L126.929 157.742L127.932 157.198C128.104 157.105 128.224 157.075 128.291 157.109C128.358 157.144 128.409 157.239 128.442 157.396L128.552 158.067ZM134.28 153.637C134.756 153.379 135.191 153.231 135.585 153.192C135.979 153.153 136.319 153.219 136.606 153.389C136.893 153.555 137.117 153.825 137.281 154.2C137.444 154.575 137.532 155.049 137.547 155.623C137.561 156.197 137.498 156.756 137.357 157.3C137.217 157.84 137.011 158.346 136.74 158.819C136.47 159.293 136.141 159.721 135.756 160.106C135.371 160.49 134.94 160.811 134.465 161.069C133.985 161.33 133.546 161.481 133.148 161.522C132.754 161.561 132.414 161.495 132.127 161.324C131.84 161.154 131.613 160.882 131.446 160.51C131.282 160.13 131.194 159.654 131.179 159.08C131.165 158.506 131.228 157.949 131.369 157.41C131.513 156.868 131.721 156.363 131.992 155.894C132.263 155.421 132.591 154.992 132.976 154.608C133.366 154.221 133.8 153.898 134.28 153.637ZM134.429 159.621C134.913 159.358 135.267 158.974 135.491 158.469C135.715 157.96 135.818 157.33 135.8 156.578C135.781 155.832 135.65 155.333 135.407 155.082C135.164 154.827 134.8 154.83 134.316 155.093C133.82 155.362 133.46 155.752 133.236 156.261C133.011 156.766 132.908 157.392 132.927 158.138C132.945 158.889 133.076 159.393 133.32 159.648C133.563 159.899 133.932 159.89 134.429 159.621ZM140.119 151.432C140.243 151.223 140.371 151.023 140.503 150.833C140.64 150.641 140.783 150.461 140.933 150.295C141.086 150.127 141.251 149.971 141.426 149.829C141.605 149.684 141.8 149.555 142.009 149.441C142.353 149.254 142.66 149.156 142.93 149.147C143.2 149.137 143.428 149.205 143.615 149.349C143.805 149.492 143.95 149.706 144.049 149.993C144.151 150.278 144.208 150.621 144.217 151.022L144.331 155.606L142.639 156.524L142.526 151.941C142.516 151.539 142.426 151.274 142.257 151.144C142.087 151.009 141.842 151.028 141.522 151.202C141.285 151.331 141.062 151.511 140.856 151.741C140.65 151.971 140.455 152.242 140.272 152.555L140.4 157.74L138.702 158.662L138.523 151.447L139.569 150.879C139.782 150.764 139.927 150.799 140.002 150.985L140.119 151.432ZM147.949 149.712C148.298 149.523 148.552 149.284 148.711 148.994C148.874 148.702 148.952 148.397 148.944 148.08C148.935 147.749 148.845 147.536 148.672 147.44C148.503 147.338 148.245 147.382 147.896 147.571C147.548 147.76 147.294 147.995 147.134 148.275C146.975 148.551 146.899 148.854 146.907 149.186C146.915 149.498 147.004 149.713 147.173 149.829C147.346 149.938 147.605 149.899 147.949 149.712ZM149.658 153.011C149.655 152.885 149.618 152.802 149.546 152.76C149.474 152.719 149.378 152.707 149.258 152.725C149.142 152.74 149.004 152.782 148.844 152.851C148.683 152.914 148.513 152.99 148.332 153.079C148.151 153.163 147.964 153.252 147.771 153.348C147.578 153.443 147.389 153.529 147.204 153.606C147.063 153.782 146.947 153.963 146.856 154.15C146.769 154.329 146.728 154.503 146.732 154.671C146.735 154.788 146.76 154.883 146.807 154.956C146.859 155.027 146.941 155.068 147.054 155.078C147.166 155.088 147.313 155.062 147.494 155.002C147.676 154.946 147.902 154.844 148.173 154.697C148.451 154.546 148.687 154.397 148.878 154.25C149.07 154.104 149.224 153.958 149.341 153.814C149.459 153.675 149.54 153.539 149.587 153.405C149.638 153.268 149.661 153.137 149.658 153.011ZM151.164 144.825L151.181 145.532C151.184 145.644 151.157 145.748 151.102 145.845C151.05 145.939 150.961 146.037 150.834 146.139L150.321 146.538C150.396 146.729 150.437 146.955 150.443 147.216C150.452 147.575 150.395 147.935 150.271 148.296C150.151 148.649 149.98 148.99 149.76 149.318C149.539 149.641 149.277 149.942 148.972 150.221C148.667 150.495 148.336 150.729 147.979 150.923C147.754 151.045 147.542 151.139 147.344 151.204C147.175 151.419 147.092 151.598 147.096 151.743C147.099 151.878 147.159 151.945 147.275 151.943C147.395 151.94 147.55 151.9 147.74 151.826C147.933 151.745 148.151 151.643 148.393 151.521C148.639 151.392 148.888 151.271 149.138 151.159C149.393 151.044 149.642 150.951 149.886 150.881C150.133 150.803 150.353 150.781 150.545 150.813C150.741 150.839 150.899 150.931 151.019 151.088C151.144 151.242 151.21 151.492 151.219 151.838C151.227 152.159 151.165 152.51 151.033 152.889C150.901 153.268 150.705 153.649 150.444 154.031C150.187 154.412 149.868 154.779 149.486 155.133C149.104 155.487 148.667 155.797 148.175 156.065C147.687 156.33 147.261 156.506 146.898 156.595C146.538 156.686 146.238 156.708 145.995 156.659C145.757 156.614 145.578 156.508 145.458 156.342C145.337 156.175 145.274 155.969 145.268 155.721C145.26 155.399 145.339 155.08 145.506 154.762C145.672 154.445 145.906 154.136 146.206 153.836C146.044 153.82 145.911 153.757 145.809 153.648C145.71 153.531 145.658 153.339 145.651 153.074C145.646 152.859 145.708 152.596 145.837 152.285C145.971 151.971 146.179 151.657 146.462 151.342C146.133 151.322 145.87 151.2 145.674 150.976C145.477 150.747 145.373 150.414 145.362 149.975C145.353 149.616 145.409 149.257 145.529 148.899C145.653 148.538 145.827 148.195 146.052 147.87C146.276 147.54 146.543 147.237 146.852 146.96C147.161 146.684 147.498 146.447 147.863 146.248C148.405 145.954 148.885 145.816 149.306 145.834L151.164 144.825ZM151.954 150.438C151.95 150.284 151.971 150.126 152.017 149.964C152.067 149.796 152.136 149.638 152.224 149.491C152.311 149.339 152.414 149.203 152.532 149.082C152.653 148.955 152.786 148.852 152.929 148.774C153.069 148.699 153.201 148.658 153.325 148.651C153.45 148.641 153.558 148.662 153.651 148.716C153.744 148.765 153.816 148.846 153.869 148.959C153.926 149.065 153.956 149.196 153.96 149.35C153.964 149.508 153.941 149.67 153.891 149.834C153.845 149.996 153.778 150.153 153.69 150.304C153.602 150.451 153.498 150.586 153.376 150.709C153.254 150.832 153.124 150.931 152.984 151.007C152.841 151.085 152.707 151.129 152.583 151.14C152.462 151.148 152.356 151.128 152.263 151.079C152.17 151.026 152.096 150.946 152.039 150.839C151.986 150.731 151.958 150.597 151.954 150.438Z" fill="#1B2327"/>
</svg>
