<svg width="53" height="52" viewBox="0 0 53 52" fill="none" xmlns="http://www.w3.org/2000/svg">
<g clip-path="url(#clip0_10550_13218)">
<path d="M34.2791 37.0304H20.4912C20.2367 37.0304 20.067 36.8607 20.067 36.6061C20.067 36.3516 20.2367 36.1819 20.4912 36.1819H34.3215C35.0427 36.1819 35.6791 35.588 35.6791 34.8243V33.4243C35.6791 33.1698 35.8488 33.0001 36.1033 33.0001C36.3579 33.0001 36.5276 33.1698 36.5276 33.4243V34.8243C36.4852 36.0546 35.5094 37.0304 34.2791 37.0304ZM18.7094 27.697C18.4549 27.697 18.2852 27.5273 18.2852 27.2728V14.6304C18.2852 13.4425 19.2609 12.4243 20.4912 12.4243H34.3215C35.5094 12.4243 36.5276 13.4001 36.5276 14.6304V24.6849C36.5276 24.9395 36.3579 25.1092 36.1033 25.1092C35.8488 25.1092 35.6791 24.9395 35.6791 24.6849V14.6304C35.6791 13.9092 35.0852 13.2728 34.3215 13.2728H20.4912C19.77 13.2728 19.1336 13.8667 19.1336 14.6304V27.2728C19.1336 27.5273 18.9639 27.697 18.7094 27.697Z" fill="#222931"/>
<path d="M15.7822 27.697C15.5276 27.697 15.3579 27.5273 15.3579 27.2728V17.1758C15.3579 15.9455 16.3337 14.9697 17.564 14.9697H18.7518C19.0064 14.9697 19.1761 15.1394 19.1761 15.394C19.1761 15.6485 19.0064 15.8182 18.7518 15.8182H17.564C16.8428 15.8182 16.2064 16.4122 16.2064 17.1758V27.2728C16.2064 27.5273 16.0367 27.697 15.7822 27.697Z" fill="#222931"/>
<path d="M31.3518 39.5757H17.564C16.3761 39.5757 15.3579 38.6 15.3579 37.3697V33.7636C15.3579 33.5091 15.5276 33.3394 15.7822 33.3394C16.0367 33.3394 16.2064 33.5091 16.2064 33.7636V37.3697C16.2064 38.1333 16.8003 38.7272 17.564 38.7272H31.3943C32.1155 38.7272 32.7518 38.1333 32.7518 37.3697V36.606C32.7518 36.3515 32.9215 36.1818 33.1761 36.1818C33.4306 36.1818 33.6003 36.3515 33.6003 36.606V37.4121C33.5579 38.6 32.5822 39.5757 31.3518 39.5757Z" fill="#222931"/>
<path d="M20.4912 37.0304C19.3033 37.0304 18.2852 36.0546 18.2852 34.8243V33.8486C18.2852 33.594 18.4549 33.4243 18.7094 33.4243C18.9639 33.4243 19.1336 33.594 19.1336 33.8486V34.8243C19.1336 35.5455 19.7276 36.1819 20.4912 36.1819C20.7458 36.1819 20.9155 36.3516 20.9155 36.6061C20.9155 36.8607 20.7033 37.0304 20.4912 37.0304Z" fill="#222931"/>
<path d="M20.2365 34.188H14.7638C13.8305 34.188 13.0244 33.4244 13.0244 32.4486V25.9577C13.0244 25.7031 13.1941 25.5334 13.4487 25.5334C13.7032 25.5334 13.8729 25.7031 13.8729 25.9577V32.4486C13.8729 32.9153 14.2547 33.3395 14.7638 33.3395H20.2365C20.7032 33.3395 21.1274 32.9577 21.1274 32.4486V28.588C21.1274 28.1213 20.7456 27.6971 20.2365 27.6971H14.8062C14.5517 27.6971 14.382 27.5274 14.382 27.2728C14.382 27.0183 14.5517 26.8486 14.8062 26.8486H20.2365C21.1699 26.8486 21.9759 27.6122 21.9759 28.588V32.4486C21.9335 33.3819 21.1699 34.188 20.2365 34.188Z" fill="#222931"/>
<path d="M15.782 27.6971H14.7638C13.7881 27.6971 13.0244 26.9334 13.0244 25.9577C13.0244 24.9819 13.7881 24.2183 14.7638 24.2183H15.782C16.0365 24.2183 16.2062 24.388 16.2062 24.6425V27.2728C16.2062 27.5274 16.0365 27.6971 15.782 27.6971ZM14.7638 25.1092C14.2971 25.1092 13.8729 25.491 13.8729 26.0001C13.8729 26.5092 14.2547 26.8486 14.7638 26.8486H15.3577V25.1092H14.7638Z" fill="#222931"/>
<path d="M35.2124 34.5272C35.1275 34.5272 35.0427 34.4848 34.9578 34.4424C32.2851 32.406 30.5881 29.3515 30.2487 26.0424C30.2063 25.8303 30.376 25.6181 30.5881 25.5757C31.0548 25.4909 31.479 25.406 31.9457 25.2787C33.0063 24.9818 34.0245 24.5575 35.0002 24.006C35.1275 23.9212 35.2972 23.9212 35.4245 24.006C36.4002 24.5575 37.4184 24.9818 38.479 25.2787C38.9033 25.406 39.3699 25.4909 39.7942 25.5757C40.0063 25.6181 40.176 25.8303 40.1336 26.0424C39.7942 29.3515 38.0972 32.4484 35.4245 34.4424C35.3821 34.5272 35.2972 34.5272 35.2124 34.5272ZM31.1396 26.3394C31.5215 29.1818 32.9639 31.7697 35.2124 33.5515C37.4184 31.7697 38.9033 29.1394 39.2851 26.3394C38.9457 26.2545 38.6063 26.1697 38.2669 26.0848C37.2063 25.7878 36.1881 25.3636 35.2124 24.8545C34.2366 25.3636 33.2184 25.7878 32.1578 26.0848C31.8184 26.2121 31.479 26.2969 31.1396 26.3394Z" fill="#222931"/>
<path d="M25.4972 23.8363H22.3578C21.5094 23.8363 20.8306 23.1575 20.8306 22.309V19.5514C20.8306 18.703 21.5094 18.0242 22.3578 18.0242H25.4972C26.3457 18.0242 27.0245 18.703 27.0245 19.5514V22.309C26.9821 23.1575 26.3033 23.8363 25.4972 23.8363ZM22.3154 18.9151C21.9336 18.9151 21.6366 19.212 21.6366 19.5939V22.3514C21.6366 22.7333 21.9336 23.0302 22.3154 23.0302H25.4548C25.8366 23.0302 26.1336 22.7333 26.1336 22.3514V19.5939C26.1336 19.212 25.8366 18.9151 25.4548 18.9151H22.3154Z" fill="#222931"/>
<path d="M25.7519 18.9151C25.4974 18.9151 25.3277 18.7454 25.3277 18.4909V17.0061C25.3277 16.2424 24.6913 15.6061 23.9277 15.6061C23.164 15.6061 22.5277 16.2424 22.5277 17.0061V18.4061C22.5277 18.6606 22.358 18.8303 22.1034 18.8303C21.8489 18.8303 21.6792 18.6606 21.6792 18.4061V17.0061C21.6792 15.7758 22.6974 14.7576 23.9277 14.7576C25.158 14.7576 26.1762 15.7333 26.1762 16.9636V18.4485C26.1762 18.703 26.0065 18.9151 25.7519 18.9151Z" fill="#222931"/>
<path d="M23.8852 22.4364C23.6306 22.4364 23.4609 22.2667 23.4609 22.0122V21.5031C23.4609 21.2486 23.6306 21.0789 23.8852 21.0789C24.1397 21.0789 24.3094 21.2486 24.3094 21.5031V22.0122C24.3094 22.2243 24.1397 22.4364 23.8852 22.4364Z" fill="#222931"/>
<path d="M23.8851 21.8848C23.2488 21.8848 22.6973 21.3757 22.6973 20.6969C22.6973 20.0181 23.2064 19.509 23.8851 19.509C24.5639 19.509 25.073 20.0181 25.073 20.6969C25.073 21.3757 24.5639 21.8848 23.8851 21.8848ZM23.8851 20.3999C23.7154 20.3999 23.5458 20.5272 23.5458 20.7393C23.5458 20.9515 23.673 21.0787 23.8851 21.0787C24.0973 21.0787 24.2245 20.9515 24.2245 20.7393C24.2245 20.5272 24.0973 20.3999 23.8851 20.3999Z" fill="#222931"/>
<path d="M28.4243 26.297H22.2304C21.9758 26.297 21.8062 26.1273 21.8062 25.8727C21.8062 25.6182 21.9758 25.4485 22.2304 25.4485H28.4243C28.6789 25.4485 28.8486 25.6182 28.8486 25.8727C28.8486 26.1273 28.6365 26.297 28.4243 26.297Z" fill="#222931"/>
<path d="M28.8486 29.097H23.7577C23.5032 29.097 23.3335 28.9273 23.3335 28.6728C23.3335 28.4182 23.5032 28.2485 23.7577 28.2485H28.8062C29.0608 28.2485 29.2305 28.4182 29.2305 28.6728C29.2305 28.9273 29.0608 29.097 28.8486 29.097Z" fill="#222931"/>
<path d="M29.9093 31.8971H23.7577C23.5032 31.8971 23.3335 31.7274 23.3335 31.4728C23.3335 31.2183 23.5032 31.0486 23.7577 31.0486H29.9093C30.1638 31.0486 30.3335 31.2183 30.3335 31.4728C30.3335 31.7274 30.1214 31.8971 29.9093 31.8971Z" fill="#222931"/>
<path d="M31.6486 34.6969H23.7577C23.5032 34.6969 23.3335 34.5272 23.3335 34.2726C23.3335 34.0181 23.5032 33.8484 23.7577 33.8484H31.6486C31.9032 33.8484 32.0729 34.0181 32.0729 34.2726C32.0729 34.5272 31.9032 34.6969 31.6486 34.6969Z" fill="#222931"/>
<path d="M31.2669 17.006H28.976C28.7215 17.006 28.5518 16.8363 28.5518 16.5817C28.5518 16.3272 28.7215 16.1575 28.976 16.1575H31.2669C31.5215 16.1575 31.6912 16.3272 31.6912 16.5817C31.6912 16.8363 31.479 17.006 31.2669 17.006Z" fill="#222931"/>
<path d="M33.5578 19.721H28.976C28.7215 19.721 28.5518 19.5513 28.5518 19.2968C28.5518 19.0423 28.7215 18.8726 28.976 18.8726H33.5578C33.8124 18.8726 33.9821 19.0423 33.9821 19.2968C33.9821 19.5513 33.7699 19.721 33.5578 19.721Z" fill="#222931"/>
<path d="M33.5578 22.3939H28.976C28.7215 22.3939 28.5518 22.2242 28.5518 21.9697C28.5518 21.7151 28.7215 21.5454 28.976 21.5454H33.5578C33.8124 21.5454 33.9821 21.7151 33.9821 21.9697C33.9821 22.2242 33.7699 22.3939 33.5578 22.3939Z" fill="#222931"/>
<path d="M34.4911 30.4971C34.3639 30.4971 34.279 30.4546 34.1942 30.3698L33.0911 29.2668C32.9214 29.0971 32.9214 28.8425 33.0911 28.6728C33.2608 28.5031 33.5154 28.5031 33.6851 28.6728L34.4911 29.4789L37.0366 26.9334C37.2063 26.7637 37.4608 26.7637 37.6305 26.9334C37.8002 27.1031 37.8002 27.3577 37.6305 27.5274L34.7881 30.3698C34.7033 30.4546 34.6184 30.4971 34.4911 30.4971Z" fill="#222931"/>
</g>
<rect x="1.1001" y="0.5" width="51" height="51" rx="25.5" stroke="#222931"/>
<defs>
<clipPath id="clip0_10550_13218">
<rect width="28" height="28" fill="white" transform="translate(12.6001 12)"/>
</clipPath>
</defs>
</svg>
