<svg width="16" height="17" viewBox="0 0 16 17" fill="none" xmlns="http://www.w3.org/2000/svg">
<circle cx="8" cy="8.5" r="8" fill="#DC3545"/>
<g clip-path="url(#clip0_3996_210716)">
<path d="M8 13.5C7.8705 13.5 7.7463 13.4486 7.65473 13.357C7.56316 13.2654 7.51172 13.1412 7.51172 13.0117V3.98828C7.51172 3.85878 7.56316 3.73458 7.65473 3.64301C7.7463 3.55144 7.8705 3.5 8 3.5C8.1295 3.5 8.2537 3.55144 8.34527 3.64301C8.43684 3.73458 8.48828 3.85878 8.48828 3.98828V13.0117C8.48828 13.1412 8.43684 13.2654 8.34527 13.357C8.2537 13.4486 8.1295 13.5 8 13.5Z" fill="white"/>
<path d="M12.5117 8.98828H3.48828C3.35878 8.98828 3.23458 8.93684 3.14301 8.84527C3.05144 8.7537 3 8.6295 3 8.5C3 8.3705 3.05144 8.2463 3.14301 8.15473C3.23458 8.06316 3.35878 8.01172 3.48828 8.01172H12.5117C12.6412 8.01172 12.7654 8.06316 12.857 8.15473C12.9486 8.2463 13 8.3705 13 8.5C13 8.6295 12.9486 8.7537 12.857 8.84527C12.7654 8.93684 12.6412 8.98828 12.5117 8.98828Z" fill="white"/>
</g>
<defs>
<clipPath id="clip0_3996_210716">
<rect width="10" height="10" fill="white" transform="translate(3 3.5)"/>
</clipPath>
</defs>
</svg>
