<svg width="52" height="52" viewBox="0 0 52 52" fill="none" xmlns="http://www.w3.org/2000/svg">
<g clip-path="url(#clip0_10550_7332)">
<path d="M33.875 21.1875C32.1867 21.1875 30.8125 22.5617 30.8125 24.25C30.8125 25.9383 32.1867 27.3125 33.875 27.3125C35.5633 27.3125 36.9375 25.9383 36.9375 24.25C36.9375 22.5617 35.5633 21.1875 33.875 21.1875ZM33.875 26.4375C32.6688 26.4375 31.6875 25.4562 31.6875 24.25C31.6875 23.0438 32.6688 22.0625 33.875 22.0625C35.0812 22.0625 36.0625 23.0438 36.0625 24.25C36.0625 25.4562 35.0812 26.4375 33.875 26.4375Z" fill="#222931"/>
<path d="M33.875 22.9375C33.1514 22.9375 32.5625 23.5264 32.5625 24.25C32.5625 24.9736 33.1514 25.5625 33.875 25.5625C34.5986 25.5625 35.1875 24.9736 35.1875 24.25C35.1875 23.5264 34.5986 22.9375 33.875 22.9375ZM33.875 24.6875C33.6335 24.6875 33.4375 24.4915 33.4375 24.25C33.4375 24.0085 33.6335 23.8125 33.875 23.8125C34.1165 23.8125 34.3125 24.0085 34.3125 24.25C34.3125 24.4915 34.1165 24.6875 33.875 24.6875Z" fill="#222931"/>
<path d="M38.6372 22.7542C38.5046 22.7104 38.4018 22.6159 38.3541 22.493C38.3314 22.4352 38.3086 22.3784 38.2837 22.3219C38.2321 22.2029 38.2382 22.0634 38.3003 21.94C38.5633 21.4202 38.4631 20.7946 38.0514 20.3821L37.7429 20.0736C37.3317 19.6615 36.7052 19.5604 36.1854 19.8247C36.0625 19.8872 35.9225 19.8934 35.8026 19.8409C35.7466 19.8164 35.6898 19.7936 35.6316 19.7709C35.5095 19.7232 35.4146 19.6199 35.3708 19.4878C35.1892 18.9344 34.6756 18.5625 34.0929 18.5625H33.6571C33.0744 18.5625 32.5608 18.9348 32.3792 19.4878C32.3354 19.6204 32.2409 19.7232 32.118 19.7709C32.0603 19.7936 32.0034 19.8164 31.9469 19.8413C31.8279 19.8921 31.6884 19.8868 31.565 19.8247C31.0452 19.5622 30.4192 19.6624 30.0071 20.0736L29.7691 20.3125H27.3125V13.75C27.3125 13.0264 26.7236 12.4375 26 12.4375H13.75C13.0264 12.4375 12.4375 13.0264 12.4375 13.75V22.5C12.4375 23.2236 13.0264 23.8125 13.75 23.8125H15.0625V34.75C15.0625 35.9562 16.0438 36.9375 17.25 36.9375H22.5V38.6875H19.875V39.5625H31.25V38.6875H28.625V36.9375H33.875C35.0812 36.9375 36.0625 35.9562 36.0625 34.75V28.6425C36.1036 28.6508 36.1456 28.6552 36.1846 28.6749C36.7043 28.9374 37.3304 28.8372 37.7425 28.4259L38.0514 28.1175C38.4626 27.7054 38.5628 27.0793 38.2999 26.56C38.2373 26.4362 38.2316 26.2966 38.2837 26.1772C38.3082 26.1212 38.3309 26.0643 38.3537 26.0061C38.4014 25.8841 38.5046 25.7891 38.6367 25.7454C39.1906 25.5642 39.5625 25.0506 39.5625 24.4679V24.0321C39.5625 23.4494 39.1902 22.9358 38.6372 22.7542ZM29.1128 25.7458C29.2454 25.7896 29.3482 25.8841 29.3959 26.007C29.4186 26.0647 29.4414 26.1216 29.4663 26.1781C29.5179 26.2971 29.5118 26.4366 29.4497 26.56C29.1867 27.0797 29.2869 27.7054 29.6986 28.1179L30.0071 28.4268C30.4183 28.8381 31.0444 28.9383 31.5646 28.6753C31.6879 28.6136 31.8279 28.6071 31.9474 28.6591C32.0034 28.6836 32.0602 28.7064 32.1184 28.7291C32.2405 28.7768 32.3354 28.8801 32.3792 29.0122C32.5376 29.4952 32.9484 29.8391 33.4375 29.9196V32.5625H17.6875V23.8125H26C26.5696 23.8125 27.0509 23.4454 27.232 22.9375H28.7528C28.4045 23.1847 28.1875 23.5876 28.1875 24.0321V24.4679C28.1875 25.0506 28.5598 25.5642 29.1128 25.7458ZM29.3162 21.1875C29.2887 21.4404 29.3294 21.7011 29.4501 21.94C29.4698 21.9794 29.4742 22.0214 29.4825 22.0625H27.3125V21.1875H29.3162ZM13.75 13.3125H26C26.2415 13.3125 26.4375 13.5085 26.4375 13.75V15.9375H13.3125V13.75C13.3125 13.5085 13.5085 13.3125 13.75 13.3125ZM13.3125 22.5V16.8125H26.4375V22.5C26.4375 22.7415 26.2415 22.9375 26 22.9375H13.75C13.5085 22.9375 13.3125 22.7415 13.3125 22.5ZM27.75 38.6875H23.375V36.9375H27.75V38.6875ZM33.875 36.0625H25.5625H17.25C16.5264 36.0625 15.9375 35.4736 15.9375 34.75V23.8125H16.8125V32.5625C16.8125 33.0451 17.2049 33.4375 17.6875 33.4375H25.5625H33.4375C33.9201 33.4375 34.3125 33.0451 34.3125 32.5625V29.9191C34.6682 29.8605 34.9814 29.6619 35.1875 29.3722V34.75C35.1875 35.4736 34.5986 36.0625 33.875 36.0625ZM38.6875 24.4679C38.6875 24.6718 38.5576 24.8511 38.3637 24.9146C37.9823 25.0401 37.6812 25.3228 37.5386 25.6894C37.5203 25.7366 37.5006 25.7834 37.4809 25.8294C37.3251 26.1877 37.3391 26.5981 37.5189 26.9546C37.6108 27.1362 37.5758 27.3549 37.4323 27.4989L37.1239 27.8069C36.9804 27.9513 36.7616 27.9858 36.5792 27.8939C36.2235 27.7141 35.8127 27.7001 35.4548 27.8554C35.4084 27.8756 35.3616 27.8953 35.3148 27.9136C34.9478 28.0563 34.6656 28.3577 34.54 28.7396C34.4761 28.9326 34.2968 29.0625 34.0929 29.0625H33.6571C33.4532 29.0625 33.2739 28.9326 33.2104 28.7387C33.0849 28.3572 32.8022 28.0563 32.4356 27.9136C32.3884 27.8953 32.3416 27.8756 32.2956 27.8559C32.1302 27.7841 31.9539 27.7482 31.7767 27.7482C31.5698 27.7482 31.3624 27.7968 31.1699 27.8939C30.9888 27.9858 30.7701 27.9508 30.6257 27.8073L30.3177 27.4989C30.1737 27.3549 30.1388 27.1362 30.2306 26.9542C30.4104 26.5981 30.4244 26.1877 30.2691 25.8298C30.249 25.7834 30.2293 25.7366 30.2109 25.6898C30.0683 25.3228 29.7669 25.0406 29.3849 24.915C29.1924 24.8511 29.0625 24.6718 29.0625 24.4679V24.0321C29.0625 23.8282 29.1924 23.6489 29.3863 23.5854C29.7677 23.4599 30.0688 23.1772 30.2114 22.8106C30.2297 22.7634 30.2494 22.7166 30.2691 22.6706C30.4249 22.3123 30.4109 21.9019 30.2311 21.5454C30.1392 21.3638 30.1742 21.1451 30.3177 21.0011L30.6261 20.6927C30.7701 20.5492 30.9893 20.5146 31.1708 20.6061C31.5269 20.7859 31.9377 20.8003 32.2952 20.6446C32.3416 20.6244 32.3884 20.6047 32.4352 20.5864C32.8022 20.4437 33.0844 20.1423 33.21 19.7604C33.2739 19.5674 33.4532 19.4375 33.6571 19.4375H34.0929C34.2968 19.4375 34.4761 19.5674 34.5396 19.7613C34.6651 20.1427 34.9478 20.4437 35.3144 20.5864C35.3616 20.6047 35.4084 20.6244 35.4544 20.6441C35.8131 20.7999 36.2231 20.7859 36.5796 20.6061C36.7616 20.5138 36.9804 20.5496 37.1239 20.6927L37.4319 21.0011C37.5758 21.1451 37.6108 21.3638 37.5189 21.5458C37.3391 21.9019 37.3251 22.3123 37.4804 22.6702C37.5006 22.7166 37.5203 22.7634 37.5386 22.8102C37.6812 23.1772 37.9827 23.4594 38.3646 23.585C38.5576 23.6489 38.6875 23.8282 38.6875 24.0321V24.4679Z" fill="#222931"/>
<path d="M17.6875 14.1875H18.5625V15.0625H17.6875V14.1875Z" fill="#222931"/>
<path d="M14.1875 14.1875H15.0625V15.0625H14.1875V14.1875Z" fill="#222931"/>
<path d="M15.9375 14.1875H16.8125V15.0625H15.9375V14.1875Z" fill="#222931"/>
<path d="M26.875 34.75C26.875 34.0264 26.2861 33.4375 25.5625 33.4375C24.8389 33.4375 24.25 34.0264 24.25 34.75C24.25 35.4736 24.8389 36.0625 25.5625 36.0625C26.2861 36.0625 26.875 35.4736 26.875 34.75ZM25.5625 35.1875C25.321 35.1875 25.125 34.9915 25.125 34.75C25.125 34.5085 25.321 34.3125 25.5625 34.3125C25.804 34.3125 26 34.5085 26 34.75C26 34.9915 25.804 35.1875 25.5625 35.1875Z" fill="#222931"/>
<path d="M18.5625 24.6875H27.3125V25.5625H18.5625V24.6875Z" fill="#222931"/>
<path d="M18.5625 26.4375H27.3125V27.3125H18.5625V26.4375Z" fill="#222931"/>
<path d="M18.2532 28.4968L19.6939 29.9375L18.2532 31.3782L18.8718 31.9968L20.9311 29.9375L18.8718 27.8782L18.2532 28.4968Z" fill="#222931"/>
<path d="M21.1875 30.8125H24.6875V31.6875H21.1875V30.8125Z" fill="#222931"/>
<path d="M14.1875 17.6875H15.9375V18.5625H14.1875V17.6875Z" fill="#222931"/>
<path d="M16.8125 17.6875H21.1875V18.5625H16.8125V17.6875Z" fill="#222931"/>
<path d="M22.0625 22.0625H25.5625V17.6875H22.0625V22.0625ZM22.9375 18.5625H24.6875V21.1875H22.9375V18.5625Z" fill="#222931"/>
<path d="M14.1875 19.4375H21.1875V20.3125H14.1875V19.4375Z" fill="#222931"/>
<path d="M19.4375 21.1875H21.1875V22.0625H19.4375V21.1875Z" fill="#222931"/>
<path d="M17.6875 21.1875H18.5625V22.0625H17.6875V21.1875Z" fill="#222931"/>
<path d="M14.1875 21.1875H16.8125V22.0625H14.1875V21.1875Z" fill="#222931"/>
</g>
<rect x="0.5" y="0.5" width="51" height="51" rx="25.5" stroke="#222931"/>
<defs>
<clipPath id="clip0_10550_7332">
<rect width="28" height="28" fill="white" transform="translate(12 12)"/>
</clipPath>
</defs>
</svg>
