<svg width="23" height="24" viewBox="0 0 23 24" fill="none" xmlns="http://www.w3.org/2000/svg">
<path d="M1.75 2.25H2.5V3H1.75V2.25Z" fill="#222931"/>
<path d="M3.25 2.25H4V3H3.25V2.25Z" fill="#222931"/>
<path d="M4.75 2.25H5.5V3H4.75V2.25Z" fill="#222931"/>
<path d="M21.625 0.75H1.375C1.07674 0.750341 0.790786 0.868977 0.579882 1.07988C0.368977 1.29079 0.250341 1.57674 0.25 1.875V22.125C0.250341 22.4233 0.368977 22.7092 0.579882 22.9201C0.790786 23.131 1.07674 23.2497 1.375 23.25H21.625C21.9233 23.2497 22.2092 23.131 22.4201 22.9201C22.631 22.7092 22.7497 22.4233 22.75 22.125V1.875C22.7497 1.57674 22.631 1.29079 22.4201 1.07988C22.2092 0.868977 21.9233 0.750341 21.625 0.75ZM22 2.25H6.25V3H22V22.125C21.9999 22.2244 21.9603 22.3197 21.89 22.39C21.8197 22.4603 21.7244 22.4999 21.625 22.5H1.375C1.27558 22.4999 1.18026 22.4603 1.10996 22.39C1.03966 22.3197 1.00011 22.2244 1 22.125V1.875C1.00011 1.77558 1.03966 1.68026 1.10996 1.60996C1.18026 1.53966 1.27558 1.50011 1.375 1.5H21.625C21.7244 1.50011 21.8197 1.53966 21.89 1.60996C21.9603 1.68026 21.9999 1.77558 22 1.875V2.25Z" fill="#222931"/>
<path d="M7.375 4.5H15.625V5.25H7.375V4.5Z" fill="#222931"/>
<path d="M2.5 7.875V10.125C2.5 10.2245 2.53951 10.3198 2.60984 10.3902C2.68016 10.4605 2.77554 10.5 2.875 10.5H14.125V9.75H3.25V8.25H19.75V9.75H18.625V10.5H20.125C20.2245 10.5 20.3198 10.4605 20.3902 10.3902C20.4605 10.3198 20.5 10.2245 20.5 10.125V7.875C20.5 7.77554 20.4605 7.68016 20.3902 7.60984C20.3198 7.53951 20.2245 7.5 20.125 7.5H2.875C2.77554 7.5 2.68016 7.53951 2.60984 7.60984C2.53951 7.68016 2.5 7.77554 2.5 7.875Z" fill="#222931"/>
<path d="M2.5 6H5.875V6.75H2.5V6Z" fill="#222931"/>
<path d="M2.5 11.625H7.75V12.375H2.5V11.625Z" fill="#222931"/>
<path d="M20.125 13.125H19V13.875H19.75V15.375H17.8017L18.2515 15.2098C18.2977 15.1928 18.3401 15.1669 18.3763 15.1335C18.4125 15.1001 18.4418 15.0599 18.4625 15.0152C18.4832 14.9706 18.4949 14.9222 18.4969 14.873C18.4989 14.8238 18.4911 14.7747 18.4742 14.7285L17.6053 12.3633L18.6651 12.2494C18.7403 12.2413 18.8114 12.2107 18.8689 12.1614C18.9264 12.1122 18.9676 12.0467 18.9872 11.9736C19.0068 11.9005 19.0038 11.8232 18.9786 11.7518C18.9535 11.6804 18.9073 11.6184 18.8461 11.5737L15.5704 9.18154C15.5205 9.14513 15.4625 9.12159 15.4013 9.11301C15.3402 9.10443 15.2779 9.11108 15.2199 9.13237C15.162 9.15366 15.1102 9.18892 15.0691 9.23504C15.0281 9.28115 14.9991 9.33668 14.9846 9.39671L14.0364 13.3406C14.0187 13.4142 14.0237 13.4914 14.0507 13.5621C14.0777 13.6328 14.1255 13.6936 14.1877 13.7367C14.25 13.7797 14.3238 13.8029 14.3995 13.8032C14.4752 13.8035 14.5492 13.7809 14.6118 13.7384L15.4933 13.1392L16.3146 15.375H3.25V13.875H13.375V13.125H2.875C2.77554 13.125 2.68016 13.1645 2.60984 13.2348C2.53951 13.3052 2.5 13.4006 2.5 13.5V15.75C2.5 15.8495 2.53951 15.9448 2.60984 16.0152C2.68016 16.0855 2.77554 16.125 2.875 16.125H20.125C20.2245 16.125 20.3198 16.0855 20.3902 16.0152C20.4605 15.9448 20.5 15.8495 20.5 15.75V13.5C20.5 13.4006 20.4605 13.3052 20.3902 13.2348C20.3198 13.1645 20.2245 13.125 20.125 13.125ZM15.7944 12.202C15.7402 12.1846 15.6826 12.1797 15.6262 12.1878C15.5698 12.196 15.516 12.2168 15.4689 12.2489L14.9924 12.5728L15.5823 10.1189L17.6205 11.6074L17.0476 11.6689C16.991 11.675 16.9364 11.6939 16.8882 11.7243C16.8399 11.7546 16.7992 11.7955 16.7691 11.8439C16.7391 11.8923 16.7204 11.9469 16.7146 12.0036C16.7088 12.0603 16.716 12.1176 16.7357 12.1711L17.6409 14.6351L16.9369 14.8937L16.0317 12.4297C16.0121 12.3762 15.9805 12.3279 15.9394 12.2885C15.8982 12.249 15.8487 12.2194 15.7944 12.202Z" fill="#222931"/>
<path d="M2.5 17.25H7.75V18H2.5V17.25Z" fill="#222931"/>
<path d="M20.125 18.75H2.875C2.77554 18.75 2.68016 18.7895 2.60984 18.8598C2.53951 18.9302 2.5 19.0255 2.5 19.125V21.375C2.5 21.4745 2.53951 21.5698 2.60984 21.6402C2.68016 21.7105 2.77554 21.75 2.875 21.75H20.125C20.2245 21.75 20.3198 21.7105 20.3902 21.6402C20.4605 21.5698 20.5 21.4745 20.5 21.375V19.125C20.5 19.0255 20.4605 18.9302 20.3902 18.8598C20.3198 18.7895 20.2245 18.75 20.125 18.75ZM19.75 21H3.25V19.5H19.75V21Z" fill="black"/>
</svg>
