<svg width="19" height="18" viewBox="0 0 19 18" fill="none" xmlns="http://www.w3.org/2000/svg">
<g id="Delete">
<path id="Vector" d="M15.6562 4.5C15.4325 4.5 15.2179 4.58889 15.0596 4.74711C14.9014 4.90533 14.8125 5.11993 14.8125 5.34369V14.7854C14.7883 15.2121 14.5965 15.6119 14.2788 15.8977C13.9612 16.1836 13.5434 16.3324 13.1166 16.3117H6.38344C5.95658 16.3324 5.53883 16.1836 5.22118 15.8977C4.90352 15.6119 4.7117 15.2121 4.6875 14.7854V5.34369C4.6875 5.11993 4.59861 4.90533 4.44037 4.74711C4.28214 4.58889 4.06753 4.5 3.84375 4.5C3.61997 4.5 3.40536 4.58889 3.24713 4.74711C3.0889 4.90533 3 5.11993 3 5.34369V14.7854C3.02408 15.6597 3.39368 16.4888 4.02784 17.0911C4.662 17.6934 5.50904 18.0199 6.38344 17.9991H13.1166C13.991 18.0199 14.838 17.6934 15.4722 17.0911C16.1063 16.4888 16.4759 15.6597 16.5 14.7854V5.34369C16.5 5.11993 16.4111 4.90533 16.2529 4.74711C16.0946 4.58889 15.88 4.5 15.6562 4.5Z" fill="#DC3545"/>
<path id="Vector_2" d="M16.75 2.7H13.25V0.9C13.25 0.661305 13.1578 0.432387 12.9937 0.263604C12.8296 0.0948211 12.6071 0 12.375 0H7.125C6.89294 0 6.67038 0.0948211 6.50628 0.263604C6.34219 0.432387 6.25 0.661305 6.25 0.9V2.7H2.75C2.51794 2.7 2.29538 2.79482 2.13128 2.9636C1.96719 3.13239 1.875 3.3613 1.875 3.6C1.875 3.83869 1.96719 4.06761 2.13128 4.2364C2.29538 4.40518 2.51794 4.5 2.75 4.5H16.75C16.9821 4.5 17.2046 4.40518 17.3687 4.2364C17.5328 4.06761 17.625 3.83869 17.625 3.6C17.625 3.3613 17.5328 3.13239 17.3687 2.9636C17.2046 2.79482 16.9821 2.7 16.75 2.7ZM8 2.7V1.8H11.5V2.7H8Z" fill="#DC3545"/>
<path id="Vector_3" d="M8.625 12.75V7.5C8.625 7.30109 8.56574 7.11032 8.46025 6.96967C8.35476 6.82902 8.21168 6.75 8.0625 6.75C7.91332 6.75 7.77024 6.82902 7.66475 6.96967C7.55926 7.11032 7.5 7.30109 7.5 7.5V12.75C7.5 12.9489 7.55926 13.1397 7.66475 13.2803C7.77024 13.421 7.91332 13.5 8.0625 13.5C8.21168 13.5 8.35476 13.421 8.46025 13.2803C8.56574 13.1397 8.625 12.9489 8.625 12.75Z" fill="#DC3545"/>
<path id="Vector_4" d="M12 12.75V7.5C12 7.30109 11.9407 7.11032 11.8352 6.96967C11.7298 6.82902 11.5867 6.75 11.4375 6.75C11.2883 6.75 11.1452 6.82902 11.0398 6.96967C10.9343 7.11032 10.875 7.30109 10.875 7.5V12.75C10.875 12.9489 10.9343 13.1397 11.0398 13.2803C11.1452 13.421 11.2883 13.5 11.4375 13.5C11.5867 13.5 11.7298 13.421 11.8352 13.2803C11.9407 13.1397 12 12.9489 12 12.75Z" fill="#DC3545"/>
</g>
</svg>
