<svg width="17" height="16" viewBox="0 0 17 16" fill="none" xmlns="http://www.w3.org/2000/svg">
<path d="M16.75 13.3337V10.667C16.75 10.4902 16.6798 10.3206 16.5547 10.1956C16.4297 10.0706 16.2601 10.0003 16.0833 10.0003C15.9065 10.0003 15.737 10.0706 15.6119 10.1956C15.4869 10.3206 15.4167 10.4902 15.4167 10.667V13.3337C15.4167 13.5105 15.3464 13.68 15.2214 13.8051C15.0964 13.9301 14.9268 14.0003 14.75 14.0003H2.75C2.57319 14.0003 2.40362 13.9301 2.2786 13.8051C2.15357 13.68 2.08333 13.5105 2.08333 13.3337V10.667C2.08333 10.4902 2.0131 10.3206 1.88807 10.1956C1.76305 10.0706 1.59348 10.0003 1.41667 10.0003C1.23986 10.0003 1.07029 10.0706 0.945262 10.1956C0.820238 10.3206 0.75 10.4902 0.75 10.667V13.3337C0.75 13.8641 0.960714 14.3728 1.33579 14.7479C1.71086 15.1229 2.21957 15.3337 2.75 15.3337H14.75C15.2804 15.3337 15.7891 15.1229 16.1642 14.7479C16.5393 14.3728 16.75 13.8641 16.75 13.3337ZM12.4967 9.85366L9.16333 12.5203C9.04564 12.6133 8.90001 12.6639 8.75 12.6639C8.59999 12.6639 8.45436 12.6133 8.33667 12.5203L5.00333 9.85366C4.88188 9.73901 4.80788 9.58296 4.79598 9.41636C4.78408 9.24977 4.83514 9.08477 4.93907 8.95403C5.04299 8.82328 5.19221 8.73631 5.35719 8.71032C5.52218 8.68432 5.69091 8.7212 5.83 8.81366L8.08333 10.6137V1.33366C8.08333 1.15685 8.15357 0.987279 8.2786 0.862254C8.40362 0.73723 8.57319 0.666992 8.75 0.666992C8.92681 0.666992 9.09638 0.73723 9.22141 0.862254C9.34643 0.987279 9.41667 1.15685 9.41667 1.33366V10.6137L11.67 8.81366C11.7371 8.75029 11.8167 8.70156 11.9036 8.67054C11.9906 8.63953 12.083 8.62691 12.1751 8.63349C12.2672 8.64007 12.3569 8.6657 12.4386 8.70875C12.5202 8.75181 12.5921 8.81136 12.6495 8.88363C12.7069 8.9559 12.7487 9.03931 12.7723 9.12858C12.7958 9.21784 12.8005 9.31102 12.7862 9.40222C12.7718 9.49341 12.7386 9.58062 12.6888 9.65833C12.639 9.73604 12.5735 9.80256 12.4967 9.85366Z" fill="#DC3545"/>
</svg>
