<svg width="16" height="16" viewBox="0 0 16 16" fill="none" xmlns="http://www.w3.org/2000/svg">
<g clip-path="url(#clip0_4514_240439)">
<path d="M8.21431 15.9166C7.84289 15.9173 7.47498 15.8405 7.13162 15.6907C6.78825 15.5408 6.47617 15.3208 6.2132 15.0432L1.59483 10.1562C1.48839 10.0435 1.42859 9.89077 1.42859 9.73148C1.42859 9.57218 1.48839 9.41941 1.59483 9.30678C1.70128 9.19414 1.84565 9.13086 1.99619 9.13086C2.14672 9.13086 2.29109 9.19414 2.39754 9.30678L7.01591 14.1938C7.33388 14.5299 7.76491 14.7187 8.21431 14.7187C8.66371 14.7187 9.09474 14.5299 9.41271 14.1938L14.0311 9.30678C14.1375 9.19414 14.2819 9.13086 14.4324 9.13086C14.583 9.13086 14.7273 9.19414 14.8338 9.30678C14.9402 9.41941 15 9.57218 15 9.73148C15 9.89077 14.9402 10.0435 14.8338 10.1562L10.2154 15.0432C9.95245 15.3208 9.64036 15.5408 9.297 15.6907C8.95364 15.8405 8.58573 15.9173 8.21431 15.9166Z" fill="#FA981C"/>
<path d="M8.21431 0.0831832C8.58573 0.0824813 8.95364 0.159251 9.297 0.309103C9.64037 0.458955 9.95245 0.678951 10.2154 0.956513L14.8338 5.84358C14.9402 5.95621 15 6.10898 15 6.26828C15 6.42757 14.9402 6.58034 14.8338 6.69298C14.7273 6.80562 14.583 6.8689 14.4324 6.8689C14.2819 6.8689 14.1375 6.80562 14.0311 6.69298L9.41271 1.80592C9.09474 1.46986 8.66371 1.28111 8.21431 1.28111C7.76491 1.28111 7.33388 1.46986 7.01591 1.80592L2.39754 6.69298C2.29109 6.80562 2.14672 6.8689 1.99619 6.8689C1.84565 6.8689 1.70128 6.80562 1.59484 6.69298C1.48839 6.58034 1.42859 6.42757 1.42859 6.26828C1.42859 6.10898 1.48839 5.95621 1.59484 5.84357L6.21321 0.956513C6.47617 0.678951 6.78826 0.458955 7.13162 0.309103C7.47498 0.159251 7.84289 0.0824812 8.21431 0.0831832Z" fill="#FA981C"/>
</g>
<defs>
<clipPath id="clip0_4514_240439">
<rect width="15.5714" height="15.8333" fill="white" transform="translate(0.428589 0.083252)"/>
</clipPath>
</defs>
</svg>
