<svg width="15" height="16" viewBox="0 0 15 16" fill="none" xmlns="http://www.w3.org/2000/svg">
<g id="Layer 2">
<g id="Microsoft Excel file">
<path id="Vector" d="M12.4553 16H4.27108C3.72907 15.9995 3.20945 15.8011 2.82619 15.4484C2.44293 15.0957 2.22734 14.6175 2.22672 14.1188V11.6619C2.22672 11.579 2.26249 11.4995 2.32618 11.4409C2.38987 11.3823 2.47624 11.3494 2.56631 11.3494C2.65638 11.3494 2.74275 11.3823 2.80644 11.4409C2.87013 11.4995 2.90591 11.579 2.90591 11.6619V14.1188C2.90635 14.4518 3.05033 14.7711 3.30625 15.0066C3.56217 15.2421 3.90915 15.3746 4.27108 15.375H12.4553C12.8173 15.3746 13.1643 15.2421 13.4203 15.0066C13.6762 14.7712 13.8203 14.4519 13.8208 14.1188V11.3035C13.8208 11.2206 13.8566 11.1411 13.9203 11.0825C13.984 11.0239 14.0704 10.991 14.1604 10.991C14.2505 10.991 14.3369 11.0239 14.4006 11.0825C14.4642 11.1411 14.5 11.2206 14.5 11.3035V14.1188C14.4993 14.6176 14.2836 15.0957 13.9003 15.4484C13.517 15.8011 12.9974 15.9995 12.4553 16Z" fill="#DC3545"/>
<path id="Vector_2" d="M14.159 10.7222C14.069 10.7222 13.9826 10.6893 13.9189 10.6307C13.8552 10.5721 13.8194 10.4926 13.8194 10.4097V3.24531C13.8192 3.15672 13.7986 3.06918 13.759 2.98841C13.7194 2.90764 13.6618 2.83545 13.5899 2.77656L11.155 0.785C11.0302 0.68229 10.8687 0.62535 10.7013 0.625H4.61065C4.15838 0.625662 3.72486 0.791347 3.40515 1.08572C3.08544 1.3801 2.90565 1.77913 2.9052 2.19531V6.00375C2.9052 6.08663 2.86942 6.16612 2.80574 6.22472C2.74205 6.28333 2.65567 6.31625 2.56561 6.31625C2.47554 6.31625 2.38916 6.28333 2.32548 6.22472C2.26179 6.16612 2.22601 6.08663 2.22601 6.00375V2.19531C2.22664 1.61342 2.47805 1.05551 2.92509 0.643963C3.37213 0.232414 3.9783 0.000827229 4.61065 2.3467e-08H10.7013C11.0349 -5.93602e-05 11.357 0.112587 11.6063 0.316563L14.0412 2.30844C14.1851 2.4261 14.3003 2.57048 14.3791 2.73208C14.4579 2.89367 14.4987 3.0688 14.4986 3.24594V10.4097C14.4986 10.4926 14.4629 10.5721 14.3992 10.6307C14.3355 10.6893 14.2491 10.7222 14.159 10.7222Z" fill="#DC3545"/>
<path id="Vector_3" d="M14.1417 3.39252H12.113C11.7518 3.3921 11.4055 3.25988 11.1501 3.02485C10.8947 2.78981 10.751 2.47116 10.7505 2.13877V0.384705C10.7505 0.301824 10.7863 0.222339 10.85 0.163734C10.9137 0.105129 11.0001 0.0722046 11.0901 0.0722046C11.1802 0.0722046 11.2666 0.105129 11.3303 0.163734C11.3939 0.222339 11.4297 0.301824 11.4297 0.384705V2.13877C11.4299 2.30547 11.5019 2.4653 11.63 2.58318C11.7581 2.70106 11.9318 2.76735 12.113 2.76752H14.1417C14.2318 2.76752 14.3182 2.80044 14.3819 2.85905C14.4455 2.91765 14.4813 2.99714 14.4813 3.08002C14.4813 3.1629 14.4455 3.24238 14.3819 3.30099C14.3182 3.35959 14.2318 3.39252 14.1417 3.39252Z" fill="#DC3545"/>
<path id="Vector_4" d="M7.44662 10.4028C7.16204 10.4028 7.14404 10.3997 7.1179 10.3953C7.03977 10.3821 6.96916 10.3441 6.91835 10.2879C6.86753 10.2317 6.83973 10.1609 6.83977 10.0878V7.57532C6.83977 7.49244 6.87555 7.41295 6.93923 7.35435C7.00292 7.29574 7.0893 7.26282 7.17936 7.26282C7.26943 7.26282 7.35581 7.29574 7.41949 7.35435C7.48318 7.41295 7.51896 7.49244 7.51896 7.57532V9.7775C7.67891 9.7775 7.87791 9.7775 8.06571 9.77532H8.06774C8.15781 9.77507 8.24429 9.80775 8.30817 9.86618C8.37205 9.92461 8.40809 10.004 8.40836 10.0869C8.40863 10.1698 8.37311 10.2493 8.30961 10.3081C8.24612 10.3669 8.15985 10.4001 8.06978 10.4003C7.78079 10.4022 7.58314 10.4028 7.44662 10.4028Z" fill="#DC3545"/>
<path id="Vector_5" d="M10.3865 10.4025C9.92567 10.4025 9.47571 10.225 9.1823 9.92722C9.15222 9.89683 9.12894 9.86128 9.11382 9.8226C9.09869 9.78392 9.092 9.74288 9.09414 9.70182C9.09628 9.66076 9.1072 9.62049 9.12627 9.58332C9.14535 9.54615 9.17221 9.51281 9.20531 9.48521C9.23841 9.4576 9.2771 9.43628 9.31917 9.42246C9.36124 9.40864 9.40586 9.40259 9.45047 9.40467C9.49509 9.40674 9.53882 9.41689 9.57916 9.43454C9.6195 9.45219 9.65567 9.477 9.68558 9.50753C9.85232 9.67659 10.1141 9.77753 10.3865 9.77753C10.6514 9.77753 10.8385 9.63159 10.8657 9.49003C10.9023 9.30253 10.628 9.18659 10.506 9.14628C10.0826 9.00253 9.70629 8.84846 9.69101 8.8419C9.67465 8.83521 9.65887 8.82737 9.64381 8.81846C9.50357 8.73508 9.3925 8.61619 9.32394 8.4761C9.25538 8.33601 9.23226 8.18068 9.25735 8.02878C9.30965 7.69378 9.57589 7.42065 9.9525 7.31628C10.6996 7.10971 11.3109 7.57534 11.3377 7.59534C11.406 7.64869 11.4487 7.72473 11.4563 7.80688C11.464 7.88903 11.436 7.97063 11.3786 8.03391C11.3212 8.0972 11.2389 8.13703 11.1497 8.14473C11.0605 8.15243 10.9716 8.12738 10.9023 8.07503C10.8918 8.06753 10.5342 7.80753 10.1484 7.91471C9.97186 7.96378 9.93654 8.07284 9.92975 8.11784C9.92418 8.14846 9.92753 8.17989 9.93946 8.20893C9.95139 8.23797 9.97148 8.26358 9.99767 8.28315C10.0934 8.32159 10.4052 8.44597 10.7424 8.56003C11.4304 8.79378 11.6033 9.25065 11.5354 9.60065C11.444 10.065 10.9611 10.4025 10.3865 10.4025Z" fill="#DC3545"/>
<path id="Vector_6" d="M5.84746 10.4025C5.79301 10.4025 5.73935 10.3905 5.691 10.3674C5.64265 10.3444 5.60104 10.3109 5.56968 10.27L3.64723 7.75497C3.62158 7.72138 3.60338 7.68347 3.59366 7.64341C3.58394 7.60335 3.58289 7.56191 3.59057 7.52148C3.59824 7.48104 3.6145 7.44239 3.63841 7.40774C3.66232 7.37308 3.69342 7.3431 3.72992 7.3195C3.76642 7.29591 3.80762 7.27916 3.85115 7.27021C3.89469 7.26126 3.93971 7.2603 3.98366 7.26736C4.0276 7.27443 4.0696 7.28939 4.10726 7.31139C4.14492 7.33339 4.1775 7.36201 4.20314 7.3956L6.12525 9.91028C6.16098 9.95707 6.18208 10.012 6.18624 10.069C6.19041 10.1261 6.17748 10.1831 6.14886 10.2339C6.12025 10.2846 6.07705 10.3272 6.02396 10.3569C5.97088 10.3866 5.90995 10.4024 5.8478 10.4025H5.84746Z" fill="#DC3545"/>
<path id="Vector_7" d="M3.78648 10.4025C3.72431 10.4024 3.66335 10.3867 3.61026 10.3569C3.55717 10.3271 3.51398 10.2845 3.4854 10.2337C3.45681 10.1829 3.44393 10.1259 3.44816 10.0688C3.45238 10.0117 3.47356 9.95678 3.50937 9.91002L5.43453 7.39533C5.48641 7.32758 5.56541 7.28156 5.65416 7.26741C5.74291 7.25326 5.83413 7.27212 5.90776 7.31986C5.98139 7.3676 6.03139 7.4403 6.04677 7.52197C6.06215 7.60363 6.04165 7.68758 5.98977 7.75533L4.0646 10.27C4.0332 10.311 3.99154 10.3445 3.94313 10.3675C3.89472 10.3906 3.84099 10.4026 3.78648 10.4025Z" fill="#DC3545"/>
<path id="Vector_8" d="M2.2121 13.4688H1.69014C1.37491 13.4688 1.07259 13.3535 0.849684 13.1484C0.626782 12.9433 0.501556 12.6651 0.501556 12.375C0.501556 12.0849 0.626782 11.8067 0.849684 11.6016C1.07259 11.3965 1.37491 11.2812 1.69014 11.2812H3.23258C3.32265 11.2812 3.40902 11.3142 3.47271 11.3728C3.5364 11.4314 3.57217 11.5109 3.57217 11.5938C3.57217 11.6766 3.5364 11.7561 3.47271 11.8147C3.40902 11.8733 3.32265 11.9062 3.23258 11.9062H1.69014C1.55504 11.9062 1.42547 11.9556 1.32994 12.0435C1.23441 12.1315 1.18075 12.2507 1.18075 12.375C1.18075 12.4993 1.23441 12.6185 1.32994 12.7065C1.42547 12.7944 1.55504 12.8438 1.69014 12.8438H2.21312C2.30318 12.8438 2.38956 12.8767 2.45325 12.9353C2.51693 12.9939 2.55271 13.0734 2.55271 13.1562C2.55271 13.2391 2.51693 13.3186 2.45325 13.3772C2.38956 13.4358 2.30318 13.4688 2.21312 13.4688H2.2121Z" fill="#DC3545"/>
<path id="Vector_9" d="M0.845561 12.5975C0.755495 12.5975 0.669118 12.5646 0.605431 12.506C0.541745 12.4473 0.505966 12.3679 0.505966 12.285L0.520569 6.78498C0.521109 6.49522 0.646572 6.21751 0.869416 6.01279C1.09226 5.80808 1.39427 5.6931 1.70915 5.69311L14.1597 5.69092C14.2498 5.69092 14.3362 5.72384 14.3999 5.78245C14.4635 5.84105 14.4993 5.92054 14.4993 6.00342V11.5937C14.4993 11.6766 14.4635 11.7561 14.3999 11.8147C14.3362 11.8733 14.2498 11.9062 14.1597 11.9062H2.04807C1.958 11.9062 1.87162 11.8733 1.80794 11.8147C1.74425 11.7561 1.70847 11.6766 1.70847 11.5937C1.70847 11.5109 1.74425 11.4314 1.80794 11.3728C1.87162 11.3142 1.958 11.2812 2.04807 11.2812H13.8195V6.31404L1.70813 6.31623C1.57303 6.31623 1.44347 6.36562 1.34794 6.45352C1.25241 6.54143 1.19874 6.66066 1.19874 6.78498L1.18414 12.285C1.18414 12.3677 1.1485 12.447 1.08503 12.5056C1.02157 12.5642 0.935451 12.5972 0.845561 12.5975Z" fill="#DC3545"/>
</g>
</g>
</svg>
