<svg width="24" height="24" viewBox="0 0 24 24" fill="none" xmlns="http://www.w3.org/2000/svg">
<path fill-rule="evenodd" clip-rule="evenodd" d="M20 6.66666C20 6.13622 20.2107 5.62752 20.5858 5.25244C20.9609 4.87737 21.4696 4.66666 22 4.66666C22.5304 4.66666 23.0391 4.87737 23.4142 5.25244C23.7893 5.62752 24 6.13622 24 6.66666V20.202L22 23.202L20 20.202V6.66666ZM22 5.99999C21.8232 5.99999 21.6536 6.07023 21.5286 6.19525C21.4036 6.32028 21.3333 6.48985 21.3333 6.66666V19.798L22 20.798L22.6667 19.798V6.66666C22.6667 6.48985 22.5964 6.32028 22.4714 6.19525C22.3464 6.07023 22.1768 5.99999 22 5.99999Z" fill="white"/>
<path fill-rule="evenodd" clip-rule="evenodd" d="M23.3333 9.33333H20.6667V8H23.3333V9.33333ZM2.66667 1.33333C2.31304 1.33333 1.97391 1.47381 1.72386 1.72386C1.47381 1.97391 1.33333 2.31304 1.33333 2.66667V21.3333C1.33333 21.687 1.47381 22.0261 1.72386 22.2761C1.97391 22.5262 2.31304 22.6667 2.66667 22.6667H16C16.3536 22.6667 16.6928 22.5262 16.9428 22.2761C17.1929 22.0261 17.3333 21.687 17.3333 21.3333V2.66667C17.3333 2.31304 17.1929 1.97391 16.9428 1.72386C16.6928 1.47381 16.3536 1.33333 16 1.33333H2.66667ZM0 2.66667C0 1.95942 0.280951 1.28115 0.781048 0.781048C1.28115 0.280951 1.95942 0 2.66667 0H16C16.7072 0 17.3855 0.280951 17.8856 0.781048C18.3857 1.28115 18.6667 1.95942 18.6667 2.66667V21.3333C18.6667 22.0406 18.3857 22.7189 17.8856 23.219C17.3855 23.719 16.7072 24 16 24H2.66667C1.95942 24 1.28115 23.719 0.781048 23.219C0.280951 22.7189 0 22.0406 0 21.3333V2.66667Z" fill="white"/>
<path fill-rule="evenodd" clip-rule="evenodd" d="M9.33306 6.00001C9.33306 5.8232 9.4033 5.65363 9.52832 5.52861C9.65335 5.40358 9.82292 5.33334 9.99973 5.33334H15.3331C15.5099 5.33334 15.6794 5.40358 15.8045 5.52861C15.9295 5.65363 15.9997 5.8232 15.9997 6.00001C15.9997 6.17682 15.9295 6.34639 15.8045 6.47141C15.6794 6.59644 15.5099 6.66668 15.3331 6.66668H9.99973C9.82292 6.66668 9.65335 6.59644 9.52832 6.47141C9.4033 6.34639 9.33306 6.17682 9.33306 6.00001ZM9.33306 8.66668C9.33306 8.48987 9.4033 8.3203 9.52832 8.19527C9.65335 8.07025 9.82292 8.00001 9.99973 8.00001H15.3331C15.5099 8.00001 15.6794 8.07025 15.8045 8.19527C15.9295 8.3203 15.9997 8.48987 15.9997 8.66668C15.9997 8.84349 15.9295 9.01306 15.8045 9.13808C15.6794 9.26311 15.5099 9.33334 15.3331 9.33334H9.99973C9.82292 9.33334 9.65335 9.26311 9.52832 9.13808C9.4033 9.01306 9.33306 8.84349 9.33306 8.66668ZM9.33306 14.6667C9.33306 14.4899 9.4033 14.3203 9.52832 14.1953C9.65335 14.0702 9.82292 14 9.99973 14H15.3331C15.5099 14 15.6794 14.0702 15.8045 14.1953C15.9295 14.3203 15.9997 14.4899 15.9997 14.6667C15.9997 14.8435 15.9295 15.0131 15.8045 15.1381C15.6794 15.2631 15.5099 15.3333 15.3331 15.3333H9.99973C9.82292 15.3333 9.65335 15.2631 9.52832 15.1381C9.4033 15.0131 9.33306 14.8435 9.33306 14.6667ZM9.33306 17.3333C9.33306 17.1565 9.4033 16.987 9.52832 16.8619C9.65335 16.7369 9.82292 16.6667 9.99973 16.6667H15.3331C15.5099 16.6667 15.6794 16.7369 15.8045 16.8619C15.9295 16.987 15.9997 17.1565 15.9997 17.3333C15.9997 17.5102 15.9295 17.6797 15.8045 17.8047C15.6794 17.9298 15.5099 18 15.3331 18H9.99973C9.82292 18 9.65335 17.9298 9.52832 17.8047C9.4033 17.6797 9.33306 17.5102 9.33306 17.3333ZM3.99973 14.6667V16.6667H5.99973V14.6667H3.99973ZM3.33306 13.3333H6.6664C6.84321 13.3333 7.01278 13.4036 7.1378 13.5286C7.26283 13.6536 7.33306 13.8232 7.33306 14V17.3333C7.33306 17.5102 7.26283 17.6797 7.1378 17.8047C7.01278 17.9298 6.84321 18 6.6664 18H3.33306C3.15625 18 2.98668 17.9298 2.86166 17.8047C2.73663 17.6797 2.6664 17.5102 2.6664 17.3333V14C2.6664 13.8232 2.73663 13.6536 2.86166 13.5286C2.98668 13.4036 3.15625 13.3333 3.33306 13.3333ZM7.8044 5.52868C7.92938 5.6537 7.99959 5.82323 7.99959 6.00001C7.99959 6.17679 7.92938 6.34632 7.8044 6.47134L4.6664 9.60934L2.86173 7.80468C2.79806 7.74318 2.74727 7.66962 2.71233 7.58828C2.67739 7.50694 2.659 7.41946 2.65823 7.33094C2.65746 7.24242 2.67433 7.15464 2.70785 7.07271C2.74137 6.99078 2.79087 6.91634 2.85347 6.85375C2.91606 6.79115 2.9905 6.74165 3.07243 6.70813C3.15436 6.67461 3.24214 6.65774 3.33066 6.65851C3.41918 6.65928 3.50666 6.67767 3.588 6.71261C3.66933 6.74755 3.7429 6.79834 3.8044 6.86201L4.6664 7.72401L6.86173 5.52868C6.98675 5.4037 7.15629 5.33349 7.33306 5.33349C7.50984 5.33349 7.67938 5.4037 7.8044 5.52868Z" fill="white"/>
</svg>
