<svg width="16" height="16" viewBox="0 0 16 16" fill="none" xmlns="http://www.w3.org/2000/svg">
<g id="Group">
<path id="Vector" d="M2.34375 6.28125H7.65625C7.91512 6.28125 8.125 6.07138 8.125 5.8125C8.125 5.55362 7.91512 5.34375 7.65625 5.34375H2.34375C2.08487 5.34375 1.875 5.55362 1.875 5.8125C1.875 6.07138 2.08487 6.28125 2.34375 6.28125Z" fill="#DC3545"/>
<path id="Vector_2" d="M2.34375 8.15625H6.40625C6.66512 8.15625 6.875 7.94638 6.875 7.6875C6.875 7.42862 6.66512 7.21875 6.40625 7.21875H2.34375C2.08487 7.21875 1.875 7.42862 1.875 7.6875C1.875 7.94638 2.08487 8.15625 2.34375 8.15625Z" fill="#DC3545"/>
<path id="Vector_3" d="M2.34375 10.0312H6.40625C6.66512 10.0312 6.875 9.82138 6.875 9.5625C6.875 9.30362 6.66512 9.09375 6.40625 9.09375H2.34375C2.08487 9.09375 1.875 9.30362 1.875 9.5625C1.875 9.82138 2.08487 10.0312 2.34375 10.0312Z" fill="#DC3545"/>
<path id="Vector_4" d="M7.65625 10.9688H2.34375C2.08487 10.9688 1.875 11.1786 1.875 11.4375C1.875 11.6964 2.08487 11.9062 2.34375 11.9062H7.65625C7.91512 11.9062 8.125 11.6964 8.125 11.4375C8.125 11.1786 7.91512 10.9688 7.65625 10.9688Z" fill="#DC3545"/>
<path id="Vector_5" d="M15.8627 8.29356L13.9877 6.41856C13.8047 6.2355 13.5078 6.2355 13.3248 6.41856C13.1417 6.60162 13.1417 6.89841 13.3248 7.08147L14.3996 8.15625H12.1875V3.59375C12.1875 3.46944 12.1381 3.35022 12.0502 3.26231L8.92531 0.137313C8.83744 0.0494063 8.71819 0 8.59387 0H1.71875C0.771031 0 0 0.771031 0 1.71875V14.2812C0 15.229 0.771031 16 1.71875 16H10.4688C11.4165 16 12.1875 15.229 12.1875 14.2812V9.09375H14.3996L13.3248 10.1686C13.1417 10.3516 13.1417 10.6484 13.3248 10.8315C13.4163 10.923 13.5363 10.9688 13.6562 10.9688C13.7762 10.9688 13.8962 10.923 13.9877 10.8314L15.8627 8.95644C16.0458 8.77341 16.0458 8.47663 15.8627 8.29356ZM10.5871 3.125H9.0625V1.60044L10.5871 3.125ZM11.25 14.2812C11.25 14.712 10.8995 15.0625 10.4688 15.0625H1.71875C1.28797 15.0625 0.9375 14.712 0.9375 14.2812V1.71875C0.9375 1.28797 1.28797 0.9375 1.71875 0.9375H8.125V3.59375C8.125 3.85262 8.33488 4.0625 8.59375 4.0625H11.25V8.15625H8.03125C7.77238 8.15625 7.5625 8.36613 7.5625 8.625C7.5625 8.88387 7.77238 9.09375 8.03125 9.09375H11.25V14.2812Z" fill="#DC3545"/>
</g>
</svg>
