<svg width="17" height="16" viewBox="0 0 17 16" fill="none" xmlns="http://www.w3.org/2000/svg">
<g clip-path="url(#clip0_1403_3571)">
<path d="M16.3806 7.454C15.7952 6.174 13.4999 2 8.49992 2C3.49991 2 1.20458 6.174 0.619248 7.454C0.540673 7.62553 0.5 7.81199 0.5 8.00067C0.5 8.18934 0.540673 8.3758 0.619248 8.54733C1.20458 9.826 3.49991 14 8.49992 14C13.4999 14 15.7952 9.826 16.3806 8.546C16.459 8.37466 16.4996 8.18843 16.4996 8C16.4996 7.81157 16.459 7.62534 16.3806 7.454ZM8.49992 12.6667C4.29525 12.6667 2.33325 9.08933 1.83325 8.00733C2.33325 6.91067 4.29525 3.33333 8.49992 3.33333C12.6946 3.33333 14.6572 6.89533 15.1666 8C14.6572 9.10467 12.6946 12.6667 8.49992 12.6667Z" fill="#FA981C"/>
<path d="M8.49935 4.66687C7.84008 4.66687 7.19561 4.86237 6.64745 5.22864C6.09929 5.59491 5.67204 6.11551 5.41975 6.72459C5.16746 7.33368 5.10145 8.0039 5.23007 8.6505C5.35868 9.29711 5.67615 9.89105 6.14233 10.3572C6.6085 10.8234 7.20245 11.1409 7.84905 11.2695C8.49565 11.3981 9.16587 11.3321 9.77496 11.0798C10.384 10.8275 10.9046 10.4003 11.2709 9.8521C11.6372 9.30394 11.8327 8.65947 11.8327 8.0002C11.8316 7.11647 11.4801 6.26924 10.8552 5.64435C10.2303 5.01946 9.38308 4.66793 8.49935 4.66687ZM8.49935 10.0002C8.10379 10.0002 7.71711 9.88291 7.38821 9.66314C7.05931 9.44338 6.80297 9.13102 6.65159 8.76557C6.50022 8.40012 6.46061 7.99798 6.53778 7.61002C6.61495 7.22206 6.80543 6.86569 7.08514 6.58599C7.36484 6.30628 7.72121 6.1158 8.10917 6.03863C8.49713 5.96146 8.89927 6.00107 9.26472 6.15244C9.63017 6.30382 9.94253 6.56016 10.1623 6.88906C10.3821 7.21796 10.4994 7.60464 10.4994 8.0002C10.4994 8.53064 10.2886 9.03934 9.91356 9.41442C9.53849 9.78949 9.02978 10.0002 8.49935 10.0002Z" fill="#FA981C"/>
</g>
<defs>
<clipPath id="clip0_1403_3571">
<rect width="16" height="16" fill="white" transform="translate(0.5)"/>
</clipPath>
</defs>
</svg>
