<svg width="16" height="16" viewBox="0 0 16 16" fill="none" xmlns="http://www.w3.org/2000/svg">
<path d="M12.0001 9C11.2371 8.99839 10.5022 9.28755 9.94483 9.80865C9.38751 10.3297 9.04968 11.0436 9.00008 11.805L8.84508 11.645C8.79846 11.5984 8.74312 11.5614 8.68221 11.5362C8.6213 11.5109 8.55601 11.498 8.49008 11.498C8.42415 11.498 8.35887 11.5109 8.29796 11.5362C8.23705 11.5614 8.1817 11.5984 8.13508 11.645C8.08846 11.6916 8.05148 11.747 8.02625 11.8079C8.00102 11.8688 7.98804 11.9341 7.98804 12C7.98804 12.0659 8.00102 12.1312 8.02625 12.1921C8.05148 12.253 8.08846 12.3084 8.13508 12.355L9.13508 13.355C9.18156 13.4019 9.23686 13.4391 9.29779 13.4644C9.35872 13.4898 9.42408 13.5029 9.49008 13.5029C9.55609 13.5029 9.62144 13.4898 9.68237 13.4644C9.7433 13.4391 9.7986 13.4019 9.84508 13.355L10.8451 12.355C10.9392 12.2608 10.9921 12.1331 10.9921 12C10.9921 11.8668 10.9392 11.7392 10.8451 11.645C10.7509 11.5508 10.6232 11.498 10.4901 11.498C10.3569 11.498 10.2292 11.5508 10.1351 11.645L10.0151 11.77C10.0679 11.3522 10.2513 10.9617 10.539 10.6542C10.8268 10.3467 11.2043 10.1379 11.6177 10.0576C12.0311 9.9772 12.4593 10.0294 12.8413 10.2067C13.2233 10.384 13.5396 10.6774 13.7451 11.045C13.9118 11.3357 13.9997 11.6649 14.0001 12C14.0001 12.5304 13.7894 13.0391 13.4143 13.4142C13.0392 13.7893 12.5305 14 12.0001 14C11.6659 14.0026 11.3368 13.9182 11.0451 13.755C10.9873 13.7222 10.9236 13.701 10.8577 13.6928C10.7917 13.6846 10.7248 13.6895 10.6607 13.7071C10.5967 13.7247 10.5367 13.7548 10.4842 13.7956C10.4318 13.8365 10.3879 13.8872 10.3551 13.945C10.3223 14.0028 10.3011 14.0665 10.2929 14.1324C10.2847 14.1984 10.2895 14.2653 10.3072 14.3293C10.3248 14.3934 10.3549 14.4534 10.3957 14.5058C10.4366 14.5583 10.4873 14.6022 10.5451 14.635C10.9457 14.853 11.3907 14.9768 11.8464 14.997C12.302 15.0172 12.7562 14.9332 13.1745 14.7515C13.5929 14.5697 13.9642 14.295 14.2604 13.9482C14.5566 13.6013 14.7698 13.1915 14.8838 12.7499C14.9978 12.3083 15.0097 11.8466 14.9184 11.3997C14.8272 10.9528 14.6353 10.5327 14.3572 10.1711C14.0792 9.80958 13.7224 9.51619 13.3139 9.31326C12.9055 9.11032 12.4562 9.00319 12.0001 9Z" fill="#FA981C"/>
<path d="M14 2H13V1.5C13 1.36739 12.9473 1.24021 12.8536 1.14645C12.7598 1.05268 12.6326 1 12.5 1C12.3674 1 12.2402 1.05268 12.1464 1.14645C12.0527 1.24021 12 1.36739 12 1.5V2H10V1.5C10 1.36739 9.94732 1.24021 9.85355 1.14645C9.75979 1.05268 9.63261 1 9.5 1C9.36739 1 9.24021 1.05268 9.14645 1.14645C9.05268 1.24021 9 1.36739 9 1.5V2H7V1.5C7 1.36739 6.94732 1.24021 6.85355 1.14645C6.75979 1.05268 6.63261 1 6.5 1C6.36739 1 6.24021 1.05268 6.14645 1.14645C6.05268 1.24021 6 1.36739 6 1.5V2H4V1.5C4 1.36739 3.94732 1.24021 3.85355 1.14645C3.75979 1.05268 3.63261 1 3.5 1C3.36739 1 3.24021 1.05268 3.14645 1.14645C3.05268 1.24021 3 1.36739 3 1.5V2H2C1.73478 2 1.48043 2.10536 1.29289 2.29289C1.10536 2.48043 1 2.73478 1 3V14C1 14.2652 1.10536 14.5196 1.29289 14.7071C1.48043 14.8946 1.73478 15 2 15H8.26C8.39261 15 8.51978 14.9473 8.61355 14.8536C8.70732 14.7598 8.76 14.6326 8.76 14.5C8.76 14.3674 8.70732 14.2402 8.61355 14.1464C8.51978 14.0527 8.39261 14 8.26 14H2V6H14V8.26C14 8.39261 14.0527 8.51978 14.1464 8.61355C14.2402 8.70732 14.3674 8.76 14.5 8.76C14.6326 8.76 14.7598 8.70732 14.8536 8.61355C14.9473 8.51978 15 8.39261 15 8.26V3C15 2.73478 14.8946 2.48043 14.7071 2.29289C14.5196 2.10536 14.2652 2 14 2ZM2 5V3H3C3 3.13261 3.05268 3.25979 3.14645 3.35355C3.24021 3.44732 3.36739 3.5 3.5 3.5C3.63261 3.5 3.75979 3.44732 3.85355 3.35355C3.94732 3.25979 4 3.13261 4 3H6C6 3.13261 6.05268 3.25979 6.14645 3.35355C6.24021 3.44732 6.36739 3.5 6.5 3.5C6.63261 3.5 6.75979 3.44732 6.85355 3.35355C6.94732 3.25979 7 3.13261 7 3H9C9 3.13261 9.05268 3.25979 9.14645 3.35355C9.24021 3.44732 9.36739 3.5 9.5 3.5C9.63261 3.5 9.75979 3.44732 9.85355 3.35355C9.94732 3.25979 10 3.13261 10 3H12C12 3.13261 12.0527 3.25979 12.1464 3.35355C12.2402 3.44732 12.3674 3.5 12.5 3.5C12.6326 3.5 12.7598 3.44732 12.8536 3.35355C12.9473 3.25979 13 3.13261 13 3H14V5H2Z" fill="#FA981C"/>
</svg>
