<svg width="28" height="28" viewBox="0 0 28 28" fill="none" xmlns="http://www.w3.org/2000/svg">
<g id="healthcare-covid19-coronavirus-hand-hearth">
<path id="Vector" d="M16.625 5.6875H15.3125V4.375C15.3125 4.25897 15.2664 4.14769 15.1844 4.06564C15.1023 3.98359 14.991 3.9375 14.875 3.9375H13.125C13.009 3.9375 12.8977 3.98359 12.8156 4.06564C12.7336 4.14769 12.6875 4.25897 12.6875 4.375V5.6875H11.375C11.259 5.6875 11.1477 5.73359 11.0656 5.81564C10.9836 5.89769 10.9375 6.00897 10.9375 6.125V7.875C10.9375 7.99103 10.9836 8.10231 11.0656 8.18436C11.1477 8.26641 11.259 8.3125 11.375 8.3125H12.6875V9.625C12.6875 9.74103 12.7336 9.85231 12.8156 9.93436C12.8977 10.0164 13.009 10.0625 13.125 10.0625H14.875C14.991 10.0625 15.1023 10.0164 15.1844 9.93436C15.2664 9.85231 15.3125 9.74103 15.3125 9.625V8.3125H16.625C16.741 8.3125 16.8523 8.26641 16.9344 8.18436C17.0164 8.10231 17.0625 7.99103 17.0625 7.875V6.125C17.0625 6.00897 17.0164 5.89769 16.9344 5.81564C16.8523 5.73359 16.741 5.6875 16.625 5.6875ZM16.1875 7.4375H14.875C14.759 7.4375 14.6477 7.48359 14.5656 7.56564C14.4836 7.64769 14.4375 7.75897 14.4375 7.875V9.1875H13.5625V7.875C13.5625 7.75897 13.5164 7.64769 13.4344 7.56564C13.3523 7.48359 13.241 7.4375 13.125 7.4375H11.8125V6.5625H13.125C13.241 6.5625 13.3523 6.51641 13.4344 6.43436C13.5164 6.35231 13.5625 6.24103 13.5625 6.125V4.8125H14.4375V6.125C14.4375 6.24103 14.4836 6.35231 14.5656 6.43436C14.6477 6.51641 14.759 6.5625 14.875 6.5625H16.1875V7.4375Z" fill="#222931"/>
<path id="Vector_2" d="M26.1319 8.03251C26.1407 7.95554 26.1451 7.87812 26.145 7.80064C26.1429 7.39961 26.0038 7.01136 25.7507 6.70023C25.4977 6.38911 25.1459 6.17381 24.7537 6.09001C24.3101 6.00557 23.851 6.09279 23.4693 6.33402C23.0875 6.57525 22.8117 6.95248 22.6975 7.38939L20.7725 12.9281C20.744 12.9395 20.7162 12.9526 20.6894 12.9675L16.8219 15.2338C16.2301 15.5814 15.7392 16.0774 15.3978 16.6728C15.0563 17.2682 14.8761 17.9424 14.875 18.6288V22.75C14.759 22.75 14.6477 22.7961 14.5656 22.8782C14.4836 22.9602 14.4375 23.0715 14.4375 23.1875V26.6875C14.4375 26.8035 14.4836 26.9148 14.5656 26.9969C14.6477 27.0789 14.759 27.125 14.875 27.125H21C21.116 27.125 21.2273 27.0789 21.3094 26.9969C21.3914 26.9148 21.4375 26.8035 21.4375 26.6875V23.1875C21.4375 23.0715 21.3914 22.9602 21.3094 22.8782C21.2273 22.7961 21.116 22.75 21 22.75V21.7875C21.0008 21.6027 21.0401 21.4201 21.1155 21.2514C21.1908 21.0827 21.3005 20.9315 21.4375 20.8075L24.395 18.1781C24.7185 17.8951 24.9501 17.5218 25.06 17.1063L26.9587 10.0056C26.9993 9.85737 27.0199 9.70435 27.02 9.55064C27.0183 9.2419 26.9353 8.93905 26.7794 8.67255C26.6235 8.40605 26.4002 8.18531 26.1319 8.03251ZM23.5331 7.64751C23.5868 7.42126 23.7238 7.22356 23.9168 7.09382C24.1098 6.96409 24.3446 6.91184 24.5744 6.94751C24.7705 6.98859 24.9465 7.09571 25.0731 7.25099C25.1998 7.40626 25.2692 7.60029 25.27 7.80064V7.80939C24.8792 7.81664 24.5015 7.95134 24.1943 8.193C23.8871 8.43466 23.6672 8.77004 23.5681 9.14814L22.3475 12.915C22.1627 12.8274 21.9646 12.7712 21.7613 12.7488L23.5331 7.64751ZM20.5625 26.25H15.3125V23.625H20.5625V26.25ZM26.1144 9.77814L24.2112 16.8831C24.1454 17.13 24.0085 17.3521 23.8175 17.5219L20.8556 20.1513C20.6264 20.3579 20.443 20.6103 20.3172 20.8921C20.1914 21.1739 20.1259 21.4789 20.125 21.7875V22.75H15.75V18.6288C15.7522 18.095 15.8928 17.5709 16.1581 17.1077C16.4234 16.6446 16.8044 16.2581 17.2637 15.9863L21.1269 13.7244C21.2265 13.6664 21.3366 13.6286 21.4508 13.6132C21.5651 13.5979 21.6812 13.6052 21.7926 13.6349C21.904 13.6646 22.0085 13.716 22.0999 13.7862C22.1914 13.8563 22.2681 13.9439 22.3256 14.0438C22.4393 14.2459 22.4706 14.4841 22.4131 14.7088C22.3827 14.8197 22.3308 14.9236 22.2602 15.0144C22.1896 15.1052 22.1019 15.1813 22.0019 15.2381L19.495 16.6863C19.3998 16.7468 19.3316 16.8418 19.3048 16.9514C19.2779 17.061 19.2945 17.1767 19.3509 17.2744C19.4074 17.3721 19.4994 17.4442 19.6078 17.4757C19.7162 17.5071 19.8325 17.4954 19.9325 17.4431L22.4394 15.995C22.6398 15.8813 22.8154 15.7287 22.9559 15.5461C23.0964 15.3635 23.1989 15.1547 23.2575 14.9319C23.3766 14.4842 23.3137 14.0077 23.0825 13.6063L23.0562 13.5669L24.4081 9.39751C24.4618 9.17126 24.5988 8.97356 24.7918 8.84382C24.9848 8.71409 25.2196 8.66184 25.4494 8.69751C25.6455 8.73859 25.8215 8.84571 25.9481 9.00099C26.0748 9.15626 26.1442 9.35029 26.145 9.55064C26.1465 9.62759 26.1361 9.70432 26.1144 9.77814Z" fill="#222931"/>
<path id="Vector_3" d="M13.1255 22.75V18.6287C13.1243 17.9424 12.9441 17.2682 12.6027 16.6728C12.2613 16.0774 11.7704 15.5814 11.1786 15.2337L7.31109 12.9631C7.28484 12.95 7.25422 12.9412 7.22797 12.9281L5.31609 7.41998C5.20497 6.9767 4.92913 6.59241 4.54469 6.34533C4.16025 6.09825 3.69611 6.00694 3.24672 6.08998C2.85454 6.17377 2.50277 6.38907 2.24974 6.7002C1.9967 7.01132 1.85759 7.39958 1.85547 7.8006C1.85535 7.87808 1.85974 7.9555 1.86859 8.03248C1.6003 8.18527 1.37698 8.40602 1.22107 8.67251C1.06517 8.93901 0.982185 9.24186 0.980469 9.5506C0.981318 9.70399 1.00041 9.85673 1.03734 10.0056L2.94047 17.1019C3.04922 17.5192 3.28092 17.8941 3.60547 18.1781L6.55859 20.8075C6.69699 20.9306 6.80787 21.0815 6.88401 21.2504C6.96015 21.4192 6.99983 21.6022 7.00047 21.7875V22.75C6.88444 22.75 6.77316 22.7961 6.69111 22.8781C6.60906 22.9602 6.56297 23.0714 6.56297 23.1875V26.6875C6.56297 26.8035 6.60906 26.9148 6.69111 26.9968C6.77316 27.0789 6.88444 27.125 7.00047 27.125H13.1255C13.2415 27.125 13.3528 27.0789 13.4348 26.9968C13.5169 26.9148 13.563 26.8035 13.563 26.6875V23.1875C13.563 23.0714 13.5169 22.9602 13.4348 22.8781C13.3528 22.7961 13.2415 22.75 13.1255 22.75ZM2.73047 7.8006C2.73101 7.60086 2.79987 7.40731 2.92562 7.25212C3.05137 7.09692 3.22643 6.98942 3.42172 6.94748C3.65782 6.91321 3.89815 6.96946 4.09451 7.10497C4.29087 7.24047 4.42874 7.4452 4.48047 7.6781L6.23922 12.7487C6.03591 12.7711 5.83777 12.8273 5.65297 12.915L4.44109 9.16998C4.34247 8.78814 4.12217 8.44882 3.81353 8.20333C3.50489 7.95783 3.1247 7.81954 2.73047 7.80935V7.8006ZM7.14047 20.1512L4.18297 17.5219C3.99093 17.3512 3.85389 17.1274 3.78922 16.8787L1.88172 9.7781C1.86361 9.70364 1.85479 9.62723 1.85547 9.5506C1.85601 9.35086 1.92487 9.15731 2.05062 9.00212C2.17637 8.84692 2.35143 8.73942 2.54672 8.69748C2.78116 8.66229 3.02023 8.71718 3.21584 8.85111C3.41145 8.98503 3.5491 9.18806 3.60109 9.41935L4.94422 13.5669L4.91797 13.6062C4.68679 14.0076 4.62388 14.4842 4.74297 14.9319C4.80154 15.1547 4.9041 15.3635 5.04461 15.5461C5.18511 15.7287 5.36072 15.8813 5.56109 15.995L8.06797 17.4431C8.16796 17.4954 8.28429 17.5071 8.39266 17.4756C8.50103 17.4442 8.59306 17.3721 8.64953 17.2744C8.70601 17.1767 8.72254 17.061 8.6957 16.9514C8.66885 16.8418 8.6007 16.7468 8.50547 16.6862L5.99859 15.2381C5.89861 15.1812 5.81083 15.1052 5.74026 15.0144C5.6697 14.9235 5.61773 14.8197 5.58734 14.7087C5.52987 14.4841 5.56121 14.2459 5.67484 14.0437C5.73201 13.944 5.80825 13.8566 5.89921 13.7864C5.99017 13.7162 6.09407 13.6645 6.20498 13.6345C6.31589 13.6044 6.43163 13.5965 6.5456 13.6112C6.65957 13.6258 6.76954 13.6628 6.86922 13.72L10.7367 15.9862C11.1961 16.2581 11.577 16.6445 11.8424 17.1077C12.1077 17.5709 12.2483 18.0949 12.2505 18.6287V22.75H7.87547V21.7875C7.87472 21.4784 7.80889 21.173 7.68225 20.8911C7.55561 20.6091 7.37101 20.3571 7.14047 20.1512ZM12.688 26.25H7.43797V23.625H12.688V26.25Z" fill="#222931"/>
<path id="Vector_4" d="M20.1901 2.24526C19.784 1.8384 19.3016 1.51563 18.7705 1.29541C18.2395 1.0752 17.6703 0.961873 17.0954 0.961914C16.5205 0.961955 15.9513 1.07536 15.4202 1.29565C14.8892 1.51594 14.4069 1.83878 14.0008 2.24569C13.5948 1.83877 13.1124 1.51592 12.5814 1.29565C12.0505 1.07537 11.4812 0.961988 10.9064 0.961988C10.3315 0.961988 9.76228 1.07537 9.2313 1.29565C8.70031 1.51592 8.21798 1.83877 7.81193 2.24569C6.99308 3.0663 6.5332 4.17823 6.5332 5.33751C6.5332 6.49678 6.99308 7.60871 7.81193 8.42932L13.6919 14.3093C13.774 14.3913 13.8852 14.4374 14.0012 14.4374C14.1173 14.4374 14.2285 14.3913 14.3106 14.3093L20.1906 8.42932C21.0094 7.60858 21.4692 6.49654 21.4691 5.3372C21.469 4.17785 21.0091 3.06588 20.1901 2.24526ZM14.0008 13.3814L8.43012 7.8107C7.94105 7.32096 7.60816 6.69722 7.47353 6.01832C7.3389 5.33943 7.40857 4.63586 7.67375 3.99655C7.93892 3.35725 8.38768 2.81091 8.9633 2.42661C9.53892 2.04232 10.2156 1.83731 10.9077 1.83751C11.3674 1.83593 11.8229 1.92591 12.2475 2.1022C12.6722 2.2785 13.0574 2.53757 13.3809 2.86432L13.6915 3.17495C13.7735 3.25696 13.8848 3.30304 14.0008 3.30304C14.1168 3.30304 14.2281 3.25696 14.3101 3.17495L14.6216 2.86345C14.9464 2.53806 15.3322 2.27991 15.7569 2.10378C16.1816 1.92764 16.6368 1.83698 17.0966 1.83698C17.5563 1.83698 18.0116 1.92764 18.4362 2.10378C18.8609 2.27991 19.2467 2.53806 19.5715 2.86345C20.2268 3.51968 20.5949 4.4092 20.5949 5.33663C20.5949 6.26406 20.2268 7.15358 19.5715 7.80982L14.0008 13.3814Z" fill="#222931"/>
</g>
</svg>
