<svg width="24" height="24" viewBox="0 0 24 24" fill="none" xmlns="http://www.w3.org/2000/svg">
<path d="M20.4853 19.2634L4.92894 3.70708C4.53861 3.31675 3.90505 3.31675 3.51472 3.70708C3.1244 4.0974 3.1244 4.73097 3.51472 5.12129L19.0711 20.6776C19.4614 21.068 20.095 21.068 20.4853 20.6776C20.8756 20.2873 20.8756 19.6538 20.4853 19.2634Z" fill="white"/>
<path d="M19.0709 3.7071L3.51457 19.2634C3.12425 19.6538 3.12425 20.2873 3.51457 20.6777C3.9049 21.068 4.53846 21.068 4.92879 20.6777L20.4851 5.12131C20.8755 4.73099 20.8755 4.09742 20.4851 3.7071C20.0948 3.31677 19.4612 3.31677 19.0709 3.7071Z" fill="white"/>
</svg>
