<svg width="28" height="28" viewBox="0 0 28 28" fill="none" xmlns="http://www.w3.org/2000/svg">
<g id="Innovation">
<path id="Vector" d="M9.59572 5.57036C8.74169 5.89297 8.12977 6.71216 8.12977 7.67755C8.12977 8.04933 8.22878 8.39531 8.38865 8.70513C7.71124 8.96555 7.22656 9.6187 7.22656 10.3872C7.22656 11.1559 7.71124 11.8088 8.38865 12.0695C8.22878 12.3793 8.12977 12.7252 8.12977 13.0968C8.12977 14.0624 8.74169 14.8816 9.59572 15.204C9.52803 15.3932 9.48458 15.5943 9.48458 15.8064C9.48458 16.8027 10.2947 17.6129 11.291 17.6129C11.5159 17.6129 11.7292 17.5663 11.9278 17.4914C12.2205 18.0953 12.8341 18.5161 13.549 18.5161C14.5453 18.5161 15.3554 17.7059 15.3554 16.7096V4.06472C15.3554 3.06867 14.5453 2.2583 13.549 2.2583C12.8341 2.2583 12.2205 2.67925 11.9278 3.28301C11.7292 3.20804 11.5159 3.16151 11.291 3.16151C10.2947 3.16151 9.48458 3.97188 9.48458 4.96793C9.48458 5.18028 9.52803 5.38116 9.59572 5.57036ZM11.291 4.06472C11.7891 4.06472 12.1942 4.4698 12.1942 4.96793H13.0974C13.0974 4.53396 12.9371 4.14013 12.6811 3.82855C12.7858 3.44575 13.1331 3.16151 13.549 3.16151C14.0472 3.16151 14.4522 3.56659 14.4522 4.06472V16.7096C14.4522 17.2078 14.0472 17.6129 13.549 17.6129C13.1331 17.6129 12.7858 17.3288 12.6811 16.9458C12.9371 16.6342 13.0974 16.2406 13.0974 15.8064H12.1942C12.1942 16.3046 11.7891 16.7096 11.291 16.7096C10.7929 16.7096 10.3878 16.3046 10.3878 15.8064C10.3878 15.3083 10.7929 14.9032 11.291 14.9032V14C10.8511 14 10.4528 14.1645 10.1395 14.4265C9.51083 14.3094 9.03298 13.759 9.03298 13.0968C9.03298 12.3499 9.64093 11.742 10.3878 11.742C11.1349 11.742 11.7426 12.3499 11.7426 13.0968H12.6458C12.6458 11.8518 11.633 10.8388 10.3878 10.8388C9.87753 10.8388 9.41138 11.0154 9.03298 11.3023V11.2904C8.53485 11.2904 8.12977 10.8853 8.12977 10.3872C8.12977 9.88905 8.53485 9.48397 9.03298 9.48397V9.47228C9.41138 9.75917 9.87753 9.93558 10.3878 9.93558C11.633 9.93558 12.6458 8.92277 12.6458 7.67755H11.7426C11.7426 8.42464 11.1349 9.03237 10.3878 9.03237C9.64093 9.03237 9.03298 8.42464 9.03298 7.67755C9.03298 7.01558 9.51083 6.46519 10.1395 6.3481C10.4528 6.61006 10.8511 6.77434 11.291 6.77434V5.87114C10.7929 5.87114 10.3878 5.46606 10.3878 4.96793C10.3878 4.4698 10.7929 4.06472 11.291 4.06472Z" fill="#222931"/>
<path id="Vector_2" d="M20.3223 3.16151C20.0973 3.16151 19.8843 3.20804 19.6856 3.28301C19.3928 2.67925 18.7791 2.2583 18.0642 2.2583C17.068 2.2583 16.2578 3.06867 16.2578 4.06472V16.7096C16.2578 17.7059 17.068 18.5161 18.0642 18.5161C18.7791 18.5161 19.3928 18.0953 19.6856 17.4914C19.8843 17.5663 20.0973 17.6129 20.3223 17.6129C21.3185 17.6129 22.1287 16.8027 22.1287 15.8064C22.1287 15.5943 22.0854 15.3932 22.0175 15.204C22.8716 14.8816 23.4835 14.0624 23.4835 13.0968C23.4835 12.7252 23.3847 12.3793 23.2248 12.0695C23.9022 11.8088 24.3867 11.1559 24.3867 10.3872C24.3867 9.6187 23.9022 8.96555 23.2248 8.70513C23.3847 8.39531 23.4835 8.04933 23.4835 7.67755C23.4835 6.71216 22.8716 5.89297 22.0175 5.57036C22.0854 5.38116 22.1287 5.18028 22.1287 4.96793C22.1287 3.97188 21.3185 3.16151 20.3223 3.16151ZM22.5803 7.67755C22.5803 8.42464 21.9725 9.03237 21.2255 9.03237C20.4786 9.03237 19.8706 8.42464 19.8706 7.67755H18.9674C18.9674 8.92277 19.9805 9.93558 21.2255 9.93558C21.7357 9.93558 22.2019 9.75917 22.5803 9.47228V9.48397C23.0784 9.48397 23.4835 9.88905 23.4835 10.3872C23.4835 10.8853 23.0784 11.2904 22.5803 11.2904V11.3023C22.2019 11.0154 21.7357 10.8388 21.2255 10.8388C19.9805 10.8388 18.9674 11.8518 18.9674 13.0968H19.8706C19.8706 12.3499 20.4786 11.742 21.2255 11.742C21.9725 11.742 22.5803 12.3499 22.5803 13.0968C22.5803 13.759 22.1024 14.3094 21.474 14.4265C21.1604 14.1645 20.7622 14 20.3223 14V14.9032C20.8204 14.9032 21.2255 15.3083 21.2255 15.8064C21.2255 16.3046 20.8204 16.7096 20.3223 16.7096C19.8241 16.7096 19.419 16.3046 19.419 15.8064H18.5158C18.5158 16.2406 18.6761 16.6342 18.9322 16.9458C18.8274 17.3288 18.4801 17.6129 18.0642 17.6129C17.5661 17.6129 17.161 17.2078 17.161 16.7096V4.06472C17.161 3.56659 17.5661 3.16151 18.0642 3.16151C18.4801 3.16151 18.8274 3.44575 18.9322 3.82855C18.6761 4.14013 18.5158 4.53396 18.5158 4.96793H19.419C19.419 4.4698 19.8241 4.06472 20.3223 4.06472C20.8204 4.06472 21.2255 4.4698 21.2255 4.96793C21.2255 5.46606 20.8204 5.87114 20.3223 5.87114V6.77434C20.7622 6.77434 21.1604 6.61006 21.474 6.3481C22.1024 6.46519 22.5803 7.01558 22.5803 7.67755Z" fill="#222931"/>
<path id="Vector_3" d="M22.9179 2.81673C20.8077 0.833247 18.0438 -0.161253 15.1432 0.0213294L15.1992 0.922554C17.8495 0.757833 20.3721 1.66413 22.2996 3.47474C24.228 5.28689 25.2902 7.74227 25.2902 10.3873C25.2902 13.5748 23.7014 16.5305 21.0401 18.2941C20.1221 18.9027 19.4275 19.7709 18.9995 20.7742H12.5948C12.1608 19.7636 11.4635 18.8893 10.544 18.2751C7.80131 16.442 6.22533 13.3807 6.32786 10.0847L5.4251 10.0567C5.31264 13.666 7.03901 17.0191 10.0424 19.0258C10.7056 19.4692 11.2353 20.073 11.6044 20.7742H10.3872V21.6774H11.9648C12.0523 21.97 12.1224 22.2699 12.1579 22.5806H11.2904V23.4838H12.1936V24.8386C12.1936 25.0885 12.3961 25.2902 12.6453 25.2902H13.0969C13.0969 26.7846 14.3121 27.9999 15.8065 27.9999C17.3009 27.9999 18.5161 26.7846 18.5161 25.2902H18.9677C19.2171 25.2902 19.4193 25.0885 19.4193 24.8386V23.4838H20.3225V22.5806H19.4511C19.483 22.2703 19.5468 21.9696 19.6326 21.6774H21.2257V20.7742H19.9889C20.3527 20.0807 20.8793 19.4844 21.5393 19.0474C24.4533 17.1148 26.1934 13.8777 26.1934 10.3873C26.1934 7.53234 24.9993 4.77266 22.9179 2.81673ZM15.8065 27.0966C14.8102 27.0966 14.0001 26.2865 14.0001 25.2902H17.6129C17.6129 26.2865 16.8027 27.0966 15.8065 27.0966ZM18.5161 24.387H13.0969V23.4838H18.5161V24.387ZM18.5483 22.5806H13.0607C13.0305 22.2732 12.9818 21.9711 12.9077 21.6774H18.6888C18.6169 21.9707 18.5752 22.2741 18.5483 22.5806Z" fill="#222931"/>
<path id="Vector_4" d="M4.96821 3.16172C5.96447 3.16172 6.77462 3.97209 6.77462 4.96814C6.77462 5.21797 6.97705 5.41974 7.22623 5.41974C7.47563 5.41974 7.67783 5.21797 7.67783 4.96814C7.67783 3.97209 8.48799 3.16172 9.48425 3.16172C9.73365 3.16172 9.93585 2.95995 9.93585 2.71011C9.93585 2.4605 9.73365 2.25851 9.48425 2.25851C8.48799 2.25851 7.67783 1.44836 7.67783 0.452093C7.67783 0.202475 7.47563 0.000488281 7.22623 0.000488281C6.97705 0.000488281 6.77462 0.202475 6.77462 0.452093C6.77462 1.44836 5.96447 2.25851 4.96821 2.25851C4.71903 2.25851 4.5166 2.4605 4.5166 2.71011C4.5166 2.95995 4.71903 3.16172 4.96821 3.16172ZM7.22623 1.94825C7.42689 2.24991 7.68643 2.50967 7.98809 2.71011C7.68643 2.91078 7.42689 3.17032 7.22623 3.47198C7.02578 3.17032 6.76602 2.91078 6.46437 2.71011C6.76602 2.50967 7.02578 2.24991 7.22623 1.94825Z" fill="#222931"/>
<path id="Vector_5" d="M6.77429 7.67783C7.02369 7.67783 7.22589 7.47607 7.22589 7.22623C7.22589 6.97661 7.02369 6.77462 6.77429 6.77462C5.77803 6.77462 4.96787 5.96447 4.96787 4.96821C4.96787 4.71859 4.76566 4.5166 4.51627 4.5166C4.26709 4.5166 4.06466 4.71859 4.06466 4.96821C4.06466 5.96447 3.25451 6.77462 2.25825 6.77462C2.00907 6.77462 1.80664 6.97661 1.80664 7.22623C1.80664 7.47607 2.00907 7.67783 2.25825 7.67783C3.25451 7.67783 4.06466 8.48821 4.06466 9.48425C4.06466 9.73409 4.26709 9.93585 4.51627 9.93585C4.76566 9.93585 4.96787 9.73409 4.96787 9.48425C4.96787 8.48821 5.77803 7.67783 6.77429 7.67783ZM4.51627 7.98809C4.31582 7.68643 4.05606 7.42689 3.75441 7.22623C4.05606 7.02578 4.31538 6.76602 4.51627 6.46437C4.71693 6.76602 4.97647 7.02534 5.27813 7.22623C4.97647 7.42689 4.71693 7.68643 4.51627 7.98809Z" fill="#222931"/>
</g>
</svg>
