<svg width="53" height="52" viewBox="0 0 53 52" fill="none" xmlns="http://www.w3.org/2000/svg">
<path d="M21.9951 17.5706C21.1411 17.8932 20.5292 18.7124 20.5292 19.6778C20.5292 20.0496 20.6282 20.3956 20.7881 20.7054C20.1107 20.9658 19.626 21.6189 19.626 22.3874C19.626 23.1561 20.1107 23.8091 20.7881 24.0697C20.6282 24.3795 20.5292 24.7255 20.5292 25.0971C20.5292 26.0627 21.1411 26.8819 21.9951 27.2042C21.9274 27.3934 21.884 27.5945 21.884 27.8067C21.884 28.8029 22.6942 29.6131 23.6904 29.6131C23.9153 29.6131 24.1286 29.5666 24.3272 29.4916C24.6199 30.0956 25.2335 30.5163 25.9484 30.5163C26.9447 30.5163 27.7549 29.7062 27.7549 28.7099V16.065C27.7549 15.0689 26.9447 14.2585 25.9484 14.2585C25.2335 14.2585 24.6199 14.6795 24.3272 15.2833C24.1286 15.2083 23.9153 15.1618 23.6904 15.1618C22.6942 15.1618 21.884 15.9721 21.884 16.9682C21.884 17.1805 21.9274 17.3814 21.9951 17.5706ZM23.6904 16.065C24.1885 16.065 24.5936 16.47 24.5936 16.9682H25.4968C25.4968 16.5342 25.3365 16.1404 25.0805 15.8288C25.1853 15.446 25.5326 15.1618 25.9484 15.1618C26.4466 15.1618 26.8516 15.5668 26.8516 16.065V28.7099C26.8516 29.208 26.4466 29.6131 25.9484 29.6131C25.5326 29.6131 25.1853 29.3291 25.0805 28.9461C25.3365 28.6345 25.4968 28.2409 25.4968 27.8067H24.5936C24.5936 28.3048 24.1885 28.7099 23.6904 28.7099C23.1923 28.7099 22.7872 28.3048 22.7872 27.8067C22.7872 27.3085 23.1923 26.9035 23.6904 26.9035V26.0003C23.2505 26.0003 22.8523 26.1648 22.5389 26.4267C21.9102 26.3096 21.4324 25.7592 21.4324 25.0971C21.4324 24.3502 22.0403 23.7422 22.7872 23.7422C23.5343 23.7422 24.142 24.3502 24.142 25.0971H25.0452C25.0452 23.8521 24.0324 22.839 22.7872 22.839C22.2769 22.839 21.8108 23.0157 21.4324 23.3025V23.2906C20.9343 23.2906 20.5292 22.8856 20.5292 22.3874C20.5292 21.8893 20.9343 21.4842 21.4324 21.4842V21.4725C21.8108 21.7594 22.2769 21.9358 22.7872 21.9358C24.0324 21.9358 25.0452 20.923 25.0452 19.6778H24.142C24.142 20.4249 23.5343 21.0326 22.7872 21.0326C22.0403 21.0326 21.4324 20.4249 21.4324 19.6778C21.4324 19.0158 21.9102 18.4654 22.5389 18.3483C22.8523 18.6103 23.2505 18.7746 23.6904 18.7746V17.8714C23.1923 17.8714 22.7872 17.4663 22.7872 16.9682C22.7872 16.47 23.1923 16.065 23.6904 16.065Z" fill="#222931"/>
<path d="M32.7226 15.1618C32.4977 15.1618 32.2847 15.2083 32.086 15.2833C31.7932 14.6795 31.1795 14.2585 30.4646 14.2585C29.4684 14.2585 28.6582 15.0689 28.6582 16.065V28.7099C28.6582 29.7062 29.4684 30.5163 30.4646 30.5163C31.1795 30.5163 31.7932 30.0956 32.086 29.4916C32.2847 29.5666 32.4977 29.6131 32.7226 29.6131C33.7189 29.6131 34.5291 28.8029 34.5291 27.8067C34.5291 27.5945 34.4858 27.3934 34.4179 27.2042C35.272 26.8819 35.8839 26.0627 35.8839 25.0971C35.8839 24.7255 35.7851 24.3795 35.6252 24.0697C36.3026 23.8091 36.7871 23.1561 36.7871 22.3874C36.7871 21.6189 36.3026 20.9658 35.6252 20.7054C35.7851 20.3956 35.8839 20.0496 35.8839 19.6778C35.8839 18.7124 35.272 17.8932 34.4179 17.5706C34.4858 17.3814 34.5291 17.1805 34.5291 16.9682C34.5291 15.9721 33.7189 15.1618 32.7226 15.1618ZM34.9807 19.6778C34.9807 20.4249 34.3729 21.0326 33.6259 21.0326C32.879 21.0326 32.271 20.4249 32.271 19.6778H31.3678C31.3678 20.923 32.3809 21.9358 33.6259 21.9358C34.1361 21.9358 34.6023 21.7594 34.9807 21.4725V21.4842C35.4788 21.4842 35.8839 21.8893 35.8839 22.3874C35.8839 22.8856 35.4788 23.2906 34.9807 23.2906V23.3025C34.6023 23.0157 34.1361 22.839 33.6259 22.839C32.3809 22.839 31.3678 23.8521 31.3678 25.0971H32.271C32.271 24.3502 32.879 23.7422 33.6259 23.7422C34.3729 23.7422 34.9807 24.3502 34.9807 25.0971C34.9807 25.7592 34.5028 26.3096 33.8744 26.4267C33.5608 26.1648 33.1626 26.0003 32.7226 26.0003V26.9035C33.2208 26.9035 33.6259 27.3085 33.6259 27.8067C33.6259 28.3048 33.2208 28.7099 32.7226 28.7099C32.2245 28.7099 31.8194 28.3048 31.8194 27.8067H30.9162C30.9162 28.2409 31.0765 28.6345 31.3325 28.9461C31.2278 29.3291 30.8805 29.6131 30.4646 29.6131C29.9665 29.6131 29.5614 29.208 29.5614 28.7099V16.065C29.5614 15.5668 29.9665 15.1618 30.4646 15.1618C30.8805 15.1618 31.2278 15.446 31.3325 15.8288C31.0765 16.1404 30.9162 16.5342 30.9162 16.9682H31.8194C31.8194 16.47 32.2245 16.065 32.7226 16.065C33.2208 16.065 33.6259 16.47 33.6259 16.9682C33.6259 17.4663 33.2208 17.8714 32.7226 17.8714V18.7746C33.1626 18.7746 33.5608 18.6103 33.8744 18.3483C34.5028 18.4654 34.9807 19.0158 34.9807 19.6778Z" fill="#222931"/>
<path d="M35.3178 14.8167C33.2076 12.8332 30.4437 11.8387 27.5431 12.0213L27.5991 12.9226C30.2494 12.7578 32.772 13.6641 34.6995 15.4747C36.6279 17.2869 37.6901 19.7423 37.6901 22.3873C37.6901 25.5748 36.1013 28.5305 33.44 30.2941C32.522 30.9027 31.8274 31.7709 31.3994 32.7742H24.9947C24.5607 31.7636 23.8634 30.8893 22.9439 30.2751C20.2012 28.442 18.6252 25.3807 18.7278 22.0847L17.825 22.0567C17.7125 25.666 19.4389 29.0191 22.4423 31.0258C23.1056 31.4692 23.6352 32.073 24.0043 32.7742H22.7871V33.6774H24.3647C24.4522 33.97 24.5223 34.2699 24.5578 34.5806H23.6903V35.4838H24.5936V36.8386C24.5936 37.0885 24.796 37.2902 25.0452 37.2902H25.4968C25.4968 38.7846 26.712 39.9999 28.2064 39.9999C29.7008 39.9999 30.916 38.7846 30.916 37.2902H31.3676C31.617 37.2902 31.8192 37.0885 31.8192 36.8386V35.4838H32.7224V34.5806H31.851C31.8829 34.2703 31.9467 33.9696 32.0325 33.6774H33.6256V32.7742H32.3888C32.7526 32.0807 33.2792 31.4844 33.9392 31.0474C36.8532 29.1148 38.5933 25.8777 38.5933 22.3873C38.5933 19.5323 37.3992 16.7727 35.3178 14.8167ZM28.2064 39.0966C27.2101 39.0966 26.4 38.2865 26.4 37.2902H30.0128C30.0128 38.2865 29.2027 39.0966 28.2064 39.0966ZM30.916 36.387H25.4968V35.4838H30.916V36.387ZM30.9482 34.5806H25.4606C25.4304 34.2732 25.3817 33.9711 25.3076 33.6774H31.0887C31.0168 33.9707 30.9751 34.2741 30.9482 34.5806Z" fill="#222931"/>
<path d="M17.3681 15.1617C18.3644 15.1617 19.1745 15.9721 19.1745 16.9681C19.1745 17.218 19.377 17.4197 19.6261 17.4197C19.8755 17.4197 20.0777 17.218 20.0777 16.9681C20.0777 15.9721 20.8879 15.1617 21.8842 15.1617C22.1335 15.1617 22.3358 14.96 22.3358 14.7101C22.3358 14.4605 22.1335 14.2585 21.8842 14.2585C20.8879 14.2585 20.0777 13.4484 20.0777 12.4521C20.0777 12.2025 19.8755 12.0005 19.6261 12.0005C19.377 12.0005 19.1745 12.2025 19.1745 12.4521C19.1745 13.4484 18.3644 14.2585 17.3681 14.2585C17.1189 14.2585 16.9165 14.4605 16.9165 14.7101C16.9165 14.96 17.1189 15.1617 17.3681 15.1617ZM19.6261 13.9483C19.8268 14.2499 20.0863 14.5097 20.388 14.7101C20.0863 14.9108 19.8268 15.1703 19.6261 15.472C19.4257 15.1703 19.1659 14.9108 18.8643 14.7101C19.1659 14.5097 19.4257 14.2499 19.6261 13.9483Z" fill="#222931"/>
<path d="M19.1747 19.6778C19.4241 19.6778 19.6263 19.4761 19.6263 19.2262C19.6263 18.9766 19.4241 18.7746 19.1747 18.7746C18.1784 18.7746 17.3683 17.9645 17.3683 16.9682C17.3683 16.7186 17.1661 16.5166 16.9167 16.5166C16.6675 16.5166 16.4651 16.7186 16.4651 16.9682C16.4651 17.9645 15.6549 18.7746 14.6586 18.7746C14.4095 18.7746 14.207 18.9766 14.207 19.2262C14.207 19.4761 14.4095 19.6778 14.6586 19.6778C15.6549 19.6778 16.4651 20.4882 16.4651 21.4842C16.4651 21.7341 16.6675 21.9359 16.9167 21.9359C17.1661 21.9359 17.3683 21.7341 17.3683 21.4842C17.3683 20.4882 18.1784 19.6778 19.1747 19.6778ZM16.9167 19.9881C16.7162 19.6864 16.4565 19.4269 16.1548 19.2262C16.4565 19.0258 16.7158 18.766 16.9167 18.4644C17.1173 18.766 17.3769 19.0253 17.6785 19.2262C17.3769 19.4269 17.1173 19.6864 16.9167 19.9881Z" fill="#222931"/>
<rect x="0.899902" y="0.5" width="51" height="51" rx="25.5" stroke="#222931"/>
</svg>
