<svg width="50" height="50" viewBox="0 0 50 50" fill="none" xmlns="http://www.w3.org/2000/svg">
<path fill-rule="evenodd" clip-rule="evenodd" d="M5.55556 50H44.4444C47.5127 50 50 47.5127 50 44.4444V5.55556C50 2.48731 47.5127 0 44.4444 0H5.55556C2.48731 0 0 2.48731 0 5.55556V44.4444C0 47.5127 2.48731 50 5.55556 50Z" fill="#9A9A9A"/>
<path fill-rule="evenodd" clip-rule="evenodd" d="M43.0556 43.0554H35.6359V30.418C35.6359 26.9532 34.3193 25.0169 31.5769 25.0169C28.5935 25.0169 27.0348 27.0319 27.0348 30.418V43.0554H19.8843V18.9814H27.0348V22.2241C27.0348 22.2241 29.1848 18.2459 34.2935 18.2459C39.3998 18.2459 43.0556 21.3641 43.0556 27.8132V43.0554ZM11.3537 15.8291C8.91811 15.8291 6.94446 13.8399 6.94446 11.3867C6.94446 8.93347 8.91811 6.94434 11.3537 6.94434C13.7893 6.94434 15.7618 8.93347 15.7618 11.3867C15.7618 13.8399 13.7893 15.8291 11.3537 15.8291ZM7.66151 43.0554H15.1177V18.9814H7.66151V43.0554Z" fill="white"/>
</svg>
