<svg width="52" height="52" viewBox="0 0 52 52" fill="none" xmlns="http://www.w3.org/2000/svg">
<path d="M27.0249 18.7812H18.2749C17.4307 18.7812 16.7437 18.0942 16.7437 17.25V15.5C16.7437 14.6558 17.4307 13.9688 18.2749 13.9688H20.3342C20.6213 12.9601 21.5501 12.2188 22.6499 12.2188C23.3002 12.2188 23.9052 12.4725 24.3538 12.9331C24.6469 13.2181 24.8562 13.5744 24.9665 13.9688H27.0249C27.8691 13.9688 28.5562 14.6558 28.5562 15.5V17.25C28.5562 18.0942 27.8691 18.7812 27.0249 18.7812ZM18.2749 15.2812C18.1544 15.2812 18.0562 15.3795 18.0562 15.5V17.25C18.0562 17.3705 18.1544 17.4688 18.2749 17.4688H27.0249C27.1454 17.4688 27.2437 17.3705 27.2437 17.25V15.5C27.2437 15.3795 27.1454 15.2812 27.0249 15.2812H24.3999C24.0376 15.2812 23.7437 14.9873 23.7437 14.625C23.7437 14.3319 23.6309 14.0606 23.4258 13.8615C23.2138 13.644 22.9429 13.5312 22.6499 13.5312C22.0466 13.5312 21.5562 14.0217 21.5562 14.625C21.5562 14.9873 21.2622 15.2812 20.8999 15.2812H18.2749Z" fill="#222931"/>
<path d="M29.6499 39.7812H15.6499C14.3229 39.7812 13.2437 38.702 13.2437 37.375V18.125C13.2437 16.798 14.3229 15.7188 15.6499 15.7188H17.3999C17.7622 15.7188 18.0562 16.0127 18.0562 16.375C18.0562 16.7373 17.7622 17.0312 17.3999 17.0312H15.6499C15.0466 17.0312 14.5562 17.5217 14.5562 18.125V37.375C14.5562 37.9783 15.0466 38.4688 15.6499 38.4688H29.6499C30.2532 38.4688 30.7437 37.9783 30.7437 37.375V35.625C30.7437 35.2627 31.0376 34.9688 31.3999 34.9688C31.7622 34.9688 32.0562 35.2627 32.0562 35.625V37.375C32.0562 38.702 30.9769 39.7812 29.6499 39.7812Z" fill="#222931"/>
<path d="M31.3999 23.9087C31.0376 23.9087 30.7437 23.6148 30.7437 23.2524V18.125C30.7437 17.5217 30.2532 17.0312 29.6499 17.0312H27.8999C27.5376 17.0312 27.2437 16.7373 27.2437 16.375C27.2437 16.0127 27.5376 15.7188 27.8999 15.7188H29.6499C30.9769 15.7188 32.0562 16.7984 32.0562 18.125V23.2524C32.0562 23.6148 31.7622 23.9087 31.3999 23.9087Z" fill="#222931"/>
<path d="M25.2125 36.2812C25.0399 36.2812 24.8724 36.2133 24.7485 36.089C24.593 35.934 24.5264 35.7114 24.5691 35.4965L25.1877 32.4028C25.2133 32.2755 25.2757 32.1589 25.3671 32.0674L33.4105 24.0241C33.6669 23.7677 34.0821 23.7677 34.3384 24.0241L36.8139 26.4991C36.9369 26.6221 37.0061 26.7892 37.0061 26.9631C37.0061 27.1371 36.9369 27.304 36.8139 27.4271L28.7705 35.4705C28.6791 35.5623 28.562 35.6247 28.4356 35.6499L25.3415 36.2686C25.2979 36.2771 25.2553 36.2812 25.2125 36.2812ZM26.4353 32.8547L26.0491 34.7885L27.9829 34.4018L35.4221 26.963L33.8746 25.4159L26.4353 32.8547Z" fill="#222931"/>
<path d="M36.35 27.6192C36.1816 27.6192 36.0141 27.5552 35.886 27.427L33.4105 24.952C33.2875 24.829 33.2183 24.6619 33.2183 24.488C33.2183 24.314 33.2875 24.1471 33.4105 24.024L34.6478 22.7866C35.5869 21.8484 37.1139 21.8492 38.0512 22.7866C38.5058 23.2407 38.7562 23.8449 38.7562 24.4879C38.7562 25.1308 38.5059 25.735 38.0512 26.1896L36.8139 27.4269C36.6857 27.5551 36.5183 27.6192 36.35 27.6192ZM34.8024 24.488L36.35 26.0351L37.1233 25.2617C37.3301 25.055 37.4437 24.7802 37.4437 24.488C37.4437 24.1957 37.3301 23.9214 37.1233 23.7146C36.696 23.2891 36.003 23.2874 35.5758 23.7146L34.8024 24.488Z" fill="#222931"/>
<path d="M27.8999 22.2812H17.3999C17.0376 22.2812 16.7437 21.9873 16.7437 21.625C16.7437 21.2627 17.0376 20.9688 17.3999 20.9688H27.8999C28.2622 20.9688 28.5562 21.2627 28.5562 21.625C28.5562 21.9873 28.2622 22.2812 27.8999 22.2812Z" fill="#222931"/>
<path d="M27.8999 25.7812H17.3999C17.0376 25.7812 16.7437 25.4873 16.7437 25.125C16.7437 24.7627 17.0376 24.4688 17.3999 24.4688H27.8999C28.2622 24.4688 28.5562 24.7627 28.5562 25.125C28.5562 25.4873 28.2622 25.7812 27.8999 25.7812Z" fill="#222931"/>
<path d="M26.0277 29.2812H17.3999C17.0376 29.2812 16.7437 28.9873 16.7437 28.625C16.7437 28.2627 17.0376 27.9688 17.3999 27.9688H26.0278C26.3901 27.9688 26.684 28.2627 26.684 28.625C26.684 28.9873 26.39 29.2812 26.0277 29.2812Z" fill="#222931"/>
<path d="M23.2361 32.7812H17.3999C17.0376 32.7812 16.7437 32.4873 16.7437 32.125C16.7437 31.7627 17.0376 31.4688 17.3999 31.4688H23.2361C23.5984 31.4688 23.8923 31.7627 23.8923 32.125C23.8923 32.4873 23.5984 32.7812 23.2361 32.7812Z" fill="#222931"/>
<path d="M22.5362 36.2812H17.3999C17.0376 36.2812 16.7437 35.9873 16.7437 35.625C16.7437 35.2627 17.0376 34.9688 17.3999 34.9688H22.5362C22.8986 34.9688 23.1925 35.2627 23.1925 35.625C23.1925 35.9873 22.8986 36.2812 22.5362 36.2812Z" fill="#222931"/>
<rect x="0.5" y="0.5" width="51" height="51" rx="25.5" stroke="#222931"/>
</svg>
