<svg width="18" height="19" viewBox="0 0 18 19" fill="none" xmlns="http://www.w3.org/2000/svg">
<g clip-path="url(#clip0_10680_162978)">
<path d="M10.8181 16.8948C10.6697 16.9318 10.5184 16.9646 10.3682 16.9923C9.97551 17.0653 9.71592 17.443 9.78855 17.836C9.82442 18.0293 9.93423 18.1903 10.0833 18.2955C10.237 18.4036 10.4325 18.4525 10.6318 18.4154C10.8107 18.3822 10.9909 18.3431 11.1678 18.299C11.5556 18.2025 11.7918 17.8097 11.6951 17.4221C11.5986 17.0342 11.2061 16.7982 10.8181 16.8948Z" fill="#222931"/>
<path d="M16.1695 7.19572C16.2202 7.34848 16.3169 7.47319 16.4392 7.55936C16.6204 7.68701 16.8576 7.72995 17.0839 7.65512C17.4633 7.52914 17.6689 7.12 17.5433 6.74077C17.4862 6.56789 17.4227 6.39446 17.3551 6.22561C17.2067 5.85454 16.7858 5.67388 16.4145 5.82231C16.0436 5.97066 15.8629 6.39168 16.0115 6.76286C16.0683 6.90479 16.1215 7.05047 16.1695 7.19572Z" fill="#222931"/>
<path d="M13.1698 15.8617C13.0421 15.9459 12.9104 16.0275 12.7777 16.1039C12.4314 16.3036 12.3128 16.7463 12.5125 17.0924C12.5667 17.1865 12.6389 17.2635 12.722 17.3223C12.9453 17.4793 13.2484 17.5029 13.5008 17.3574C13.6586 17.2664 13.8155 17.1696 13.9675 17.0691C14.3008 16.8489 14.3926 16.4 14.1722 16.0665C13.952 15.7329 13.5032 15.6413 13.1698 15.8617Z" fill="#222931"/>
<path d="M17.993 9.21676C17.9773 8.81737 17.6409 8.50651 17.2414 8.52211C16.8424 8.53786 16.5313 8.87437 16.547 9.2736C16.553 9.42625 16.5545 9.58117 16.551 9.73366C16.5454 9.98412 16.6679 10.2074 16.8582 10.3416C16.9716 10.4214 17.1093 10.4698 17.2585 10.4732C17.6579 10.482 17.9889 10.1652 17.9977 9.76566C18.0017 9.58346 18.0002 9.39885 17.993 9.21676Z" fill="#222931"/>
<path d="M16.051 13.9581C15.7308 13.7178 15.2777 13.783 15.0378 14.1027C14.946 14.2251 14.8492 14.346 14.7502 14.4625C14.4913 14.7666 14.5279 15.2234 14.832 15.4824C14.8493 15.4971 14.8669 15.5106 14.8851 15.5233C15.1874 15.7365 15.6076 15.6875 15.8521 15.4006C15.9704 15.2617 16.0857 15.1173 16.1954 14.9711C16.4353 14.6514 16.3704 14.198 16.051 13.9581Z" fill="#222931"/>
<path d="M17.1149 11.3423C16.7335 11.2227 16.3275 11.435 16.208 11.8163C16.1622 11.962 16.1116 12.1084 16.0568 12.2517C15.9367 12.5673 16.0518 12.9145 16.3157 13.1006C16.3641 13.1346 16.4174 13.1635 16.4754 13.1854C16.8487 13.3278 17.2668 13.1405 17.4091 12.767C17.4741 12.5966 17.5343 12.4224 17.5889 12.2492C17.7082 11.8678 17.4961 11.4619 17.1149 11.3423Z" fill="#222931"/>
<path d="M7.66117 16.9988C7.01422 16.8826 6.39362 16.6848 5.80514 16.409C5.79818 16.4053 5.79195 16.4012 5.78463 16.3979C5.64596 16.3326 5.50751 16.2627 5.37333 16.1896C5.37286 16.1891 5.37201 16.1887 5.37127 16.1884C5.12507 16.0528 4.88479 15.9028 4.65135 15.7385C1.24745 13.3407 0.429014 8.62059 2.82698 5.21673C3.3484 4.47684 3.97941 3.85957 4.68289 3.37033C4.69155 3.3643 4.70022 3.3583 4.70881 3.35223C7.18776 1.64416 10.5538 1.52905 13.186 3.28424L12.6207 4.10109C12.4635 4.32845 12.5602 4.49413 12.8354 4.46937L15.2911 4.24952C15.5666 4.22475 15.7313 3.98644 15.6572 3.72039L14.9978 1.3444C14.924 1.07804 14.735 1.04616 14.5776 1.27348L14.011 2.09226C12.0793 0.795544 9.76235 0.301086 7.46271 0.699856C7.23109 0.739942 7.00273 0.789005 6.7775 0.846116C6.77575 0.846426 6.77436 0.846619 6.77297 0.846929C6.76426 0.849057 6.75544 0.851881 6.74697 0.854242C4.76395 1.36348 3.03379 2.52005 1.79921 4.17023C1.7888 4.18258 1.77809 4.19465 1.76826 4.20808C1.7272 4.26337 1.68646 4.31994 1.64657 4.37651C1.58133 4.46922 1.51702 4.56425 1.4555 4.65928C1.4478 4.67073 1.44192 4.68238 1.43519 4.69394C0.4164 6.27266 -0.0750018 8.09781 0.00927166 9.95593C0.00946512 9.96204 0.00911688 9.96819 0.00927166 9.97446C0.0174359 10.156 0.0318297 10.34 0.0513697 10.5212C0.0524144 10.5328 0.0550068 10.5439 0.0569802 10.5556C0.0771779 10.7378 0.102522 10.9204 0.134289 11.1029C0.457144 12.9655 1.33579 14.6416 2.65239 15.9457C2.65545 15.9488 2.65862 15.9521 2.66172 15.9553C2.6628 15.9565 2.664 15.9571 2.66505 15.9582C3.01878 16.3071 3.40354 16.6298 3.81783 16.9216C4.90201 17.6856 6.10927 18.1905 7.40579 18.4232C7.79919 18.4939 8.17497 18.232 8.24555 17.8388C8.31609 17.4454 8.05444 17.0693 7.66117 16.9988Z" fill="#222931"/>
<path d="M8.55591 3.71918C8.23232 3.71918 7.97021 3.98152 7.97021 4.30464V10.1375L13.3048 12.8952C13.3907 12.9396 13.4826 12.9606 13.5731 12.9606C13.785 12.9606 13.9896 12.8452 14.0937 12.6439C14.242 12.3565 14.1298 12.0035 13.8424 11.8552L9.14095 9.42454V4.30464C9.14091 3.98152 8.87911 3.71918 8.55591 3.71918Z" fill="#222931"/>
</g>
<defs>
<clipPath id="clip0_10680_162978">
<rect width="18" height="18" fill="white" transform="translate(0 0.5)"/>
</clipPath>
</defs>
</svg>
