<svg width="48" height="48" viewBox="0 0 48 48" fill="none" xmlns="http://www.w3.org/2000/svg">
<g clip-path="url(#clip0_10230_97638)">
<path d="M37.0832 10H28.9774C28.4719 10 28.0605 10.4113 28.0605 10.9168V11.7842H16.9114C16.6698 11.7842 16.4739 11.9801 16.4739 12.2217V17.0954C12.8661 17.3219 10 20.3286 10 23.9926C10 27.6566 12.8661 30.6633 16.474 30.8898V35.7783C16.474 36.0199 16.6699 36.2158 16.9115 36.2158H28.0606V37.0831C28.0606 37.5886 28.4719 37.9999 28.9774 37.9999H37.0832C37.5887 37.9999 38.0001 37.5886 38.0001 37.0831V34.4734C38.0001 33.9679 37.5887 33.5565 37.0832 33.5565H28.9774C28.4719 33.5565 28.0606 33.9678 28.0606 34.4734V35.3407H17.349V30.8898C18.8451 30.7958 20.2138 30.2242 21.3034 29.3253L22.1765 30.1984C22.2586 30.2805 22.3698 30.3266 22.4859 30.3266H28.0606V31.1939C28.0606 31.6995 28.4719 32.1108 28.9774 32.1108H37.0832C37.5887 32.1108 38.0001 31.6995 38.0001 31.1939V28.5842C38.0001 28.0787 37.5887 27.6674 37.0832 27.6674H28.9774C28.4719 27.6674 28.0606 28.0787 28.0606 28.5842V29.4515H22.667L21.9421 28.7265C23.0124 27.5899 23.7026 26.0919 23.8082 24.4373H28.0606V25.3047C28.0606 25.8102 28.4719 26.2215 28.9774 26.2215H37.0832C37.5887 26.2215 38.0001 25.8102 38.0001 25.3047V22.695C38.0001 22.1895 37.5887 21.7782 37.0832 21.7782H28.9774C28.4719 21.7782 28.0606 22.1895 28.0606 22.695V23.5625H23.8092C23.751 22.6278 23.5029 21.7134 23.0825 20.8802L25.2685 18.6942C25.3817 18.581 25.4241 18.4149 25.3788 18.2612C25.3336 18.1075 25.2079 17.9909 25.0514 17.9572L23.8412 17.6964L23.938 17.5996C24.1088 17.4288 24.1088 17.1518 23.938 16.981C23.7671 16.8101 23.4901 16.8101 23.3193 16.981L23.2225 17.0777L22.9616 15.8675C22.9279 15.711 22.8113 15.5853 22.6576 15.5401C22.5041 15.4949 22.3379 15.5371 22.2246 15.6504L20.0435 17.8314C19.2074 17.4061 18.2888 17.1548 17.349 17.0953V12.6592H28.0606V13.5265C28.0606 14.0321 28.4719 14.4434 28.9774 14.4434H37.0832C37.5887 14.4434 38.0001 14.0321 38.0001 13.5265V10.9168C38 10.4113 37.5887 10 37.0832 10ZM28.9356 34.4735C28.9356 34.4517 28.9555 34.4316 28.9774 34.4316H37.0832C37.1051 34.4316 37.1251 34.4516 37.1251 34.4735V37.0832C37.1251 37.1051 37.1051 37.1251 37.0832 37.1251H28.9774C28.9556 37.1251 28.9356 37.1051 28.9356 37.0832V34.4735ZM28.9356 28.5843C28.9356 28.5625 28.9555 28.5425 28.9774 28.5425H37.0832C37.1051 28.5425 37.1251 28.5624 37.1251 28.5843V31.194C37.1251 31.2159 37.1051 31.2359 37.0832 31.2359H28.9774C28.9556 31.2359 28.9356 31.216 28.9356 31.194V28.5843ZM28.9356 22.6952C28.9356 22.6733 28.9555 22.6534 28.9774 22.6534H37.0832C37.1051 22.6534 37.1251 22.6733 37.1251 22.6952V25.3049C37.1251 25.3268 37.1051 25.3467 37.0832 25.3467H28.9774C28.9556 25.3467 28.9356 25.3268 28.9356 25.3049V22.6952ZM10.875 23.9926C10.875 20.6641 13.583 17.9562 16.9115 17.9562C17.8182 17.9562 18.7125 18.1607 19.5232 18.5497C19.5241 18.5753 19.5265 18.6008 19.5319 18.6262L19.9117 20.3884L19.8448 20.4553C19.0482 19.7935 18.0256 19.3949 16.9114 19.3949C14.3763 19.3949 12.3137 21.4575 12.3137 23.9926C12.3137 26.5278 14.3763 28.5903 16.9114 28.5903C19.4466 28.5903 21.5091 26.5278 21.5091 23.9926C21.5091 22.886 21.116 21.8695 20.4622 21.0753L20.5304 21.0071L22.2925 21.3869C22.3153 21.3918 22.3382 21.3942 22.3611 21.3955C22.7456 22.2025 22.9478 23.0918 22.9478 23.9926C22.9478 23.9949 22.9478 23.9973 22.9478 23.9996V23.9999V24.0002C22.9437 27.3252 20.2374 30.029 16.9114 30.029C13.583 30.0291 10.875 27.3211 10.875 23.9926ZM18.3204 23.9926C18.3204 24.7695 17.6884 25.4016 16.9115 25.4016C16.1346 25.4016 15.5025 24.7695 15.5025 23.9926C15.5025 23.2157 16.1346 22.5836 16.9115 22.5836C17.1446 22.5836 17.3645 22.6409 17.5585 22.7416L16.6094 23.6906C16.4386 23.8615 16.4386 24.1385 16.6094 24.3093C16.6949 24.3948 16.8068 24.4374 16.9188 24.4374C17.0308 24.4374 17.1427 24.3948 17.2282 24.3093L18.1724 23.3651C18.2669 23.5542 18.3204 23.7673 18.3204 23.9926ZM18.1953 22.1048C17.8292 21.855 17.3871 21.7087 16.9115 21.7087C15.6521 21.7087 14.6275 22.7333 14.6275 23.9927C14.6275 25.2521 15.6521 26.2766 16.9115 26.2766C18.1709 26.2766 19.1954 25.2521 19.1954 23.9927C19.1954 23.5246 19.0537 23.0891 18.8112 22.7265L19.8396 21.698C20.3366 22.3309 20.6342 23.1275 20.6342 23.9927C20.6342 26.0454 18.9642 27.7154 16.9115 27.7154C14.8588 27.7154 13.1888 26.0453 13.1888 23.9926C13.1888 21.9399 14.8588 20.2699 16.9115 20.2699C17.7842 20.2699 18.5872 20.5726 19.2227 21.0775L18.1953 22.1048ZM24.082 18.6434L22.2439 20.4814L21.2668 20.2708L23.1048 18.4328L24.082 18.6434ZM22.2755 16.8369L22.4861 17.8141L20.648 19.6521L20.4374 18.6749L22.2755 16.8369ZM37.125 13.5265C37.125 13.5484 37.1051 13.5684 37.0832 13.5684H28.9774C28.9555 13.5684 28.9355 13.5485 28.9355 13.5265V10.9168C28.9355 10.895 28.9555 10.875 28.9774 10.875H37.0832C37.105 10.875 37.125 10.895 37.125 10.9168V13.5265ZM37.0832 15.8892H28.9774C28.4719 15.8892 28.0605 16.3005 28.0605 16.806V17.6734H26.7344C26.4928 17.6734 26.2969 17.8693 26.2969 18.1109C26.2969 18.3525 26.4928 18.5484 26.7344 18.5484H28.0605V19.4157C28.0605 19.9212 28.4719 20.3325 28.9774 20.3325H37.0832C37.5887 20.3325 38 19.9212 38 19.4157V16.806C38 16.3005 37.5887 15.8892 37.0832 15.8892ZM37.125 19.4157C37.125 19.4376 37.1051 19.4575 37.0832 19.4575H28.9774C28.9555 19.4575 28.9355 19.4376 28.9355 19.4157V16.806C28.9355 16.7841 28.9555 16.7642 28.9774 16.7642H37.0832C37.105 16.7642 37.125 16.7841 37.125 16.806V19.4157ZM35.8057 12.2217C35.8057 12.4633 35.6098 12.6592 35.3682 12.6592H30.6924C30.4508 12.6592 30.2549 12.4633 30.2549 12.2217C30.2549 11.9801 30.4508 11.7842 30.6924 11.7842H35.3682C35.6098 11.7842 35.8057 11.9801 35.8057 12.2217ZM35.8057 18.1109C35.8057 18.3525 35.6098 18.5484 35.3682 18.5484H30.6924C30.4508 18.5484 30.2549 18.3525 30.2549 18.1109C30.2549 17.8693 30.4508 17.6734 30.6924 17.6734H35.3682C35.6098 17.6734 35.8057 17.8693 35.8057 18.1109ZM30.2549 24C30.2549 23.7584 30.4508 23.5625 30.6924 23.5625H35.3682C35.6098 23.5625 35.8057 23.7584 35.8057 24C35.8057 24.2416 35.6098 24.4375 35.3682 24.4375H30.6924C30.4508 24.4375 30.2549 24.2417 30.2549 24ZM30.2549 29.8892C30.2549 29.6476 30.4508 29.4517 30.6924 29.4517H35.3682C35.6098 29.4517 35.8057 29.6476 35.8057 29.8892C35.8057 30.1308 35.6098 30.3267 35.3682 30.3267H30.6924C30.4508 30.3267 30.2549 30.1307 30.2549 29.8892ZM30.2549 35.7783C30.2549 35.5367 30.4508 35.3408 30.6924 35.3408H35.3682C35.6098 35.3408 35.8057 35.5367 35.8057 35.7783C35.8057 36.0199 35.6098 36.2158 35.3682 36.2158H30.6924C30.4508 36.2158 30.2549 36.0199 30.2549 35.7783Z" fill="#DC3545"/>
</g>
<rect x="0.5" y="0.5" width="47" height="47" rx="9.5" stroke="#DC3545"/>
<defs>
<clipPath id="clip0_10230_97638">
<rect width="28" height="28" fill="white" transform="translate(10 10)"/>
</clipPath>
</defs>
</svg>
