<svg width="297" height="128" viewBox="0 0 297 128" fill="none" xmlns="http://www.w3.org/2000/svg">
<rect width="297" height="128" fill="white"/>
<g clip-path="url(#clip0_33_102)">
<path d="M128 30C128 18.1259 118.374 8.5 106.5 8.5C94.6259 8.5 85 18.1259 85 30C85 41.8741 94.6259 51.5 106.5 51.5C118.374 51.5 128 41.8741 128 30Z" fill="white"/>
<mask id="mask0_33_102" style="mask-type:luminance" maskUnits="userSpaceOnUse" x="94" y="18" width="25" height="24">
<path d="M118.5 18H94.5V42H118.5V18Z" fill="white"/>
</mask>
<g mask="url(#mask0_33_102)">
<path d="M106.5 32.4036C106.445 32.4036 106.391 32.3915 106.341 32.368L94.7157 26.8986C94.6513 26.8684 94.5968 26.8204 94.5587 26.7603C94.5205 26.7002 94.5002 26.6305 94.5002 26.5593C94.5002 26.4881 94.5205 26.4184 94.5587 26.3583C94.5968 26.2982 94.6513 26.2502 94.7157 26.2199L106.341 20.7486C106.391 20.7252 106.445 20.7131 106.5 20.7131C106.555 20.7131 106.61 20.7252 106.66 20.7486L118.285 26.2199C118.349 26.2502 118.403 26.2982 118.442 26.3583C118.48 26.4184 118.5 26.4881 118.5 26.5593C118.5 26.6305 118.48 26.7002 118.442 26.7603C118.403 26.8204 118.349 26.8684 118.285 26.8986L106.66 32.368C106.61 32.3915 106.555 32.4036 106.5 32.4036ZM95.7563 26.5593L106.5 31.6218L117.244 26.5593L106.5 21.5024L95.7563 26.5593Z" fill="#222931"/>
<path d="M99 33C98.9005 33 98.8052 32.9605 98.7348 32.8902C98.6645 32.8198 98.625 32.7245 98.625 32.625V28.6875C98.625 28.588 98.6645 28.4927 98.7348 28.4223C98.8052 28.352 98.9005 28.3125 99 28.3125C99.0995 28.3125 99.1948 28.352 99.2652 28.4223C99.3355 28.4927 99.375 28.588 99.375 28.6875V32.625C99.375 32.7245 99.3355 32.8198 99.2652 32.8902C99.1948 32.9605 99.0995 33 99 33Z" fill="#222931"/>
<path d="M114 33C113.9 33 113.805 32.9605 113.735 32.8902C113.665 32.8198 113.625 32.7245 113.625 32.625V28.6875C113.625 28.588 113.665 28.4927 113.735 28.4223C113.805 28.352 113.9 28.3125 114 28.3125C114.1 28.3125 114.195 28.352 114.265 28.4223C114.335 28.4927 114.375 28.588 114.375 28.6875V32.625C114.375 32.7245 114.335 32.8198 114.265 32.8902C114.195 32.9605 114.1 33 114 33Z" fill="#222931"/>
<path d="M106.5 36.8494C102.259 36.8494 98.625 34.5263 98.625 32.625C98.625 32.5255 98.6645 32.4302 98.7348 32.3598C98.8052 32.2895 98.9005 32.25 99 32.25C99.0995 32.25 99.1948 32.2895 99.2652 32.3598C99.3355 32.4302 99.375 32.5255 99.375 32.625C99.375 33.8138 102.375 36.0994 106.5 36.0994C110.625 36.0994 113.625 33.8138 113.625 32.625C113.625 32.5255 113.665 32.4302 113.735 32.3598C113.805 32.2895 113.9 32.25 114 32.25C114.1 32.25 114.195 32.2895 114.265 32.3598C114.335 32.4302 114.375 32.5255 114.375 32.625C114.375 34.5263 110.741 36.8494 106.5 36.8494Z" fill="#222931"/>
<path d="M112.125 36.9375C112.026 36.9375 111.93 36.898 111.86 36.8277C111.79 36.7574 111.75 36.662 111.75 36.5625V29.4825L106.333 26.7731C106.288 26.7522 106.247 26.7223 106.213 26.6852C106.179 26.6481 106.153 26.6046 106.136 26.5572C106.119 26.5099 106.112 26.4596 106.115 26.4095C106.119 26.3594 106.132 26.3104 106.154 26.2654C106.176 26.2205 106.208 26.1804 106.246 26.1477C106.284 26.115 106.328 26.0903 106.376 26.0751C106.424 26.0598 106.474 26.0543 106.524 26.059C106.574 26.0636 106.623 26.0782 106.667 26.1019L112.292 28.9144C112.354 28.9454 112.407 28.9933 112.444 29.0526C112.481 29.1119 112.5 29.1803 112.5 29.25V36.5625C112.5 36.662 112.461 36.7574 112.39 36.8277C112.32 36.898 112.225 36.9375 112.125 36.9375Z" fill="#222931"/>
<path d="M112.125 38.625C111.903 38.625 111.685 38.559 111.5 38.4354C111.315 38.3118 111.171 38.1361 111.086 37.9305C111.001 37.725 110.978 37.4988 111.022 37.2805C111.065 37.0623 111.172 36.8618 111.33 36.7045C111.487 36.5472 111.687 36.44 111.906 36.3966C112.124 36.3532 112.35 36.3755 112.556 36.4606C112.761 36.5458 112.937 36.69 113.06 36.875C113.184 37.06 113.25 37.2775 113.25 37.5C113.25 37.7984 113.132 38.0845 112.921 38.2955C112.71 38.5065 112.423 38.625 112.125 38.625ZM112.125 37.125C112.051 37.125 111.978 37.147 111.917 37.1882C111.855 37.2294 111.807 37.288 111.779 37.3565C111.75 37.425 111.743 37.5004 111.757 37.5732C111.772 37.6459 111.807 37.7127 111.86 37.7652C111.912 37.8176 111.979 37.8533 112.052 37.8678C112.125 37.8823 112.2 37.8748 112.269 37.8465C112.337 37.8181 112.396 37.77 112.437 37.7083C112.478 37.6467 112.5 37.5742 112.5 37.5C112.5 37.4005 112.461 37.3052 112.39 37.2348C112.32 37.1645 112.225 37.125 112.125 37.125Z" fill="#222931"/>
<path d="M112.687 40.875H111.562C111.51 40.8752 111.459 40.8646 111.411 40.8437C111.363 40.8229 111.321 40.7924 111.285 40.7542C111.25 40.7159 111.223 40.6707 111.206 40.6214C111.189 40.5722 111.183 40.52 111.187 40.4681L111.375 38.2181C111.379 38.1187 111.422 38.0248 111.495 37.9571C111.568 37.8894 111.664 37.8535 111.764 37.8572C111.863 37.8609 111.957 37.904 112.025 37.977C112.093 38.0499 112.129 38.1468 112.125 38.2463C112.121 38.1468 112.157 38.0499 112.225 37.977C112.292 37.904 112.386 37.8609 112.486 37.8572C112.585 37.8535 112.682 37.8894 112.755 37.9571C112.828 38.0248 112.871 38.1187 112.875 38.2181L113.062 40.4681C113.067 40.52 113.06 40.5722 113.043 40.6214C113.027 40.6707 113 40.7159 112.964 40.7542C112.929 40.7924 112.886 40.8229 112.839 40.8437C112.791 40.8646 112.739 40.8752 112.687 40.875ZM111.969 40.125H112.28L112.125 38.2819C112.124 38.2725 112.124 38.2631 112.125 38.2538C112.126 38.2631 112.126 38.2725 112.125 38.2819L111.969 40.125Z" fill="#222931"/>
</g>
<path d="M128 30C128 18.1259 118.374 8.5 106.5 8.5C94.6259 8.5 85 18.1259 85 30C85 41.8741 94.6259 51.5 106.5 51.5C118.374 51.5 128 41.8741 128 30Z" stroke="#222931"/>
</g>
<g clip-path="url(#clip1_33_102)">
<path d="M128 100C128 88.1259 118.374 78.5 106.5 78.5C94.6259 78.5 85 88.1259 85 100C85 111.874 94.6259 121.5 106.5 121.5C118.374 121.5 128 111.874 128 100Z" fill="white"/>
<mask id="mask1_33_102" style="mask-type:luminance" maskUnits="userSpaceOnUse" x="94" y="88" width="25" height="24">
<path d="M118.5 88H94.5V112H118.5V88Z" fill="white"/>
</mask>
<g mask="url(#mask1_33_102)">
<path d="M106.5 102.404C106.445 102.404 106.391 102.392 106.341 102.368L94.7157 96.8986C94.6513 96.8684 94.5968 96.8204 94.5587 96.7603C94.5205 96.7002 94.5002 96.6305 94.5002 96.5593C94.5002 96.4881 94.5205 96.4184 94.5587 96.3583C94.5968 96.2982 94.6513 96.2502 94.7157 96.2199L106.341 90.7486C106.391 90.7252 106.445 90.7131 106.5 90.7131C106.555 90.7131 106.61 90.7252 106.66 90.7486L118.285 96.2199C118.349 96.2502 118.403 96.2982 118.442 96.3583C118.48 96.4184 118.5 96.4881 118.5 96.5593C118.5 96.6305 118.48 96.7002 118.442 96.7603C118.403 96.8204 118.349 96.8684 118.285 96.8986L106.66 102.368C106.61 102.392 106.555 102.404 106.5 102.404ZM95.7563 96.5593L106.5 101.622L117.244 96.5593L106.5 91.5024L95.7563 96.5593Z" fill="#DC3545"/>
<path d="M99 103C98.9005 103 98.8052 102.96 98.7348 102.89C98.6645 102.82 98.625 102.725 98.625 102.625V98.6875C98.625 98.588 98.6645 98.4927 98.7348 98.4223C98.8052 98.352 98.9005 98.3125 99 98.3125C99.0995 98.3125 99.1948 98.352 99.2652 98.4223C99.3355 98.4927 99.375 98.588 99.375 98.6875V102.625C99.375 102.725 99.3355 102.82 99.2652 102.89C99.1948 102.96 99.0995 103 99 103Z" fill="#DC3545"/>
<path d="M114 103C113.9 103 113.805 102.96 113.735 102.89C113.665 102.82 113.625 102.725 113.625 102.625V98.6875C113.625 98.588 113.665 98.4927 113.735 98.4223C113.805 98.352 113.9 98.3125 114 98.3125C114.1 98.3125 114.195 98.352 114.265 98.4223C114.335 98.4927 114.375 98.588 114.375 98.6875V102.625C114.375 102.725 114.335 102.82 114.265 102.89C114.195 102.96 114.1 103 114 103Z" fill="#DC3545"/>
<path d="M106.5 106.849C102.259 106.849 98.625 104.526 98.625 102.625C98.625 102.525 98.6645 102.43 98.7348 102.36C98.8052 102.29 98.9005 102.25 99 102.25C99.0995 102.25 99.1948 102.29 99.2652 102.36C99.3355 102.43 99.375 102.525 99.375 102.625C99.375 103.814 102.375 106.099 106.5 106.099C110.625 106.099 113.625 103.814 113.625 102.625C113.625 102.525 113.665 102.43 113.735 102.36C113.805 102.29 113.9 102.25 114 102.25C114.1 102.25 114.195 102.29 114.265 102.36C114.335 102.43 114.375 102.525 114.375 102.625C114.375 104.526 110.741 106.849 106.5 106.849Z" fill="#DC3545"/>
<path d="M112.125 106.938C112.026 106.938 111.93 106.898 111.86 106.828C111.79 106.757 111.75 106.662 111.75 106.563V99.4825L106.333 96.7731C106.288 96.7522 106.247 96.7223 106.213 96.6852C106.179 96.6481 106.153 96.6046 106.136 96.5572C106.119 96.5099 106.112 96.4596 106.115 96.4095C106.119 96.3594 106.132 96.3104 106.154 96.2654C106.176 96.2205 106.208 96.1804 106.246 96.1477C106.284 96.115 106.328 96.0903 106.376 96.0751C106.424 96.0598 106.474 96.0543 106.524 96.059C106.574 96.0636 106.623 96.0782 106.667 96.1019L112.292 98.9144C112.354 98.9454 112.407 98.9933 112.444 99.0526C112.481 99.1119 112.5 99.1803 112.5 99.25V106.563C112.5 106.662 112.461 106.757 112.39 106.828C112.32 106.898 112.225 106.938 112.125 106.938Z" fill="#DC3545"/>
<path d="M112.125 108.625C111.903 108.625 111.685 108.559 111.5 108.435C111.315 108.312 111.171 108.136 111.086 107.931C111.001 107.725 110.978 107.499 111.022 107.281C111.065 107.062 111.172 106.862 111.33 106.705C111.487 106.547 111.687 106.44 111.906 106.397C112.124 106.353 112.35 106.376 112.556 106.461C112.761 106.546 112.937 106.69 113.06 106.875C113.184 107.06 113.25 107.278 113.25 107.5C113.25 107.798 113.132 108.085 112.921 108.296C112.71 108.507 112.423 108.625 112.125 108.625ZM112.125 107.125C112.051 107.125 111.978 107.147 111.917 107.188C111.855 107.229 111.807 107.288 111.779 107.357C111.75 107.425 111.743 107.5 111.757 107.573C111.772 107.646 111.807 107.713 111.86 107.765C111.912 107.818 111.979 107.853 112.052 107.868C112.125 107.882 112.2 107.875 112.269 107.847C112.337 107.818 112.396 107.77 112.437 107.708C112.478 107.647 112.5 107.574 112.5 107.5C112.5 107.401 112.461 107.305 112.39 107.235C112.32 107.165 112.225 107.125 112.125 107.125Z" fill="#DC3545"/>
<path d="M112.687 110.875H111.562C111.51 110.875 111.459 110.865 111.411 110.844C111.363 110.823 111.321 110.792 111.285 110.754C111.25 110.716 111.223 110.671 111.206 110.621C111.189 110.572 111.183 110.52 111.187 110.468L111.375 108.218C111.379 108.119 111.422 108.025 111.495 107.957C111.568 107.889 111.664 107.853 111.764 107.857C111.863 107.861 111.957 107.904 112.025 107.977C112.093 108.05 112.129 108.147 112.125 108.246C112.121 108.147 112.157 108.05 112.225 107.977C112.292 107.904 112.386 107.861 112.486 107.857C112.585 107.853 112.682 107.889 112.755 107.957C112.828 108.025 112.871 108.119 112.875 108.218L113.062 110.468C113.067 110.52 113.06 110.572 113.043 110.621C113.027 110.671 113 110.716 112.964 110.754C112.929 110.792 112.886 110.823 112.839 110.844C112.791 110.865 112.739 110.875 112.687 110.875ZM111.969 110.125H112.28L112.125 108.282C112.124 108.272 112.124 108.263 112.125 108.254C112.126 108.263 112.126 108.272 112.125 108.282L111.969 110.125Z" fill="#DC3545"/>
</g>
<path d="M128 100C128 88.1259 118.374 78.5 106.5 78.5C94.6259 78.5 85 88.1259 85 100C85 111.874 94.6259 121.5 106.5 121.5C118.374 121.5 128 111.874 128 100Z" stroke="#DC3545"/>
</g>
<g clip-path="url(#clip2_33_102)">
<path d="M210 30C210 18.1259 200.374 8.5 188.5 8.5C176.626 8.5 167 18.1259 167 30C167 41.8741 176.626 51.5 188.5 51.5C200.374 51.5 210 41.8741 210 30Z" fill="white"/>
<mask id="mask2_33_102" style="mask-type:luminance" maskUnits="userSpaceOnUse" x="176" y="18" width="25" height="24">
<path d="M200.5 18H176.5V42H200.5V18Z" fill="white"/>
</mask>
<g mask="url(#mask2_33_102)">
<path d="M200.125 38.25H199.542C199.677 38.023 199.749 37.7641 199.751 37.5V30.75C199.751 30.3523 199.592 29.971 199.311 29.6898C199.03 29.4086 198.649 29.2504 198.251 29.25H189.626C189.428 29.25 189.233 29.2893 189.05 29.3657C188.748 29.2921 188.437 29.2533 188.126 29.25H186.813V28.9618C187.198 28.6879 187.525 28.3403 187.774 27.9391C188.023 27.538 188.19 27.0913 188.265 26.625H188.313C188.711 26.6246 189.092 26.4664 189.374 26.1852C189.655 25.904 189.813 25.5227 189.813 25.125V23.4375C189.813 22.0948 189.28 20.8072 188.331 19.8578C187.381 18.9084 186.093 18.375 184.751 18.375C183.408 18.375 182.12 18.9084 181.171 19.8578C180.222 20.8072 179.688 22.0948 179.688 23.4375V25.125C179.689 25.5227 179.847 25.9039 180.128 26.1852C180.409 26.4664 180.791 26.6245 181.188 26.625H181.237C181.312 27.0913 181.479 27.538 181.728 27.9391C181.977 28.3403 182.304 28.6879 182.688 28.9618V29.25H181.376C180.282 29.2512 179.234 29.6862 178.46 30.4596C177.687 31.2329 177.252 32.2814 177.251 33.375V37.125C177.252 37.532 177.387 37.9273 177.635 38.25H176.875C176.775 38.25 176.68 38.2895 176.61 38.3598C176.54 38.4302 176.5 38.5255 176.5 38.625V41.25C176.5 41.3495 176.54 41.4448 176.61 41.5152C176.68 41.5855 176.775 41.625 176.875 41.625H200.125C200.225 41.625 200.32 41.5855 200.39 41.5152C200.461 41.4448 200.5 41.3495 200.5 41.25V38.625C200.5 38.5255 200.461 38.4302 200.39 38.3598C200.32 38.2895 200.225 38.25 200.125 38.25ZM198.251 30C198.45 30.0002 198.64 30.0793 198.781 30.2199C198.922 30.3605 199.001 30.5511 199.001 30.75V37.5C199.001 37.6989 198.922 37.8895 198.781 38.0301C198.64 38.1707 198.45 38.2498 198.251 38.25H188.876V30.75C188.876 30.5511 188.955 30.3605 189.096 30.2199C189.236 30.0793 189.427 30.0002 189.626 30H198.251ZM186.975 38.25C186.925 37.8533 186.796 37.4707 186.595 37.125H188.126V38.25H186.975ZM184.376 36.409C184.836 36.4872 185.261 36.7064 185.591 37.0361C185.921 37.3659 186.141 37.79 186.22 38.25H184.376V36.409ZM188.313 25.875V24.375C188.512 24.375 188.703 24.454 188.844 24.5947C188.984 24.7353 189.063 24.9261 189.063 25.125C189.063 25.3239 188.984 25.5147 188.844 25.6553C188.703 25.796 188.512 25.875 188.313 25.875ZM184.751 19.125C185.894 19.1263 186.99 19.581 187.799 20.3895C188.607 21.198 189.062 22.2941 189.063 23.4375V23.8337C188.837 23.6985 188.578 23.6265 188.313 23.625H188.123L186.786 21.8958C186.753 21.8526 186.711 21.8173 186.662 21.7922C186.614 21.7671 186.561 21.7528 186.506 21.7504C186.452 21.7479 186.397 21.7574 186.347 21.7781C186.297 21.7987 186.251 21.8302 186.214 21.8701C185.7 22.4228 185.078 22.8639 184.387 23.1658C183.695 23.4677 182.949 23.624 182.194 23.625H181.188C180.924 23.6265 180.665 23.6986 180.438 23.8337V23.4375C180.44 22.2941 180.894 21.198 181.703 20.3895C182.511 19.581 183.608 19.1263 184.751 19.125ZM180.438 25.125C180.439 24.9261 180.518 24.7355 180.658 24.5949C180.799 24.4543 180.99 24.3752 181.188 24.375V25.875C180.99 25.8748 180.799 25.7957 180.658 25.6551C180.518 25.5145 180.439 25.3239 180.438 25.125ZM181.938 26.0625V24.375H182.194C183.775 24.3728 185.298 23.7714 186.454 22.6921L187.563 24.128V26.0625C187.563 26.8084 187.267 27.5238 186.74 28.0512C186.212 28.5787 185.497 28.875 184.751 28.875C184.005 28.875 183.29 28.5787 182.762 28.0512C182.235 27.5238 181.938 26.8084 181.938 26.0625ZM184.751 29.625C185.201 29.6246 185.646 29.5385 186.063 29.3713V29.8125C186.063 30.1606 185.925 30.4944 185.679 30.7406C185.433 30.9867 185.099 31.125 184.751 31.125C184.403 31.125 184.069 30.9867 183.823 30.7406C183.577 30.4944 183.438 30.1606 183.438 29.8125V29.3713C183.856 29.5385 184.301 29.6246 184.751 29.625ZM178.001 37.125V33.375C178.002 32.4802 178.358 31.6223 178.991 30.9896C179.623 30.3569 180.481 30.001 181.376 30H182.698C182.745 30.5123 182.981 30.9887 183.361 31.3357C183.741 31.6826 184.237 31.8749 184.751 31.8749C185.265 31.8749 185.761 31.6826 186.141 31.3357C186.521 30.9887 186.757 30.5123 186.804 30H188.126C188.192 30 188.26 30.0097 188.327 30.014C188.197 30.2375 188.128 30.4913 188.126 30.75V36.375H185.979C185.433 35.8919 184.73 35.6252 184.001 35.625H180.251C180.151 35.625 180.056 35.6645 179.986 35.7348C179.915 35.8052 179.876 35.9005 179.876 36C179.876 36.0995 179.915 36.1948 179.986 36.2652C180.056 36.3355 180.151 36.375 180.251 36.375H183.626V38.25H179.126C178.828 38.2497 178.542 38.131 178.331 37.9201C178.12 37.7092 178.001 37.4233 178.001 37.125ZM199.75 40.875H177.25V39H199.75V40.875Z" fill="#222931"/>
<path d="M193.938 36C194.309 36 194.672 35.89 194.98 35.684C195.288 35.478 195.529 35.1851 195.671 34.8425C195.813 34.4999 195.85 34.1229 195.777 33.7592C195.705 33.3955 195.526 33.0614 195.264 32.7992C195.002 32.537 194.668 32.3584 194.304 32.286C193.941 32.2137 193.564 32.2508 193.221 32.3927C192.878 32.5346 192.585 32.775 192.379 33.0833C192.173 33.3916 192.063 33.7542 192.063 34.125C192.064 34.6221 192.262 35.0987 192.613 35.4502C192.965 35.8017 193.441 35.9994 193.938 36ZM193.938 33C194.161 33 194.378 33.066 194.563 33.1896C194.748 33.3132 194.893 33.4889 194.978 33.6945C195.063 33.9001 195.085 34.1262 195.042 34.3445C194.998 34.5627 194.891 34.7632 194.734 34.9205C194.577 35.0778 194.376 35.185 194.158 35.2284C193.94 35.2718 193.713 35.2495 193.508 35.1644C193.302 35.0792 193.127 34.935 193.003 34.75C192.879 34.565 192.813 34.3475 192.813 34.125C192.814 33.8267 192.932 33.5408 193.143 33.3299C193.354 33.119 193.64 33.0003 193.938 33Z" fill="#222931"/>
</g>
<path d="M210 30C210 18.1259 200.374 8.5 188.5 8.5C176.626 8.5 167 18.1259 167 30C167 41.8741 176.626 51.5 188.5 51.5C200.374 51.5 210 41.8741 210 30Z" stroke="#222931"/>
</g>
<g clip-path="url(#clip3_33_102)">
<path d="M210 100C210 88.1259 200.374 78.5 188.5 78.5C176.626 78.5 167 88.1259 167 100C167 111.874 176.626 121.5 188.5 121.5C200.374 121.5 210 111.874 210 100Z" fill="white"/>
<mask id="mask3_33_102" style="mask-type:luminance" maskUnits="userSpaceOnUse" x="176" y="88" width="25" height="24">
<path d="M200.5 88H176.5V112H200.5V88Z" fill="white"/>
</mask>
<g mask="url(#mask3_33_102)">
<path d="M200.125 108.25H199.542C199.677 108.023 199.749 107.764 199.751 107.5V100.75C199.751 100.352 199.592 99.971 199.311 99.6898C199.03 99.4086 198.649 99.2504 198.251 99.25H189.626C189.428 99.25 189.233 99.2893 189.05 99.3657C188.748 99.2921 188.437 99.2533 188.126 99.25H186.813V98.9618C187.198 98.6879 187.525 98.3403 187.774 97.9391C188.023 97.538 188.19 97.0913 188.265 96.625H188.313C188.711 96.6246 189.092 96.4664 189.374 96.1852C189.655 95.904 189.813 95.5227 189.813 95.125V93.4375C189.813 92.0948 189.28 90.8072 188.331 89.8578C187.381 88.9084 186.093 88.375 184.751 88.375C183.408 88.375 182.12 88.9084 181.171 89.8578C180.222 90.8072 179.688 92.0948 179.688 93.4375V95.125C179.689 95.5227 179.847 95.9039 180.128 96.1852C180.409 96.4664 180.791 96.6245 181.188 96.625H181.237C181.312 97.0913 181.479 97.538 181.728 97.9391C181.977 98.3403 182.304 98.6879 182.688 98.9618V99.25H181.376C180.282 99.2512 179.234 99.6862 178.46 100.46C177.687 101.233 177.252 102.281 177.251 103.375V107.125C177.252 107.532 177.387 107.927 177.635 108.25H176.875C176.775 108.25 176.68 108.29 176.61 108.36C176.54 108.43 176.5 108.525 176.5 108.625V111.25C176.5 111.35 176.54 111.445 176.61 111.515C176.68 111.586 176.775 111.625 176.875 111.625H200.125C200.225 111.625 200.32 111.586 200.39 111.515C200.461 111.445 200.5 111.35 200.5 111.25V108.625C200.5 108.525 200.461 108.43 200.39 108.36C200.32 108.29 200.225 108.25 200.125 108.25ZM198.251 100C198.45 100 198.64 100.079 198.781 100.22C198.922 100.361 199.001 100.551 199.001 100.75V107.5C199.001 107.699 198.922 107.889 198.781 108.03C198.64 108.171 198.45 108.25 198.251 108.25H188.876V100.75C188.876 100.551 188.955 100.361 189.096 100.22C189.236 100.079 189.427 100 189.626 100H198.251ZM186.975 108.25C186.925 107.853 186.796 107.471 186.595 107.125H188.126V108.25H186.975ZM184.376 106.409C184.836 106.487 185.261 106.706 185.591 107.036C185.921 107.366 186.141 107.79 186.22 108.25H184.376V106.409ZM188.313 95.875V94.375C188.512 94.375 188.703 94.454 188.844 94.5947C188.984 94.7353 189.063 94.9261 189.063 95.125C189.063 95.3239 188.984 95.5147 188.844 95.6553C188.703 95.796 188.512 95.875 188.313 95.875ZM184.751 89.125C185.894 89.1263 186.99 89.581 187.799 90.3895C188.607 91.198 189.062 92.2941 189.063 93.4375V93.8337C188.837 93.6985 188.578 93.6265 188.313 93.625H188.123L186.786 91.8958C186.753 91.8526 186.711 91.8173 186.662 91.7922C186.614 91.7671 186.561 91.7528 186.506 91.7504C186.452 91.7479 186.397 91.7574 186.347 91.7781C186.297 91.7987 186.251 91.8302 186.214 91.8701C185.7 92.4228 185.078 92.8639 184.387 93.1658C183.695 93.4677 182.949 93.624 182.194 93.625H181.188C180.924 93.6265 180.665 93.6986 180.438 93.8337V93.4375C180.44 92.2941 180.894 91.198 181.703 90.3895C182.511 89.581 183.608 89.1263 184.751 89.125ZM180.438 95.125C180.439 94.9261 180.518 94.7355 180.658 94.5949C180.799 94.4543 180.99 94.3752 181.188 94.375V95.875C180.99 95.8748 180.799 95.7957 180.658 95.6551C180.518 95.5145 180.439 95.3239 180.438 95.125ZM181.938 96.0625V94.375H182.194C183.775 94.3728 185.298 93.7714 186.454 92.6921L187.563 94.128V96.0625C187.563 96.8084 187.267 97.5238 186.74 98.0512C186.212 98.5787 185.497 98.875 184.751 98.875C184.005 98.875 183.29 98.5787 182.762 98.0512C182.235 97.5238 181.938 96.8084 181.938 96.0625ZM184.751 99.625C185.201 99.6246 185.646 99.5385 186.063 99.3713V99.8125C186.063 100.161 185.925 100.494 185.679 100.741C185.433 100.987 185.099 101.125 184.751 101.125C184.403 101.125 184.069 100.987 183.823 100.741C183.577 100.494 183.438 100.161 183.438 99.8125V99.3713C183.856 99.5385 184.301 99.6246 184.751 99.625ZM178.001 107.125V103.375C178.002 102.48 178.358 101.622 178.991 100.99C179.623 100.357 180.481 100.001 181.376 100H182.698C182.745 100.512 182.981 100.989 183.361 101.336C183.741 101.683 184.237 101.875 184.751 101.875C185.265 101.875 185.761 101.683 186.141 101.336C186.521 100.989 186.757 100.512 186.804 100H188.126C188.192 100 188.26 100.01 188.327 100.014C188.197 100.237 188.128 100.491 188.126 100.75V106.375H185.979C185.433 105.892 184.73 105.625 184.001 105.625H180.251C180.151 105.625 180.056 105.665 179.986 105.735C179.915 105.805 179.876 105.9 179.876 106C179.876 106.1 179.915 106.195 179.986 106.265C180.056 106.335 180.151 106.375 180.251 106.375H183.626V108.25H179.126C178.828 108.25 178.542 108.131 178.331 107.92C178.12 107.709 178.001 107.423 178.001 107.125ZM199.75 110.875H177.25V109H199.75V110.875Z" fill="#DC3545"/>
<path d="M193.938 106C194.309 106 194.672 105.89 194.98 105.684C195.288 105.478 195.529 105.185 195.671 104.843C195.813 104.5 195.85 104.123 195.777 103.759C195.705 103.396 195.526 103.061 195.264 102.799C195.002 102.537 194.668 102.358 194.304 102.286C193.941 102.214 193.564 102.251 193.221 102.393C192.878 102.535 192.585 102.775 192.379 103.083C192.173 103.392 192.063 103.754 192.063 104.125C192.064 104.622 192.262 105.099 192.613 105.45C192.965 105.802 193.441 105.999 193.938 106ZM193.938 103C194.161 103 194.378 103.066 194.563 103.19C194.748 103.313 194.893 103.489 194.978 103.695C195.063 103.9 195.085 104.126 195.042 104.345C194.998 104.563 194.891 104.763 194.734 104.921C194.577 105.078 194.376 105.185 194.158 105.228C193.94 105.272 193.713 105.25 193.508 105.164C193.302 105.079 193.127 104.935 193.003 104.75C192.879 104.565 192.813 104.348 192.813 104.125C192.814 103.827 192.932 103.541 193.143 103.33C193.354 103.119 193.64 103 193.938 103Z" fill="#DC3545"/>
</g>
<path d="M210 100C210 88.1259 200.374 78.5 188.5 78.5C176.626 78.5 167 88.1259 167 100C167 111.874 176.626 121.5 188.5 121.5C200.374 121.5 210 111.874 210 100Z" stroke="#DC3545"/>
</g>
<g clip-path="url(#clip4_33_102)">
<path d="M291.5 30C291.5 18.1259 281.874 8.5 270 8.5C258.126 8.5 248.5 18.1259 248.5 30C248.5 41.8741 258.126 51.5 270 51.5C281.874 51.5 291.5 41.8741 291.5 30Z" fill="white"/>
<mask id="mask4_33_102" style="mask-type:luminance" maskUnits="userSpaceOnUse" x="258" y="18" width="24" height="24">
<path d="M282 18H258V42H282V18Z" fill="white"/>
</mask>
<g mask="url(#mask4_33_102)">
<path d="M281.741 31.0799L280.552 30.6937C280.405 30.134 280.183 29.5991 279.89 29.0985L280.458 27.9838C280.532 27.8389 280.504 27.6632 280.389 27.5478L279.119 26.2775C279.004 26.1627 278.828 26.1346 278.684 26.2086L277.569 26.7767C277.068 26.4842 276.533 26.2625 275.974 26.1153L275.587 24.9271C275.537 24.7724 275.393 24.6678 275.23 24.6678H273.434C273.271 24.6678 273.128 24.7724 273.077 24.9271L272.69 26.1153C272.131 26.2625 271.596 26.4842 271.096 26.7767L269.981 26.2086C269.836 26.1346 269.66 26.1627 269.545 26.2775L268.275 27.5478C268.16 27.6627 268.132 27.8389 268.206 27.9838L268.621 28.7994C268.453 28.7839 268.282 28.776 268.11 28.776H263.615C260.519 28.776 258 31.2946 258 34.3907V38.8312C258 39.4776 258.526 40.004 259.173 40.004H272.55C272.761 40.004 272.959 39.9478 273.13 39.8498C273.2 39.945 273.311 40.004 273.434 40.004H275.23C275.392 40.004 275.536 39.8995 275.587 39.7448L275.973 38.5564C276.533 38.4097 277.068 38.1881 277.569 37.8951L278.684 38.4632C278.828 38.5367 279.004 38.5091 279.119 38.3942L280.39 37.124C280.505 37.0092 280.533 36.8328 280.459 36.688L279.891 35.5733C280.183 35.0727 280.405 34.5378 280.552 33.9782L281.742 33.5919C281.896 33.5417 282.001 33.3974 282.001 33.2347V31.4372C282.001 31.2745 281.896 31.13 281.741 31.0799ZM266.69 34.0414L265.861 35.5097L265.033 34.0414L265.454 29.5269H266.27L266.69 34.0414ZM272.55 39.253H270.063V36.4925C270.063 36.2853 269.895 36.1171 269.688 36.1171C269.48 36.1171 269.312 36.2849 269.312 36.4925V39.253H262.41V36.4925C262.41 36.2853 262.242 36.1171 262.034 36.1171C261.826 36.1171 261.659 36.2849 261.659 36.4925V39.253H259.172C258.939 39.253 258.75 39.0637 258.75 38.8312V34.3907C258.75 31.7085 260.932 29.5269 263.614 29.5269H264.699L264.274 34.0888C264.267 34.1652 264.283 34.2416 264.321 34.3082L265.534 36.4584C265.6 36.5765 265.725 36.6492 265.861 36.6492C265.996 36.6492 266.121 36.5761 266.187 36.4584L267.4 34.3082C267.438 34.2416 267.454 34.1652 267.447 34.0888L267.023 29.5269H268.109C269.219 29.5269 270.243 29.9014 271.063 30.5305C271.079 30.5469 271.097 30.5619 271.117 30.5755C271.123 30.5802 271.13 30.5839 271.136 30.5877C272.254 31.4797 272.971 32.8532 272.971 34.3911V38.8316C272.972 39.0641 272.782 39.253 272.55 39.253ZM271.849 30.2075C272.467 29.4866 273.373 29.0642 274.332 29.0642C276.135 29.0642 277.603 30.5315 277.603 32.3348C277.603 34.139 276.135 35.6067 274.332 35.6067C274.128 35.6067 273.924 35.5869 273.722 35.5485V34.3903C273.722 32.7304 272.998 31.2364 271.849 30.2075ZM281.25 32.9619L280.121 33.328C279.995 33.3688 279.9 33.4729 279.871 33.6023C279.729 34.2248 279.485 34.8153 279.143 35.3572C279.072 35.4692 279.066 35.6103 279.126 35.728L279.665 36.7855L278.781 37.67L277.723 37.1311C277.605 37.0706 277.464 37.0772 277.352 37.1479C276.811 37.4897 276.22 37.7343 275.597 37.8754C275.468 37.905 275.364 37.9996 275.323 38.1257L274.957 39.253H273.706L273.676 39.1588C273.706 39.0547 273.722 38.9451 273.722 38.8312V36.3107C273.924 36.3416 274.128 36.3581 274.332 36.3581C276.549 36.3581 278.353 34.5533 278.353 32.3352C278.353 30.118 276.549 28.3138 274.332 28.3138C273.141 28.3138 272.018 28.8425 271.257 29.7444C270.741 29.3933 270.163 29.1261 269.544 28.9621C269.542 28.956 269.539 28.9499 269.536 28.9438L268.998 27.8854L269.883 27.0008L270.941 27.54C271.059 27.6 271.2 27.5933 271.311 27.523C271.853 27.1817 272.443 26.9367 273.065 26.7956C273.194 26.7665 273.298 26.6717 273.339 26.5461L273.706 25.4178H274.958L275.324 26.5452C275.364 26.6713 275.468 26.7665 275.598 26.7956C276.22 26.9367 276.811 27.1813 277.353 27.523C277.465 27.5938 277.606 27.6 277.724 27.54L278.781 27.0008L279.666 27.8854L279.127 28.9428C279.067 29.061 279.073 29.2016 279.143 29.3136C279.485 29.8555 279.73 30.4462 279.871 31.0687C279.9 31.1981 279.996 31.3021 280.122 31.3428L281.25 31.7089L281.25 32.9619ZM265.861 28.1436C268.107 28.1436 269.934 26.316 269.934 24.0692C269.934 21.823 268.107 19.9958 265.861 19.9958C263.615 19.9958 261.788 21.823 261.788 24.0692C261.788 26.316 263.615 28.1436 265.861 28.1436ZM265.861 20.7467C267.693 20.7467 269.183 22.2374 269.183 24.0692C269.183 25.9021 267.693 27.3932 265.861 27.3932C264.029 27.3932 262.538 25.9021 262.538 24.0692C262.538 22.2369 264.029 20.7467 265.861 20.7467Z" fill="#222931"/>
</g>
<path d="M291.5 30C291.5 18.1259 281.874 8.5 270 8.5C258.126 8.5 248.5 18.1259 248.5 30C248.5 41.8741 258.126 51.5 270 51.5C281.874 51.5 291.5 41.8741 291.5 30Z" stroke="#222931"/>
</g>
<g clip-path="url(#clip5_33_102)">
<path d="M291.5 100C291.5 88.1259 281.874 78.5 270 78.5C258.126 78.5 248.5 88.1259 248.5 100C248.5 111.874 258.126 121.5 270 121.5C281.874 121.5 291.5 111.874 291.5 100Z" fill="white"/>
<mask id="mask5_33_102" style="mask-type:luminance" maskUnits="userSpaceOnUse" x="258" y="88" width="24" height="24">
<path d="M282 88H258V112H282V88Z" fill="white"/>
</mask>
<g mask="url(#mask5_33_102)">
<path d="M281.741 101.08L280.552 100.694C280.405 100.134 280.183 99.5991 279.89 99.0985L280.458 97.9838C280.532 97.8389 280.504 97.6632 280.389 97.5478L279.119 96.2775C279.004 96.1627 278.828 96.1346 278.684 96.2086L277.569 96.7767C277.068 96.4842 276.533 96.2625 275.974 96.1153L275.587 94.9271C275.537 94.7724 275.393 94.6678 275.23 94.6678H273.434C273.271 94.6678 273.128 94.7724 273.077 94.9271L272.69 96.1153C272.131 96.2625 271.596 96.4842 271.096 96.7767L269.981 96.2086C269.836 96.1346 269.66 96.1627 269.545 96.2775L268.275 97.5478C268.16 97.6627 268.132 97.8389 268.206 97.9838L268.621 98.7994C268.453 98.7839 268.282 98.776 268.11 98.776H263.615C260.519 98.776 258 101.295 258 104.391V108.831C258 109.478 258.526 110.004 259.173 110.004H272.55C272.761 110.004 272.959 109.948 273.13 109.85C273.2 109.945 273.311 110.004 273.434 110.004H275.23C275.392 110.004 275.536 109.899 275.587 109.745L275.973 108.556C276.533 108.41 277.068 108.188 277.569 107.895L278.684 108.463C278.828 108.537 279.004 108.509 279.119 108.394L280.39 107.124C280.505 107.009 280.533 106.833 280.459 106.688L279.891 105.573C280.183 105.073 280.405 104.538 280.552 103.978L281.742 103.592C281.896 103.542 282.001 103.397 282.001 103.235V101.437C282.001 101.274 281.896 101.13 281.741 101.08ZM266.69 104.041L265.861 105.51L265.033 104.041L265.454 99.5269H266.27L266.69 104.041ZM272.55 109.253H270.063V106.493C270.063 106.285 269.895 106.117 269.688 106.117C269.48 106.117 269.312 106.285 269.312 106.493V109.253H262.41V106.493C262.41 106.285 262.242 106.117 262.034 106.117C261.826 106.117 261.659 106.285 261.659 106.493V109.253H259.172C258.939 109.253 258.75 109.064 258.75 108.831V104.391C258.75 101.709 260.932 99.5269 263.614 99.5269H264.699L264.274 104.089C264.267 104.165 264.283 104.242 264.321 104.308L265.534 106.458C265.6 106.576 265.725 106.649 265.861 106.649C265.996 106.649 266.121 106.576 266.187 106.458L267.4 104.308C267.438 104.242 267.454 104.165 267.447 104.089L267.023 99.5269H268.109C269.219 99.5269 270.243 99.9014 271.063 100.531C271.079 100.547 271.097 100.562 271.117 100.576C271.123 100.58 271.13 100.584 271.136 100.588C272.254 101.48 272.971 102.853 272.971 104.391V108.832C272.972 109.064 272.782 109.253 272.55 109.253ZM271.849 100.208C272.467 99.4866 273.373 99.0642 274.332 99.0642C276.135 99.0642 277.603 100.531 277.603 102.335C277.603 104.139 276.135 105.607 274.332 105.607C274.128 105.607 273.924 105.587 273.722 105.549V104.39C273.722 102.73 272.998 101.236 271.849 100.208ZM281.25 102.962L280.121 103.328C279.995 103.369 279.9 103.473 279.871 103.602C279.729 104.225 279.485 104.815 279.143 105.357C279.072 105.469 279.066 105.61 279.126 105.728L279.665 106.786L278.781 107.67L277.723 107.131C277.605 107.071 277.464 107.077 277.352 107.148C276.811 107.49 276.22 107.734 275.597 107.875C275.468 107.905 275.364 108 275.323 108.126L274.957 109.253H273.706L273.676 109.159C273.706 109.055 273.722 108.945 273.722 108.831V106.311C273.924 106.342 274.128 106.358 274.332 106.358C276.549 106.358 278.353 104.553 278.353 102.335C278.353 100.118 276.549 98.3138 274.332 98.3138C273.141 98.3138 272.018 98.8425 271.257 99.7444C270.741 99.3933 270.163 99.1261 269.544 98.9621C269.542 98.956 269.539 98.9499 269.536 98.9438L268.998 97.8854L269.883 97.0008L270.941 97.54C271.059 97.6 271.2 97.5933 271.311 97.523C271.853 97.1817 272.443 96.9367 273.065 96.7956C273.194 96.7665 273.298 96.6717 273.339 96.5461L273.706 95.4178H274.958L275.324 96.5452C275.364 96.6713 275.468 96.7665 275.598 96.7956C276.22 96.9367 276.811 97.1813 277.353 97.523C277.465 97.5938 277.606 97.6 277.724 97.54L278.781 97.0008L279.666 97.8854L279.127 98.9428C279.067 99.061 279.073 99.2016 279.143 99.3136C279.485 99.8555 279.73 100.446 279.871 101.069C279.9 101.198 279.996 101.302 280.122 101.343L281.25 101.709L281.25 102.962ZM265.861 98.1436C268.107 98.1436 269.934 96.316 269.934 94.0692C269.934 91.823 268.107 89.9958 265.861 89.9958C263.615 89.9958 261.788 91.823 261.788 94.0692C261.788 96.316 263.615 98.1436 265.861 98.1436ZM265.861 90.7467C267.693 90.7467 269.183 92.2374 269.183 94.0692C269.183 95.9021 267.693 97.3932 265.861 97.3932C264.029 97.3932 262.538 95.9021 262.538 94.0692C262.538 92.2369 264.029 90.7467 265.861 90.7467Z" fill="#DC3545"/>
</g>
<path d="M291.5 100C291.5 88.1259 281.874 78.5 270 78.5C258.126 78.5 248.5 88.1259 248.5 100C248.5 111.874 258.126 121.5 270 121.5C281.874 121.5 291.5 111.874 291.5 100Z" stroke="#DC3545"/>
</g>
<g clip-path="url(#clip6_33_102)">
<path d="M48.5 30C48.5 18.1259 38.8741 8.5 27 8.5C15.1259 8.5 5.5 18.1259 5.5 30C5.5 41.8741 15.1259 51.5 27 51.5C38.8741 51.5 48.5 41.8741 48.5 30Z" fill="white"/>
<path d="M23.09 25.3987H29.0264C29.2253 25.3987 29.3864 25.2377 29.3864 25.0387C29.3864 24.8398 29.2253 24.6787 29.0264 24.6787H23.09C22.891 24.6787 22.73 24.8398 22.73 25.0387C22.73 25.2377 22.891 25.3987 23.09 25.3987Z" fill="#222931"/>
<path d="M23.09 26.9971H29.0264C29.2253 26.9971 29.3864 26.8361 29.3864 26.6371C29.3864 26.4381 29.2253 26.2771 29.0264 26.2771H23.09C22.891 26.2771 22.73 26.4381 22.73 26.6371C22.73 26.8361 22.891 26.9971 23.09 26.9971Z" fill="#222931"/>
<path d="M23.09 29.5088H26.7433C26.9422 29.5088 27.1033 29.3478 27.1033 29.1488C27.1033 28.9498 26.9422 28.7888 26.7433 28.7888H23.09C22.891 28.7888 22.73 28.9498 22.73 29.1488C22.73 29.3478 22.891 29.5088 23.09 29.5088Z" fill="#222931"/>
<path d="M23.09 31.107H26.7433C26.9422 31.107 27.1033 30.946 27.1033 30.747C27.1033 30.548 26.9422 30.387 26.7433 30.387H23.09C22.891 30.387 22.73 30.548 22.73 30.747C22.73 30.946 22.891 31.107 23.09 31.107Z" fill="#222931"/>
<path d="M27.56 33.487C27.56 33.288 27.3989 33.127 27.2 33.127H23.09C22.891 33.127 22.73 33.288 22.73 33.487C22.73 33.6859 22.891 33.847 23.09 33.847H27.2C27.3987 33.847 27.56 33.6857 27.56 33.487Z" fill="#222931"/>
<path d="M23.09 34.7251C22.891 34.7251 22.73 34.8861 22.73 35.0851C22.73 35.2841 22.891 35.4451 23.09 35.4451H26.2865C26.4855 35.4451 26.6465 35.2841 26.6465 35.0851C26.6465 34.8861 26.4855 34.7251 26.2865 34.7251H23.09Z" fill="#222931"/>
<path d="M22.1751 29.1488C22.1751 28.9498 22.0141 28.7888 21.8151 28.7888H19.8361C19.6371 28.7888 19.4761 28.9498 19.4761 29.1488V30.9183C19.4761 31.1173 19.6371 31.2783 19.8361 31.2783H21.8151C22.0141 31.2783 22.1751 31.1173 22.1751 30.9183V29.1488ZM21.4551 30.5583H20.1961V29.5088H21.4551V30.5583Z" fill="#222931"/>
<path d="M22.1751 25.0387C22.1751 24.8398 22.0141 24.6787 21.8151 24.6787H19.8361C19.6371 24.6787 19.4761 24.8398 19.4761 25.0387V26.8082C19.4761 27.0072 19.6371 27.1682 19.8361 27.1682H21.8151C22.0141 27.1682 22.1751 27.0072 22.1751 26.8082V25.0387ZM21.4551 26.4482H20.1961V25.3987H21.4551V26.4482Z" fill="#222931"/>
<path d="M21.8151 33.127H19.8361C19.6371 33.127 19.4761 33.288 19.4761 33.487V35.2565C19.4761 35.4554 19.6371 35.6165 19.8361 35.6165H21.8151C22.0141 35.6165 22.1751 35.4554 22.1751 35.2565V33.487C22.1751 33.288 22.0141 33.127 21.8151 33.127ZM21.4551 34.8965H20.1961V33.847H21.4551V34.8965Z" fill="#222931"/>
<path d="M31.2526 34.487C28.3778 34.487 26.0129 36.7054 25.7762 39.5201H18.9799C18.4231 39.5201 17.97 39.067 17.97 38.5102V23.9148H19.6078C20.5618 23.9148 21.3377 23.1386 21.3377 22.1849V20.3755H29.8826C30.4394 20.3755 30.8926 20.8286 30.8926 21.3854V26.6472C28.895 26.8298 27.325 28.5122 27.325 30.5566C27.325 32.7223 29.0868 34.4842 31.2526 34.4842C33.4183 34.4842 35.1802 32.7223 35.1802 30.5566C35.1802 28.5122 33.6101 26.8298 31.6126 26.6472V21.3854C31.6126 20.4314 30.8366 19.6555 29.8826 19.6555H20.9777C20.9746 19.6555 20.9719 19.6562 20.9688 19.6565C20.922 19.6577 20.8774 19.667 20.8366 19.6846C20.8315 19.6867 20.8267 19.6901 20.8217 19.6927C20.8056 19.7006 20.7895 19.7086 20.7746 19.7186C20.7672 19.7237 20.761 19.7302 20.754 19.7357C20.7425 19.745 20.7307 19.7539 20.7204 19.7645L20.7168 19.7676L17.3494 23.3064C17.3479 23.3081 17.3458 23.3119 17.3458 23.3119C17.3172 23.3431 17.2934 23.3789 17.2771 23.419C17.2762 23.4214 17.2757 23.424 17.2747 23.4266C17.2596 23.4662 17.2505 23.5085 17.2502 23.5534L17.25 23.5546V38.5099C17.25 39.4639 18.0259 40.2398 18.9799 40.2398H25.8619C25.927 40.3044 26.0165 40.3442 26.1154 40.3442H36.3902C36.5892 40.3442 36.7502 40.1832 36.7502 39.9842C36.75 36.9533 34.284 34.487 31.2526 34.487ZM34.4602 30.5566C34.4602 32.3254 33.0211 33.7642 31.2526 33.7642C29.484 33.7642 28.045 32.3251 28.045 30.5566C28.045 28.788 29.484 27.349 31.2526 27.349C33.0211 27.349 34.4602 28.7878 34.4602 30.5566ZM19.6078 23.1948H18.4495L20.6179 20.916V22.1849C20.6179 22.7417 20.1648 23.1948 19.6078 23.1948ZM26.4888 39.6245C26.6734 37.1578 28.7395 35.207 31.2528 35.207C33.7661 35.207 35.8322 37.1575 36.0168 39.6245H26.4888Z" fill="#222931"/>
<path d="M48.5 30C48.5 18.1259 38.8741 8.5 27 8.5C15.1259 8.5 5.5 18.1259 5.5 30C5.5 41.8741 15.1259 51.5 27 51.5C38.8741 51.5 48.5 41.8741 48.5 30Z" stroke="#222931"/>
</g>
<g clip-path="url(#clip7_33_102)">
<path d="M46.5 100C46.5 88.1259 36.8741 78.5 25 78.5C13.1259 78.5 3.5 88.1259 3.5 100C3.5 111.874 13.1259 121.5 25 121.5C36.8741 121.5 46.5 111.874 46.5 100Z" fill="white"/>
<path d="M21.09 95.3987H27.0264C27.2253 95.3987 27.3864 95.2377 27.3864 95.0387C27.3864 94.8398 27.2253 94.6787 27.0264 94.6787H21.09C20.891 94.6787 20.73 94.8398 20.73 95.0387C20.73 95.2377 20.891 95.3987 21.09 95.3987Z" fill="#DC3545"/>
<path d="M21.09 96.9971H27.0264C27.2253 96.9971 27.3864 96.8361 27.3864 96.6371C27.3864 96.4381 27.2253 96.2771 27.0264 96.2771H21.09C20.891 96.2771 20.73 96.4381 20.73 96.6371C20.73 96.8361 20.891 96.9971 21.09 96.9971Z" fill="#DC3545"/>
<path d="M21.09 99.5088H24.7433C24.9422 99.5088 25.1033 99.3478 25.1033 99.1488C25.1033 98.9498 24.9422 98.7888 24.7433 98.7888H21.09C20.891 98.7888 20.73 98.9498 20.73 99.1488C20.73 99.3478 20.891 99.5088 21.09 99.5088Z" fill="#DC3545"/>
<path d="M21.09 101.107H24.7433C24.9422 101.107 25.1033 100.946 25.1033 100.747C25.1033 100.548 24.9422 100.387 24.7433 100.387H21.09C20.891 100.387 20.73 100.548 20.73 100.747C20.73 100.946 20.891 101.107 21.09 101.107Z" fill="#DC3545"/>
<path d="M25.56 103.487C25.56 103.288 25.3989 103.127 25.2 103.127H21.09C20.891 103.127 20.73 103.288 20.73 103.487C20.73 103.686 20.891 103.847 21.09 103.847H25.2C25.3987 103.847 25.56 103.686 25.56 103.487Z" fill="#DC3545"/>
<path d="M21.09 104.725C20.891 104.725 20.73 104.886 20.73 105.085C20.73 105.284 20.891 105.445 21.09 105.445H24.2865C24.4855 105.445 24.6465 105.284 24.6465 105.085C24.6465 104.886 24.4855 104.725 24.2865 104.725H21.09Z" fill="#DC3545"/>
<path d="M20.1751 99.1488C20.1751 98.9498 20.0141 98.7888 19.8151 98.7888H17.8361C17.6371 98.7888 17.4761 98.9498 17.4761 99.1488V100.918C17.4761 101.117 17.6371 101.278 17.8361 101.278H19.8151C20.0141 101.278 20.1751 101.117 20.1751 100.918V99.1488ZM19.4551 100.558H18.1961V99.5088H19.4551V100.558Z" fill="#DC3545"/>
<path d="M20.1751 95.0387C20.1751 94.8398 20.0141 94.6787 19.8151 94.6787H17.8361C17.6371 94.6787 17.4761 94.8398 17.4761 95.0387V96.8082C17.4761 97.0072 17.6371 97.1682 17.8361 97.1682H19.8151C20.0141 97.1682 20.1751 97.0072 20.1751 96.8082V95.0387ZM19.4551 96.4482H18.1961V95.3987H19.4551V96.4482Z" fill="#DC3545"/>
<path d="M19.8151 103.127H17.8361C17.6371 103.127 17.4761 103.288 17.4761 103.487V105.256C17.4761 105.455 17.6371 105.616 17.8361 105.616H19.8151C20.0141 105.616 20.1751 105.455 20.1751 105.256V103.487C20.1751 103.288 20.0141 103.127 19.8151 103.127ZM19.4551 104.896H18.1961V103.847H19.4551V104.896Z" fill="#DC3545"/>
<path d="M29.2526 104.487C26.3778 104.487 24.0129 106.705 23.7762 109.52H16.9799C16.4231 109.52 15.97 109.067 15.97 108.51V93.9148H17.6078C18.5618 93.9148 19.3377 93.1386 19.3377 92.1849V90.3755H27.8826C28.4394 90.3755 28.8926 90.8286 28.8926 91.3854V96.6472C26.895 96.8298 25.325 98.5122 25.325 100.557C25.325 102.722 27.0868 104.484 29.2526 104.484C31.4183 104.484 33.1802 102.722 33.1802 100.557C33.1802 98.5122 31.6101 96.8298 29.6126 96.6472V91.3854C29.6126 90.4314 28.8366 89.6555 27.8826 89.6555H18.9777C18.9746 89.6555 18.9719 89.6562 18.9688 89.6565C18.922 89.6577 18.8774 89.667 18.8366 89.6846C18.8315 89.6867 18.8267 89.6901 18.8217 89.6927C18.8056 89.7006 18.7895 89.7086 18.7746 89.7186C18.7672 89.7237 18.761 89.7302 18.754 89.7357C18.7425 89.745 18.7307 89.7539 18.7204 89.7645L18.7168 89.7676L15.3494 93.3064C15.3479 93.3081 15.3458 93.3119 15.3458 93.3119C15.3172 93.3431 15.2934 93.3789 15.2771 93.419C15.2762 93.4214 15.2757 93.424 15.2747 93.4266C15.2596 93.4662 15.2505 93.5085 15.2502 93.5534L15.25 93.5546V108.51C15.25 109.464 16.0259 110.24 16.9799 110.24H23.8619C23.927 110.304 24.0165 110.344 24.1154 110.344H34.3902C34.5892 110.344 34.7502 110.183 34.7502 109.984C34.75 106.953 32.284 104.487 29.2526 104.487ZM32.4602 100.557C32.4602 102.325 31.0211 103.764 29.2526 103.764C27.484 103.764 26.045 102.325 26.045 100.557C26.045 98.788 27.484 97.349 29.2526 97.349C31.0211 97.349 32.4602 98.7878 32.4602 100.557ZM17.6078 93.1948H16.4495L18.6179 90.916V92.1849C18.6179 92.7417 18.1648 93.1948 17.6078 93.1948ZM24.4888 109.625C24.6734 107.158 26.7395 105.207 29.2528 105.207C31.7661 105.207 33.8322 107.158 34.0168 109.625H24.4888Z" fill="#DC3545"/>
<path d="M46.5 100C46.5 88.1259 36.8741 78.5 25 78.5C13.1259 78.5 3.5 88.1259 3.5 100C3.5 111.874 13.1259 121.5 25 121.5C36.8741 121.5 46.5 111.874 46.5 100Z" stroke="#DC3545"/>
</g>
<defs>
<clipPath id="clip0_33_102">
<rect width="45" height="44" fill="white" transform="translate(84 8)"/>
</clipPath>
<clipPath id="clip1_33_102">
<rect width="45" height="44" fill="white" transform="translate(84 78)"/>
</clipPath>
<clipPath id="clip2_33_102">
<rect width="45" height="44" fill="white" transform="translate(166 8)"/>
</clipPath>
<clipPath id="clip3_33_102">
<rect width="45" height="44" fill="white" transform="translate(166 78)"/>
</clipPath>
<clipPath id="clip4_33_102">
<rect width="44" height="44" fill="white" transform="translate(248 8)"/>
</clipPath>
<clipPath id="clip5_33_102">
<rect width="44" height="44" fill="white" transform="translate(248 78)"/>
</clipPath>
<clipPath id="clip6_33_102">
<rect width="44" height="44" fill="white" transform="translate(5 8)"/>
</clipPath>
<clipPath id="clip7_33_102">
<rect width="44" height="44" fill="white" transform="translate(3 78)"/>
</clipPath>
</defs>
</svg>
