<svg width="16" height="16" viewBox="0 0 16 16" fill="none" xmlns="http://www.w3.org/2000/svg">
<g id="Reject" clip-path="url(#clip0_5119_200285)">
<path id="Vector" d="M3.55544 1.34824C4.87103 0.469192 6.41775 0 8 0C10.121 0.0023645 12.1545 0.845979 13.6542 2.34576C15.154 3.84554 15.9976 5.87899 16 8C16 9.58225 15.5308 11.129 14.6518 12.4446C13.7727 13.7602 12.5233 14.7855 11.0615 15.391C9.59966 15.9965 7.99113 16.155 6.43928 15.8463C4.88743 15.5376 3.46197 14.7757 2.34315 13.6569C1.22433 12.538 0.462403 11.1126 0.153721 9.56072C-0.15496 8.00887 0.00346631 6.40034 0.608967 4.93853C1.21447 3.47672 2.23985 2.22729 3.55544 1.34824Z" fill="#E82C2A"/>
<path id="Vector_2" d="M10.4714 5.52885C10.4095 5.46692 10.336 5.41779 10.2552 5.38427C10.1743 5.35075 10.0876 5.3335 10.0001 5.3335C9.91251 5.3335 9.82582 5.35075 9.74495 5.38427C9.66407 5.41779 9.5906 5.46692 9.52872 5.52885L8.00005 7.05745L6.47139 5.52885C6.34565 5.40741 6.17725 5.34022 6.00245 5.34174C5.82766 5.34326 5.66045 5.41337 5.53684 5.53697C5.41324 5.66058 5.34312 5.82779 5.3416 6.00259C5.34009 6.17738 5.40728 6.34578 5.52872 6.47152L7.05732 8.00019L5.52872 9.52885C5.46505 9.59035 5.41426 9.66391 5.37932 9.74525C5.34438 9.82659 5.32599 9.91407 5.32522 10.0026C5.32445 10.0911 5.34132 10.1789 5.37484 10.2608C5.40836 10.3428 5.45786 10.4172 5.52046 10.4798C5.58305 10.5424 5.65749 10.5919 5.73942 10.6254C5.82135 10.6589 5.90914 10.6758 5.99765 10.675C6.08617 10.6743 6.17365 10.6559 6.25499 10.6209C6.33633 10.586 6.40989 10.5352 6.47139 10.4715L8.00005 8.94292L9.52872 10.4715C9.65446 10.593 9.82286 10.6602 9.99765 10.6586C10.1725 10.6571 10.3397 10.587 10.4633 10.4634C10.5869 10.3398 10.657 10.1726 10.6585 9.99779C10.66 9.82299 10.5928 9.65459 10.4714 9.52885L8.94279 8.00019L10.4714 6.47152C10.5333 6.40964 10.5824 6.33617 10.616 6.25529C10.6495 6.17442 10.6667 6.08773 10.6667 6.00019C10.6667 5.91264 10.6495 5.82595 10.616 5.74508C10.5824 5.6642 10.5333 5.59073 10.4714 5.52885Z" fill="#FFE7E7"/>
</g>
<defs>
<clipPath id="clip0_5119_200285">
<rect width="16" height="16" fill="white"/>
</clipPath>
</defs>
</svg>
