<svg width="26" height="28" viewBox="0 0 26 28" fill="none" xmlns="http://www.w3.org/2000/svg">
<g id="Group">
<g id="Group_2">
<path id="XMLID_293_" d="M12.1769 12.6272C15.5128 12.6272 18.2171 9.92295 18.2171 6.58705C18.2171 3.25116 15.5128 0.546875 12.1769 0.546875C8.841 0.546875 6.13672 3.25116 6.13672 6.58705C6.13672 9.92295 8.841 12.6272 12.1769 12.6272Z" stroke="#222931" stroke-miterlimit="10" stroke-linecap="round" stroke-linejoin="round"/>
<path id="XMLID_290_" d="M12.177 15.9221L3.94043 12.9805V19.6155C3.94043 20.0422 4.18756 20.4303 4.5742 20.6107C9.39327 22.8597 14.9607 22.8597 19.7798 20.6107C20.1664 20.4303 20.4136 20.0422 20.4136 19.6155V12.9805L12.177 15.9221Z" stroke="#222931" stroke-miterlimit="10" stroke-linecap="round" stroke-linejoin="round"/>
<path id="XMLID_289_" d="M17.4339 9.5625L23.708 11.8034L20.4133 12.9801L12.1768 15.9217L3.9401 12.9801L0.645508 11.8034L6.91959 9.5625" stroke="#222931" stroke-miterlimit="10" stroke-linecap="round" stroke-linejoin="round"/>
<path id="XMLID_288_" d="M23.708 11.8037V21.9622" stroke="#222931" stroke-miterlimit="10" stroke-linecap="round" stroke-linejoin="round"/>
<path id="XMLID_287_" d="M24.484 23.8366C24.9129 23.4077 24.9129 22.7124 24.484 22.2835C24.0551 21.8546 23.3597 21.8546 22.9309 22.2835C22.502 22.7124 22.502 23.4077 22.9309 23.8366C23.3597 24.2655 24.0551 24.2655 24.484 23.8366Z" stroke="#222931" stroke-miterlimit="10" stroke-linecap="round" stroke-linejoin="round"/>
<path id="XMLID_286_" d="M24.8061 23.0601L25.3552 27.4529H22.0605L22.6097 23.0601" stroke="#222931" stroke-miterlimit="10" stroke-linecap="round" stroke-linejoin="round"/>
<path id="XMLID_285_" d="M13.2746 4.39062H12.1764C11.5698 4.39062 11.0781 4.88232 11.0781 5.48886C11.0781 6.0954 11.5698 6.58709 12.1764 6.58709C12.7829 6.58709 13.2746 7.07879 13.2746 7.68533C13.2746 8.29187 12.783 8.78356 12.1764 8.78356H11.0781" stroke="#222931" stroke-miterlimit="10" stroke-linecap="round" stroke-linejoin="round"/>
<path id="XMLID_284_" d="M12.1768 3.29248V4.39072" stroke="#222931" stroke-miterlimit="10" stroke-linecap="round" stroke-linejoin="round"/>
<path id="XMLID_283_" d="M12.1768 8.78369V9.88193" stroke="#222931" stroke-miterlimit="10" stroke-linecap="round" stroke-linejoin="round"/>
</g>
</g>
</svg>
