<svg width="39" height="25" viewBox="0 0 39 25" fill="none" xmlns="http://www.w3.org/2000/svg">
<rect width="39" height="25" rx="12.5" fill="#BAF8DF"/>
<path d="M21.496 9.746C21.46 9.806 21.42 9.852 21.376 9.884C21.336 9.912 21.286 9.926 21.226 9.926C21.158 9.926 21.078 9.892 20.986 9.824C20.894 9.756 20.778 9.682 20.638 9.602C20.502 9.518 20.336 9.442 20.14 9.374C19.948 9.306 19.714 9.272 19.438 9.272C19.178 9.272 18.948 9.308 18.748 9.38C18.552 9.448 18.386 9.542 18.25 9.662C18.118 9.782 18.018 9.924 17.95 10.088C17.882 10.248 17.848 10.422 17.848 10.61C17.848 10.85 17.906 11.05 18.022 11.21C18.142 11.366 18.298 11.5 18.49 11.612C18.686 11.724 18.906 11.822 19.15 11.906C19.398 11.986 19.65 12.07 19.906 12.158C20.166 12.246 20.418 12.346 20.662 12.458C20.91 12.566 21.13 12.704 21.322 12.872C21.518 13.04 21.674 13.246 21.79 13.49C21.91 13.734 21.97 14.034 21.97 14.39C21.97 14.766 21.906 15.12 21.778 15.452C21.65 15.78 21.462 16.066 21.214 16.31C20.97 16.554 20.668 16.746 20.308 16.886C19.952 17.026 19.546 17.096 19.09 17.096C18.53 17.096 18.022 16.996 17.566 16.796C17.11 16.592 16.72 16.318 16.396 15.974L16.732 15.422C16.764 15.378 16.802 15.342 16.846 15.314C16.894 15.282 16.946 15.266 17.002 15.266C17.054 15.266 17.112 15.288 17.176 15.332C17.244 15.372 17.32 15.424 17.404 15.488C17.488 15.552 17.584 15.622 17.692 15.698C17.8 15.774 17.922 15.844 18.058 15.908C18.198 15.972 18.356 16.026 18.532 16.07C18.708 16.11 18.906 16.13 19.126 16.13C19.402 16.13 19.648 16.092 19.864 16.016C20.08 15.94 20.262 15.834 20.41 15.698C20.562 15.558 20.678 15.392 20.758 15.2C20.838 15.008 20.878 14.794 20.878 14.558C20.878 14.298 20.818 14.086 20.698 13.922C20.582 13.754 20.428 13.614 20.236 13.502C20.044 13.39 19.824 13.296 19.576 13.22C19.328 13.14 19.076 13.06 18.82 12.98C18.564 12.896 18.312 12.8 18.064 12.692C17.816 12.584 17.596 12.444 17.404 12.272C17.212 12.1 17.056 11.886 16.936 11.63C16.82 11.37 16.762 11.05 16.762 10.67C16.762 10.366 16.82 10.072 16.936 9.788C17.056 9.504 17.228 9.252 17.452 9.032C17.68 8.812 17.958 8.636 18.286 8.504C18.618 8.372 18.998 8.306 19.426 8.306C19.906 8.306 20.342 8.382 20.734 8.534C21.13 8.686 21.478 8.906 21.778 9.194L21.496 9.746Z" fill="#006F43"/>
</svg>
