<svg width="53" height="52" viewBox="0 0 53 52" fill="none" xmlns="http://www.w3.org/2000/svg">
<g clip-path="url(#clip0_10550_10489)">
<path d="M26.2002 12C18.3497 12 12.2002 14.3061 12.2002 17.25V31.6875C12.2002 33.2485 13.8172 34.603 16.8766 35.6036C16.9213 35.618 16.9668 35.625 17.0127 35.625C17.1037 35.625 17.1938 35.5966 17.2695 35.5419C17.3833 35.4596 17.4502 35.3279 17.4502 35.1875V28.4706C18.9753 28.0016 20.7936 27.6564 22.7413 27.4722L22.6591 26.6011C20.7621 26.7805 18.9762 27.1086 17.4502 27.5553V20.75C17.4502 20.5606 17.3286 20.393 17.1488 20.3339C14.5601 19.4874 13.0752 18.3634 13.0752 17.25C13.0752 15.1373 18.3493 12.875 26.2002 12.875C34.0511 12.875 39.3252 15.1373 39.3252 17.25C39.3252 18.3634 37.8403 19.4874 35.2516 20.3339C35.0718 20.393 34.9502 20.5606 34.9502 20.75V27.5553C33.4242 27.1091 31.6383 26.7805 29.7413 26.6011L29.6591 27.4722C31.6068 27.6564 33.4251 28.0011 34.9502 28.4706V35.1875C34.9502 35.3275 35.0171 35.4596 35.1309 35.5419C35.2066 35.5966 35.2967 35.625 35.3877 35.625C35.4332 35.625 35.4791 35.618 35.5238 35.6036C38.5832 34.603 40.2002 33.2489 40.2002 31.6875V17.25C40.2002 14.3061 34.0507 12 26.2002 12ZM16.5752 21.0646V34.5728C14.3422 33.7534 13.0752 32.7156 13.0752 31.6875V19.1291C13.8036 19.8601 14.9796 20.5133 16.5752 21.0646ZM39.3252 31.6875C39.3252 32.7161 38.0582 33.7534 35.8252 34.5728V21.0646C37.4208 20.5129 38.5968 19.8606 39.3252 19.1295V31.6875Z" fill="#222931"/>
<path d="M30.1378 18.5624C30.2752 18.5624 30.4051 18.4976 30.4878 18.3874L31.8003 16.6374C31.9171 16.4821 31.9171 16.2677 31.8003 16.1124L30.4878 14.3624C30.3229 14.1419 29.9527 14.1419 29.7878 14.3624L28.4753 16.1124C28.3585 16.2677 28.3585 16.4821 28.4753 16.6374L29.7878 18.3874C29.8701 18.4976 30 18.5624 30.1378 18.5624ZM30.1378 15.3542L30.9034 16.3749L30.1378 17.3956L29.3722 16.3749L30.1378 15.3542Z" fill="#222931"/>
<path d="M18.7627 25.5625H20.5127C20.7546 25.5625 20.9502 25.3665 20.9502 25.125V23.375C20.9502 23.1335 20.7546 22.9375 20.5127 22.9375H18.7627C18.5208 22.9375 18.3252 23.1335 18.3252 23.375V25.125C18.3252 25.3665 18.5208 25.5625 18.7627 25.5625ZM19.2002 23.8125H20.0752V24.6875H19.2002V23.8125Z" fill="#222931"/>
<path d="M34.5127 18.125H36.2627C36.5046 18.125 36.7002 17.929 36.7002 17.6875V15.9375C36.7002 15.696 36.5046 15.5 36.2627 15.5H34.5127C34.2708 15.5 34.0752 15.696 34.0752 15.9375V17.6875C34.0752 17.929 34.2708 18.125 34.5127 18.125ZM34.9502 16.375H35.8252V17.25H34.9502V16.375Z" fill="#222931"/>
<path d="M18.7627 20.1633C18.9429 20.1633 19.1118 20.0509 19.1748 19.8715C19.2558 19.6436 19.1363 19.3937 18.9084 19.3132C18.0364 19.0048 17.4502 18.1757 17.4502 17.25C17.4502 16.0438 18.4315 15.0625 19.6377 15.0625C20.8439 15.0625 21.8252 16.0438 21.8252 17.25C21.8252 17.4915 22.0208 17.6875 22.2627 17.6875C22.5046 17.6875 22.7002 17.4915 22.7002 17.25C22.7002 15.5612 21.326 14.1875 19.6377 14.1875C17.9494 14.1875 16.5752 15.5612 16.5752 17.25C16.5752 18.5459 17.3955 19.7066 18.617 20.1384C18.6651 20.1554 18.7146 20.1633 18.7627 20.1633Z" fill="#222931"/>
<path d="M28.8253 24.9136L31.278 25.9645C31.4985 26.0594 31.7575 25.9566 31.852 25.7348L34.477 19.6098C34.5273 19.4917 34.5238 19.3578 34.4669 19.2432C34.41 19.1281 34.3055 19.0441 34.1812 19.013L32.4312 18.5755C32.2238 18.5239 32.0117 18.6285 31.9255 18.8223L30.347 22.3748L28.5506 21.656C28.499 21.6354 28.4438 21.6249 28.3883 21.6249H27.9132C28.2041 21.2526 28.3883 20.7976 28.3883 20.3124V19.4374C28.3883 18.2719 27.3658 17.2499 26.2008 17.2499C25.0357 17.2499 24.0133 18.2719 24.0133 19.4374V20.3124C24.0133 20.7976 24.1975 21.2526 24.4884 21.6249H24.2522L20.4437 15.7007C20.3234 15.513 20.081 15.4461 19.8802 15.5458L18.1302 16.4208C18.0187 16.4764 17.9364 16.577 17.9036 16.6973C17.8708 16.8177 17.8909 16.9458 17.9587 17.0504L23.5758 25.6915V29.9072L22.2672 39.5029C22.2502 39.628 22.2882 39.7545 22.3713 39.8498C22.454 39.9448 22.5743 39.9995 22.7008 39.9995H24.8883C25.107 39.9995 25.2921 39.8376 25.3218 39.621L26.2008 33.1749L27.0797 39.621C27.1095 39.8376 27.2945 39.9995 27.5133 39.9995H29.7008C29.8272 39.9995 29.9471 39.9448 30.0302 39.8498C30.1133 39.7545 30.1514 39.628 30.1343 39.5029L28.8258 29.9072V24.9127L28.8253 24.9136ZM24.8878 20.3124V19.4374C24.8878 18.6985 25.5931 18.1249 26.2003 18.1249C26.8076 18.1249 27.5128 18.6985 27.5128 19.4374V20.3124C27.5128 21.0513 26.8076 21.6249 26.2003 21.6249C25.5931 21.6249 24.8878 21.0513 24.8878 20.3124ZM29.199 39.1249H27.8948L26.6339 29.8783C26.6042 29.6618 26.4191 29.4999 26.2003 29.4999C25.9816 29.4999 25.7965 29.6618 25.7668 29.8783L24.5059 39.1249H23.2017L24.4468 29.9965C24.4495 29.9768 24.4508 29.9571 24.4508 29.9374V25.5624C24.4508 25.478 24.4263 25.3948 24.3803 25.324L18.9588 16.9848L19.9196 16.5044L23.6449 22.2991C23.7254 22.4247 23.8641 22.4999 24.0128 22.4999H28.3038L30.413 23.3438C30.6292 23.43 30.8794 23.3303 30.9752 23.1155L32.5756 19.514L33.4707 19.738L31.2202 24.9884L28.5598 23.8483C28.425 23.7901 28.2693 23.8037 28.1468 23.885C28.0243 23.966 27.9503 24.1033 27.9503 24.2503V29.9378C27.9503 29.9575 27.9517 29.9772 27.9543 29.9969L29.1994 39.1253L29.199 39.1249Z" fill="#222931"/>
</g>
<rect x="0.700195" y="0.5" width="51" height="51" rx="25.5" stroke="#222931"/>
<defs>
<clipPath id="clip0_10550_10489">
<rect width="28" height="28" fill="white" transform="translate(12.2002 12)"/>
</clipPath>
</defs>
</svg>
