<svg width="24" height="25" viewBox="0 0 24 25" fill="none" xmlns="http://www.w3.org/2000/svg">
<g clip-path="url(#clip0_1050_7713)">
<path fill-rule="evenodd" clip-rule="evenodd" d="M11.8834 24.2662C5.31977 24.2662 0 18.9457 0 12.3827C0 5.82114 5.32046 0.5 11.8834 0.5C18.4457 0.5 23.7662 5.82046 23.7662 12.3834C23.7662 18.9457 18.445 24.2662 11.8827 24.2662H11.8834Z" fill="white"/>
<path d="M10.3656 17.468C9.85272 17.468 9.32472 17.4269 8.79398 17.3439C7.85866 17.1965 6.91169 16.7075 6.64358 16.5608L5.94141 16.1768L6.70255 15.9265C7.53363 15.6529 8.03969 15.4835 8.66575 15.2182C8.03832 14.9144 7.55489 14.3679 7.32243 13.6616L7.14552 13.1247L7.29089 13.1466C7.15375 13.0081 7.04403 12.8675 6.96038 12.7393C6.66072 12.284 6.50232 11.7279 6.53592 11.2513L6.56952 10.783L6.84998 10.8913C6.73135 10.6678 6.64563 10.4291 6.59626 10.1782C6.47283 9.56789 6.57569 8.9192 6.88426 8.35211L7.12906 7.90297L7.45615 8.29589C8.49089 9.5384 9.80129 10.2755 11.3565 10.4915C11.2927 10.0541 11.34 9.63097 11.4977 9.25246C11.6815 8.81154 12.0072 8.43783 12.4413 8.17109C12.9227 7.87486 13.5069 7.73154 14.0856 7.76651C14.6994 7.80491 15.2568 8.03463 15.6998 8.43303C15.9165 8.3768 16.0756 8.31646 16.2909 8.23554C16.4205 8.18754 16.5672 8.13131 16.751 8.06823L17.4285 7.83508L16.9869 9.0968C17.0164 9.09406 17.0459 9.092 17.0774 9.09063L17.8008 9.05771L17.3736 9.64263C17.349 9.67623 17.3428 9.68514 17.3339 9.69886C17.2996 9.75029 17.2564 9.81543 16.6694 10.5992C16.5227 10.7953 16.4493 11.0511 16.463 11.3192C16.5151 12.3375 16.3903 13.2584 16.0913 14.0573C15.8088 14.8129 15.3714 15.4616 14.7906 15.9841C14.0719 16.6321 13.1551 17.0744 12.0669 17.3014C11.5327 17.4125 10.9595 17.468 10.3663 17.468H10.3656Z" fill="#E82C2A"/>
</g>
<rect x="0.5" y="1" width="23" height="23" rx="11.5" stroke="#E9E9E9"/>
<defs>
<clipPath id="clip0_1050_7713">
<rect y="0.5" width="24" height="24" rx="12" fill="white"/>
</clipPath>
</defs>
</svg>
