<svg width="50" height="50" viewBox="0 0 50 50" fill="none" xmlns="http://www.w3.org/2000/svg">
<mask id="mask0_534_450" style="mask-type:alpha" maskUnits="userSpaceOnUse" x="0" y="0" width="50" height="50">
<path d="M46.9255 49.667C48.4392 49.667 49.6667 48.4395 49.6667 46.9259V2.74127C49.6667 1.22704 48.4392 -4.71318e-05 46.9255 -4.71318e-05H2.74114C1.2269 -4.71318e-05 0 1.22704 0 2.74127V46.9259C0 48.4395 1.2269 49.667 2.74114 49.667H46.9255Z" fill="#3B5998"/>
</mask>
<g mask="url(#mask0_534_450)">
<path d="M44.5464 15.8721C44.5766 16.3096 44.5766 16.7471 44.5766 17.1886C44.5766 30.6422 34.3347 46.1584 15.6069 46.1584V46.1503C10.0746 46.1584 4.65726 44.5737 0 41.5858C0.804435 41.6826 1.6129 41.731 2.42339 41.733C7.00806 41.737 11.4617 40.1987 15.0685 37.366C10.7117 37.2834 6.89113 34.4427 5.55645 30.2955C7.08266 30.5898 8.65524 30.5293 10.1532 30.1201C5.40323 29.1604 1.98589 24.987 1.98589 20.1402V20.0112C3.40121 20.7995 4.98589 21.237 6.60685 21.2854C2.13306 18.2955 0.754032 12.3439 3.45565 7.69064C8.625 14.0515 16.252 17.9185 24.4395 18.3277C23.619 14.7914 24.7399 11.0858 27.3851 8.59991C31.4859 4.74507 37.9355 4.94265 41.7903 9.04144C44.0706 8.59185 46.256 7.75515 48.256 6.56967C47.496 8.92652 45.9052 10.9285 43.7802 12.2007C45.7984 11.9628 47.7702 11.4225 49.627 10.5979C48.2601 12.6463 46.5383 14.4306 44.5464 15.8721Z" fill="#999999"/>
</g>
</svg>
