<svg width="16" height="16" viewBox="0 0 16 16" fill="none" xmlns="http://www.w3.org/2000/svg">
<g clip-path="url(#clip0_3709_194033)">
<path d="M8 0C6.41775 0 4.87104 0.469192 3.55544 1.34824C2.23985 2.22729 1.21447 3.47672 0.608967 4.93853C0.00346629 6.40034 -0.15496 8.00887 0.153721 9.56072C0.462403 11.1126 1.22433 12.538 2.34315 13.6569C3.46197 14.7757 4.88743 15.5376 6.43928 15.8463C7.99113 16.155 9.59966 15.9965 11.0615 15.391C12.5233 14.7855 13.7727 13.7602 14.6518 12.4446C15.5308 11.129 16 9.58225 16 8C15.9976 5.87899 15.154 3.84554 13.6542 2.34576C12.1545 0.845979 10.121 0.0023645 8 0ZM8 14.6667C6.68146 14.6667 5.39253 14.2757 4.2962 13.5431C3.19987 12.8106 2.34539 11.7694 1.84081 10.5512C1.33622 9.33305 1.2042 7.99261 1.46144 6.6994C1.71867 5.40619 2.35361 4.21831 3.28596 3.28596C4.21831 2.35361 5.4062 1.71867 6.6994 1.46143C7.99261 1.2042 9.33305 1.33622 10.5512 1.8408C11.7694 2.34539 12.8106 3.19987 13.5431 4.2962C14.2757 5.39253 14.6667 6.68146 14.6667 8C14.6647 9.76749 13.9616 11.462 12.7118 12.7118C11.462 13.9616 9.7675 14.6647 8 14.6667Z" fill="#DC3545"/>
<path d="M10.4714 5.52861C10.4095 5.46668 10.336 5.41755 10.2552 5.38403C10.1743 5.35051 10.0876 5.33325 10.0001 5.33325C9.91251 5.33325 9.82582 5.35051 9.74495 5.38403C9.66407 5.41755 9.5906 5.46668 9.52872 5.52861L8.00005 7.05721L6.47139 5.52861C6.34565 5.40717 6.17725 5.33997 6.00245 5.34149C5.82766 5.34301 5.66045 5.41312 5.53684 5.53673C5.41324 5.66034 5.34312 5.82754 5.3416 6.00234C5.34009 6.17714 5.40728 6.34554 5.52872 6.47128L7.05732 7.99994L5.52872 9.52861C5.46505 9.59011 5.41426 9.66367 5.37932 9.74501C5.34438 9.82634 5.32599 9.91382 5.32522 10.0023C5.32445 10.0909 5.34132 10.1786 5.37484 10.2606C5.40836 10.3425 5.45786 10.4169 5.52046 10.4795C5.58305 10.5421 5.65749 10.5916 5.73942 10.6252C5.82135 10.6587 5.90914 10.6755 5.99765 10.6748C6.08617 10.674 6.17365 10.6556 6.25499 10.6207C6.33633 10.5857 6.40989 10.5349 6.47139 10.4713L8.00005 8.94268L9.52872 10.4713C9.65446 10.5927 9.82286 10.6599 9.99765 10.6584C10.1725 10.6569 10.3397 10.5868 10.4633 10.4632C10.5869 10.3395 10.657 10.1723 10.6585 9.99754C10.66 9.82274 10.5928 9.65434 10.4714 9.52861L8.94279 7.99994L10.4714 6.47128C10.5333 6.4094 10.5824 6.33592 10.616 6.25505C10.6495 6.17418 10.6667 6.08749 10.6667 5.99994C10.6667 5.9124 10.6495 5.82571 10.616 5.74483C10.5824 5.66396 10.5333 5.59049 10.4714 5.52861Z" fill="#DC3545"/>
</g>
<defs>
<clipPath id="clip0_3709_194033">
<rect width="16" height="16" fill="white"/>
</clipPath>
</defs>
</svg>
