<svg width="17" height="16" viewBox="0 0 17 16" fill="none" xmlns="http://www.w3.org/2000/svg">
<g clip-path="url(#clip0_3674_119430)">
<path d="M14.1569 2.34314C12.6459 0.832153 10.6368 0 8.5 0C6.36316 0 4.35413 0.832153 2.84314 2.34314C1.33215 3.85413 0.5 5.86316 0.5 8C0.5 10.1368 1.33215 12.1459 2.84314 13.6569C4.35413 15.1678 6.36316 16 8.5 16C10.6368 16 12.6459 15.1678 14.1569 13.6569C15.6678 12.1459 16.5 10.1368 16.5 8C16.5 5.86316 15.6678 3.85413 14.1569 2.34314ZM3.97205 13.4155C4.23621 11.1426 6.19043 9.3877 8.5 9.3877C9.71753 9.3877 10.8624 9.86206 11.7236 10.7231C12.4512 11.4508 12.91 12.4009 13.0281 13.4154C11.8013 14.4429 10.2217 15.0625 8.5 15.0625C6.77832 15.0625 5.19885 14.443 3.97205 13.4155ZM8.5 8.42212C7.16028 8.42212 6.07019 7.33203 6.07019 5.99231C6.07019 4.65247 7.16028 3.5625 8.5 3.5625C9.83972 3.5625 10.9298 4.65247 10.9298 5.99231C10.9298 7.33203 9.83972 8.42212 8.5 8.42212ZM13.835 12.6229C13.5961 11.6598 13.0979 10.7717 12.3865 10.0603C11.8103 9.48413 11.1287 9.05188 10.3853 8.78101C11.2789 8.17493 11.8673 7.151 11.8673 5.99231C11.8673 4.13562 10.3567 2.625 8.5 2.625C6.64331 2.625 5.13269 4.13562 5.13269 5.99231C5.13269 7.15161 5.72156 8.1759 6.61597 8.78186C5.93201 9.03113 5.29907 9.4165 4.75452 9.92383C3.96594 10.6582 3.41833 11.5946 3.16443 12.6222C2.08911 11.3826 1.4375 9.76599 1.4375 8C1.4375 4.10571 4.60571 0.9375 8.5 0.9375C12.3943 0.9375 15.5625 4.10571 15.5625 8C15.5625 9.76636 14.9106 11.3833 13.835 12.6229Z" fill="#FA981C"/>
</g>
<defs>
<clipPath id="clip0_3674_119430">
<rect width="16" height="16" fill="white" transform="translate(0.5)"/>
</clipPath>
</defs>
</svg>
