<svg width="54" height="54" viewBox="0 0 54 54" fill="none" xmlns="http://www.w3.org/2000/svg">
<g clip-path="url(#clip0_1178_1132)">
<path d="M18.7355 3.42612C19.216 3.42612 19.6309 2.86505 19.471 2.39743C19.3322 1.99134 18.8899 1.77483 18.4838 1.91365C18.0777 2.05246 17.8612 2.49377 18 2.89986C18.111 3.22307 18.4123 3.42612 18.7355 3.42612Z" fill="#DC3545"/>
<path d="M14.9396 5.07742C15.4732 5.07742 15.8845 4.42063 15.6243 3.93374C15.4223 3.55562 14.952 3.41266 14.5729 3.61467C14.1947 3.81668 14.0518 4.28803 14.2538 4.66615C14.3937 4.92824 14.662 5.07742 14.9396 5.07742Z" fill="#DC3545"/>
<path d="M11.4558 7.31092C12.0486 7.31092 12.4413 6.54857 12.0732 6.06468C11.8143 5.72282 11.3274 5.65652 10.9855 5.91551C10.6436 6.17449 10.5763 6.66242 10.8353 7.00428C10.9887 7.20525 11.2207 7.31092 11.4558 7.31092Z" fill="#DC3545"/>
<path d="M7.82465 9.84689C8.19407 10.1427 8.56038 10.1354 8.92378 9.82514C9.22006 9.51539 9.21074 9.02332 8.90099 8.726C8.59125 8.42869 8.10021 8.43905 7.8029 8.7488C7.50558 9.05854 7.5148 9.54958 7.82465 9.84689Z" fill="#DC3545"/>
<path d="M1.94031 20.6621C2.31916 20.7741 2.7932 20.5194 2.90581 20.1369C3.02701 19.7256 2.79289 19.2936 2.38059 19.1714C1.96932 19.0502 1.53733 19.2853 1.41613 19.6966C1.29389 20.1079 1.52894 20.5399 1.94031 20.6621Z" fill="#DC3545"/>
<path d="M1.18474 28.8782C1.61362 28.8606 1.94719 28.498 1.92854 28.0691C1.91093 27.6402 1.54835 27.3077 1.11947 27.3253C0.690595 27.344 0.358057 27.7065 0.375668 28.1354C0.392658 28.5641 0.760313 28.8983 1.18474 28.8782Z" fill="#DC3545"/>
<path d="M2.42811 32.0471C2.34006 31.6276 1.92775 31.3582 1.5082 31.4473C1.0876 31.5354 0.819295 31.9477 0.90735 32.3672C1.11236 33.3325 2.63592 33.0372 2.42811 32.0471Z" fill="#DC3545"/>
<path d="M1.22346 24.7385C1.64146 24.7931 2.03885 24.4901 2.08951 24.0631C2.1413 23.6363 1.83881 23.2489 1.41304 23.1971C0.987264 23.1442 0.599822 23.4467 0.546989 23.8725C0.494156 24.2983 0.797687 24.6867 1.22346 24.7385Z" fill="#DC3545"/>
<path d="M30.7559 2.38293C31.1427 2.43959 31.5838 2.13223 31.6468 1.73961C31.7152 1.31591 31.4272 0.917068 31.0045 0.848696C30.5808 0.780324 30.182 1.06832 30.1126 1.49202C30.0442 1.91468 30.3321 2.31455 30.7559 2.38293Z" fill="#DC3545"/>
<path d="M45.2953 9.97327C45.4901 9.97327 45.6849 9.90076 45.8361 9.75469C46.1448 9.4553 46.1521 8.96323 45.8537 8.65556C45.5543 8.34788 45.0633 8.33959 44.7546 8.63898C44.4469 8.93733 44.4386 9.4294 44.738 9.73708C44.8904 9.89454 45.0923 9.97327 45.2953 9.97327Z" fill="#DC3545"/>
<path d="M47.9357 13.1619C48.0901 13.1619 48.2465 13.1153 48.3822 13.02C49.2029 12.3994 48.35 11.1863 47.4882 11.7489C47.137 11.9965 47.0531 12.4802 47.2996 12.8314C47.4508 13.0469 47.6912 13.1619 47.9357 13.1619Z" fill="#DC3545"/>
<path d="M51.642 23.9512C51.6909 24.3279 52.1268 24.6806 52.5122 24.6225C52.9369 24.5687 53.2384 24.1791 53.1835 23.7534C53.1296 23.3276 52.7401 23.0272 52.3143 23.081C51.8886 23.136 51.5881 23.5255 51.642 23.9512Z" fill="#DC3545"/>
<path d="M22.7489 2.41194C23.1818 2.41194 23.5884 1.93924 23.5165 1.50757C23.445 1.08387 23.0452 0.797948 22.6225 0.868392C22.1988 0.938836 21.9129 1.33975 21.9833 1.76241C22.0464 2.1426 22.3759 2.41194 22.7489 2.41194Z" fill="#DC3545"/>
<path d="M50.8074 20.0261C50.923 20.4094 51.3959 20.6579 51.775 20.5471C52.1863 20.4228 52.4194 19.9898 52.2961 19.5785C52.1718 19.1683 51.7387 18.9352 51.3275 19.0585C50.9171 19.1818 50.6841 19.6148 50.8074 20.0261Z" fill="#DC3545"/>
<path d="M41.7243 7.07989C42.1081 7.33121 42.4707 7.27972 42.8121 6.92553C43.07 6.58264 43.0006 6.09574 42.6577 5.83779C42.3148 5.57984 41.8279 5.64925 41.57 5.99215C41.312 6.33505 41.3814 6.82194 41.7243 7.07989Z" fill="#DC3545"/>
<path d="M2.56761 35.4512C2.16774 35.6066 1.96987 36.0572 2.12527 36.4571C2.27309 36.8343 2.75802 37.0421 3.13117 36.8995C4.07677 36.4924 3.53808 35.1105 2.56761 35.4512Z" fill="#DC3545"/>
<path d="M38.3346 4.92928C38.6928 5.11958 39.1945 4.96554 39.384 4.60503C39.585 4.22588 39.44 3.75556 39.0598 3.55562C38.6806 3.35465 38.2103 3.49968 38.0103 3.87884C37.8095 4.25903 37.9544 4.72831 38.3346 4.92928Z" fill="#DC3545"/>
<path d="M26.8727 2.07112C27.3015 2.07112 27.6496 1.72304 27.6496 1.29416C27.6138 0.265682 26.1313 0.265992 26.0957 1.29416C26.0957 1.72304 26.4438 2.07112 26.8727 2.07112Z" fill="#DC3545"/>
<path d="M34.6488 3.34637C35.0239 3.47462 35.5066 3.23522 35.633 2.85741C35.7697 2.45132 35.5512 2.01001 35.144 1.87326C34.7379 1.73652 34.2977 1.9551 34.1599 2.36223C34.0231 2.76832 34.2417 3.20963 34.6488 3.34637Z" fill="#DC3545"/>
<path d="M5.29548 13.1246C5.68261 13.3604 6.04312 13.2959 6.377 12.9309C6.62252 12.5787 6.5355 12.0949 6.18328 11.8494C5.3191 11.2906 4.47149 12.5082 5.29548 13.1246Z" fill="#DC3545"/>
<path d="M47.2836 42.594C46.9511 42.3226 46.4621 42.3723 46.1907 42.7038C45.9193 43.0364 45.969 43.5264 46.3015 43.7978C46.6809 44.0636 47.0452 44.0267 47.3944 43.6869C47.6659 43.3544 47.6161 42.8654 47.2836 42.594Z" fill="#DC3545"/>
<path d="M49.5413 39.1236C49.1705 38.9071 48.695 39.0325 48.4784 39.4044C48.263 39.7752 48.3883 40.2507 48.7592 40.4662C49.1137 40.6717 49.615 40.539 49.8221 40.1855C50.0375 39.8146 49.9122 39.3391 49.5413 39.1236Z" fill="#DC3545"/>
<path d="M43.4147 45.6076C43.0946 45.8935 43.0666 46.3856 43.3536 46.7047C43.7106 47.0279 44.0763 47.0486 44.4506 46.7668C44.7697 46.4799 44.7977 45.9888 44.5118 45.6697C44.2249 45.3496 43.7338 45.3217 43.4147 45.6076Z" fill="#DC3545"/>
<path d="M40.2191 48.0431C39.8586 48.2752 39.755 48.7558 39.9871 49.1163C40.313 49.4936 40.6711 49.5713 41.0613 49.3494C41.4219 49.1163 41.5254 48.6357 41.2934 48.2752C41.0603 47.9146 40.5797 47.8111 40.2191 48.0431Z" fill="#DC3545"/>
<path d="M36.681 49.943C36.2884 50.115 36.1092 50.5729 36.2812 50.9655C36.4431 51.3367 36.937 51.5278 37.3047 51.3664C37.6973 51.1944 37.8765 50.7355 37.7045 50.3429C37.5327 49.9492 37.0748 49.77 36.681 49.943Z" fill="#DC3545"/>
<path d="M50.7401 15.6078C50.5516 15.2214 50.0864 15.0618 49.7011 15.2493C49.3157 15.4379 49.1551 15.903 49.3437 16.2884C49.5223 16.6551 50.0191 16.8242 50.3827 16.6458C50.7681 16.4583 50.9288 15.9931 50.7401 15.6078Z" fill="#DC3545"/>
<path d="M52.6278 27.2093C52.1989 27.1937 51.8384 27.5283 51.8218 27.9562C51.8063 28.3851 52.1409 28.7456 52.5687 28.7621C52.956 28.8002 53.3614 28.3718 53.3747 28.0152C53.3913 27.5863 53.0567 27.2258 52.6278 27.2093Z" fill="#DC3545"/>
<path d="M52.259 31.3323C51.8384 31.2463 51.4271 31.5167 51.3411 31.9373C51.2552 32.3569 51.5255 32.7681 51.9461 32.8541C52.329 32.9366 52.7844 32.6321 52.8629 32.2502C52.9498 31.8296 52.6784 31.4183 52.259 31.3323Z" fill="#DC3545"/>
<path d="M32.8867 51.2483C32.4713 51.355 32.2196 51.7776 32.3263 52.1931C32.4232 52.5761 32.89 52.8526 33.271 52.7545C33.6865 52.6478 33.9372 52.2252 33.8315 51.8098C33.7258 51.3943 33.3021 51.1426 32.8867 51.2483Z" fill="#DC3545"/>
<path d="M51.2181 35.3393C50.8172 35.185 50.3676 35.386 50.2143 35.7858C50.0599 36.1867 50.2598 36.6363 50.6607 36.7897C51.033 36.932 51.5204 36.7203 51.6646 36.3432C51.8179 35.9423 51.618 35.4927 51.2181 35.3393Z" fill="#DC3545"/>
<path d="M24.9235 51.9258C24.4957 51.8906 24.1217 52.2096 24.0865 52.6375C24.0523 53.0653 24.3714 53.4403 24.7992 53.4745C25.2211 53.5091 25.6029 53.1917 25.6363 52.7618C25.6704 52.3339 25.3515 51.96 24.9235 51.9258Z" fill="#DC3545"/>
<path d="M10.4201 45.6874C10.099 45.4025 9.60794 45.4325 9.32306 45.7537C9.03921 46.0748 9.06822 46.5658 9.38936 46.8497C9.76406 47.1312 10.1297 47.1091 10.4864 46.7834C10.7714 46.4622 10.7414 45.9712 10.4201 45.6874Z" fill="#DC3545"/>
<path d="M13.626 48.1063C13.2634 47.8753 12.7837 47.982 12.5527 48.3435C12.3217 48.7051 12.4284 49.1857 12.79 49.4168C13.1803 49.638 13.5381 49.559 13.8632 49.1795C14.0931 48.818 13.9874 48.3373 13.626 48.1063Z" fill="#DC3545"/>
<path d="M28.9331 51.9165C28.5052 51.9527 28.1882 52.3288 28.2245 52.7566C28.259 53.1851 28.6438 53.5031 29.0647 53.4642C29.4915 53.4279 29.8085 53.0519 29.7722 52.625C29.7359 52.1972 29.3599 51.8802 28.9331 51.9165Z" fill="#DC3545"/>
<path d="M17.1702 49.9886C16.7765 49.8187 16.3186 50 16.1487 50.3937C15.9788 50.7873 16.1601 51.2452 16.5538 51.4151C16.9227 51.5747 17.4137 51.3816 17.5752 51.01C17.745 50.6164 17.5637 50.1595 17.1702 49.9886Z" fill="#DC3545"/>
<path d="M4.26288 39.2293C3.89304 39.4468 3.76977 39.9234 3.98732 40.2932C4.19575 40.6475 4.69735 40.7752 5.05123 40.5688C5.42106 40.3512 5.54434 39.8757 5.32679 39.5048C5.10924 39.135 4.63281 39.0117 4.26288 39.2293Z" fill="#DC3545"/>
<path d="M6.53681 42.6904C6.20531 42.9639 6.15869 43.4528 6.43115 43.7843C6.78119 44.122 7.14584 44.1573 7.5251 43.89C7.8566 43.6165 7.90322 43.1275 7.63077 42.796C7.35728 42.4645 6.86728 42.4179 6.53681 42.6904Z" fill="#DC3545"/>
<path d="M20.9669 51.2763C20.5505 51.1716 20.1288 51.4244 20.0242 51.8409C19.9206 52.2573 20.1734 52.6789 20.5898 52.7836C20.9717 52.8773 21.4356 52.6025 21.5325 52.2179C21.6361 51.8015 21.3833 51.3799 20.9669 51.2763Z" fill="#DC3545"/>
<path d="M4.35103 16.3961C4.5375 16.0097 4.37486 15.5456 3.98845 15.3592C3.60205 15.1727 3.13795 15.3343 2.95148 15.7207C2.76501 16.1081 2.92661 16.5722 3.31406 16.7587C3.67798 16.932 4.1742 16.7635 4.35103 16.3961Z" fill="#DC3545"/>
<path d="M27.2815 3.93085C22.0937 3.84083 17.1757 5.42251 13.0534 8.51003C12.2493 9.11222 13.1808 10.3558 13.9849 9.75378C17.8282 6.87531 22.4189 5.39795 27.2539 5.48466C38.8426 5.45089 48.8704 15.8378 48.4253 27.4189C48.0678 46.5505 24.6627 55.761 11.3629 42.0078C3.47319 34.1585 3.34577 20.4308 11.0351 12.4128C11.7176 11.6758 10.5774 10.62 9.89489 11.3572C1.65149 19.9552 1.7845 34.6703 10.2451 43.0872C24.504 57.8316 49.5964 47.9568 49.9791 27.446C50.4549 15.0314 39.7063 3.89315 27.2815 3.93085Z" fill="#DC3545"/>
<path d="M26.8727 46.0036C37.3307 46.0036 45.839 37.4953 45.839 27.0373C44.7972 1.87595 8.94437 1.8832 7.90625 27.0375C7.90635 37.4953 16.4146 46.0036 26.8727 46.0036ZM26.8727 9.6249C36.4739 9.6249 44.2851 17.4361 44.2851 27.0373C43.3286 50.1372 10.4132 50.1305 9.46027 27.0372C9.46027 17.4361 17.2715 9.6249 26.8727 9.6249Z" fill="#DC3545"/>
<path d="M15.8826 29.8576L21.3834 35.0366C22.482 36.0696 24.2022 36.0685 25.3009 35.0355L29.7363 30.8473C30.4667 30.1575 29.3998 29.0276 28.6695 29.7175L24.2352 33.9045C23.7426 34.3679 22.9406 34.3678 22.4482 33.9049L16.9474 28.7259C16.2424 28.0631 16.6333 27.2706 16.9754 26.9068C17.1205 26.7524 17.8879 26.0221 18.7344 26.8181L22.809 30.6558C23.1086 30.9379 23.5761 30.9376 23.8753 30.655L34.9871 20.1569C35.6897 19.4965 36.4537 19.9335 36.7944 20.2959C36.9401 20.451 37.6244 21.2649 36.7732 22.0652L31.6466 26.9061C30.9161 27.5959 31.9828 28.7255 32.7134 28.0359L37.8389 23.1961C39.1683 21.9462 38.8892 20.2555 37.9265 19.2315C36.9657 18.2096 35.2359 17.79 33.9213 19.026L23.3408 29.0222L19.7992 25.6864C18.4718 24.4382 16.8044 24.8201 15.8432 25.8422C14.8809 26.8659 14.5676 28.6211 15.8826 29.8576Z" fill="#DC3545"/>
</g>
<defs>
<clipPath id="clip0_1178_1132">
<rect width="53" height="53" fill="white" transform="translate(0.375 0.5)"/>
</clipPath>
</defs>
</svg>
