<svg width="54" height="54" viewBox="0 0 54 54" fill="none" xmlns="http://www.w3.org/2000/svg">
<g clip-path="url(#clip0_1178_1181)">
<path d="M52.9361 23.2051C52.3866 22.3754 51.5536 21.8036 50.5852 21.5869C51.2099 20.392 51.1844 18.9011 50.3887 17.6998C49.8226 16.8446 48.9686 16.2922 48.0389 16.0831C48.2047 15.7669 48.3272 15.4257 48.4004 15.0658C48.6034 14.065 48.4053 13.0452 47.8412 12.194C47.2917 11.3639 46.4587 10.7921 45.4903 10.5758C46.115 9.38091 46.0895 7.89004 45.2937 6.68829C44.1304 4.93135 41.7536 4.44815 39.9963 5.61189L36.1912 8.13185C34.163 7.10316 32.0057 6.3733 29.7668 5.95762C29.0592 4.88324 28.2363 3.88447 27.3152 2.99165L25.741 1.466C24.5882 0.348358 22.7803 0.180549 21.4419 1.06731C19.8584 2.11581 19.4233 4.25729 20.4718 5.84076C20.5131 5.90343 20.5535 5.96651 20.5935 6.02959C15.4335 7.07364 10.7308 9.81196 7.25011 13.8244C3.473 18.1789 1.39258 23.7558 1.39258 29.5277C1.39258 30.634 1.46819 31.7423 1.61781 32.8212C2.77063 41.2079 8.35724 48.4354 16.1969 51.6837C19.1043 52.8886 22.1891 53.5 25.3645 53.5C30.3936 53.5 35.2074 51.9598 39.2862 49.0464C43.2764 46.1957 46.2618 42.2617 47.9201 37.6698C48.0749 37.242 47.8529 36.7693 47.4251 36.6148C46.9969 36.4604 46.5246 36.682 46.3701 37.1102C44.8259 41.3863 42.0451 45.0498 38.3279 47.7052C34.5305 50.418 30.0478 51.8519 25.3645 51.8519C22.9433 51.8519 20.579 51.4697 18.3162 50.716L25.0212 46.2758C25.0217 46.2754 25.0221 46.2754 25.0225 46.275C25.0229 46.275 25.0229 46.2746 25.0233 46.2742L30.5957 42.584H30.5961C31.0963 42.2524 31.438 41.7461 31.5577 41.1578C31.6774 40.5695 31.5609 39.9694 31.2294 39.4692L31.1558 39.3576L32.2382 38.6407C33.0106 38.1292 33.9394 37.9286 34.854 38.0754C36.1783 38.2881 37.5232 37.9969 38.6408 37.2566L47.6192 31.3109C47.5577 32.0897 47.4567 32.864 47.3155 33.6254C47.2322 34.073 47.5278 34.5033 47.9754 34.5862C48.026 34.5959 48.0769 34.6003 48.1267 34.6003C48.5161 34.6003 48.8622 34.3229 48.9358 33.9263C49.1643 32.6974 49.2957 31.4387 49.3296 30.1783L51.8597 28.5026C52.7109 27.9389 53.292 27.0772 53.4949 26.0769C53.6983 25.0761 53.4998 24.0563 52.9361 23.2051ZM34.5912 9.19127L32.0733 10.8588L31.5775 9.52325C31.3705 8.96604 31.1331 8.41975 30.8703 7.88519C32.1477 8.20908 33.3915 8.64579 34.5912 9.19127ZM8.49513 14.9044C11.8404 11.0481 16.3971 8.45574 21.382 7.55685C22.1818 9.49454 22.3735 11.6595 21.8956 13.7229L19.8863 22.4033C19.5705 22.066 19.1605 21.8335 18.6987 21.7397C18.11 21.6196 17.5103 21.7365 17.0101 22.0681L11.3188 25.8367C11.3184 25.8367 11.3184 25.8367 11.318 25.8371C11.318 25.8371 11.3175 25.8371 11.3175 25.8375L3.10908 31.2733C3.06419 30.6942 3.04074 30.1107 3.04074 29.5277C3.04074 24.1529 4.97802 18.9593 8.49513 14.9044ZM29.9427 40.8291C29.9107 40.986 29.8194 41.1214 29.6855 41.21H29.6859L24.7916 44.4509L15.7077 30.9037C15.4541 30.5256 14.9422 30.4249 14.5641 30.6785C14.1865 30.932 14.0854 31.4435 14.3389 31.8216L23.4172 45.3611L16.4303 49.9882C9.48742 46.9515 4.51908 40.5383 3.3246 33.0759L11.5428 27.6514L12.4886 29.0626C12.6479 29.2996 12.9083 29.4278 13.174 29.4278C13.3317 29.4278 13.4914 29.3829 13.6321 29.2883C14.0102 29.0347 14.1113 28.5228 13.8577 28.1448L12.9184 26.7436L17.9203 23.4421C18.0533 23.3535 18.2131 23.3228 18.37 23.3547C18.5269 23.3867 18.6623 23.4781 18.7509 23.6115L29.8554 40.3794C29.9435 40.5125 29.9746 40.6722 29.9427 40.8291ZM51.8799 25.7485C51.7643 26.3179 51.4339 26.8079 50.9495 27.1286L48.0571 29.044C48.0563 29.0444 48.0555 29.0453 48.0543 29.0457L37.7306 35.8825C36.9583 36.3941 36.0295 36.595 35.1148 36.4478C33.791 36.2356 32.4461 36.5263 31.328 37.2667L30.2456 37.9836L21.1507 24.2504L23.5017 14.0949C24.107 11.4787 23.788 8.72302 22.6347 6.32235C22.6242 6.29728 22.6129 6.27301 22.6 6.24916C22.3784 5.79547 22.1269 5.35512 21.8458 4.93055C21.2991 4.10485 21.526 2.98841 22.3521 2.44132C23.05 1.97913 23.993 2.06648 24.5938 2.64916L26.168 4.1752C27.8708 5.8262 29.2072 7.87387 30.0321 10.097L30.8893 12.4063C30.8909 12.4108 30.8925 12.4144 30.8941 12.4185C30.8962 12.4237 30.8986 12.4294 30.9006 12.4346C30.9067 12.4488 30.9123 12.4617 30.9184 12.4726C30.935 12.5074 30.9532 12.5418 30.975 12.5745C31.2265 12.9542 31.7376 13.0581 32.1169 12.8066L40.9065 6.9863C41.906 6.32437 43.2578 6.59893 43.9197 7.5985C44.5817 8.59807 44.3071 9.94984 43.3075 10.6118L42.5445 11.1172C42.5445 11.1172 42.5441 11.1172 42.5437 11.1176L40.8418 12.245C40.8393 12.2466 40.8377 12.2482 40.8353 12.2494C40.8256 12.2563 40.8163 12.2628 40.8086 12.2692C40.4568 12.5276 40.3658 13.0189 40.6097 13.3869C40.8608 13.7666 41.3723 13.8705 41.752 13.619L43.4551 12.4908C43.9391 12.171 44.5186 12.0582 45.0875 12.1738C45.6565 12.2895 46.1469 12.6198 46.4672 13.1042C46.7878 13.5883 46.9011 14.1685 46.7854 14.7374C46.6698 15.3068 46.3394 15.7969 45.855 16.1175L43.3892 17.7507C43.0095 18.0018 42.9056 18.5129 43.1571 18.8926C43.3156 19.132 43.5776 19.2618 43.8449 19.2618C44.001 19.2618 44.1591 19.2173 44.299 19.1247L44.6807 18.872L46.0014 17.9974C47.0014 17.3354 48.3527 17.61 49.0146 18.6096C49.6766 19.6096 49.402 20.9609 48.4025 21.6233L47.1708 22.4389C47.1643 22.4429 47.1578 22.4473 47.1514 22.4518L45.9367 23.2561C45.557 23.5072 45.4531 24.0187 45.7046 24.3984C45.8631 24.6378 46.1251 24.7675 46.3924 24.7675C46.5485 24.7675 46.7066 24.7231 46.8465 24.6305L47.2282 24.3777C47.2282 24.3777 47.2282 24.3773 47.2286 24.3773L48.5492 23.5031C49.0332 23.1825 49.6131 23.0692 50.1824 23.1853C50.7518 23.3005 51.2419 23.6313 51.5625 24.1153C51.8828 24.5993 51.9956 25.1796 51.8799 25.7485Z" fill="#DC3545"/>
</g>
<defs>
<clipPath id="clip0_1178_1181">
<rect width="53" height="53" fill="white" transform="translate(0.875 0.5)"/>
</clipPath>
</defs>
</svg>
