<svg width="28" height="28" viewBox="0 0 28 28" fill="none" xmlns="http://www.w3.org/2000/svg">
<g id="Clip path group">
<mask id="mask0_10583_45179" style="mask-type:luminance" maskUnits="userSpaceOnUse" x="0" y="0" width="28" height="28">
<g id="clip0_1023_6280">
<path id="Vector" d="M0 0H28V28H0V0Z" fill="white"/>
</g>
</mask>
<g mask="url(#mask0_10583_45179)">
<g id="Group">
<path id="Vector_2" fill-rule="evenodd" clip-rule="evenodd" d="M8.44874 6.80748L8.50922 6.81376C8.76359 6.8402 9.01707 6.86656 9.26921 6.86399C10.4031 6.8524 11.4886 6.40277 12.2986 5.60918C12.4786 5.43271 12.6393 5.23483 12.8005 5.03626L12.8388 4.98906C13.0588 4.71836 13.1967 4.54905 13.3052 4.42438C13.3972 4.31875 13.4324 4.28715 13.4353 4.2845C13.7638 4.01649 14.2355 4.01649 14.5641 4.28449C14.567 4.28708 14.6021 4.31866 14.6941 4.42438C14.8026 4.54905 14.9405 4.71836 15.1606 4.98906L15.199 5.03627C15.3601 5.23483 15.5207 5.43272 15.7007 5.60918C16.5108 6.40277 17.5962 6.8524 18.7301 6.86399C18.9822 6.86656 19.2357 6.84021 19.4901 6.81376L19.5506 6.80748C19.8976 6.77164 20.1148 6.74944 20.2797 6.738C20.4194 6.7283 20.4667 6.73085 20.4707 6.73109C20.8924 6.77386 21.226 7.1074 21.2688 7.52919C21.269 7.533 21.2716 7.58017 21.2619 7.72012C21.2503 7.88498 21.2282 8.10222 21.1924 8.44922L21.1861 8.50963C21.1597 8.764 21.1333 9.01755 21.1359 9.26969C21.1474 10.4036 21.5971 11.4891 22.3906 12.299C22.5672 12.4792 22.765 12.6397 22.9635 12.8009L23.0107 12.8393C23.2815 13.0594 23.4508 13.1973 23.5755 13.3056C23.6807 13.3973 23.7125 13.4326 23.7153 13.4357C23.9834 13.7643 23.9834 14.2361 23.7153 14.5646C23.7125 14.5677 23.6807 14.603 23.5755 14.6947C23.4508 14.8031 23.2815 14.941 23.0107 15.161L22.9636 15.1994C22.7651 15.3606 22.5672 15.5211 22.3906 15.7013C21.5971 16.5112 21.1474 17.5968 21.1359 18.7306C21.1333 18.9828 21.1597 19.2363 21.1861 19.4906L21.1924 19.5512C21.2282 19.8981 21.2503 20.1154 21.2619 20.2802C21.2716 20.4203 21.269 20.4675 21.2688 20.4712C21.226 20.8929 20.8924 21.2265 20.4707 21.2692C20.4669 21.2694 20.4199 21.272 20.2797 21.2623C20.1148 21.2509 19.8976 21.2287 19.5506 21.1929L19.4901 21.1866C19.2357 21.1601 18.9822 21.1337 18.7301 21.1363C17.5962 21.148 16.5108 21.5975 15.7007 22.3912C15.5207 22.5676 15.3601 22.7654 15.199 22.964L15.1606 23.0113C14.9405 23.2819 14.8026 23.4513 14.6941 23.5759C14.6026 23.6813 14.5672 23.713 14.5641 23.7158C14.2355 23.9838 13.7638 23.9838 13.4353 23.7158C13.4322 23.713 13.3968 23.6813 13.3052 23.5759C13.1967 23.4513 13.0588 23.2819 12.8388 23.0113L12.8005 22.9641C12.6393 22.7656 12.4788 22.5676 12.2986 22.3912C11.4886 21.5975 10.4031 21.148 9.26921 21.1363C9.01708 21.1337 8.76359 21.1601 8.50923 21.1866L8.44874 21.1929C8.10174 21.2287 7.8845 21.2509 7.71964 21.2623C7.57963 21.272 7.53249 21.2694 7.52869 21.2692C7.10692 21.2265 6.77338 20.8929 6.7306 20.4711C6.73037 20.4671 6.72782 20.4199 6.73752 20.2802C6.74896 20.1154 6.77117 19.8981 6.80699 19.5512L6.81327 19.4906C6.83972 19.2363 6.86607 18.9828 6.86351 18.7306C6.85191 17.5968 6.40229 16.5112 5.60869 15.7013C5.43224 15.5211 5.23436 15.3606 5.03582 15.1994L4.98858 15.161C4.71788 14.941 4.54856 14.8031 4.4239 14.6947C4.31819 14.6026 4.28661 14.5674 4.28401 14.5645C4.01601 14.2361 4.01601 13.7643 4.28401 13.4358C4.28661 13.4329 4.31818 13.3977 4.4239 13.3056C4.54856 13.1973 4.71788 13.0594 4.98858 12.8393L5.03578 12.8009C5.23435 12.6398 5.43223 12.4792 5.60869 12.299C6.40229 11.4891 6.85191 10.4036 6.86351 9.26969C6.86607 9.01755 6.83972 8.76407 6.81327 8.5097L6.80699 8.44922C6.77117 8.10222 6.74896 7.88498 6.73752 7.72012C6.72782 7.58043 6.73037 7.53319 6.7306 7.52921C6.77338 7.10741 7.10693 6.77386 7.52873 6.73109C7.53271 6.73085 7.57996 6.7283 7.71964 6.738C7.8845 6.74944 8.10174 6.77164 8.44874 6.80748ZM4.28401 14.5645C4.28395 14.5645 4.28403 14.5645 4.28401 14.5645V14.5645ZM7.52869 21.2692C7.52855 21.2692 7.52872 21.2692 7.52869 21.2692V21.2692ZM14.5641 23.7158C14.5638 23.716 14.5643 23.7156 14.5641 23.7158V23.7158ZM20.4707 6.73109C20.4707 6.73108 20.4708 6.73109 20.4707 6.73109V6.73109ZM11.4808 3.88529C11.9059 3.3623 12.1185 3.10076 12.3265 2.93057C13.3 2.13447 14.6994 2.13447 15.6729 2.93057C15.8809 3.10076 16.0934 3.36226 16.5186 3.88525C16.7187 4.13135 16.8186 4.25444 16.9255 4.35915C17.4128 4.8366 18.0658 5.1071 18.7481 5.11408C18.8976 5.11561 19.0554 5.09932 19.3708 5.06674C20.0413 4.99751 20.3765 4.96289 20.644 4.98969C21.8952 5.11504 22.8848 6.10465 23.0101 7.35587C23.037 7.62336 23.0023 7.95857 22.9331 8.62898C22.9005 8.94445 22.8843 9.10218 22.8858 9.2518C22.8928 9.93399 23.1632 10.587 23.6407 11.0743C23.7454 11.1812 23.8685 11.2812 24.1145 11.4812C24.6375 11.9063 24.8991 12.1189 25.0693 12.327C25.8653 13.3004 25.8653 14.6999 25.0693 15.6733C24.8991 15.8814 24.6375 16.094 24.1145 16.519C23.8685 16.719 23.7454 16.8191 23.6407 16.9259C23.1632 17.4132 22.8928 18.0663 22.8858 18.7485C22.8843 18.8982 22.9005 19.0559 22.9331 19.3714C23.0023 20.0417 23.037 20.3769 23.0101 20.6444C22.8848 21.8957 21.8952 22.8853 20.644 23.0107C20.3765 23.0374 20.0413 23.0029 19.3708 22.9336C19.0554 22.901 18.8976 22.8847 18.7481 22.8862C18.0658 22.8932 17.4128 23.1637 16.9255 23.6411C16.8186 23.7459 16.7187 23.8689 16.5186 24.1149C16.0934 24.6379 15.8809 24.8995 15.6729 25.0697C14.6994 25.8659 13.3 25.8659 12.3265 25.0697C12.1185 24.8995 11.9059 24.6381 11.4808 24.115C11.2809 23.8691 11.1807 23.7459 11.0739 23.6411C10.5866 23.1637 9.9335 22.8932 9.25132 22.8862C9.1017 22.8847 8.94396 22.901 8.62849 22.9336C7.95809 23.0029 7.62288 23.0374 7.35538 23.0107C6.10417 22.8853 5.11456 21.8957 4.98921 20.6444C4.96241 20.3769 4.99703 20.0417 5.06626 19.3714C5.09883 19.0559 5.11512 18.8982 5.11359 18.7485C5.10662 18.0663 4.83612 17.4132 4.35867 16.9259C4.25397 16.8191 4.13092 16.7191 3.88482 16.5191C3.36183 16.0941 3.10028 15.8814 2.93009 15.6733C2.13398 14.6999 2.13398 13.3004 2.93009 12.327C3.10028 12.1189 3.36178 11.9063 3.88477 11.4813C4.13088 11.2813 4.25395 11.1812 4.35867 11.0743C4.83612 10.587 5.10662 9.93399 5.11359 9.2518C5.11512 9.10219 5.09883 8.94445 5.06626 8.62899C4.99703 7.95859 4.96241 7.62336 4.98921 7.35587C5.11456 6.10465 6.10417 5.11504 7.35538 4.98969C7.62288 4.96289 7.95807 4.99751 8.62846 5.06674C8.94393 5.09932 9.1017 5.11561 9.25132 5.11408C9.93351 5.1071 10.5866 4.8366 11.0739 4.35915C11.1807 4.25444 11.2808 4.13139 11.4808 3.88529ZM18.1185 12.2855C18.4603 11.9438 18.4603 11.3898 18.1185 11.0481C17.7768 10.7064 17.2229 10.7064 16.8812 11.0481L12.8332 15.096L11.1186 13.3815C10.7769 13.0398 10.2228 13.0398 9.88114 13.3815C9.53943 13.7232 9.53943 14.2771 9.88114 14.6188L12.2145 16.9522C12.5562 17.2939 13.1102 17.2939 13.4519 16.9522L18.1185 12.2855Z" fill="#222931"/>
</g>
</g>
</g>
</svg>
