<svg width="16" height="16" viewBox="0 0 16 16" fill="none" xmlns="http://www.w3.org/2000/svg">
<path d="M7.99001 15.98C6.85809 15.98 5.80608 15.7769 4.83396 15.3708C3.86184 14.9646 3.01623 14.402 2.29713 13.6829C1.57803 12.9638 1.0154 12.1182 0.609238 11.1461C0.203079 10.1739 0 9.12193 0 7.99001C0 6.87141 0.203079 5.82605 0.609238 4.85393C1.0154 3.88181 1.57803 3.0362 2.29713 2.3171C3.01623 1.598 3.86184 1.03204 4.83396 0.619226C5.80608 0.206409 6.85809 0 7.99001 0C8.98876 0 9.92093 0.1598 10.7865 0.479401C11.6521 0.799001 12.4311 1.23845 13.1236 1.79775L12.2647 2.65668C11.6787 2.1906 11.0262 1.83104 10.3071 1.57803C9.58801 1.32501 8.81565 1.1985 7.99001 1.1985C6.05909 1.1985 4.44444 1.84769 3.14607 3.14607C1.84769 4.44444 1.1985 6.05909 1.1985 7.99001C1.1985 9.92093 1.84769 11.5356 3.14607 12.834C4.44444 14.1323 6.05909 14.7815 7.99001 14.7815C9.92093 14.7815 11.5356 14.1323 12.834 12.834C14.1323 11.5356 14.7815 9.92093 14.7815 7.99001C14.7815 7.59051 14.7516 7.201 14.6916 6.82147C14.6317 6.44195 14.5418 6.07241 14.422 5.71286L15.3408 4.79401C15.5539 5.28672 15.7137 5.79942 15.8202 6.33208C15.9268 6.86475 15.98 7.41739 15.98 7.99001C15.98 9.12193 15.7736 10.1739 15.3608 11.1461C14.948 12.1182 14.382 12.9638 13.6629 13.6829C12.9438 14.402 12.0982 14.9646 11.1261 15.3708C10.154 15.7769 9.10861 15.98 7.99001 15.98ZM6.81149 11.6255L3.51561 8.30961L4.41448 7.41074L6.81149 9.80774L15.0811 1.53808L16 2.43695L6.81149 11.6255Z" fill="#1BA950"/>
</svg>
