<svg width="53" height="52" viewBox="0 0 53 52" fill="none" xmlns="http://www.w3.org/2000/svg">
<g clip-path="url(#clip0_10550_11377)">
<mask id="mask0_10550_11377" style="mask-type:luminance" maskUnits="userSpaceOnUse" x="12" y="12" width="29" height="28">
<path d="M12.7998 12H40.7998V40H12.7998V12Z" fill="white"/>
</mask>
<g mask="url(#mask0_10550_11377)">
<path fill-rule="evenodd" clip-rule="evenodd" d="M21.2485 18.8072L21.309 18.8135C21.5634 18.84 21.8169 18.8663 22.069 18.8637C23.2029 18.8522 24.2884 18.4025 25.0984 17.6089C25.2784 17.4325 25.4391 17.2346 25.6003 17.036L25.6386 16.9888C25.8586 16.7181 25.9965 16.5488 26.105 16.4241C26.197 16.3185 26.2322 16.2869 26.2351 16.2843C26.5636 16.0162 27.0353 16.0162 27.3639 16.2842C27.3668 16.2868 27.4019 16.3184 27.4939 16.4241C27.6024 16.5488 27.7403 16.7181 27.9604 16.9888L27.9988 17.036C28.1599 17.2346 28.3205 17.4325 28.5005 17.6089C29.3106 18.4025 30.396 18.8522 31.5299 18.8637C31.782 18.8663 32.0355 18.84 32.2899 18.8135L32.3504 18.8072C32.6974 18.7714 32.9146 18.7492 33.0795 18.7378C33.2192 18.7281 33.2665 18.7306 33.2705 18.7308C33.6922 18.7736 34.0258 19.1072 34.0686 19.5289C34.0688 19.5328 34.0714 19.5799 34.0617 19.7199C34.0501 19.8847 34.028 20.102 33.9922 20.449L33.9859 20.5094C33.9595 20.7638 33.9331 21.0173 33.9357 21.2694C33.9472 22.4034 34.3969 23.4888 35.1904 24.2988C35.367 24.4789 35.5648 24.6395 35.7633 24.8007L35.8105 24.8391C36.0813 25.0591 36.2506 25.197 36.3753 25.3054C36.4805 25.3971 36.5123 25.4323 36.5151 25.4355C36.7832 25.764 36.7832 26.2358 36.5151 26.5643C36.5123 26.5675 36.4805 26.6027 36.3753 26.6944C36.2506 26.8028 36.0813 26.9407 35.8105 27.1607L35.7634 27.1991C35.5649 27.3604 35.367 27.5209 35.1904 27.701C34.3969 28.5109 33.9472 29.5965 33.9357 30.7304C33.9331 30.9825 33.9595 31.236 33.9859 31.4904L33.9922 31.5509C34.028 31.8979 34.0501 32.1151 34.0617 32.28C34.0714 32.4201 34.0688 32.4672 34.0686 32.471C34.0258 32.8927 33.6922 33.2263 33.2705 33.269C33.2667 33.2692 33.2197 33.2718 33.0795 33.2621C32.9146 33.2506 32.6974 33.2285 32.3504 33.1926L32.2899 33.1863C32.0355 33.1599 31.782 33.1335 31.5299 33.1361C30.396 33.1477 29.3106 33.5973 28.5005 34.3909C28.3205 34.5673 28.1599 34.7652 27.9988 34.9638L27.9604 35.011C27.7403 35.2817 27.6024 35.4511 27.4939 35.5757C27.4024 35.681 27.367 35.7128 27.3639 35.7156C27.0353 35.9836 26.5636 35.9836 26.2351 35.7156C26.232 35.7128 26.1966 35.681 26.105 35.5757C25.9965 35.4511 25.8586 35.2817 25.6386 35.011L25.6003 34.9639C25.4391 34.7653 25.2786 34.5673 25.0984 34.3909C24.2884 33.5973 23.2029 33.1477 22.069 33.1361C21.8169 33.1335 21.5634 33.1599 21.309 33.1863L21.2485 33.1926C20.9015 33.2285 20.6843 33.2506 20.5194 33.2621C20.3794 33.2718 20.3323 33.2692 20.3285 33.269C19.9067 33.2263 19.5732 32.8927 19.5304 32.4708C19.5302 32.4669 19.5276 32.4196 19.5373 32.28C19.5488 32.1151 19.571 31.8979 19.6068 31.5509L19.6131 31.4904C19.6395 31.236 19.6659 30.9825 19.6633 30.7304C19.6517 29.5965 19.2021 28.5109 18.4085 27.701C18.232 27.5209 18.0342 27.3604 17.8356 27.1991L17.7884 27.1607C17.5177 26.9407 17.3484 26.8028 17.2237 26.6944C17.118 26.6024 17.0864 26.5671 17.0838 26.5642C16.8158 26.2358 16.8158 25.764 17.0838 25.4356C17.0864 25.4327 17.118 25.3974 17.2237 25.3054C17.3484 25.197 17.5177 25.0591 17.7884 24.8391L17.8356 24.8007C18.0342 24.6396 18.232 24.4789 18.4085 24.2988C19.2021 23.4888 19.6517 22.4034 19.6633 21.2694C19.6659 21.0173 19.6395 20.7638 19.6131 20.5095L19.6068 20.449C19.571 20.102 19.5488 19.8847 19.5373 19.7199C19.5276 19.5802 19.5302 19.5329 19.5304 19.529C19.5732 19.1072 19.9067 18.7736 20.3285 18.7308C20.3325 18.7306 20.3798 18.7281 20.5194 18.7378C20.6843 18.7492 20.9015 18.7714 21.2485 18.8072ZM17.0838 26.5642C17.0838 26.5642 17.0838 26.5642 17.0838 26.5642V26.5642ZM20.3285 33.269C20.3284 33.269 20.3285 33.269 20.3285 33.269V33.269ZM27.3639 35.7156C27.3636 35.7158 27.3641 35.7153 27.3639 35.7156V35.7156ZM33.2705 18.7308C33.2705 18.7308 33.2706 18.7308 33.2705 18.7308V18.7308ZM24.2806 15.885C24.7057 15.3621 24.9183 15.1005 25.1263 14.9303C26.0998 14.1342 27.4992 14.1342 28.4727 14.9303C28.6807 15.1005 28.8932 15.362 29.3184 15.885C29.5185 16.1311 29.6184 16.2542 29.7253 16.3589C30.2126 16.8364 30.8656 17.1069 31.5479 17.1138C31.6974 17.1154 31.8552 17.0991 32.1706 17.0665C32.8411 16.9973 33.1763 16.9626 33.4438 16.9894C34.695 17.1148 35.6846 18.1044 35.8099 19.3556C35.8368 19.6231 35.8021 19.9583 35.7329 20.6287C35.7003 20.9442 35.6841 21.1019 35.6856 21.2516C35.6926 21.9337 35.963 22.5868 36.4405 23.0741C36.5452 23.181 36.6683 23.281 36.9143 23.481C37.4373 23.9061 37.6989 24.1187 37.8691 24.3268C38.6651 25.3001 38.6651 26.6997 37.8691 27.673C37.6989 27.8812 37.4373 28.0937 36.9143 28.5188C36.6683 28.7187 36.5452 28.8188 36.4405 28.9257C35.963 29.413 35.6926 30.0661 35.6856 30.7482C35.6841 30.8979 35.7003 31.0557 35.7329 31.3711C35.8021 32.0415 35.8368 32.3767 35.8099 32.6442C35.6846 33.8955 34.695 34.885 33.4438 35.0104C33.1763 35.0372 32.8411 35.0026 32.1706 34.9333C31.8552 34.9008 31.6974 34.8844 31.5479 34.886C30.8656 34.893 30.2126 35.1635 29.7253 35.6409C29.6184 35.7457 29.5185 35.8686 29.3184 36.1147C28.8932 36.6377 28.6807 36.8993 28.4727 37.0695C27.4992 37.8656 26.0998 37.8656 25.1263 37.0695C24.9183 36.8993 24.7057 36.6378 24.2806 36.1148C24.0807 35.8689 23.9805 35.7457 23.8737 35.6409C23.3864 35.1635 22.7333 34.893 22.0511 34.886C21.9015 34.8844 21.7438 34.9008 21.4283 34.9333C20.7579 35.0026 20.4227 35.0372 20.1552 35.0104C18.904 34.885 17.9144 33.8955 17.789 32.6442C17.7622 32.3767 17.7968 32.0415 17.8661 31.3711C17.8986 31.0557 17.9149 30.8979 17.9134 30.7482C17.9064 30.0661 17.6359 29.413 17.1585 28.9257C17.0538 28.8188 16.9307 28.7188 16.6846 28.5189C16.1616 28.0938 15.9001 27.8812 15.7299 27.673C14.9338 26.6997 14.9338 25.3001 15.7299 24.3268C15.9001 24.1187 16.1616 23.9061 16.6846 23.481C16.9307 23.281 17.0538 23.181 17.1585 23.0741C17.6359 22.5868 17.9064 21.9337 17.9134 21.2516C17.9149 21.1019 17.8986 20.9442 17.8661 20.6287C17.7968 19.9583 17.7622 19.6231 17.789 19.3556C17.9144 18.1044 18.904 17.1148 20.1552 16.9894C20.4227 16.9626 20.7579 16.9973 21.4283 17.0665C21.7437 17.0991 21.9015 17.1154 22.0511 17.1138C22.7333 17.1069 23.3864 16.8364 23.8737 16.3589C23.9805 16.2542 24.0806 16.1311 24.2806 15.885ZM30.9183 24.2853C31.2601 23.9435 31.2601 23.3896 30.9183 23.0479C30.5766 22.7062 30.0227 22.7062 29.681 23.0479L25.633 27.0958L23.9184 25.3812C23.5767 25.0395 23.0226 25.0395 22.6809 25.3812C22.3392 25.7229 22.3392 26.2769 22.6809 26.6186L25.0143 28.9519C25.356 29.2936 25.91 29.2936 26.2517 28.9519L30.9183 24.2853Z" fill="#222931"/>
</g>
</g>
<rect x="1.2998" y="0.5" width="51" height="51" rx="25.5" stroke="#222931"/>
<defs>
<clipPath id="clip0_10550_11377">
<rect width="28" height="28" fill="white" transform="translate(12.7998 12)"/>
</clipPath>
</defs>
</svg>
