<svg width="54" height="54" viewBox="0 0 54 54" fill="none" xmlns="http://www.w3.org/2000/svg">
<g clip-path="url(#clip0_1625_2368)">
<path d="M27.0235 21.5496C24.0183 21.5496 21.5732 23.9946 21.5732 27C21.5732 27.6429 21.6843 28.2728 21.9036 28.8722C22.0512 29.2757 22.4976 29.4831 22.9013 29.3356C23.3047 29.188 23.5123 28.7413 23.3648 28.3377C23.2084 27.9101 23.1291 27.46 23.1291 26.9999C23.1291 24.8525 24.8761 23.1053 27.0235 23.1053C29.171 23.1053 30.918 24.8525 30.918 26.9999C30.918 29.1473 29.171 30.8945 27.0235 30.8945C26.3144 30.8945 25.6206 30.7022 25.017 30.3385C24.6493 30.1171 24.171 30.2354 23.9492 30.6033C23.7275 30.9713 23.846 31.4494 24.214 31.6711C25.0601 32.181 26.0315 32.4504 27.0237 32.4504C30.0289 32.4504 32.474 30.0054 32.474 27C32.4737 23.9946 30.0288 21.5496 27.0235 21.5496Z" fill="#DC3545"/>
<path d="M38.2109 24.8102L36.7684 24.5934C36.5271 23.6103 36.1408 22.6782 35.6153 21.8111L36.4825 20.6372C36.9222 20.0417 36.8616 19.2295 36.3382 18.7061L35.3168 17.6846C34.7933 17.1612 33.9813 17.1007 33.3858 17.5403L32.2119 18.4074C31.3449 17.8818 30.4128 17.4955 29.4298 17.2542L29.213 15.8117C29.1029 15.0796 28.4857 14.5484 27.7455 14.5484H26.301C25.5608 14.5484 24.9436 15.0797 24.8335 15.8117L24.6166 17.2542C23.6336 17.4955 22.7017 17.8817 21.8344 18.4074L20.6605 17.5402C20.0652 17.1005 19.2531 17.1612 18.7297 17.6846L17.7085 18.706C17.1848 19.2295 17.124 20.0417 17.5641 20.6373L18.431 21.8111C17.9055 22.6781 17.5191 23.6103 17.2781 24.5934L15.8358 24.8102C15.1036 24.9201 14.5723 25.5373 14.5723 26.2778V27.7222C14.5723 28.4627 15.1036 29.0798 15.8356 29.1898L17.2781 29.4066C17.5193 30.3897 17.9056 31.3218 18.431 32.1889L17.5641 33.3627C17.124 33.9583 17.1848 34.7705 17.7083 35.2939L18.7297 36.3154C19.2532 36.8387 20.0653 36.8994 20.6606 36.4596L21.8344 35.5925C22.7017 36.1182 23.6335 36.5044 24.6166 36.7457L24.8335 38.1882C24.9436 38.9202 25.5608 39.4515 26.301 39.4515H27.7454C28.4856 39.4515 29.1028 38.9201 29.2129 38.1881L29.4297 36.7457C30.4127 36.5044 31.3448 36.1181 32.2118 35.5925L33.3858 36.4597C33.9811 36.8994 34.7933 36.8386 35.3167 36.3154L36.3381 35.2939C36.8615 34.7705 36.9221 33.9583 36.4823 33.3627L35.6152 32.1889C36.1408 31.3219 36.5271 30.3897 36.7683 29.4066L38.2106 29.1898C38.9427 29.0798 39.4741 28.4627 39.4741 27.7222V26.2778C39.4742 25.5374 38.9429 24.9201 38.2109 24.8102ZM37.9184 27.6603L36.0062 27.9478C35.6787 27.9969 35.4183 28.2482 35.3574 28.5736C35.1406 29.7287 34.6936 30.8076 34.0285 31.7801C33.8417 32.0534 33.8482 32.4151 34.0451 32.6814L35.1943 34.2373L34.2603 35.1712L32.7045 34.0219C32.4381 33.8252 32.0765 33.8188 31.8032 34.0054C30.8306 34.6705 29.7518 35.1175 28.5968 35.3342C28.2713 35.3953 28.0201 35.6558 27.9709 35.9833L27.6836 37.8954H26.3628L26.0753 35.9832C26.0262 35.6557 25.7749 35.3952 25.4495 35.3342C24.2946 35.1176 23.2158 34.6705 22.2431 34.0054C21.9697 33.8185 21.6081 33.8249 21.3418 34.022L19.786 35.1712L18.852 34.2373L20.0012 32.6814C20.198 32.4151 20.2047 32.0534 20.0177 31.7801C19.3526 30.8075 18.9056 29.7288 18.689 28.5737C18.628 28.2482 18.3676 27.9969 18.0401 27.9478L16.128 27.6603V26.3397L18.0401 26.0522C18.3677 26.0029 18.628 25.7518 18.689 25.4262C18.9056 24.2713 19.3526 23.1925 20.0177 22.2198C20.2047 21.9466 20.1981 21.5849 20.0012 21.3185L18.852 19.7627L19.786 18.8288L21.3418 19.978C21.6081 20.1749 21.9697 20.1812 22.2431 19.9946C23.2158 19.3295 24.2946 18.8824 25.4495 18.6656C25.7749 18.6047 26.0262 18.3442 26.0753 18.0167L26.3628 16.1044H27.6836L27.9709 18.0166C28.0202 18.3441 28.2713 18.6045 28.5968 18.6656C29.7518 18.8824 30.8306 19.3294 31.8032 19.9946C32.0764 20.1814 32.438 20.175 32.7045 19.9781L34.2603 18.8288L35.1943 19.7627L34.0451 21.3185C33.8483 21.5849 33.8417 21.9466 34.0285 22.2198C34.6936 23.1924 35.1406 24.2712 35.3574 25.4263C35.4183 25.7518 35.6788 26.003 36.0062 26.0522L37.9184 26.3397V27.6603Z" fill="#DC3545"/>
<path d="M53.4379 26.7195C53.3159 26.4324 53.0341 26.246 52.7221 26.246H51.386C51.2078 20.4284 48.9691 14.891 45.0369 10.5796C41.0244 6.18042 35.5862 3.41583 29.6983 2.77248L27.5626 0.715729C27.0992 0.238005 26.2228 0.610764 26.2452 1.27606V2.63677C21.4681 2.78604 16.9013 4.30948 12.9931 7.06517C12.642 7.31268 12.558 7.79816 12.8056 8.14929C13.0533 8.50041 13.5385 8.58447 13.8898 8.33676C17.746 5.61771 22.2875 4.1804 27.0232 4.1804C27.4529 4.1804 27.8011 3.83217 27.8011 3.40248V3.10518L31.8716 7.02532L27.8009 10.3143V9.54799C27.8009 9.1183 27.4527 8.77007 27.023 8.77007C22.6472 8.77007 18.4164 10.3439 15.1098 13.2015C12.2665 15.6586 10.2594 18.9244 9.34843 22.5273L7.68131 20.4638C7.40368 20.1038 6.82347 20.0787 6.51583 20.4132L4.68888 22.3104C5.65468 17.6938 8.03906 13.4695 11.5494 10.2288C11.8651 9.93742 11.8848 9.4452 11.5934 9.12958C11.3021 8.81396 10.8098 8.7943 10.4941 9.08559C6.17412 13.0736 3.45021 18.4572 2.80168 24.2702L0.715637 26.4364C0.23812 26.9002 0.610673 27.7761 1.27597 27.7539H2.65997C2.83802 33.5621 5.07044 39.0928 8.99171 43.4013C12.9926 47.7975 18.4182 50.567 24.2943 51.2221L26.4354 53.2842C26.9016 53.7622 27.7744 53.3886 27.7529 52.7238V51.3647C32.6191 51.2222 37.2606 49.6573 41.2184 46.8169C41.5675 46.5664 41.6474 46.0803 41.3969 45.7313C41.1462 45.3822 40.6602 45.3027 40.3112 45.5528C36.4219 48.3441 31.8268 49.8194 27.0137 49.8192L26.9749 49.8188C26.5452 49.8188 26.1969 50.167 26.1969 50.5967V50.8946L22.1265 46.9745L26.1969 43.6856V44.4513C26.1969 44.879 26.5423 45.2265 26.9699 45.2292L27.0229 45.2298C31.3894 45.2298 35.6136 43.6618 38.9169 40.8147C41.7573 38.3666 43.7673 35.1108 44.6858 31.5174L46.3166 33.536C46.5943 33.8958 47.1737 33.9215 47.482 33.5866L49.3694 31.6266C48.425 36.2019 46.0857 40.4017 42.6382 43.6388C42.325 43.933 42.3096 44.4252 42.6035 44.7384C42.8982 45.0521 43.3905 45.0668 43.7032 44.7731C47.9483 40.7869 50.6204 35.4338 51.25 29.6738L53.2823 27.5633C53.4988 27.3389 53.5601 27.0066 53.4379 26.7195ZM20.4631 46.3183C20.1031 46.5959 20.0778 47.176 20.4125 47.4838L22.3351 49.3354C17.6629 48.3591 13.3989 45.9323 10.1423 42.3541C6.31304 38.1466 4.20432 32.6937 4.20432 27.0027L4.20463 26.976C4.20463 26.5463 3.85641 26.1981 3.42671 26.1981H3.10509L7.02502 22.1274L10.3138 26.1981H9.57181C9.14212 26.1981 8.79389 26.5436 8.79389 26.9733L8.79369 27C8.79369 31.3676 10.3622 35.5925 13.2103 38.8963C15.6592 41.7371 18.9159 43.7469 22.51 44.6645L20.4631 46.3183ZM37.9015 39.6362C35.0647 42.0811 31.4856 43.4947 27.7529 43.658V42.057C27.7736 41.4227 26.9664 41.0373 26.4861 41.4518L24.0617 43.4106C20.3157 42.7386 16.8916 40.7838 14.3887 37.8803C11.9478 35.0488 10.5345 31.4772 10.3664 27.7538H11.9425C12.5768 27.7746 12.9622 26.9671 12.5477 26.4869L10.6047 24.082C11.2682 20.3256 13.2202 16.8907 16.127 14.3786C18.9547 11.9349 22.5216 10.5176 26.2451 10.3439V11.9428C26.2243 12.577 27.0318 12.9626 27.5119 12.548L29.9453 10.5818C33.7004 11.2462 37.1342 13.1987 39.6454 16.1052C42.094 18.9394 43.5115 22.5159 43.6797 26.246H42.0555C41.4213 26.2252 41.0359 27.0327 41.4504 27.5129L43.4324 29.966C42.7594 33.7111 40.8044 37.1342 37.9015 39.6362ZM46.973 31.8726L43.6842 27.8019H44.4743C44.904 27.8019 45.2522 27.4564 45.2522 27.0267L45.2525 27C45.2525 22.625 43.6794 18.3945 40.8228 15.0882C38.3665 12.2452 35.1019 10.2375 31.5 9.32585L33.535 7.68161C33.895 7.40398 33.9202 6.82388 33.5856 6.51612L31.6506 4.65264C36.3383 5.61875 40.6181 8.0437 43.8873 11.6281C47.7271 15.8381 49.8418 21.2972 49.8418 26.9972L49.8415 27.0239C49.8415 27.4536 50.1897 27.8018 50.6194 27.8018H50.893L46.973 31.8726Z" fill="#DC3545"/>
</g>
<defs>
<clipPath id="clip0_1625_2368">
<rect width="53" height="53" fill="white" transform="translate(0.5 0.5)"/>
</clipPath>
</defs>
</svg>
