<svg width="28" height="28" viewBox="0 0 28 28" fill="none" xmlns="http://www.w3.org/2000/svg">
<g id="Group">
<g id="Group_2">
<path id="Vector" d="M21.6785 25.0304H7.89063C7.63609 25.0304 7.46639 24.8607 7.46639 24.6061C7.46639 24.3516 7.63609 24.1819 7.89063 24.1819H21.7209C22.4421 24.1819 23.0785 23.588 23.0785 22.8243V21.4243C23.0785 21.1698 23.2482 21.0001 23.5028 21.0001C23.7573 21.0001 23.927 21.1698 23.927 21.4243V22.8243C23.8846 24.0546 22.9088 25.0304 21.6785 25.0304ZM6.10881 15.697C5.85427 15.697 5.68457 15.5273 5.68457 15.2728V2.63038C5.68457 1.4425 6.66033 0.424316 7.89063 0.424316H21.7209C22.9088 0.424316 23.927 1.40007 23.927 2.63038V12.6849C23.927 12.9395 23.7573 13.1092 23.5028 13.1092C23.2482 13.1092 23.0785 12.9395 23.0785 12.6849V2.63038C23.0785 1.90916 22.4846 1.2728 21.7209 1.2728H7.89063C7.16942 1.2728 6.53306 1.86674 6.53306 2.63038V15.2728C6.53306 15.5273 6.36336 15.697 6.10881 15.697Z" fill="#222931"/>
</g>
<g id="Group_3">
<path id="Vector_2" d="M3.18108 15.697C2.92653 15.697 2.75684 15.5273 2.75684 15.2728V5.17579C2.75684 3.94548 3.73259 2.96973 4.9629 2.96973H6.15078C6.40532 2.96973 6.57502 3.13942 6.57502 3.39397C6.57502 3.64851 6.40532 3.81821 6.15078 3.81821H4.9629C4.24168 3.81821 3.60532 4.41215 3.60532 5.17579V15.2728C3.60532 15.5273 3.43562 15.697 3.18108 15.697Z" fill="#222931"/>
</g>
<g id="Group_4">
<path id="Vector_3" d="M18.7508 27.5757H4.9629C3.77502 27.5757 2.75684 26.6 2.75684 25.3697V21.7636C2.75684 21.5091 2.92653 21.3394 3.18108 21.3394C3.43562 21.3394 3.60532 21.5091 3.60532 21.7636V25.3697C3.60532 26.1333 4.19926 26.7272 4.9629 26.7272H18.7932C19.5144 26.7272 20.1508 26.1333 20.1508 25.3697V24.606C20.1508 24.3515 20.3205 24.1818 20.575 24.1818C20.8296 24.1818 20.9993 24.3515 20.9993 24.606V25.4121C20.9568 26.6 19.9811 27.5757 18.7508 27.5757Z" fill="#222931"/>
</g>
<g id="Group_5">
<path id="Vector_4" d="M7.89063 25.0304C6.70275 25.0304 5.68457 24.0546 5.68457 22.8243V21.8486C5.68457 21.594 5.85427 21.4243 6.10881 21.4243C6.36336 21.4243 6.53306 21.594 6.53306 21.8486V22.8243C6.53306 23.5455 7.12699 24.1819 7.89063 24.1819C8.14518 24.1819 8.31487 24.3516 8.31487 24.6061C8.31487 24.8607 8.10275 25.0304 7.89063 25.0304Z" fill="#222931"/>
</g>
<g id="Group_6">
<path id="Vector_5" d="M7.63595 22.1877H2.16322C1.22989 22.1877 0.423828 21.4241 0.423828 20.4484V13.9574C0.423828 13.7029 0.593525 13.5332 0.848071 13.5332C1.10262 13.5332 1.27231 13.7029 1.27231 13.9574V20.4484C1.27231 20.915 1.65413 21.3393 2.16322 21.3393H7.63595C8.10262 21.3393 8.52686 20.9574 8.52686 20.4484V16.5877C8.52686 16.1211 8.14504 15.6968 7.63595 15.6968H2.20565C1.9511 15.6968 1.7814 15.5271 1.7814 15.2726C1.7814 15.0181 1.9511 14.8484 2.20565 14.8484H7.63595C8.56928 14.8484 9.37534 15.612 9.37534 16.5877V20.4484C9.33292 21.3817 8.56928 22.1877 7.63595 22.1877Z" fill="#222931"/>
</g>
<g id="Group_7">
<path id="Vector_6" d="M3.1814 15.6971H2.16322C1.18746 15.6971 0.423828 14.9334 0.423828 13.9577C0.423828 12.9819 1.18746 12.2183 2.16322 12.2183H3.1814C3.43595 12.2183 3.60565 12.388 3.60565 12.6425V15.2728C3.60565 15.5274 3.43595 15.6971 3.1814 15.6971ZM2.16322 13.1092C1.69656 13.1092 1.27231 13.491 1.27231 14.0001C1.27231 14.5092 1.65413 14.8486 2.16322 14.8486H2.75716V13.1092H2.16322Z" fill="#222931"/>
</g>
<g id="Group_8">
<path id="Vector_7" d="M22.6118 22.5272C22.5269 22.5272 22.4421 22.4848 22.3572 22.4424C19.6845 20.406 17.9875 17.3515 17.6481 14.0424C17.6057 13.8303 17.7754 13.6181 17.9875 13.5757C18.4542 13.4909 18.8784 13.406 19.3451 13.2787C20.4057 12.9818 21.4239 12.5575 22.3997 12.006C22.5269 11.9212 22.6966 11.9212 22.8239 12.006C23.7997 12.5575 24.8178 12.9818 25.8784 13.2787C26.3027 13.406 26.7694 13.4909 27.1936 13.5757C27.4057 13.6181 27.5754 13.8303 27.533 14.0424C27.1936 17.3515 25.4966 20.4484 22.8239 22.4424C22.7815 22.5272 22.6966 22.5272 22.6118 22.5272ZM18.5391 14.3394C18.9209 17.1818 20.3633 19.7697 22.6118 21.5515C24.8178 19.7697 26.3027 17.1394 26.6845 14.3394C26.3451 14.2545 26.0057 14.1697 25.6663 14.0848C24.6057 13.7878 23.5875 13.3636 22.6118 12.8545C21.636 13.3636 20.6178 13.7878 19.5572 14.0848C19.2178 14.2121 18.8784 14.2969 18.5391 14.3394Z" fill="#222931"/>
</g>
<g id="Group_9">
<g id="Group_10">
<g id="Group_11">
<g id="Group_12">
<path id="Vector_8" d="M12.8962 11.8365H9.75677C8.90828 11.8365 8.22949 11.1577 8.22949 10.3093V7.55169C8.22949 6.7032 8.90828 6.02441 9.75677 6.02441H12.8962C13.7446 6.02441 14.4234 6.7032 14.4234 7.55169V10.3093C14.381 11.1577 13.7022 11.8365 12.8962 11.8365ZM9.71434 6.91532C9.33252 6.91532 9.03555 7.21229 9.03555 7.59411V10.3517C9.03555 10.7335 9.33252 11.0305 9.71434 11.0305H12.8537C13.2356 11.0305 13.5325 10.7335 13.5325 10.3517V7.59411C13.5325 7.21229 13.2356 6.91532 12.8537 6.91532H9.71434Z" fill="#222931"/>
</g>
<g id="Group_13">
<path id="Vector_9" d="M13.1509 6.91539C12.8963 6.91539 12.7266 6.74569 12.7266 6.49115V5.0063C12.7266 4.24266 12.0902 3.6063 11.3266 3.6063C10.563 3.6063 9.92661 4.24266 9.92661 5.0063V6.4063C9.92661 6.66084 9.75691 6.83054 9.50237 6.83054C9.24782 6.83054 9.07812 6.66084 9.07812 6.4063V5.0063C9.07812 3.77599 10.0963 2.75781 11.3266 2.75781C12.5569 2.75781 13.5751 3.73357 13.5751 4.96387V6.44872C13.5751 6.70327 13.4054 6.91539 13.1509 6.91539Z" fill="#222931"/>
</g>
</g>
<g id="Group_14">
<path id="Vector_10" d="M11.2836 10.4367C11.0291 10.4367 10.8594 10.267 10.8594 10.0124V9.50334C10.8594 9.2488 11.0291 9.0791 11.2836 9.0791C11.5382 9.0791 11.7079 9.2488 11.7079 9.50334V10.0124C11.7079 10.2246 11.5382 10.4367 11.2836 10.4367Z" fill="#222931"/>
</g>
<g id="Group_15">
<path id="Vector_11" d="M11.2836 9.88503C10.6472 9.88503 10.0957 9.37594 10.0957 8.69716C10.0957 8.01837 10.6048 7.50928 11.2836 7.50928C11.9624 7.50928 12.4715 8.01837 12.4715 8.69716C12.4715 9.37594 11.9624 9.88503 11.2836 9.88503ZM11.2836 8.40019C11.1139 8.40019 10.9442 8.52746 10.9442 8.73958C10.9442 8.9517 11.0715 9.07897 11.2836 9.07897C11.4957 9.07897 11.623 8.9517 11.623 8.73958C11.623 8.52746 11.4957 8.40019 11.2836 8.40019Z" fill="#222931"/>
</g>
</g>
<g id="Group_16">
<path id="Vector_12" d="M15.8233 14.2972H9.62932C9.37478 14.2972 9.20508 14.1275 9.20508 13.873C9.20508 13.6184 9.37478 13.4487 9.62932 13.4487H15.8233C16.0778 13.4487 16.2475 13.6184 16.2475 13.873C16.2475 14.1275 16.0354 14.2972 15.8233 14.2972Z" fill="#222931"/>
</g>
<g id="Group_17">
<path id="Vector_13" d="M16.2476 17.097H11.1567C10.9021 17.097 10.7324 16.9273 10.7324 16.6728C10.7324 16.4182 10.9021 16.2485 11.1567 16.2485H16.2052C16.4597 16.2485 16.6294 16.4182 16.6294 16.6728C16.6294 16.9273 16.4597 17.097 16.2476 17.097Z" fill="#222931"/>
</g>
<g id="Group_18">
<path id="Vector_14" d="M17.3082 19.8973H11.1567C10.9021 19.8973 10.7324 19.7276 10.7324 19.4731C10.7324 19.2185 10.9021 19.0488 11.1567 19.0488H17.3082C17.5627 19.0488 17.7324 19.2185 17.7324 19.4731C17.7324 19.7276 17.5203 19.8973 17.3082 19.8973Z" fill="#222931"/>
</g>
<g id="Group_19">
<path id="Vector_15" d="M19.0476 22.6971H11.1567C10.9021 22.6971 10.7324 22.5274 10.7324 22.2729C10.7324 22.0183 10.9021 21.8486 11.1567 21.8486H19.0476C19.3021 21.8486 19.4718 22.0183 19.4718 22.2729C19.4718 22.5274 19.3021 22.6971 19.0476 22.6971Z" fill="#222931"/>
</g>
<g id="Group_20">
<g id="Group_21">
<path id="Vector_16" d="M18.6663 5.0062H16.3754C16.1209 5.0062 15.9512 4.8365 15.9512 4.58196C15.9512 4.32741 16.1209 4.15771 16.3754 4.15771H18.6663C18.9209 4.15771 19.0906 4.32741 19.0906 4.58196C19.0906 4.8365 18.8784 5.0062 18.6663 5.0062Z" fill="#222931"/>
</g>
<g id="Group_22">
<path id="Vector_17" d="M20.9572 7.72153H16.3754C16.1209 7.72153 15.9512 7.55183 15.9512 7.29729C15.9512 7.04274 16.1209 6.87305 16.3754 6.87305H20.9572C21.2118 6.87305 21.3815 7.04274 21.3815 7.29729C21.3815 7.55183 21.1694 7.72153 20.9572 7.72153Z" fill="#222931"/>
</g>
<g id="Group_23">
<path id="Vector_18" d="M20.9572 10.3939H16.3754C16.1209 10.3939 15.9512 10.2242 15.9512 9.96965C15.9512 9.71511 16.1209 9.54541 16.3754 9.54541H20.9572C21.2118 9.54541 21.3815 9.71511 21.3815 9.96965C21.3815 10.2242 21.1694 10.3939 20.9572 10.3939Z" fill="#222931"/>
</g>
</g>
</g>
<g id="Group_24">
<path id="Vector_19" d="M21.8906 18.4971C21.7633 18.4971 21.6784 18.4546 21.5936 18.3698L20.4906 17.2668C20.3209 17.0971 20.3209 16.8425 20.4906 16.6728C20.6603 16.5031 20.9148 16.5031 21.0845 16.6728L21.8906 17.4789L24.436 14.9334C24.6057 14.7637 24.8603 14.7637 25.0299 14.9334C25.1996 15.1031 25.1996 15.3577 25.0299 15.5274L22.1875 18.3698C22.1027 18.4546 22.0178 18.4971 21.8906 18.4971Z" fill="#222931"/>
</g>
</g>
</svg>
