<svg width="24" height="24" viewBox="0 0 24 24" fill="none" xmlns="http://www.w3.org/2000/svg">
<g clip-path="url(#clip0_10734_44287)">
<path d="M7.2001 24H16.8001C18.7883 24 20.4001 22.3883 20.4001 20.4C20.4001 18.4118 18.7883 16.8 16.8001 16.8H7.2001C5.21189 16.8 3.6001 18.4118 3.6001 20.4C3.6001 22.3883 5.21189 24 7.2001 24ZM7.2001 17.6001H16.8001C18.3465 17.6001 19.6001 18.8537 19.6001 20.4C19.6001 21.9464 18.3465 23.2 16.8001 23.2H7.2001C5.65369 23.2 4.40011 21.9465 4.40011 20.4C4.40011 18.8536 5.65369 17.6001 7.2001 17.6001Z" fill="black"/>
<path d="M22 8.40002H2.00002C0.895969 8.40134 0.0013125 9.29599 0 10.4V13.6001C0.0013125 14.7041 0.895969 15.5987 2.00002 15.6001H22C23.104 15.5988 23.9987 14.7041 24 13.6001V10.4C23.9987 9.29599 23.104 8.40134 22 8.40002ZM23.2 13.6C23.2 14.2627 22.6627 14.8 22 14.8H2.00002C1.3373 14.8 0.800016 14.2627 0.800016 13.6V10.4C0.800016 9.73723 1.3373 9.19999 2.00002 9.19999H22C22.6628 9.19999 23.2 9.73727 23.2 10.4L23.2 13.6Z" fill="black"/>
<path d="M22 0H2.00002C0.895969 0.0013125 0.0013125 0.895969 0 2.00002V5.20003C0.0013125 6.30403 0.895969 7.19869 2.00002 7.20005H22C23.104 7.19873 23.9987 6.30408 24 5.20003V2.00002C23.9987 0.895969 23.104 0.0013125 22 0ZM23.2 5.19998C23.2 5.8627 22.6627 6.39998 22 6.39998H2.00002C1.3373 6.39998 0.800016 5.8627 0.800016 5.19998V2.00002C0.800016 1.3373 1.3373 0.800016 2.00002 0.800016H22C22.6628 0.800016 23.2 1.3373 23.2 2.00002L23.2 5.19998Z" fill="black"/>
<path d="M6.00011 10H2.8001C2.13738 10 1.6001 10.5373 1.6001 11.2V12.8C1.6001 13.4627 2.13738 14 2.8001 14H6.00011C6.66288 14 7.20011 13.4627 7.20011 12.8V11.2C7.20011 10.5373 6.66288 10 6.00011 10ZM5.60013 10.8L4.64533 11.52C4.50002 11.6281 4.30132 11.629 4.15493 11.5224L3.20013 10.8H5.60013ZM6.00011 13.2H2.8001C2.57918 13.2 2.40011 13.021 2.40011 12.8V11.2L3.68013 12.16C4.10955 12.4788 4.69736 12.4779 5.12571 12.1577L6.4001 11.2V12.8C6.4001 13.021 6.22104 13.2 6.00011 13.2Z" fill="black"/>
<path d="M5.3522 3.52199C5.51185 3.31509 5.59885 3.06135 5.59979 2.79998C5.59979 2.13726 5.06251 1.59998 4.39979 1.59998C3.73707 1.59998 3.19979 2.13726 3.19979 2.79998C3.20115 3.06065 3.28815 3.31363 3.44738 3.51998C3.04074 3.81979 2.80041 4.29473 2.7998 4.79999C2.7998 5.24184 3.15798 5.60001 3.59982 5.60001H5.1998C5.64165 5.60001 5.99982 5.24184 5.99982 4.79999C5.99851 4.29548 5.75827 3.82138 5.3522 3.52199ZM3.99976 2.79998C3.99976 2.57905 4.17887 2.39999 4.39974 2.39999C4.62066 2.39999 4.79973 2.5791 4.79973 2.79998C4.79973 3.02085 4.62062 3.19996 4.39974 3.19996C4.17887 3.20001 3.99976 3.0209 3.99976 2.79998ZM3.59977 4.79999C3.59977 4.35815 3.95795 3.99998 4.39979 3.99998C4.84163 3.99998 5.1998 4.35815 5.1998 4.79999H3.59977Z" fill="black"/>
<path fill-rule="evenodd" clip-rule="evenodd" d="M8.79989 11.6H10.7999C11.0208 11.6 11.1999 11.4209 11.1999 11.2C11.1999 10.9791 11.0208 10.8 10.7999 10.8H8.79989C8.57897 10.8 8.3999 10.9792 8.3999 11.2C8.3999 11.4209 8.57901 11.6 8.79989 11.6Z" fill="black"/>
<path fill-rule="evenodd" clip-rule="evenodd" d="M21.1999 12.4H8.79989C8.57897 12.4 8.3999 12.5791 8.3999 12.8C8.3999 13.0209 8.57901 13.2 8.79989 13.2H21.1999C21.4208 13.2 21.5999 13.0209 21.5999 12.8C21.5999 12.5791 21.4208 12.4 21.1999 12.4Z" fill="black"/>
<path fill-rule="evenodd" clip-rule="evenodd" d="M8.79989 3.20004H10.7999C11.0208 3.20004 11.1999 3.02093 11.1999 2.80006C11.1999 2.57918 11.0208 2.40002 10.7999 2.40002H8.79989C8.57897 2.40002 8.3999 2.57913 8.3999 2.80001C8.3999 3.02088 8.57901 3.20004 8.79989 3.20004Z" fill="black"/>
<path fill-rule="evenodd" clip-rule="evenodd" d="M21.1999 4H8.79989C8.57897 4 8.3999 4.17911 8.3999 4.39998C8.3999 4.62091 8.57901 4.79997 8.79989 4.79997H21.1999C21.4208 4.79997 21.5999 4.62086 21.5999 4.39998C21.5999 4.17911 21.4208 4 21.1999 4Z" fill="black"/>
<path fill-rule="evenodd" clip-rule="evenodd" d="M10.5173 21.8829C10.658 22.0236 10.8809 22.0395 11.0401 21.9201L14.2401 19.5201C14.4168 19.3875 14.4526 19.1368 14.3201 18.9601C14.1876 18.7833 13.9369 18.7475 13.7601 18.88L10.8377 21.0721L10.2829 20.5173C10.1259 20.3657 9.87641 20.3678 9.72215 20.5221C9.56784 20.6764 9.56568 20.9259 9.71727 21.0828L10.5173 21.8829Z" fill="black"/>
</g>
<defs>
<clipPath id="clip0_10734_44287">
<rect width="24" height="24" fill="white"/>
</clipPath>
</defs>
</svg>
