<svg width="16" height="16" viewBox="0 0 16 16" fill="none" xmlns="http://www.w3.org/2000/svg">
<g clip-path="url(#clip0_2212_118669)">
<path d="M10.8234 0.940559C10.1673 0.940559 9.61429 1.39056 9.4567 1.99812L4.1589 3.76405H1.41175C0.633311 3.76409 0 4.3974 0 5.17583V7.99933C0 8.77776 0.633311 9.41107 1.41175 9.41107H1.43031L1.91303 13.9248C1.97937 14.5426 2.73862 15.2418 3.63652 15.016C4.37868 14.8306 4.83662 14.0853 4.67284 13.3424L4.57037 12.2331C4.58021 12.2337 4.58999 12.2346 4.59996 12.2346H5.1764C5.95483 12.2346 6.58814 11.6013 6.58814 10.8228V10.2208L9.45667 11.177C9.61423 11.7846 10.1672 12.2346 10.8234 12.2346C11.6019 12.2346 12.2352 11.6013 12.2352 10.8228V2.35234C12.2352 1.57387 11.6019 0.940559 10.8234 0.940559ZM3.40771 14.1031C3.16718 14.1636 2.9194 14.0257 2.84481 13.7866L2.37687 9.41111H3.36462C3.76474 13.7438 3.73781 13.4803 3.75065 13.5319C3.81356 13.7839 3.66006 14.0401 3.40771 14.1031ZM3.76468 8.46992C3.34734 8.46992 1.71172 8.46992 1.41175 8.46992C1.15228 8.46992 0.941155 8.25883 0.941155 7.99933V5.17583C0.941155 4.91636 1.15225 4.70524 1.41175 4.70524H3.76468V8.46992ZM5.64702 10.8229C5.64702 11.0823 5.43593 11.2934 5.17643 11.2934H4.59999C4.56024 11.2934 4.52184 11.2989 4.48499 11.3082L4.31459 9.46301L5.64702 9.90714V10.8229ZM9.4117 10.1699L4.70587 8.60133V4.57383L9.4117 3.00521V10.1699ZM11.294 10.8229C11.294 11.0823 11.0829 11.2934 10.8234 11.2934C10.564 11.2934 10.3529 11.0824 10.3529 10.8229V2.35234C10.3529 2.09287 10.5639 1.88175 10.8234 1.88175C11.0829 1.88175 11.294 2.09284 11.294 2.35234V10.8229Z" fill="#FA981C"/>
<path d="M15.5297 5.64643H13.6474C13.3875 5.64643 13.1768 5.85711 13.1768 6.11702C13.1768 6.37689 13.3874 6.58761 13.6474 6.58761H15.5297C15.7896 6.58761 16.0003 6.37693 16.0003 6.11702C16.0003 5.85711 15.7896 5.64643 15.5297 5.64643Z" fill="#FA981C"/>
<path d="M15.9507 3.08306C15.8345 2.85059 15.5518 2.75637 15.3193 2.87262L13.437 3.81377C13.2045 3.93002 13.1103 4.21268 13.2266 4.44515C13.3429 4.67774 13.6256 4.7718 13.8579 4.65559L15.7403 3.71443C15.9727 3.59818 16.0669 3.31553 15.9507 3.08306Z" fill="#FA981C"/>
<path d="M15.7393 8.51961L13.8569 7.57845C13.6245 7.4622 13.3418 7.55642 13.2256 7.78889C13.1093 8.02136 13.2036 8.30398 13.436 8.42026L15.3183 9.36142C15.5508 9.4777 15.8335 9.38339 15.9497 9.15098C16.0659 8.91851 15.9717 8.63586 15.7393 8.51961Z" fill="#FA981C"/>
</g>
<defs>
<clipPath id="clip0_2212_118669">
<rect width="16" height="16" fill="white"/>
</clipPath>
</defs>
</svg>
