<svg width="53" height="52" viewBox="0 0 53 52" fill="none" xmlns="http://www.w3.org/2000/svg">
<g clip-path="url(#clip0_10550_10510)">
<path d="M18.5036 25.1756H22.1386C22.7786 25.1756 23.2994 24.6548 23.2994 24.0146V19.9953C23.2994 19.3553 22.7786 18.8345 22.1386 18.8345H18.5036C17.8636 18.8345 17.3428 19.3553 17.3428 19.9953V24.0146C17.3428 24.6548 17.8636 25.1756 18.5036 25.1756ZM18.2178 19.9953C18.2178 19.8404 18.3485 19.7095 18.5036 19.7095H22.1386C22.2937 19.7095 22.4244 19.8404 22.4244 19.9953V24.0146C22.4244 24.1697 22.2937 24.3006 22.1386 24.3006H18.5036C18.3485 24.3006 18.2178 24.1697 18.2178 24.0146V19.9953Z" fill="#222931"/>
<path d="M24.8008 19.9099H29.6714C29.9132 19.9099 30.1089 19.714 30.1089 19.4724C30.1089 19.2308 29.9132 19.0349 29.6714 19.0349H24.8008C24.559 19.0349 24.3633 19.2308 24.3633 19.4724C24.3633 19.714 24.559 19.9099 24.8008 19.9099Z" fill="#222931"/>
<path d="M24.8008 22.5427H29.6714C29.9132 22.5427 30.1089 22.3468 30.1089 22.1052C30.1089 21.8636 29.9132 21.6677 29.6714 21.6677H24.8008C24.559 21.6677 24.3633 21.8636 24.3633 22.1052C24.3633 22.3468 24.559 22.5427 24.8008 22.5427Z" fill="#222931"/>
<path d="M39.8137 36.9038L37.228 33.5964C37.1127 33.4486 36.9465 33.3546 36.7598 33.3318C36.5722 33.3089 36.3885 33.3598 36.2411 33.4753L35.862 33.7719L35.3516 33.1197C36.3605 32.0823 36.9439 30.7295 36.9906 29.2733C37.0406 27.7256 36.4847 26.2516 35.4256 25.1224C34.541 24.1796 33.4118 23.6054 32.2276 23.3927V16.3252C32.2276 15.5948 31.6333 15.0008 30.9032 15.0008H29.9765V14.1535C29.9765 13.4232 29.3822 12.8291 28.652 12.8291H14.1618C13.4317 12.8291 12.8374 13.4231 12.8374 14.1535V32.9534C12.8374 33.6838 13.4317 34.2779 14.1618 34.2779H15.0886V35.1266C15.0886 35.8561 15.6829 36.4496 16.413 36.4496H30.9031C31.6332 36.4496 32.2275 35.8561 32.2275 35.1266V34.7904C33.124 34.6304 33.9661 34.2595 34.6976 33.7034L35.173 34.3108L34.7927 34.6083C34.4881 34.8465 34.4334 35.2883 34.6718 35.5938L37.2592 38.9017C37.3976 39.0781 37.6044 39.1706 37.8133 39.1705C37.9641 39.1705 38.1167 39.122 38.2444 39.022L39.6924 37.8891C39.9974 37.651 40.0521 37.209 39.8137 36.9038ZM14.1618 33.4029C13.914 33.4029 13.7124 33.2012 13.7124 32.9534V14.1535C13.7124 13.9057 13.914 13.7041 14.1618 13.7041H28.6519C28.8997 13.7041 29.1013 13.9057 29.1013 14.1535V15.0007H16.413C15.6829 15.0007 15.0886 15.5948 15.0886 16.3252V33.4028L14.1618 33.4029ZM31.3525 35.1266C31.3525 35.3736 31.1509 35.5746 30.9031 35.5746H16.413C16.1652 35.5746 15.9636 35.3735 15.9636 35.1266V16.3252C15.9636 16.0774 16.1652 15.8758 16.413 15.8758H30.9031C31.1509 15.8758 31.3525 16.0774 31.3525 16.3252V23.2977C30.1638 23.2657 28.968 23.602 27.9414 24.3006H24.8007C24.5589 24.3006 24.3632 24.4965 24.3632 24.7381C24.3632 24.9797 24.5589 25.1756 24.8007 25.1756H26.9248C26.4414 25.703 26.0713 26.2992 25.8188 26.9335H17.7802C17.5384 26.9335 17.3427 27.1294 17.3427 27.371C17.3427 27.6126 17.5384 27.8085 17.7802 27.8085H25.5511C25.4217 28.3855 25.3828 28.9782 25.4315 29.5665H17.7802C17.5384 29.5665 17.3427 29.7624 17.3427 30.004C17.3427 30.2455 17.5384 30.4415 17.7802 30.4415H25.5699C25.7167 31.0547 25.9617 31.6499 26.3117 32.1992H17.7802C17.5384 32.1992 17.3427 32.3951 17.3427 32.6367C17.3427 32.8782 17.5384 33.0742 17.7802 33.0742H26.9924C28.0494 34.1892 29.4747 34.8311 31.0116 34.8805C31.1267 34.884 31.2373 34.8795 31.3526 34.8765C31.3525 34.9599 31.3525 35.0432 31.3525 35.1266ZM31.0398 34.0059C29.726 33.9636 28.5071 33.4125 27.6081 32.4537C25.7517 30.4745 25.8522 27.3541 27.8312 25.4977C28.7506 24.6356 29.9392 24.1662 31.1936 24.1662C31.2474 24.1662 31.3013 24.1671 31.3555 24.1688C32.6693 24.2111 33.8882 24.7622 34.7872 25.721C36.6436 27.7002 36.5432 30.8206 34.5637 32.677C33.6054 33.5764 32.36 34.0459 31.0398 34.0059ZM37.8415 38.2261L35.4677 35.1911L36.6444 34.2706L39.0178 37.3062L37.8415 38.2261Z" fill="#222931"/>
<path d="M34.0629 26.3999C32.5807 24.8206 30.0908 24.7411 28.5116 26.2223C26.9313 27.703 26.8514 30.194 28.3326 31.7751C29.1042 32.5975 30.1501 33.0132 31.1982 33.0132C32.162 33.0132 33.128 32.6618 33.8855 31.9524C35.4643 30.4709 35.5437 27.98 34.0629 26.3999ZM33.287 31.3141C32.0582 32.4661 30.1224 32.4037 28.971 31.1767C27.8196 29.9477 27.8819 28.0116 29.1098 26.8607C29.6978 26.3089 30.4484 26.0358 31.1974 26.0358C32.0117 26.0358 32.8247 26.3591 33.4246 26.9982C34.5756 28.2266 34.5136 30.1628 33.287 31.3141Z" fill="#222931"/>
<path d="M33.5317 28.5653C33.2582 27.3111 32.0145 26.5141 30.7601 26.7873C30.5239 26.8388 30.3743 27.0719 30.4256 27.3079C30.4773 27.5437 30.711 27.6928 30.9464 27.6422C31.7338 27.4718 32.5063 27.9697 32.6772 28.752C32.7216 28.9566 32.9028 29.0963 33.104 29.0961C33.1348 29.0961 33.1664 29.0929 33.1976 29.0861C33.4338 29.0346 33.5833 28.8013 33.5317 28.5653Z" fill="#222931"/>
</g>
<rect x="0.899902" y="0.5" width="51" height="51" rx="25.5" stroke="#222931"/>
<defs>
<clipPath id="clip0_10550_10510">
<rect width="28" height="28" fill="white" transform="translate(12.3999 12)"/>
</clipPath>
</defs>
</svg>
