<svg width="28" height="28" viewBox="0 0 28 28" fill="none" xmlns="http://www.w3.org/2000/svg">
<g id="Group">
<path id="Vector" d="M21.875 9.1875C20.1867 9.1875 18.8125 10.5617 18.8125 12.25C18.8125 13.9383 20.1867 15.3125 21.875 15.3125C23.5633 15.3125 24.9375 13.9383 24.9375 12.25C24.9375 10.5617 23.5633 9.1875 21.875 9.1875ZM21.875 14.4375C20.6688 14.4375 19.6875 13.4562 19.6875 12.25C19.6875 11.0438 20.6688 10.0625 21.875 10.0625C23.0812 10.0625 24.0625 11.0438 24.0625 12.25C24.0625 13.4562 23.0812 14.4375 21.875 14.4375Z" fill="#222931"/>
<path id="Vector_2" d="M21.875 10.9375C21.1514 10.9375 20.5625 11.5264 20.5625 12.25C20.5625 12.9736 21.1514 13.5625 21.875 13.5625C22.5986 13.5625 23.1875 12.9736 23.1875 12.25C23.1875 11.5264 22.5986 10.9375 21.875 10.9375ZM21.875 12.6875C21.6335 12.6875 21.4375 12.4915 21.4375 12.25C21.4375 12.0085 21.6335 11.8125 21.875 11.8125C22.1165 11.8125 22.3125 12.0085 22.3125 12.25C22.3125 12.4915 22.1165 12.6875 21.875 12.6875Z" fill="#222931"/>
<path id="Vector_3" d="M26.6372 10.7542C26.5046 10.7104 26.4018 10.6159 26.3541 10.493C26.3314 10.4352 26.3086 10.3784 26.2837 10.3219C26.2321 10.2029 26.2382 10.0634 26.3003 9.94C26.5633 9.42025 26.4631 8.79463 26.0514 8.38206L25.7429 8.07363C25.3317 7.6615 24.7052 7.56044 24.1854 7.82469C24.0625 7.88725 23.9225 7.89338 23.8026 7.84088C23.7466 7.81638 23.6898 7.79362 23.6316 7.77087C23.5095 7.72319 23.4146 7.61994 23.3708 7.48781C23.1892 6.93437 22.6756 6.5625 22.0929 6.5625H21.6571C21.0744 6.5625 20.5608 6.93481 20.3792 7.48781C20.3354 7.62037 20.2409 7.72319 20.118 7.77087C20.0603 7.79362 20.0034 7.81638 19.9469 7.84131C19.8279 7.89206 19.6884 7.88681 19.565 7.82469C19.0452 7.56219 18.4192 7.66237 18.0071 8.07363L17.7691 8.3125H15.3125V1.75C15.3125 1.02637 14.7236 0.4375 14 0.4375H1.75C1.02637 0.4375 0.4375 1.02637 0.4375 1.75V10.5C0.4375 11.2236 1.02637 11.8125 1.75 11.8125H3.0625V22.75C3.0625 23.9562 4.04381 24.9375 5.25 24.9375H10.5V26.6875H7.875V27.5625H19.25V26.6875H16.625V24.9375H21.875C23.0812 24.9375 24.0625 23.9562 24.0625 22.75V16.6425C24.1036 16.6508 24.1456 16.6552 24.1846 16.6749C24.7043 16.9374 25.3304 16.8372 25.7425 16.4259L26.0514 16.1175C26.4626 15.7054 26.5628 15.0793 26.2999 14.56C26.2373 14.4362 26.2316 14.2966 26.2837 14.1772C26.3082 14.1212 26.3309 14.0643 26.3537 14.0061C26.4014 13.8841 26.5046 13.7891 26.6367 13.7454C27.1906 13.5642 27.5625 13.0506 27.5625 12.4679V12.0321C27.5625 11.4494 27.1902 10.9358 26.6372 10.7542ZM17.1128 13.7458C17.2454 13.7896 17.3482 13.8841 17.3959 14.007C17.4186 14.0647 17.4414 14.1216 17.4663 14.1781C17.5179 14.2971 17.5118 14.4366 17.4497 14.56C17.1867 15.0797 17.2869 15.7054 17.6986 16.1179L18.0071 16.4268C18.4183 16.8381 19.0444 16.9383 19.5646 16.6753C19.6879 16.6136 19.8279 16.6071 19.9474 16.6591C20.0034 16.6836 20.0602 16.7064 20.1184 16.7291C20.2405 16.7768 20.3354 16.8801 20.3792 17.0122C20.5376 17.4952 20.9484 17.8391 21.4375 17.9196V20.5625H5.6875V11.8125H14C14.5696 11.8125 15.0509 11.4454 15.232 10.9375H16.7528C16.4045 11.1847 16.1875 11.5876 16.1875 12.0321V12.4679C16.1875 13.0506 16.5598 13.5642 17.1128 13.7458ZM17.3162 9.1875C17.2887 9.44038 17.3294 9.70113 17.4501 9.94C17.4698 9.97937 17.4742 10.0214 17.4825 10.0625H15.3125V9.1875H17.3162ZM1.75 1.3125H14C14.2415 1.3125 14.4375 1.5085 14.4375 1.75V3.9375H1.3125V1.75C1.3125 1.5085 1.5085 1.3125 1.75 1.3125ZM1.3125 10.5V4.8125H14.4375V10.5C14.4375 10.7415 14.2415 10.9375 14 10.9375H1.75C1.5085 10.9375 1.3125 10.7415 1.3125 10.5ZM15.75 26.6875H11.375V24.9375H15.75V26.6875ZM21.875 24.0625H13.5625H5.25C4.52637 24.0625 3.9375 23.4736 3.9375 22.75V11.8125H4.8125V20.5625C4.8125 21.0451 5.20494 21.4375 5.6875 21.4375H13.5625H21.4375C21.9201 21.4375 22.3125 21.0451 22.3125 20.5625V17.9191C22.6682 17.8605 22.9814 17.6619 23.1875 17.3722V22.75C23.1875 23.4736 22.5986 24.0625 21.875 24.0625ZM26.6875 12.4679C26.6875 12.6718 26.5576 12.8511 26.3637 12.9146C25.9823 13.0401 25.6812 13.3228 25.5386 13.6894C25.5203 13.7366 25.5006 13.7834 25.4809 13.8294C25.3251 14.1877 25.3391 14.5981 25.5189 14.9546C25.6108 15.1362 25.5758 15.3549 25.4323 15.4989L25.1239 15.8069C24.9804 15.9513 24.7616 15.9858 24.5792 15.8939C24.2235 15.7141 23.8127 15.7001 23.4548 15.8554C23.4084 15.8756 23.3616 15.8953 23.3148 15.9136C22.9478 16.0563 22.6656 16.3577 22.54 16.7396C22.4761 16.9326 22.2968 17.0625 22.0929 17.0625H21.6571C21.4532 17.0625 21.2739 16.9326 21.2104 16.7387C21.0849 16.3572 20.8022 16.0563 20.4356 15.9136C20.3884 15.8953 20.3416 15.8756 20.2956 15.8559C20.1302 15.7841 19.9539 15.7482 19.7767 15.7482C19.5698 15.7482 19.3624 15.7968 19.1699 15.8939C18.9888 15.9858 18.7701 15.9508 18.6257 15.8073L18.3177 15.4989C18.1737 15.3549 18.1388 15.1362 18.2306 14.9542C18.4104 14.5981 18.4244 14.1877 18.2691 13.8298C18.249 13.7834 18.2293 13.7366 18.2109 13.6898C18.0683 13.3228 17.7669 13.0406 17.3849 12.915C17.1924 12.8511 17.0625 12.6718 17.0625 12.4679V12.0321C17.0625 11.8282 17.1924 11.6489 17.3863 11.5854C17.7677 11.4599 18.0688 11.1772 18.2114 10.8106C18.2297 10.7634 18.2494 10.7166 18.2691 10.6706C18.4249 10.3123 18.4109 9.90194 18.2311 9.54538C18.1392 9.36381 18.1742 9.14506 18.3177 9.00112L18.6261 8.69269C18.7701 8.54919 18.9893 8.51462 19.1708 8.60606C19.5269 8.78587 19.9377 8.80031 20.2952 8.64456C20.3416 8.62444 20.3884 8.60475 20.4352 8.58637C20.8022 8.44375 21.0844 8.14231 21.21 7.76038C21.2739 7.56744 21.4532 7.4375 21.6571 7.4375H22.0929C22.2968 7.4375 22.4761 7.56744 22.5396 7.76125C22.6651 8.14275 22.9478 8.44375 23.3144 8.58637C23.3616 8.60475 23.4084 8.62444 23.4544 8.64412C23.8131 8.79987 24.2231 8.78587 24.5796 8.60606C24.7616 8.51375 24.9804 8.54962 25.1239 8.69269L25.4319 9.00112C25.5758 9.14506 25.6108 9.36381 25.5189 9.54581C25.3391 9.90194 25.3251 10.3123 25.4804 10.6702C25.5006 10.7166 25.5203 10.7634 25.5386 10.8102C25.6812 11.1772 25.9827 11.4594 26.3646 11.585C26.5576 11.6489 26.6875 11.8282 26.6875 12.0321V12.4679Z" fill="#222931"/>
<path id="Vector_4" d="M5.6875 2.1875H6.5625V3.0625H5.6875V2.1875Z" fill="#222931"/>
<path id="Vector_5" d="M2.1875 2.1875H3.0625V3.0625H2.1875V2.1875Z" fill="#222931"/>
<path id="Vector_6" d="M3.9375 2.1875H4.8125V3.0625H3.9375V2.1875Z" fill="#222931"/>
<path id="Vector_7" d="M14.875 22.75C14.875 22.0264 14.2861 21.4375 13.5625 21.4375C12.8389 21.4375 12.25 22.0264 12.25 22.75C12.25 23.4736 12.8389 24.0625 13.5625 24.0625C14.2861 24.0625 14.875 23.4736 14.875 22.75ZM13.5625 23.1875C13.321 23.1875 13.125 22.9915 13.125 22.75C13.125 22.5085 13.321 22.3125 13.5625 22.3125C13.804 22.3125 14 22.5085 14 22.75C14 22.9915 13.804 23.1875 13.5625 23.1875Z" fill="#222931"/>
<path id="Vector_8" d="M6.5625 12.6875H15.3125V13.5625H6.5625V12.6875Z" fill="#222931"/>
<path id="Vector_9" d="M6.5625 14.4375H15.3125V15.3125H6.5625V14.4375Z" fill="#222931"/>
<path id="Vector_10" d="M6.25293 16.497L7.69362 17.9377L6.25293 19.3784L6.87155 19.997L8.93087 17.9377L6.87155 15.8784L6.25293 16.497Z" fill="#222931"/>
<path id="Vector_11" d="M9.1875 18.8125H12.6875V19.6875H9.1875V18.8125Z" fill="#222931"/>
<path id="Vector_12" d="M2.1875 5.6875H3.9375V6.5625H2.1875V5.6875Z" fill="#222931"/>
<path id="Vector_13" d="M4.8125 5.6875H9.1875V6.5625H4.8125V5.6875Z" fill="#222931"/>
<path id="Vector_14" d="M10.0625 10.0625H13.5625V5.6875H10.0625V10.0625ZM10.9375 6.5625H12.6875V9.1875H10.9375V6.5625Z" fill="#222931"/>
<path id="Vector_15" d="M2.1875 7.4375H9.1875V8.3125H2.1875V7.4375Z" fill="#222931"/>
<path id="Vector_16" d="M7.4375 9.1875H9.1875V10.0625H7.4375V9.1875Z" fill="#222931"/>
<path id="Vector_17" d="M5.6875 9.1875H6.5625V10.0625H5.6875V9.1875Z" fill="#222931"/>
<path id="Vector_18" d="M2.1875 9.1875H4.8125V10.0625H2.1875V9.1875Z" fill="#222931"/>
</g>
</svg>
