<svg width="17" height="16" viewBox="0 0 17 16" fill="none" xmlns="http://www.w3.org/2000/svg">
<g clip-path="url(#clip0_7804_81673)">
<path d="M9.86945 12.3844H3.84139C3.76717 12.3844 3.69537 12.358 3.63885 12.3099C3.58233 12.2618 3.54476 12.1952 3.53289 12.1219L2.02795 2.80943C2.02071 2.76474 2.02326 2.71902 2.03543 2.67541C2.0476 2.63181 2.0691 2.59137 2.09844 2.5569C2.12778 2.52242 2.16426 2.49473 2.20536 2.47575C2.24645 2.45676 2.29118 2.44693 2.33645 2.44693H4.81733C4.90021 2.44693 4.97969 2.47985 5.0383 2.53846C5.0969 2.59706 5.12983 2.67655 5.12983 2.75943C5.12983 2.84231 5.0969 2.9218 5.0383 2.9804C4.97969 3.03901 4.90021 3.07193 4.81733 3.07193H2.70389L4.10776 11.7594H9.86976C9.95264 11.7594 10.0321 11.7924 10.0907 11.851C10.1493 11.9096 10.1823 11.989 10.1823 12.0719C10.1823 12.1548 10.1493 12.2343 10.0907 12.2929C10.0321 12.3515 9.95264 12.3844 9.86976 12.3844H9.86945Z" fill="#DC3545"/>
<path d="M15.828 8.38325C15.7539 8.38317 15.6822 8.35672 15.6257 8.30863C15.5693 8.26054 15.5318 8.19395 15.5199 8.12075L14.704 3.07169H12.2754C12.1925 3.07169 12.113 3.03876 12.0544 2.98016C11.9958 2.92155 11.9629 2.84207 11.9629 2.75919C11.9629 2.67631 11.9958 2.59682 12.0544 2.53821C12.113 2.47961 12.1925 2.44669 12.2754 2.44669H14.9701C15.0443 2.44668 15.1161 2.47309 15.1726 2.52118C15.2291 2.56928 15.2667 2.63592 15.2786 2.70919L16.1369 8.02062C16.1441 8.06533 16.1415 8.11107 16.1293 8.15468C16.1171 8.19829 16.0955 8.23872 16.0662 8.27319C16.0368 8.30766 16.0003 8.33534 15.9592 8.35432C15.918 8.3733 15.8733 8.38313 15.828 8.38312V8.38325Z" fill="#DC3545"/>
<path d="M11.1021 3.07287L9.13281 3.07169C9.04993 3.07169 8.97045 3.03876 8.91184 2.98016C8.85324 2.92155 8.82031 2.84207 8.82031 2.75919C8.82031 2.67631 8.85324 2.59682 8.91184 2.53821C8.97045 2.47961 9.04993 2.44669 9.13281 2.44669L11.1022 2.44787C11.1851 2.44787 11.2646 2.4808 11.3232 2.5394C11.3818 2.59801 11.4147 2.67749 11.4147 2.76037C11.4147 2.84325 11.3818 2.92274 11.3232 2.98134C11.2646 3.03995 11.1851 3.07287 11.1022 3.07287H11.1021Z" fill="#DC3545"/>
<path d="M7.9598 3.07169H5.99023C5.90735 3.07169 5.82787 3.03876 5.76926 2.98016C5.71066 2.92155 5.67773 2.84207 5.67773 2.75919C5.67773 2.67631 5.71066 2.59682 5.76926 2.53821C5.82787 2.47961 5.90735 2.44669 5.99023 2.44669H7.9598C8.04268 2.44669 8.12216 2.47961 8.18077 2.53821C8.23937 2.59682 8.2723 2.67631 8.2723 2.75919C8.2723 2.84207 8.23937 2.92155 8.18077 2.98016C8.12216 3.03876 8.04268 3.07169 7.9598 3.07169Z" fill="#DC3545"/>
<path d="M3.63824 11.1283H1.24124C1.19665 11.1283 1.15257 11.1188 1.11197 11.1003C1.07137 11.0819 1.03518 11.055 1.00585 11.0214C0.976513 10.9878 0.954705 10.9483 0.941891 10.9056C0.929077 10.8629 0.925552 10.8179 0.931555 10.7737L2.02668 2.71831C2.0322 2.67764 2.04567 2.63845 2.06633 2.60299C2.087 2.56753 2.11444 2.53648 2.1471 2.51163C2.17977 2.48677 2.217 2.4686 2.25669 2.45814C2.29638 2.44768 2.33774 2.44513 2.37841 2.45066C2.41908 2.45618 2.45826 2.46966 2.49372 2.49033C2.52917 2.511 2.56021 2.53845 2.58506 2.57112C2.60991 2.60379 2.62808 2.64103 2.63854 2.68071C2.64899 2.7204 2.65152 2.76176 2.64599 2.80243L1.59912 10.5033H3.63824C3.72112 10.5033 3.80061 10.5362 3.85921 10.5948C3.91782 10.6534 3.95074 10.7329 3.95074 10.8158C3.95074 10.8987 3.91782 10.9782 3.85921 11.0368C3.80061 11.0954 3.72112 11.1283 3.63824 11.1283Z" fill="#DC3545"/>
<path d="M5.53127 5.80368H5.09814C5.01526 5.80368 4.93578 5.77076 4.87717 5.71215C4.81857 5.65355 4.78564 5.57406 4.78564 5.49118C4.78564 5.4083 4.81857 5.32881 4.87717 5.27021C4.93578 5.2116 5.01526 5.17868 5.09814 5.17868H5.53127C5.61415 5.17868 5.69364 5.2116 5.75224 5.27021C5.81085 5.32881 5.84377 5.4083 5.84377 5.49118C5.84377 5.57406 5.81085 5.65355 5.75224 5.71215C5.69364 5.77076 5.61415 5.80368 5.53127 5.80368Z" fill="#DC3545"/>
<path d="M7.50051 5.80368H7.06738C6.9845 5.80368 6.90502 5.77076 6.84641 5.71215C6.78781 5.65355 6.75488 5.57406 6.75488 5.49118C6.75488 5.4083 6.78781 5.32881 6.84641 5.27021C6.90502 5.2116 6.9845 5.17868 7.06738 5.17868H7.50051C7.58339 5.17868 7.66287 5.2116 7.72148 5.27021C7.78008 5.32881 7.81301 5.4083 7.81301 5.49118C7.81301 5.57406 7.78008 5.65355 7.72148 5.71215C7.66287 5.77076 7.58339 5.80368 7.50051 5.80368Z" fill="#DC3545"/>
<path d="M9.46975 5.80368H9.03662C8.95374 5.80368 8.87426 5.77076 8.81565 5.71215C8.75705 5.65355 8.72412 5.57406 8.72412 5.49118C8.72412 5.4083 8.75705 5.32881 8.81565 5.27021C8.87426 5.2116 8.95374 5.17868 9.03662 5.17868H9.46975C9.55263 5.17868 9.63211 5.2116 9.69072 5.27021C9.74932 5.32881 9.78225 5.4083 9.78225 5.49118C9.78225 5.57406 9.74932 5.65355 9.69072 5.71215C9.63211 5.77076 9.55263 5.80368 9.46975 5.80368Z" fill="#DC3545"/>
<path d="M11.439 5.80368H11.0059C10.923 5.80368 10.8435 5.77076 10.7849 5.71215C10.7263 5.65355 10.6934 5.57406 10.6934 5.49118C10.6934 5.4083 10.7263 5.32881 10.7849 5.27021C10.8435 5.2116 10.923 5.17868 11.0059 5.17868H11.439C11.5219 5.17868 11.6014 5.2116 11.66 5.27021C11.7186 5.32881 11.7515 5.4083 11.7515 5.49118C11.7515 5.57406 11.7186 5.65355 11.66 5.71215C11.6014 5.77076 11.5219 5.80368 11.439 5.80368Z" fill="#DC3545"/>
<path d="M13.4082 5.80368H12.9751C12.8922 5.80368 12.8127 5.77076 12.7541 5.71215C12.6955 5.65355 12.6626 5.57406 12.6626 5.49118C12.6626 5.4083 12.6955 5.32881 12.7541 5.27021C12.8127 5.2116 12.8922 5.17868 12.9751 5.17868H13.4082C13.4911 5.17868 13.5706 5.2116 13.6292 5.27021C13.6878 5.32881 13.7207 5.4083 13.7207 5.49118C13.7207 5.57406 13.6878 5.65355 13.6292 5.71215C13.5706 5.77076 13.4911 5.80368 13.4082 5.80368Z" fill="#E82C2A"/>
<path d="M5.83596 7.72806H5.40283C5.31995 7.72806 5.24047 7.69513 5.18186 7.63653C5.12326 7.57792 5.09033 7.49844 5.09033 7.41556C5.09033 7.33268 5.12326 7.25319 5.18186 7.19459C5.24047 7.13598 5.31995 7.10306 5.40283 7.10306H5.83596C5.91884 7.10306 5.99832 7.13598 6.05693 7.19459C6.11553 7.25319 6.14846 7.33268 6.14846 7.41556C6.14846 7.49844 6.11553 7.57792 6.05693 7.63653C5.99832 7.69513 5.91884 7.72806 5.83596 7.72806Z" fill="#E82C2A"/>
<path d="M7.80562 7.72806H7.37256C7.28968 7.72806 7.21019 7.69513 7.15159 7.63653C7.09298 7.57792 7.06006 7.49844 7.06006 7.41556C7.06006 7.33268 7.09298 7.25319 7.15159 7.19459C7.21019 7.13598 7.28968 7.10306 7.37256 7.10306H7.80568C7.88856 7.10306 7.96805 7.13598 8.02665 7.19459C8.08526 7.25319 8.11818 7.33268 8.11818 7.41556C8.11818 7.49844 8.08526 7.57792 8.02665 7.63653C7.96805 7.69513 7.8885 7.72806 7.80562 7.72806Z" fill="#E82C2A"/>
<path d="M9.77492 7.72806H9.3418C9.25892 7.72806 9.17943 7.69513 9.12083 7.63653C9.06222 7.57792 9.0293 7.49844 9.0293 7.41556C9.0293 7.33268 9.06222 7.25319 9.12083 7.19459C9.17943 7.13598 9.25892 7.10306 9.3418 7.10306H9.77492C9.8578 7.10306 9.93729 7.13598 9.99589 7.19459C10.0545 7.25319 10.0874 7.33268 10.0874 7.41556C10.0874 7.49844 10.0545 7.57792 9.99589 7.63653C9.93729 7.69513 9.8578 7.72806 9.77492 7.72806Z" fill="#E82C2A"/>
<path d="M11.7442 7.72806H11.311C11.2282 7.72806 11.1487 7.69513 11.0901 7.63653C11.0315 7.57792 10.9985 7.49844 10.9985 7.41556C10.9985 7.33268 11.0315 7.25319 11.0901 7.19459C11.1487 7.13598 11.2282 7.10306 11.311 7.10306H11.7442C11.8271 7.10306 11.9066 7.13598 11.9652 7.19459C12.0238 7.25319 12.0567 7.33268 12.0567 7.41556C12.0567 7.49844 12.0238 7.57792 11.9652 7.63653C11.9066 7.69513 11.8271 7.72806 11.7442 7.72806Z" fill="#E82C2A"/>
<path d="M13.7134 7.72806H13.2803C13.1974 7.72806 13.1179 7.69513 13.0593 7.63653C13.0007 7.57792 12.9678 7.49844 12.9678 7.41556C12.9678 7.33268 13.0007 7.25319 13.0593 7.19459C13.1179 7.13598 13.1974 7.10306 13.2803 7.10306H13.7134C13.7963 7.10306 13.8758 7.13598 13.9344 7.19459C13.993 7.25319 14.0259 7.33268 14.0259 7.41556C14.0259 7.49844 13.993 7.57792 13.9344 7.63653C13.8758 7.69513 13.7963 7.72806 13.7134 7.72806Z" fill="#E82C2A"/>
<path d="M6.14748 9.65244H5.71436C5.63148 9.65244 5.55199 9.61951 5.49338 9.56091C5.43478 9.5023 5.40186 9.42282 5.40186 9.33994C5.40186 9.25706 5.43478 9.17757 5.49338 9.11897C5.55199 9.06036 5.63148 9.02744 5.71436 9.02744H6.14748C6.23036 9.02744 6.30985 9.06036 6.36845 9.11897C6.42706 9.17757 6.45998 9.25706 6.45998 9.33994C6.45998 9.42282 6.42706 9.5023 6.36845 9.56091C6.30985 9.61951 6.23036 9.65244 6.14748 9.65244Z" fill="#E82C2A"/>
<path d="M8.11672 9.65244H7.68359C7.60071 9.65244 7.52123 9.61951 7.46262 9.56091C7.40402 9.5023 7.37109 9.42282 7.37109 9.33994C7.37109 9.25706 7.40402 9.17757 7.46262 9.11897C7.52123 9.06036 7.60071 9.02744 7.68359 9.02744H8.11672C8.1996 9.02744 8.27908 9.06036 8.33769 9.11897C8.39629 9.17757 8.42922 9.25706 8.42922 9.33994C8.42922 9.42282 8.39629 9.5023 8.33769 9.56091C8.27908 9.61951 8.1996 9.65244 8.11672 9.65244Z" fill="#E82C2A"/>
<path d="M10.086 9.65244H9.65283C9.56995 9.65244 9.49047 9.61951 9.43186 9.56091C9.37326 9.5023 9.34033 9.42282 9.34033 9.33994C9.34033 9.25706 9.37326 9.17757 9.43186 9.11897C9.49047 9.06036 9.56995 9.02744 9.65283 9.02744H10.086C10.1688 9.02744 10.2483 9.06036 10.3069 9.11897C10.3655 9.17757 10.3985 9.25706 10.3985 9.33994C10.3985 9.42282 10.3655 9.5023 10.3069 9.56091C10.2483 9.61951 10.1688 9.65244 10.086 9.65244Z" fill="#E82C2A"/>
<path d="M5.65395 4.09093H5.15438C4.98217 4.0908 4.81704 4.02233 4.69526 3.90055C4.57349 3.77878 4.50502 3.61365 4.50488 3.44143C4.50488 3.35855 4.53781 3.27907 4.59641 3.22046C4.65502 3.16186 4.7345 3.12893 4.81738 3.12893C4.90026 3.12893 4.97975 3.16186 5.03835 3.22046C5.09696 3.27907 5.12988 3.35855 5.12988 3.44143C5.1299 3.44793 5.13249 3.45415 5.13708 3.45874C5.14167 3.46333 5.14789 3.46592 5.15438 3.46593H5.65395C5.66044 3.46592 5.66666 3.46333 5.67125 3.45874C5.67584 3.45415 5.67843 3.44793 5.67844 3.44143V2.07937C5.67843 2.07288 5.67584 2.06666 5.67125 2.06206C5.66666 2.05747 5.66044 2.05489 5.65395 2.05487H5.15438C5.14789 2.05489 5.14167 2.05747 5.13708 2.06206C5.13249 2.06666 5.1299 2.07288 5.12988 2.07937C5.12988 2.16225 5.09696 2.24174 5.03835 2.30034C4.97975 2.35895 4.90026 2.39187 4.81738 2.39187C4.7345 2.39187 4.65502 2.35895 4.59641 2.30034C4.53781 2.24174 4.50488 2.16225 4.50488 2.07937C4.50502 1.90715 4.57349 1.74203 4.69526 1.62025C4.81704 1.49847 4.98217 1.43 5.15438 1.42987H5.65395C5.82611 1.43009 5.99115 1.49859 6.11286 1.62036C6.23457 1.74213 6.303 1.90721 6.30313 2.07937V3.44143C6.303 3.6136 6.23457 3.77868 6.11286 3.90044C5.99115 4.02221 5.82611 4.09072 5.65395 4.09093Z" fill="#E82C2A"/>
<path d="M8.79596 4.09093H8.29677C8.12459 4.09075 7.95951 4.02226 7.83777 3.90049C7.71604 3.77872 7.64759 3.61362 7.64746 3.44143C7.64746 3.35855 7.68038 3.27907 7.73899 3.22046C7.79759 3.16186 7.87708 3.12893 7.95996 3.12893C8.04284 3.12893 8.12233 3.16186 8.18093 3.22046C8.23954 3.27907 8.27246 3.35855 8.27246 3.44143C8.27248 3.44793 8.27506 3.45415 8.27965 3.45874C8.28425 3.46333 8.29047 3.46592 8.29696 3.46593H8.79615C8.80265 3.46593 8.80889 3.46335 8.81349 3.45876C8.8181 3.45417 8.82069 3.44794 8.82071 3.44143V2.07937C8.82069 2.07287 8.8181 2.06664 8.81349 2.06204C8.80889 2.05745 8.80265 2.05487 8.79615 2.05487H8.29696C8.29047 2.05489 8.28425 2.05747 8.27965 2.06206C8.27506 2.06666 8.27248 2.07288 8.27246 2.07937C8.27246 2.16225 8.23954 2.24174 8.18093 2.30034C8.12233 2.35895 8.04284 2.39187 7.95996 2.39187C7.87708 2.39187 7.79759 2.35895 7.73899 2.30034C7.68038 2.24174 7.64746 2.16225 7.64746 2.07937C7.64759 1.90715 7.71607 1.74203 7.83784 1.62025C7.95962 1.49847 8.12474 1.43 8.29696 1.42987H8.79615C8.96834 1.43004 9.13344 1.49852 9.25519 1.6203C9.37694 1.74207 9.44539 1.90717 9.44552 2.07937V3.44143C9.44531 3.61364 9.3768 3.77872 9.25503 3.90048C9.13326 4.02224 8.96816 4.09073 8.79596 4.09093Z" fill="#E82C2A"/>
<path d="M11.9388 4.09093H11.4395C11.2673 4.0908 11.1022 4.02233 10.9804 3.90055C10.8586 3.77878 10.7902 3.61365 10.79 3.44143C10.79 3.35855 10.823 3.27907 10.8816 3.22046C10.9402 3.16186 11.0197 3.12893 11.1025 3.12893C11.1854 3.12893 11.2649 3.16186 11.3235 3.22046C11.3821 3.27907 11.415 3.35855 11.415 3.44143C11.4151 3.44793 11.4176 3.45415 11.4222 3.45874C11.4268 3.46333 11.433 3.46592 11.4395 3.46593H11.9388C11.9453 3.46592 11.9515 3.46333 11.9561 3.45874C11.9607 3.45415 11.9633 3.44793 11.9633 3.44143V2.07937C11.9633 2.07288 11.9607 2.06666 11.9561 2.06206C11.9515 2.05747 11.9453 2.05489 11.9388 2.05487H11.4395C11.433 2.05489 11.4268 2.05747 11.4222 2.06206C11.4176 2.06666 11.4151 2.07288 11.415 2.07937C11.415 2.16225 11.3821 2.24174 11.3235 2.30034C11.2649 2.35895 11.1854 2.39187 11.1025 2.39187C11.0197 2.39187 10.9402 2.35895 10.8816 2.30034C10.823 2.24174 10.79 2.16225 10.79 2.07937C10.7902 1.90715 10.8586 1.74203 10.9804 1.62025C11.1022 1.49847 11.2673 1.43 11.4395 1.42987H11.9388C12.111 1.43 12.2761 1.49847 12.3979 1.62025C12.5197 1.74203 12.5882 1.90715 12.5883 2.07937V3.44143C12.5882 3.61365 12.5197 3.77878 12.3979 3.90055C12.2761 4.02233 12.111 4.0908 11.9388 4.09093Z" fill="#E82C2A"/>
<path d="M13.1821 12.3337C13.0992 12.3337 13.0197 12.3008 12.9611 12.2422L12.1892 11.4702C12.16 11.4413 12.1367 11.4068 12.1209 11.3688C12.105 11.3309 12.0968 11.2901 12.0967 11.249C12.0966 11.2078 12.1046 11.1671 12.1203 11.129C12.136 11.091 12.1591 11.0564 12.1882 11.0273C12.2173 10.9982 12.2519 10.9752 12.2899 10.9595C12.3279 10.9438 12.3687 10.9357 12.4099 10.9358C12.451 10.9359 12.4917 10.9441 12.5297 10.96C12.5677 10.9759 12.6021 10.9991 12.6311 11.0283L13.1821 11.5793L14.6851 10.0765C14.7438 10.0183 14.8232 9.98575 14.9058 9.98593C14.9884 9.98611 15.0677 10.019 15.1261 10.0775C15.1845 10.1359 15.2174 10.2151 15.2176 10.2977C15.2178 10.3804 15.1852 10.4597 15.1271 10.5184L13.4033 12.2422C13.3743 12.2713 13.3398 12.2943 13.3018 12.31C13.2638 12.3257 13.2231 12.3338 13.1821 12.3337Z" fill="#E82C2A"/>
<path d="M13.6576 14.5701C13.0107 14.5701 12.3783 14.3783 11.8404 14.0189C11.3025 13.6595 10.8833 13.1486 10.6357 12.551C10.3881 11.9533 10.3234 11.2956 10.4496 10.6611C10.5758 10.0267 10.8873 9.44384 11.3447 8.9864C11.8022 8.52896 12.385 8.21744 13.0195 8.09123C13.654 7.96502 14.3116 8.0298 14.9093 8.27736C15.507 8.52493 16.0178 8.94416 16.3772 9.48206C16.7366 10.0199 16.9285 10.6523 16.9285 11.2993C16.9275 12.1664 16.5826 12.9978 15.9694 13.611C15.3562 14.2242 14.5248 14.5692 13.6576 14.5701ZM13.6576 8.65338C13.1343 8.65338 12.6227 8.80856 12.1876 9.09929C11.7525 9.39003 11.4134 9.80326 11.2131 10.2867C11.0129 10.7702 10.9605 11.3022 11.0626 11.8154C11.1647 12.3287 11.4166 12.8001 11.7867 13.1702C12.1567 13.5402 12.6282 13.7922 13.1414 13.8943C13.6547 13.9964 14.1867 13.944 14.6701 13.7437C15.1536 13.5435 15.5668 13.2043 15.8576 12.7692C16.1483 12.3341 16.3035 11.8226 16.3035 11.2993C16.3027 10.5978 16.0237 9.92524 15.5276 9.42922C15.0316 8.93319 14.3591 8.65418 13.6576 8.65338Z" fill="#E82C2A"/>
</g>
<defs>
<clipPath id="clip0_7804_81673">
<rect width="16" height="16" fill="white" transform="translate(0.928711)"/>
</clipPath>
</defs>
</svg>
