<svg width="17" height="16" viewBox="0 0 17 16" fill="none" xmlns="http://www.w3.org/2000/svg">
<path d="M15.0617 10.7114C15.6231 10.4277 16.0763 9.96796 16.3519 9.40244C16.6275 8.83692 16.7104 8.19672 16.5879 7.57966C16.4654 6.9626 16.1443 6.40261 15.6735 5.98524C15.2028 5.56787 14.6084 5.31608 13.9811 5.26834V3.07559C13.9811 3.01758 13.9581 2.96194 13.9171 2.9209L11.2827 0.285561C11.2624 0.265229 11.2383 0.249102 11.2117 0.238099C11.1851 0.227096 11.1567 0.221433 11.1279 0.221436H4.42482C4.3668 0.221436 4.31116 0.244482 4.27014 0.285506C4.22911 0.32653 4.20607 0.382169 4.20607 0.440186V1.43594H3.21007C3.15205 1.43594 3.09641 1.45898 3.05539 1.50001C3.01436 1.54103 2.99132 1.59667 2.99132 1.65469V9.35469L0.73016 11.0558C0.725004 11.0597 0.72016 11.0638 0.715441 11.0681C0.714816 11.0687 0.714129 11.0692 0.713504 11.0697C0.706835 11.0759 0.700572 11.0826 0.694754 11.0896C0.693473 11.0911 0.692285 11.0927 0.691066 11.0942C0.686276 11.1002 0.681801 11.1065 0.67766 11.1129C0.676785 11.1143 0.675816 11.1157 0.674941 11.1171C0.670158 11.125 0.665869 11.1331 0.662098 11.1415C0.661691 11.1424 0.661379 11.1433 0.661004 11.1442C0.657854 11.1516 0.65511 11.1592 0.652785 11.1668C0.652098 11.1691 0.651441 11.1713 0.650848 11.1735C0.648444 11.1821 0.646566 11.1909 0.645223 11.1998V11.2C0.644013 11.2091 0.643366 11.2183 0.643285 11.2275C0.643285 11.2286 0.643066 11.2296 0.643066 11.2307V15.5597C0.643066 15.6178 0.666113 15.6734 0.707137 15.7144C0.74816 15.7555 0.8038 15.7785 0.861816 15.7785H7.98738C8.04539 15.7785 8.10103 15.7555 8.14206 15.7144C8.18308 15.6734 8.20613 15.6178 8.20613 15.5597V14.7696H11.1386C11.1949 15.4321 12.4861 15.7786 13.7621 15.7786C15.0673 15.7786 16.3886 15.4165 16.3886 14.7244V11.6381C16.3887 11.1844 15.8206 10.8724 15.0617 10.7114ZM15.9511 13.1812C15.9511 13.3201 15.7224 13.4757 15.3542 13.5872C14.9436 13.7116 14.3636 13.783 13.7626 13.783C13.1617 13.783 12.5816 13.7116 12.1711 13.5872C11.8029 13.4757 11.5742 13.3201 11.5742 13.1812V12.2477C12.0702 12.5412 12.9195 12.6923 13.7623 12.6923C14.605 12.6923 15.4551 12.5411 15.9512 12.2476L15.9511 13.1812ZM15.9511 11.6381C15.9511 11.8475 15.1785 12.2547 13.7622 12.2547C12.3465 12.2547 11.5741 11.8474 11.5741 11.6381C11.5741 11.4289 12.3464 11.0216 13.7622 11.0216C15.1785 11.0216 15.9511 11.4289 15.9511 11.6381ZM16.2054 8.14084C16.2053 8.62392 16.062 9.09613 15.7936 9.49776C15.5251 9.89939 15.1436 10.2124 14.6973 10.3972C14.251 10.5821 13.7599 10.6304 13.2861 10.5361C12.8123 10.4419 12.3771 10.2092 12.0355 9.86765C11.6939 9.52606 11.4613 9.09085 11.367 8.61706C11.2727 8.14326 11.3211 7.65216 11.5059 7.20583C11.6907 6.75951 12.0037 6.37801 12.4054 6.10957C12.807 5.84113 13.2792 5.6978 13.7623 5.69772C14.41 5.69844 15.031 5.95608 15.489 6.4141C15.947 6.87211 16.2047 7.49311 16.2054 8.14084ZM11.3465 0.968748L13.234 2.8569H11.7183C11.6197 2.85681 11.5252 2.8176 11.4554 2.74789C11.3857 2.67817 11.3464 2.58364 11.3463 2.48503L11.3465 0.968748ZM4.64335 0.659186H10.909V2.48478C10.9092 2.69943 10.9946 2.90523 11.1464 3.05701C11.2982 3.20879 11.504 3.29416 11.7186 3.2944H13.5435V5.26834C12.9163 5.31629 12.322 5.5682 11.8515 5.98561C11.3809 6.40301 11.0599 6.96296 10.9375 7.57994C10.815 8.19692 10.8979 8.83702 11.1734 9.40248C11.449 9.96793 11.902 10.4277 12.4633 10.7115C11.7044 10.8725 11.1367 11.1844 11.1367 11.6381V13.1166H8.20619V11.2307C8.20619 11.2296 8.20597 11.2285 8.20597 11.2275C8.20589 11.2184 8.20524 11.2093 8.20403 11.2002V11.1997C8.2027 11.1909 8.20084 11.1822 8.19847 11.1737C8.19788 11.1714 8.19719 11.1692 8.1965 11.1669C8.1942 11.1592 8.19148 11.1517 8.18835 11.1444C8.18794 11.1434 8.18763 11.1425 8.18722 11.1416C8.18344 11.1332 8.17916 11.1251 8.17438 11.1172C8.1735 11.1158 8.17254 11.1144 8.17163 11.113C8.16751 11.1065 8.16305 11.1003 8.15825 11.0942C8.15703 11.0927 8.15585 11.0911 8.15457 11.0896C8.14875 11.0826 8.14248 11.076 8.13582 11.0697C8.13519 11.0692 8.1345 11.0687 8.13388 11.0681C8.12916 11.0639 8.12432 11.0597 8.11916 11.0558L4.64335 8.4409V0.659186ZM4.4246 8.82403L7.62354 11.2308L4.73328 13.4055H4.11588L1.22563 11.2308L4.4246 8.82403ZM1.08041 11.6691L3.62022 13.5801L1.08041 14.9511V11.6691ZM4.0545 13.843H4.79441L7.56941 15.3409H1.27963L4.0545 13.843ZM5.22869 13.5801L7.7685 11.6691V14.9511L5.22869 13.5801ZM3.42869 1.87356H4.20557V8.4409L3.42869 9.02528V1.87356ZM8.20619 13.5542H11.1367V14.3319H8.20619V13.5542ZM13.7622 15.3409C12.3465 15.3409 11.5741 14.9337 11.5741 14.7244V13.8096C11.7227 13.893 11.8804 13.9589 12.0442 14.006C12.5008 14.1444 13.1111 14.2206 13.7626 14.2206C14.5567 14.2206 15.438 14.1036 15.9511 13.807V14.7244C15.9511 14.9337 15.1785 15.3409 13.7622 15.3409ZM11.715 8.14094C11.7151 8.54592 11.8353 8.94178 12.0604 9.27846C12.2854 9.61513 12.6053 9.87751 12.9795 10.0324C13.3537 10.1873 13.7654 10.2278 14.1626 10.1487C14.5597 10.0696 14.9246 9.87446 15.2108 9.58803C15.4971 9.30159 15.6921 8.9367 15.771 8.53948C15.8499 8.14226 15.8093 7.73056 15.6542 7.35644C15.4991 6.98232 15.2366 6.66259 14.8998 6.43767C14.5631 6.21275 14.1671 6.09275 13.7622 6.09284C13.2193 6.09346 12.6988 6.30946 12.315 6.69342C11.9312 7.07739 11.7154 7.59795 11.715 8.14084V8.14094ZM15.3726 8.14094C15.3725 8.45933 15.278 8.77054 15.1011 9.03524C14.9241 9.29994 14.6727 9.50622 14.3785 9.62803C14.0843 9.74983 13.7607 9.78168 13.4484 9.71954C13.1361 9.6574 12.8493 9.50408 12.6242 9.27894C12.399 9.0538 12.2457 8.76697 12.1836 8.4547C12.1214 8.14243 12.1533 7.81875 12.2751 7.52458C12.3969 7.23041 12.6032 6.97896 12.8679 6.80201C13.1326 6.62507 13.4438 6.53058 13.7622 6.5305C14.1891 6.53085 14.5985 6.70063 14.9005 7.00254C15.2024 7.30446 15.3722 7.71385 15.3726 8.14084V8.14094ZM13.7622 6.70312C13.8202 6.70312 13.8758 6.72617 13.9168 6.76719C13.9579 6.80822 13.9809 6.86386 13.9809 6.92187V7.07444C14.0739 7.10715 14.1585 7.16019 14.2285 7.2297C14.2984 7.2992 14.352 7.38343 14.3853 7.47625C14.395 7.5033 14.3993 7.532 14.3979 7.56069C14.3964 7.58939 14.3894 7.61753 14.3771 7.6435C14.3648 7.66947 14.3475 7.69277 14.3262 7.71206C14.3049 7.73135 14.2801 7.74626 14.253 7.75594C14.2259 7.76561 14.1973 7.76986 14.1686 7.76845C14.1399 7.76703 14.1117 7.75998 14.0858 7.74769C14.0598 7.7354 14.0365 7.71812 14.0172 7.69682C13.9979 7.67553 13.983 7.65065 13.9733 7.62359C13.9596 7.58497 13.9356 7.55085 13.9038 7.52496C13.8721 7.49906 13.8338 7.4824 13.7932 7.47677C13.7526 7.47115 13.7113 7.47678 13.6737 7.49306C13.6361 7.50934 13.6036 7.53564 13.58 7.56909C13.5563 7.60253 13.5423 7.64184 13.5394 7.68272C13.5365 7.7236 13.545 7.76448 13.5638 7.80089C13.5826 7.8373 13.611 7.86786 13.646 7.88921C13.6809 7.91056 13.7211 7.92189 13.7621 7.92197C13.9183 7.92187 14.0695 7.97708 14.1889 8.07781C14.3083 8.17854 14.3882 8.31829 14.4144 8.47228C14.4406 8.62627 14.4114 8.78457 14.3321 8.91912C14.2527 9.05367 14.1283 9.15579 13.9808 9.20737V9.35969C13.9808 9.4177 13.9578 9.47334 13.9168 9.51437C13.8758 9.55539 13.8201 9.57844 13.7621 9.57844C13.7041 9.57844 13.6484 9.55539 13.6074 9.51437C13.5664 9.47334 13.5433 9.4177 13.5433 9.35969V9.20697C13.4505 9.17416 13.3661 9.1211 13.2963 9.05162C13.2265 8.98215 13.173 8.89801 13.1398 8.80531C13.1203 8.75067 13.1232 8.6905 13.1481 8.63806C13.1729 8.58561 13.2175 8.54517 13.2722 8.52564C13.3268 8.50611 13.387 8.50908 13.4394 8.53391C13.4919 8.55874 13.5323 8.60339 13.5518 8.65803C13.5656 8.69669 13.5896 8.73084 13.6214 8.75674C13.6532 8.78264 13.6915 8.79929 13.7322 8.80488C13.7728 8.81047 13.8142 8.80478 13.8518 8.78842C13.8894 8.77207 13.9218 8.74569 13.9455 8.71216C13.9691 8.67864 13.983 8.63926 13.9858 8.59834C13.9886 8.55741 13.98 8.51652 13.9611 8.48013C13.9422 8.44374 13.9136 8.41325 13.8785 8.392C13.8434 8.37075 13.8032 8.35956 13.7622 8.35965C13.6061 8.35953 13.4551 8.30422 13.3359 8.2035C13.2166 8.10277 13.1369 7.96313 13.1107 7.80927C13.0845 7.65541 13.1136 7.49725 13.1928 7.36276C13.272 7.22827 13.3962 7.12612 13.5434 7.07437V6.92187C13.5434 6.86386 13.5665 6.80822 13.6075 6.76719C13.6485 6.72617 13.7041 6.70312 13.7622 6.70312ZM5.38304 2.0525C5.38304 1.99448 5.40608 1.93884 5.44711 1.89782C5.48813 1.85679 5.54377 1.83375 5.60179 1.83375H8.60744C8.66546 1.83375 8.7211 1.85679 8.76212 1.89782C8.80314 1.93884 8.82619 1.99448 8.82619 2.0525C8.82619 2.11051 8.80314 2.16615 8.76212 2.20718C8.7211 2.2482 8.66546 2.27125 8.60744 2.27125H5.60182C5.57309 2.27125 5.54464 2.2656 5.51809 2.25461C5.49155 2.24361 5.46743 2.2275 5.44712 2.20719C5.4268 2.18688 5.41068 2.16276 5.39969 2.13622C5.38869 2.10968 5.38304 2.08123 5.38304 2.0525ZM3.71057 10.6433C3.71075 10.4922 3.75877 10.3451 3.84773 10.223C3.93668 10.1009 4.06201 10.0101 4.20575 9.96362V9.77434C4.20575 9.71633 4.2288 9.66069 4.26982 9.61966C4.31085 9.57864 4.36649 9.55559 4.4245 9.55559C4.48252 9.55559 4.53816 9.57864 4.57918 9.61966C4.62021 9.66069 4.64325 9.71633 4.64325 9.77434V9.96378C4.74769 9.99747 4.84298 10.0547 4.92175 10.1311C5.00051 10.2075 5.06065 10.301 5.0975 10.4044C5.11691 10.4591 5.11378 10.5193 5.08882 10.5717C5.07647 10.5976 5.05912 10.6209 5.03777 10.6401C5.01642 10.6594 4.9915 10.6742 4.96441 10.6838C4.90971 10.7032 4.84954 10.7001 4.79714 10.6751C4.74474 10.6502 4.70441 10.6054 4.685 10.5507C4.66808 10.503 4.63836 10.4608 4.59908 10.4288C4.55981 10.3967 4.51249 10.3761 4.4623 10.3692C4.4121 10.3623 4.36097 10.3692 4.31448 10.3894C4.26799 10.4096 4.22794 10.4421 4.19869 10.4835C4.16944 10.5249 4.15213 10.5735 4.14865 10.624C4.14517 10.6746 4.15565 10.7251 4.17894 10.7701C4.20223 10.8151 4.23745 10.8528 4.28073 10.8792C4.32402 10.9055 4.37371 10.9195 4.42438 10.9195C4.59458 10.9196 4.75914 10.9805 4.88842 11.0912C5.01771 11.2019 5.10324 11.3552 5.12961 11.5233C5.15599 11.6914 5.12148 11.8635 5.03229 12.0085C4.94311 12.1534 4.80511 12.2618 4.64313 12.3141V12.5034C4.64313 12.5614 4.62008 12.617 4.57906 12.6581C4.53804 12.6991 4.4824 12.7221 4.42438 12.7221C4.36636 12.7221 4.31072 12.6991 4.2697 12.6581C4.22868 12.617 4.20563 12.5614 4.20563 12.5034V12.3137C4.1016 12.28 4.00665 12.223 3.928 12.147C3.84935 12.071 3.78909 11.978 3.75179 11.8752C3.73208 11.8206 3.73486 11.7605 3.75951 11.7079C3.78417 11.6554 3.82869 11.6148 3.88327 11.5951C3.93785 11.5754 3.99802 11.5782 4.05056 11.6028C4.10309 11.6275 4.14367 11.672 4.16338 11.7266C4.18038 11.7744 4.21017 11.8165 4.2495 11.8485C4.28883 11.8805 4.33619 11.9011 4.38641 11.908C4.43663 11.9149 4.48778 11.9078 4.53428 11.8876C4.58078 11.8675 4.62084 11.8349 4.65009 11.7935C4.67934 11.7521 4.69665 11.7034 4.70014 11.6529C4.70363 11.6023 4.69316 11.5517 4.66987 11.5067C4.64659 11.4617 4.61138 11.4239 4.56809 11.3975C4.52481 11.3711 4.4751 11.3572 4.42441 11.3571C4.23518 11.3568 4.05377 11.2816 3.91995 11.1478C3.78614 11.0139 3.71084 10.8325 3.71057 10.6433ZM5.38304 3.19431C5.38304 3.13629 5.40608 3.08065 5.44711 3.03963C5.48813 2.99861 5.54377 2.97556 5.60179 2.97556H8.60744C8.66546 2.97556 8.7211 2.99861 8.76212 3.03963C8.80314 3.08065 8.82619 3.13629 8.82619 3.19431C8.82619 3.25233 8.80314 3.30797 8.76212 3.34899C8.7211 3.39001 8.66546 3.41306 8.60744 3.41306H5.60182C5.57309 3.41306 5.54464 3.40741 5.51809 3.39642C5.49155 3.38543 5.46743 3.36931 5.44712 3.349C5.4268 3.32869 5.41068 3.30457 5.39969 3.27803C5.38869 3.25149 5.38304 3.22304 5.38304 3.19431ZM5.38304 4.33619C5.38304 4.27817 5.40608 4.22253 5.44711 4.18151C5.48813 4.14048 5.54377 4.11744 5.60179 4.11744H10.2259C10.2839 4.11744 10.3396 4.14048 10.3806 4.18151C10.4216 4.22253 10.4447 4.27817 10.4447 4.33619C10.4447 4.3942 10.4216 4.44984 10.3806 4.49087C10.3396 4.53189 10.2839 4.55494 10.2259 4.55494H5.60182C5.57309 4.55494 5.54464 4.54928 5.51809 4.53829C5.49155 4.5273 5.46743 4.51119 5.44712 4.49088C5.4268 4.47056 5.41068 4.44645 5.39969 4.4199C5.38869 4.39336 5.38304 4.36491 5.38304 4.33619ZM5.38304 5.478C5.38304 5.41998 5.40608 5.36434 5.44711 5.32332C5.48813 5.28229 5.54377 5.25925 5.60179 5.25925H10.2259C10.2839 5.25925 10.3396 5.28229 10.3806 5.32332C10.4216 5.36434 10.4447 5.41998 10.4447 5.478C10.4447 5.53601 10.4216 5.59165 10.3806 5.63268C10.3396 5.6737 10.2839 5.69675 10.2259 5.69675H5.60182C5.54382 5.69676 5.48819 5.67373 5.44716 5.63273C5.40613 5.59174 5.38307 5.53612 5.38304 5.47812V5.478ZM5.38304 6.61987C5.38304 6.56186 5.40608 6.50622 5.44711 6.46519C5.48813 6.42417 5.54377 6.40112 5.60179 6.40112H10.2259C10.2839 6.40112 10.3396 6.42417 10.3806 6.46519C10.4216 6.50622 10.4447 6.56186 10.4447 6.61987C10.4447 6.67789 10.4216 6.73353 10.3806 6.77455C10.3396 6.81558 10.2839 6.83862 10.2259 6.83862H5.60182C5.57309 6.83863 5.54464 6.83297 5.51809 6.82198C5.49155 6.81099 5.46743 6.79488 5.44712 6.77456C5.4268 6.75425 5.41068 6.73013 5.39969 6.70359C5.38869 6.67705 5.38304 6.6486 5.38304 6.61987ZM5.38304 7.76169C5.38304 7.70367 5.40608 7.64803 5.44711 7.60701C5.48813 7.56598 5.54377 7.54294 5.60179 7.54294H10.2259C10.2839 7.54294 10.3396 7.56598 10.3806 7.60701C10.4216 7.64803 10.4447 7.70367 10.4447 7.76169C10.4447 7.8197 10.4216 7.87534 10.3806 7.91637C10.3396 7.95739 10.2839 7.98044 10.2259 7.98044H5.60182C5.57309 7.98044 5.54464 7.97478 5.51809 7.96379C5.49155 7.9528 5.46743 7.93669 5.44712 7.91638C5.4268 7.89606 5.41068 7.87195 5.39969 7.8454C5.38869 7.81886 5.38304 7.79041 5.38304 7.76169Z" fill="#DC3545"/>
</svg>
