<svg width="17" height="16" viewBox="0 0 17 16" fill="none" xmlns="http://www.w3.org/2000/svg">
<path d="M5.63333 16C4.1963 16 2.98148 15.5037 1.98889 14.5111C0.996296 13.5185 0.5 12.3037 0.5 10.8667V5.13333C0.5 3.6963 0.996296 2.48148 1.98889 1.48889C2.98148 0.496296 4.1963 0 5.63333 0H11.3667C12.8037 0 14.0185 0.496296 15.0111 1.48889C16.0037 2.48148 16.5 3.6963 16.5 5.13333V10.8667C16.5 12.3037 16.0037 13.5185 15.0111 14.5111C14.0185 15.5037 12.8037 16 11.3667 16H5.63333ZM7.58889 11.4444L12.9222 6.11111L11.9667 5.15556L7.58889 9.53333L5.43333 7.37778L4.47778 8.33333L7.58889 11.4444ZM5.63333 14.6667H11.3667C12.4185 14.6667 13.3148 14.2963 14.0556 13.5556C14.7963 12.8148 15.1667 11.9185 15.1667 10.8667V5.13333C15.1667 4.08148 14.7963 3.18519 14.0556 2.44444C13.3148 1.7037 12.4185 1.33333 11.3667 1.33333H5.63333C4.58148 1.33333 3.68519 1.7037 2.94444 2.44444C2.2037 3.18519 1.83333 4.08148 1.83333 5.13333V10.8667C1.83333 11.9185 2.2037 12.8148 2.94444 13.5556C3.68519 14.2963 4.58148 14.6667 5.63333 14.6667Z" fill="#FA981C"/>
</svg>
