<svg width="16" height="16" viewBox="0 0 16 16" fill="none" xmlns="http://www.w3.org/2000/svg">
<path d="M5.13333 16C3.6963 16 2.48148 15.5037 1.48889 14.5111C0.496296 13.5185 0 12.3037 0 10.8667V5.13333C0 3.6963 0.496296 2.48148 1.48889 1.48889C2.48148 0.496296 3.6963 0 5.13333 0H10.8667C12.3037 0 13.5185 0.496296 14.5111 1.48889C15.5037 2.48148 16 3.6963 16 5.13333V10.8667C16 12.3037 15.5037 13.5185 14.5111 14.5111C13.5185 15.5037 12.3037 16 10.8667 16H5.13333ZM7.08889 11.4444L12.4222 6.11111L11.4667 5.15556L7.08889 9.53333L4.93333 7.37778L3.97778 8.33333L7.08889 11.4444ZM5.13333 14.6667H10.8667C11.9185 14.6667 12.8148 14.2963 13.5556 13.5556C14.2963 12.8148 14.6667 11.9185 14.6667 10.8667V5.13333C14.6667 4.08148 14.2963 3.18519 13.5556 2.44444C12.8148 1.7037 11.9185 1.33333 10.8667 1.33333H5.13333C4.08148 1.33333 3.18519 1.7037 2.44444 2.44444C1.7037 3.18519 1.33333 4.08148 1.33333 5.13333V10.8667C1.33333 11.9185 1.7037 12.8148 2.44444 13.5556C3.18519 14.2963 4.08148 14.6667 5.13333 14.6667Z" fill="#FA981C"/>
</svg>
