<svg width="17" height="16" viewBox="0 0 17 16" fill="none" xmlns="http://www.w3.org/2000/svg">
<path d="M10.7968 2.79828H3.35879C2.66086 2.79828 2.09399 3.36514 2.09399 4.06307V14.7352C2.09399 15.4331 2.66086 16 3.35879 16H10.7968C11.4948 16 12.0616 15.4331 12.0616 14.7352V4.06307C12.0584 3.36514 11.4915 2.79828 10.7968 2.79828ZM11.1737 14.7319C11.1737 14.9416 11.0033 15.112 10.7936 15.112H3.35551C3.14581 15.112 2.97542 14.9416 2.97542 14.7319V4.06307C2.97542 3.85337 3.14581 3.68298 3.35551 3.68298H10.7936C11.0033 3.68298 11.1737 3.85337 11.1737 4.06307V14.7319Z" fill="#DC3545"/>
<path d="M13.6411 0H6.20303C5.5051 0 4.93823 0.566865 4.93823 1.2648C4.93823 1.51055 5.13483 1.70715 5.38058 1.70715C5.62633 1.70715 5.82293 1.51055 5.82293 1.2648C5.82293 1.05509 5.99332 0.884702 6.20303 0.884702H13.6411C13.8508 0.884702 14.0212 1.05509 14.0212 1.2648V11.9369C14.0212 12.1466 13.8508 12.317 13.6411 12.317C13.3953 12.317 13.1987 12.5136 13.1987 12.7594C13.1987 13.0051 13.3953 13.2017 13.6411 13.2017C14.339 13.2017 14.9059 12.6349 14.9059 11.9369V1.2648C14.9059 0.566865 14.339 0 13.6411 0Z" fill="#DC3545"/>
</svg>
