<svg width="53" height="52" viewBox="0 0 53 52" fill="none" xmlns="http://www.w3.org/2000/svg">
<path d="M29.2251 17.6875H27.9126V16.375C27.9126 16.259 27.8665 16.1477 27.7845 16.0656C27.7024 15.9836 27.5911 15.9375 27.4751 15.9375H25.7251C25.6091 15.9375 25.4978 15.9836 25.4157 16.0656C25.3337 16.1477 25.2876 16.259 25.2876 16.375V17.6875H23.9751C23.8591 17.6875 23.7478 17.7336 23.6657 17.8156C23.5837 17.8977 23.5376 18.009 23.5376 18.125V19.875C23.5376 19.991 23.5837 20.1023 23.6657 20.1844C23.7478 20.2664 23.8591 20.3125 23.9751 20.3125H25.2876V21.625C25.2876 21.741 25.3337 21.8523 25.4157 21.9344C25.4978 22.0164 25.6091 22.0625 25.7251 22.0625H27.4751C27.5911 22.0625 27.7024 22.0164 27.7845 21.9344C27.8665 21.8523 27.9126 21.741 27.9126 21.625V20.3125H29.2251C29.3411 20.3125 29.4524 20.2664 29.5345 20.1844C29.6165 20.1023 29.6626 19.991 29.6626 19.875V18.125C29.6626 18.009 29.6165 17.8977 29.5345 17.8156C29.4524 17.7336 29.3411 17.6875 29.2251 17.6875ZM28.7876 19.4375H27.4751C27.3591 19.4375 27.2478 19.4836 27.1657 19.5656C27.0837 19.6477 27.0376 19.759 27.0376 19.875V21.1875H26.1626V19.875C26.1626 19.759 26.1165 19.6477 26.0345 19.5656C25.9524 19.4836 25.8411 19.4375 25.7251 19.4375H24.4126V18.5625H25.7251C25.8411 18.5625 25.9524 18.5164 26.0345 18.4344C26.1165 18.3523 26.1626 18.241 26.1626 18.125V16.8125H27.0376V18.125C27.0376 18.241 27.0837 18.3523 27.1657 18.4344C27.2478 18.5164 27.3591 18.5625 27.4751 18.5625H28.7876V19.4375Z" fill="#222931"/>
<path d="M38.732 20.0325C38.7408 19.9555 38.7452 19.8781 38.7451 19.8006C38.743 19.3996 38.6039 19.0114 38.3508 18.7002C38.0978 18.3891 37.746 18.1738 37.3538 18.09C36.9102 18.0056 36.4511 18.0928 36.0694 18.334C35.6876 18.5753 35.4118 18.9525 35.2976 19.3894L33.3726 24.9281C33.3441 24.9395 33.3163 24.9526 33.2895 24.9675L29.422 27.2338C28.8302 27.5814 28.3393 28.0774 27.9979 28.6728C27.6564 29.2682 27.4762 29.9424 27.4751 30.6288V34.75C27.3591 34.75 27.2478 34.7961 27.1657 34.8782C27.0837 34.9602 27.0376 35.0715 27.0376 35.1875V38.6875C27.0376 38.8035 27.0837 38.9148 27.1657 38.9969C27.2478 39.0789 27.3591 39.125 27.4751 39.125H33.6001C33.7161 39.125 33.8274 39.0789 33.9095 38.9969C33.9915 38.9148 34.0376 38.8035 34.0376 38.6875V35.1875C34.0376 35.0715 33.9915 34.9602 33.9095 34.8782C33.8274 34.7961 33.7161 34.75 33.6001 34.75V33.7875C33.6009 33.6027 33.6402 33.4201 33.7156 33.2514C33.7909 33.0827 33.9006 32.9315 34.0376 32.8075L36.9951 30.1781C37.3186 29.8951 37.5502 29.5218 37.6601 29.1063L39.5588 22.0056C39.5994 21.8574 39.62 21.7044 39.6201 21.5506C39.6184 21.2419 39.5354 20.939 39.3795 20.6726C39.2236 20.4061 39.0003 20.1853 38.732 20.0325ZM36.1332 19.6475C36.1869 19.4213 36.3239 19.2236 36.5169 19.0938C36.7099 18.9641 36.9447 18.9118 37.1745 18.9475C37.3706 18.9886 37.5466 19.0957 37.6732 19.251C37.7999 19.4063 37.8693 19.6003 37.8701 19.8006V19.8094C37.4793 19.8166 37.1016 19.9513 36.7944 20.193C36.4872 20.4347 36.2673 20.77 36.1682 21.1481L34.9476 24.915C34.7628 24.8274 34.5647 24.7712 34.3613 24.7488L36.1332 19.6475ZM33.1626 38.25H27.9126V35.625H33.1626V38.25ZM38.7145 21.7781L36.8113 28.8831C36.7455 29.13 36.6086 29.3521 36.4176 29.5219L33.4557 32.1513C33.2265 32.3579 33.0431 32.6103 32.9173 32.8921C32.7915 33.1739 32.726 33.4789 32.7251 33.7875V34.75H28.3501V30.6288C28.3523 30.095 28.4929 29.5709 28.7582 29.1077C29.0235 28.6446 29.4045 28.2581 29.8638 27.9863L33.727 25.7244C33.8266 25.6664 33.9367 25.6286 34.0509 25.6132C34.1652 25.5979 34.2813 25.6052 34.3927 25.6349C34.5041 25.6646 34.6086 25.716 34.7 25.7862C34.7915 25.8563 34.8682 25.9439 34.9257 26.0438C35.0394 26.2459 35.0707 26.4841 35.0132 26.7088C34.9828 26.8197 34.9309 26.9236 34.8603 27.0144C34.7897 27.1052 34.702 27.1813 34.602 27.2381L32.0951 28.6863C31.9999 28.7468 31.9317 28.8418 31.9049 28.9514C31.878 29.061 31.8946 29.1767 31.951 29.2744C32.0075 29.3721 32.0995 29.4442 32.2079 29.4757C32.3163 29.5071 32.4326 29.4954 32.5326 29.4431L35.0395 27.995C35.2398 27.8813 35.4155 27.7287 35.556 27.5461C35.6965 27.3635 35.799 27.1547 35.8576 26.9319C35.9767 26.4842 35.9138 26.0077 35.6826 25.6063L35.6563 25.5669L37.0082 21.3975C37.0619 21.1713 37.1989 20.9736 37.3919 20.8438C37.5849 20.7141 37.8197 20.6618 38.0495 20.6975C38.2456 20.7386 38.4216 20.8457 38.5482 21.001C38.6749 21.1563 38.7443 21.3503 38.7451 21.5506C38.7466 21.6276 38.7362 21.7043 38.7145 21.7781Z" fill="#222931"/>
<path d="M25.7251 34.75V30.6287C25.7239 29.9424 25.5438 29.2682 25.2023 28.6728C24.8609 28.0774 24.37 27.5814 23.7782 27.2337L19.9107 24.9631C19.8845 24.95 19.8538 24.9412 19.8276 24.9281L17.9157 19.42C17.8046 18.9767 17.5287 18.5924 17.1443 18.3453C16.7599 18.0983 16.2957 18.0069 15.8463 18.09C15.4541 18.1738 15.1024 18.3891 14.8493 18.7002C14.5963 19.0113 14.4572 19.3996 14.4551 19.8006C14.455 19.8781 14.4593 19.9555 14.4682 20.0325C14.1999 20.1853 13.9766 20.406 13.8207 20.6725C13.6648 20.939 13.5818 21.2419 13.5801 21.5506C13.5809 21.704 13.6 21.8567 13.637 22.0056L15.5401 29.1019C15.6488 29.5192 15.8805 29.8941 16.2051 30.1781L19.1582 32.8075C19.2966 32.9306 19.4075 33.0815 19.4836 33.2504C19.5598 33.4192 19.5994 33.6022 19.6001 33.7875V34.75C19.484 34.75 19.3728 34.7961 19.2907 34.8781C19.2087 34.9602 19.1626 35.0714 19.1626 35.1875V38.6875C19.1626 38.8035 19.2087 38.9148 19.2907 38.9968C19.3728 39.0789 19.484 39.125 19.6001 39.125H25.7251C25.8411 39.125 25.9524 39.0789 26.0344 38.9968C26.1165 38.9148 26.1626 38.8035 26.1626 38.6875V35.1875C26.1626 35.0714 26.1165 34.9602 26.0344 34.8781C25.9524 34.7961 25.8411 34.75 25.7251 34.75ZM15.3301 19.8006C15.3306 19.6009 15.3995 19.4073 15.5252 19.2521C15.651 19.0969 15.826 18.9894 16.0213 18.9475C16.2574 18.9132 16.4978 18.9695 16.6941 19.105C16.8905 19.2405 17.0283 19.4452 17.0801 19.6781L18.8388 24.7487C18.6355 24.7711 18.4374 24.8273 18.2526 24.915L17.0407 21.17C16.9421 20.7881 16.7218 20.4488 16.4131 20.2033C16.1045 19.9578 15.7243 19.8195 15.3301 19.8094V19.8006ZM19.7401 32.1512L16.7826 29.5219C16.5905 29.3512 16.4535 29.1274 16.3888 28.8787L14.4813 21.7781C14.4632 21.7036 14.4544 21.6272 14.4551 21.5506C14.4556 21.3509 14.5245 21.1573 14.6502 21.0021C14.776 20.8469 14.951 20.7394 15.1463 20.6975C15.3808 20.6623 15.6198 20.7172 15.8154 20.8511C16.0111 20.985 16.1487 21.1881 16.2007 21.4194L17.5438 25.5669L17.5176 25.6062C17.2864 26.0076 17.2235 26.4842 17.3426 26.9319C17.4012 27.1547 17.5037 27.3635 17.6442 27.5461C17.7847 27.7287 17.9603 27.8813 18.1607 27.995L20.6676 29.4431C20.7676 29.4954 20.8839 29.5071 20.9923 29.4756C21.1006 29.4442 21.1927 29.3721 21.2491 29.2744C21.3056 29.1767 21.3222 29.061 21.2953 28.9514C21.2685 28.8418 21.2003 28.7468 21.1051 28.6862L18.5982 27.2381C18.4982 27.1812 18.4104 27.1052 18.3399 27.0144C18.2693 26.9235 18.2173 26.8197 18.187 26.7087C18.1295 26.4841 18.1608 26.2459 18.2745 26.0437C18.3316 25.944 18.4079 25.8566 18.4988 25.7864C18.5898 25.7162 18.6937 25.6645 18.8046 25.6345C18.9155 25.6044 19.0312 25.5965 19.1452 25.6112C19.2592 25.6258 19.3691 25.6628 19.4688 25.72L23.3363 27.9862C23.7957 28.2581 24.1766 28.6445 24.442 29.1077C24.7073 29.5709 24.8479 30.0949 24.8501 30.6287V34.75H20.4751V33.7875C20.4743 33.4784 20.4085 33.173 20.2819 32.8911C20.1552 32.6091 19.9706 32.3571 19.7401 32.1512ZM25.2876 38.25H20.0376V35.625H25.2876V38.25Z" fill="#222931"/>
<path d="M32.7892 14.2453C32.3831 13.8384 31.9007 13.5156 31.3697 13.2954C30.8386 13.0752 30.2694 12.9619 29.6945 12.9619C29.1196 12.962 28.5504 13.0754 28.0194 13.2957C27.4884 13.5159 27.006 13.8388 26.5999 14.2457C26.1939 13.8388 25.7115 13.5159 25.1806 13.2956C24.6496 13.0754 24.0804 12.962 23.5055 12.962C22.9306 12.962 22.3614 13.0754 21.8304 13.2956C21.2994 13.5159 20.8171 13.8388 20.4111 14.2457C19.5922 15.0663 19.1323 16.1782 19.1323 17.3375C19.1323 18.4968 19.5922 19.6087 20.4111 20.4293L26.2911 26.3093C26.3731 26.3913 26.4844 26.4374 26.6004 26.4374C26.7164 26.4374 26.8276 26.3913 26.9097 26.3093L32.7897 20.4293C33.6085 19.6086 34.0683 18.4965 34.0682 17.3372C34.0681 16.1779 33.6082 15.0659 32.7892 14.2453ZM26.5999 25.3814L21.0292 19.8107C20.5402 19.321 20.2073 18.6972 20.0727 18.0183C19.938 17.3394 20.0077 16.6359 20.2729 15.9966C20.538 15.3572 20.9868 14.8109 21.5624 14.4266C22.138 14.0423 22.8147 13.8373 23.5068 13.8375C23.9666 13.8359 24.422 13.9259 24.8467 14.1022C25.2713 14.2785 25.6565 14.5376 25.98 14.8643L26.2906 15.1749C26.3727 15.257 26.4839 15.303 26.5999 15.303C26.7159 15.303 26.8272 15.257 26.9092 15.1749L27.2207 14.8634C27.5455 14.5381 27.9313 14.2799 28.356 14.1038C28.7807 13.9276 29.2359 13.837 29.6957 13.837C30.1554 13.837 30.6107 13.9276 31.0354 14.1038C31.46 14.2799 31.8458 14.5381 32.1706 14.8634C32.826 15.5197 33.1941 16.4092 33.1941 17.3366C33.1941 18.2641 32.826 19.1536 32.1706 19.8098L26.5999 25.3814Z" fill="#222931"/>
<rect x="1.1001" y="0.5" width="51" height="51" rx="25.5" stroke="#222931"/>
</svg>
