<svg width="15" height="16" viewBox="0 0 15 16" fill="none" xmlns="http://www.w3.org/2000/svg">
<g id="_x31_45_x2C__csv_x2C__file_type_x2C__file_format_x2C__file_extension_x2C__document">
<g id="XMLID_1_">
<g id="XMLID_2791_">
<path id="XMLID_2710_" d="M11.7188 13.3125H2.32291C1.38669 13.3125 0.625 12.5508 0.625 11.6146V6.75C0.625 6.57741 0.764938 6.4375 0.9375 6.4375C1.11006 6.4375 1.25 6.57741 1.25 6.75V11.6146C1.25 12.2062 1.73128 12.6875 2.32291 12.6875H11.7188C11.9773 12.6875 12.1875 12.4772 12.1875 12.2188V8.46875C12.1875 8.21028 11.9773 8 11.7188 8H3.43753C3.26497 8 3.12503 7.86009 3.12503 7.6875C3.12503 7.51491 3.26497 7.375 3.43753 7.375H11.7188C12.3218 7.375 12.8125 7.86566 12.8125 8.46875V12.2188C12.8125 12.8218 12.3218 13.3125 11.7188 13.3125Z" fill="#DC3545"/>
</g>
<g id="XMLID_2789_">
<path id="XMLID_2709_" d="M3.4375 8H1.875C1.18575 8 0.625 7.43925 0.625 6.75C0.625 6.06075 1.18575 5.5 1.875 5.5H3.4375C3.61009 5.5 3.75 5.63991 3.75 5.8125C3.75 5.98509 3.61009 6.125 3.4375 6.125H1.875C1.53038 6.125 1.25 6.40538 1.25 6.75C1.25 7.09462 1.53038 7.375 1.875 7.375H3.4375C3.61009 7.375 3.75 7.51491 3.75 7.6875C3.75 7.86009 3.61009 8 3.4375 8Z" fill="#DC3545"/>
</g>
<g id="XMLID_2787_">
<path id="XMLID_2708_" d="M13.125 15.5H4.375C3.68575 15.5 3.125 14.9392 3.125 14.25V13C3.125 12.8274 3.26494 12.6875 3.4375 12.6875C3.61009 12.6875 3.75 12.8274 3.75 13V14.25C3.75 14.5946 4.03038 14.875 4.375 14.875H13.125C13.4696 14.875 13.75 14.5946 13.75 14.25V3.44194L11.433 1.125H4.375C4.03038 1.125 3.75 1.40538 3.75 1.75V7.68747C3.75 7.86006 3.61009 7.99997 3.4375 7.99997C3.26494 7.99997 3.125 7.86006 3.125 7.68747V1.75C3.125 1.06075 3.68575 0.5 4.375 0.5H11.5625C11.6454 0.5 11.7248 0.532938 11.7835 0.591531L14.2835 3.09153C14.3421 3.15013 14.375 3.22962 14.375 3.3125V14.25C14.375 14.9392 13.8142 15.5 13.125 15.5Z" fill="#DC3545"/>
</g>
<g id="XMLID_2785_">
<path id="XMLID_2707_" d="M13.75 3.625H11.5625C11.3899 3.625 11.25 3.48509 11.25 3.3125V1.125C11.25 0.952406 11.3899 0.8125 11.5625 0.8125C11.7351 0.8125 11.875 0.952406 11.875 1.125V3H13.75C13.9226 3 14.0625 3.13991 14.0625 3.3125C14.0625 3.48509 13.9226 3.625 13.75 3.625Z" fill="#DC3545"/>
</g>
<g id="XMLID_2180_">
<path id="XMLID_2706_" d="M7.5 3.3125H5C4.82741 3.3125 4.6875 3.17259 4.6875 3C4.6875 2.82741 4.82741 2.6875 5 2.6875H7.5C7.67256 2.6875 7.8125 2.82741 7.8125 3C7.8125 3.17259 7.67256 3.3125 7.5 3.3125Z" fill="#DC3545"/>
</g>
<g id="XMLID_2178_">
<path id="XMLID_2705_" d="M10 4.5625H5C4.82741 4.5625 4.6875 4.42259 4.6875 4.25C4.6875 4.07741 4.82741 3.9375 5 3.9375H10C10.1726 3.9375 10.3125 4.07741 10.3125 4.25C10.3125 4.42259 10.1726 4.5625 10 4.5625Z" fill="#DC3545"/>
</g>
<g id="XMLID_8_">
<path id="XMLID_2704_" d="M10 5.8125H5C4.82741 5.8125 4.6875 5.67259 4.6875 5.5C4.6875 5.32741 4.82741 5.1875 5 5.1875H10C10.1726 5.1875 10.3125 5.32741 10.3125 5.5C10.3125 5.67259 10.1726 5.8125 10 5.8125Z" fill="#DC3545"/>
</g>
<g id="XMLID_6_">
<path id="XMLID_2703_" d="M4.84375 12.0625C3.98219 12.0625 3.28125 11.3616 3.28125 10.5C3.28125 9.63844 3.98219 8.9375 4.84375 8.9375C5.01634 8.9375 5.15625 9.07741 5.15625 9.25C5.15625 9.42259 5.01634 9.5625 4.84375 9.5625C4.32681 9.5625 3.90625 9.98306 3.90625 10.5C3.90625 11.0169 4.32681 11.4375 4.84375 11.4375C5.01634 11.4375 5.15625 11.5774 5.15625 11.75C5.15625 11.9226 5.01634 12.0625 4.84375 12.0625Z" fill="#DC3545"/>
</g>
<g id="XMLID_4_">
<path id="XMLID_2702_" d="M9.6875 12.0625C9.55725 12.0625 9.44065 11.9817 9.3949 11.8597L8.4574 9.3597C8.39681 9.1981 8.47868 9.01798 8.64028 8.95735C8.80206 8.89676 8.982 8.97867 9.04262 9.14023L9.6875 10.86L10.3324 9.14026C10.393 8.97867 10.573 8.89676 10.7347 8.95738C10.8963 9.01798 10.9782 9.1981 10.9176 9.35973L9.98012 11.8597C9.93434 11.9817 9.81775 12.0625 9.6875 12.0625Z" fill="#DC3545"/>
</g>
<g id="XMLID_2_">
<path id="XMLID_2701_" d="M6.875 12.0625H5.9375C5.76491 12.0625 5.625 11.9226 5.625 11.75C5.625 11.5774 5.76491 11.4375 5.9375 11.4375H6.875C7.04731 11.4375 7.1875 11.2973 7.1875 11.125C7.1875 10.9527 7.04731 10.8125 6.875 10.8125H6.5625C6.04556 10.8125 5.625 10.3919 5.625 9.875C5.625 9.35806 6.04556 8.9375 6.5625 8.9375H7.5C7.67256 8.9375 7.8125 9.07741 7.8125 9.25C7.8125 9.42259 7.67256 9.5625 7.5 9.5625H6.5625C6.39019 9.5625 6.25 9.70269 6.25 9.875C6.25 10.0473 6.39019 10.1875 6.5625 10.1875H6.875C7.39194 10.1875 7.8125 10.6081 7.8125 11.125C7.8125 11.6419 7.39194 12.0625 6.875 12.0625Z" fill="#DC3545"/>
</g>
</g>
</g>
</svg>
