<svg width="53" height="54" viewBox="0 0 53 54" fill="none" xmlns="http://www.w3.org/2000/svg">
<path d="M14.2182 4.88273L8.73438 10.3666" stroke="#DC3545" stroke-miterlimit="10" stroke-linecap="round" stroke-linejoin="round"/>
<path d="M8.73438 4.88273L14.2182 10.3666" stroke="#DC3545" stroke-miterlimit="10" stroke-linecap="round" stroke-linejoin="round"/>
<path d="M37.6191 7.52905L39.2774 9.75815C39.6239 10.2241 40.3135 10.2478 40.6912 9.8066L44.6984 5.12614" stroke="#DC3545" stroke-width="1.5" stroke-miterlimit="10" stroke-linecap="round" stroke-linejoin="round"/>
<path d="M2.65777 1.31638H21.0225C22.0578 1.31638 22.897 2.15569 22.897 3.19095V12.4094C22.897 13.4447 22.0577 14.284 21.0225 14.284H8.80411C8.45164 14.284 8.16594 14.5697 8.16594 14.9222V17.1728C8.16594 17.7521 7.43657 18.0084 7.07426 17.5563L4.6433 14.5231C4.52219 14.372 4.33896 14.284 4.14529 14.284H2.65777C1.62251 14.284 0.783203 13.4447 0.783203 12.4094V3.19095C0.783203 2.15569 1.62251 1.31638 2.65777 1.31638Z" stroke="#DC3545" stroke-width="1.5" stroke-miterlimit="10" stroke-linecap="round" stroke-linejoin="round"/>
<path d="M30.1016 7.99669V12.4095C30.1016 13.4447 30.9409 14.284 31.9761 14.284H44.1945C44.547 14.284 44.8327 14.5697 44.8327 14.9222V17.1728C44.8327 17.7521 45.562 18.0084 45.9243 17.5564L48.3553 14.5231C48.4764 14.372 48.6596 14.284 48.8533 14.284H50.3408C51.3762 14.284 52.2154 13.4447 52.2154 12.4095V3.19098C52.2154 2.15572 51.3762 1.31641 50.3408 1.31641H31.9761C30.9408 1.31641 30.1016 2.15572 30.1016 3.19098V4.36805" stroke="#DC3545" stroke-width="1.5" stroke-miterlimit="10" stroke-linecap="round" stroke-linejoin="round"/>
<path d="M4.86695 42.9971C4.13541 44.0808 3.65137 45.4447 3.65137 47.1568V50.468C3.65137 51.6916 4.64325 52.6836 5.86691 52.6836H24.2841C25.5077 52.6836 26.4996 51.6916 26.4996 50.468V47.1568C26.4996 42.5697 23.0249 40.4816 20.625 39.5865" stroke="#DC3545" stroke-width="1.5" stroke-miterlimit="10" stroke-linecap="round" stroke-linejoin="round"/>
<path d="M9.51697 39.5898C8.90519 39.8184 8.22416 40.1246 7.54883 40.5297" stroke="#DC3545" stroke-width="1.5" stroke-miterlimit="10" stroke-linecap="round" stroke-linejoin="round"/>
<path d="M32.3647 39.5898C29.9652 40.4868 26.499 42.5754 26.499 47.1568V50.468C26.499 51.6916 27.491 52.6836 28.7146 52.6836H47.1319C48.3555 52.6836 49.3474 51.6916 49.3474 50.468V47.1568C49.3474 42.5697 45.8726 40.4816 43.4728 39.5865" stroke="#DC3545" stroke-width="1.5" stroke-miterlimit="10" stroke-linecap="round" stroke-linejoin="round"/>
<path d="M10.8514 38.9712L9.63752 39.5162C9.29705 39.669 9.19375 40.103 9.42893 40.3928L11.0483 42.3889C11.5257 42.9773 12.3615 43.1286 13.015 42.7448L15.0726 41.5361L11.9355 39.0908C11.6226 38.8569 11.2076 38.8112 10.8514 38.9712Z" stroke="#DC3545" stroke-width="1.5" stroke-miterlimit="10" stroke-linecap="round" stroke-linejoin="round"/>
<path d="M19.2944 38.9712L20.5083 39.5162C20.8488 39.669 20.9521 40.103 20.7169 40.3928L19.0975 42.3889C18.62 42.9773 17.7842 43.1286 17.1308 42.7448L15.0732 41.5361L18.2104 39.0908C18.5232 38.8569 18.9382 38.8112 19.2944 38.9712Z" stroke="#DC3545" stroke-width="1.5" stroke-miterlimit="10" stroke-linecap="round" stroke-linejoin="round"/>
<path d="M33.7001 38.9712L32.4862 39.5162C32.1457 39.669 32.0424 40.103 32.2776 40.3928L33.897 42.3889C34.3745 42.9773 35.2103 43.1286 35.8637 42.7448L37.9212 41.5361L34.7841 39.0908C34.4713 38.8569 34.0563 38.8112 33.7001 38.9712Z" stroke="#DC3545" stroke-width="1.5" stroke-miterlimit="10" stroke-linecap="round" stroke-linejoin="round"/>
<path d="M42.1421 38.9712L43.356 39.5162C43.6964 39.669 43.7998 40.103 43.5646 40.3928L41.9452 42.3889C41.4677 42.9773 40.6319 43.1286 39.9785 42.7448L37.9209 41.5361L41.058 39.0908C41.3709 38.8569 41.7859 38.8112 42.1421 38.9712Z" stroke="#DC3545" stroke-width="1.5" stroke-miterlimit="10" stroke-linecap="round" stroke-linejoin="round"/>
<path d="M15.9951 44.6631L17.3114 42.8338" stroke="#DC3545" stroke-width="1.5" stroke-miterlimit="10" stroke-linecap="round" stroke-linejoin="round"/>
<path d="M12.8975 42.8066L14.1505 44.6631" stroke="#DC3545" stroke-width="1.5" stroke-miterlimit="10" stroke-linecap="round" stroke-linejoin="round"/>
<path d="M17.3242 52.6836L15.9951 44.6631H14.1513L12.8223 52.6836" stroke="#DC3545" stroke-width="1.5" stroke-miterlimit="10" stroke-linecap="round" stroke-linejoin="round"/>
<path d="M38.8428 44.6631L40.1624 42.8353" stroke="#DC3545" stroke-width="1.5" stroke-miterlimit="10" stroke-linecap="round" stroke-linejoin="round"/>
<path d="M35.7432 42.8083L36.9992 44.6631" stroke="#DC3545" stroke-width="1.5" stroke-miterlimit="10" stroke-linecap="round" stroke-linejoin="round"/>
<path d="M40.1718 52.6836L38.8428 44.6631H36.999L35.6699 52.6836" stroke="#DC3545" stroke-width="1.5" stroke-miterlimit="10" stroke-linecap="round" stroke-linejoin="round"/>
<path d="M42.7694 24.1234H42.7162C42.422 24.1234 42.1834 23.8848 42.1834 23.5906C42.1834 22.7194 41.4772 22.013 40.6059 22.013H35.585C33.3505 22.013 31.5391 23.8244 31.5391 26.0589V28.7326C31.5391 29.1254 31.7876 29.4752 32.1585 29.6042L33.1551 29.9513C33.5034 30.0727 33.8672 29.8137 33.8666 29.4447L33.8644 27.5593C33.8606 26.6425 34.5918 25.896 35.4977 25.8921L35.5174 25.892C35.7947 25.8908 36.0689 25.9339 36.3309 26.018C37.3319 26.3397 38.554 26.3397 39.5551 26.018C39.817 25.9339 40.0912 25.8908 40.3685 25.892L40.3883 25.8921C41.2942 25.896 42.0253 26.6425 42.0215 27.5593L42.0196 29.4448C42.0192 29.8138 42.3829 30.0727 42.7312 29.9513L43.7275 29.6043C44.0984 29.4752 44.3468 29.1255 44.3468 28.7327V25.7009C44.3468 24.8296 43.6407 24.1234 42.7694 24.1234Z" stroke="#DC3545" stroke-width="1.5" stroke-miterlimit="10" stroke-linecap="round" stroke-linejoin="round"/>
<path d="M31.6236 29.1138C31.2962 29.3596 31.0837 29.75 31.084 30.1908L31.0848 31.4118C31.0854 32.1553 31.6884 32.7575 32.4319 32.7572L32.7776 32.757C32.8125 34.1322 33.389 35.4536 34.4242 36.3483C35.2577 37.0684 36.4277 37.6951 37.9697 37.7061C39.5117 37.682 40.6765 37.0452 41.5039 36.318C42.5316 35.4146 43.0971 34.0884 43.1205 32.713L43.4746 32.7115C43.9917 32.7092 44.4091 32.2831 44.4069 31.7598L44.4025 29.7413C44.4017 29.5347 44.3348 29.3444 44.2233 29.1892" stroke="#DC3545" stroke-width="1.5" stroke-miterlimit="10" stroke-linecap="round" stroke-linejoin="round"/>
<path d="M35.3764 37.0194V37.6964C35.3764 38.2319 35.0802 38.7234 34.6067 38.9737L34.5947 38.9801" stroke="#DC3545" stroke-width="1.5" stroke-miterlimit="10" stroke-linecap="round" stroke-linejoin="round"/>
<path d="M41.25 38.9788L41.2402 38.9737C40.7669 38.7234 40.4707 38.2319 40.4707 37.6963V37.0465" stroke="#DC3545" stroke-width="1.5" stroke-miterlimit="10" stroke-linecap="round" stroke-linejoin="round"/>
<path d="M12.5277 36.685V37.6964C12.5277 38.2319 12.2316 38.7234 11.7581 38.9737L11.7461 38.9801" stroke="#DC3545" stroke-width="1.5" stroke-miterlimit="10" stroke-linecap="round" stroke-linejoin="round"/>
<path d="M18.4023 38.9788L18.3926 38.9737C17.9192 38.7234 17.623 38.2319 17.623 37.6963V36.685" stroke="#DC3545" stroke-width="1.5" stroke-miterlimit="10" stroke-linecap="round" stroke-linejoin="round"/>
<path d="M8.60289 29.5273L8.59864 31.4899C8.59647 31.9988 9.00235 32.413 9.50513 32.4151L9.84942 32.4166C9.87219 33.754 10.422 35.0435 11.4213 35.9219C12.2258 36.629 13.3583 37.2481 14.8575 37.2715C14.9313 37.271 15.2199 37.271 15.2938 37.2715C16.793 37.2481 17.9255 36.629 18.73 35.9219C19.7294 35.0435 20.2791 33.754 20.3019 32.4166L20.6462 32.4151C21.149 32.413 21.5549 31.9988 21.5527 31.4899L21.5484 29.5273" stroke="#DC3545" stroke-width="1.5" stroke-miterlimit="10" stroke-linecap="round" stroke-linejoin="round"/>
<path d="M21.5477 29.5033V26.7121C21.5477 24.1169 19.4439 22.0131 16.8486 22.0131H9.47406C8.99054 22.0131 8.59863 22.405 8.59863 22.8885C8.59863 24.6718 10.0444 26.1176 11.8278 26.1176H17.1813C18.0086 26.1176 18.6792 26.7882 18.6792 27.6155V27.8273C18.6792 28.7662 19.4403 29.5273 20.3791 29.5273H21.5527L21.5477 29.5033Z" stroke="#DC3545" stroke-width="1.5" stroke-miterlimit="10" stroke-linecap="round" stroke-linejoin="round"/>
<path d="M9.28036 24.8721C8.85574 25.4207 8.60254 26.1086 8.60254 26.8561V29.5274H9.7762C10.715 29.5274 11.476 28.7662 11.476 27.8273V26.0982" stroke="#DC3545" stroke-width="1.5" stroke-miterlimit="10" stroke-linecap="round" stroke-linejoin="round"/>
</svg>
