<svg width="50" height="50" viewBox="0 0 50 50" fill="none" xmlns="http://www.w3.org/2000/svg">
<path d="M46.9255 49.667C48.4392 49.667 49.6667 48.4395 49.6667 46.9259V2.74127C49.6667 1.22704 48.4392 -4.71318e-05 46.9255 -4.71318e-05H2.74114C1.2269 -4.71318e-05 0 1.22704 0 2.74127V46.9259C0 48.4395 1.2269 49.667 2.74114 49.667H46.9255Z" fill="#9A9A9A"/>
<path d="M34.2691 49.667V30.4334H40.7252L41.6918 22.9377H34.2691V18.1519C34.2691 15.9817 34.8717 14.5029 37.9839 14.5029L41.9532 14.501V7.79684C41.2666 7.70566 38.9104 7.50151 36.1693 7.50151C30.4464 7.50151 26.5286 10.9946 26.5286 17.4098V22.9377H20.0562V30.4334H26.5286V49.667H34.2691Z" fill="white"/>
</svg>
