<svg width="17" height="16" viewBox="0 0 17 16" fill="none" xmlns="http://www.w3.org/2000/svg">
<g clip-path="url(#clip0_6459_56020)">
<path d="M8.5 0C6.91775 0 5.37104 0.469192 4.05544 1.34824C2.73985 2.22729 1.71447 3.47672 1.10897 4.93853C0.503466 6.40034 0.34504 8.00887 0.653721 9.56072C0.962403 11.1126 1.72433 12.538 2.84315 13.6569C3.96197 14.7757 5.38743 15.5376 6.93928 15.8463C8.49113 16.155 10.0997 15.9965 11.5615 15.391C13.0233 14.7855 14.2727 13.7602 15.1518 12.4446C16.0308 11.129 16.5 9.58225 16.5 8C16.4976 5.87899 15.654 3.84554 14.1542 2.34576C12.6545 0.845979 10.621 0.0023645 8.5 0ZM8.5 14.6667C7.18146 14.6667 5.89253 14.2757 4.7962 13.5431C3.69987 12.8106 2.84539 11.7694 2.34081 10.5512C1.83622 9.33305 1.7042 7.99261 1.96144 6.6994C2.21867 5.40619 2.85361 4.21831 3.78596 3.28596C4.71831 2.35361 5.9062 1.71867 7.1994 1.46143C8.49261 1.2042 9.83305 1.33622 11.0512 1.8408C12.2694 2.34539 13.3106 3.19987 14.0431 4.2962C14.7757 5.39253 15.1667 6.68146 15.1667 8C15.1647 9.76749 14.4616 11.462 13.2118 12.7118C11.962 13.9616 10.2675 14.6647 8.5 14.6667Z" fill="#FA981C"/>
<path d="M10.9704 5.52836C10.9085 5.46643 10.8351 5.4173 10.7542 5.38378C10.6733 5.35026 10.5866 5.33301 10.4991 5.33301C10.4115 5.33301 10.3248 5.35026 10.244 5.38378C10.1631 5.4173 10.0896 5.46643 10.0277 5.52836L8.49908 7.05696L6.97041 5.52836C6.84468 5.40693 6.67627 5.33973 6.50148 5.34125C6.32668 5.34277 6.15947 5.41288 6.03587 5.53649C5.91226 5.66009 5.84215 5.8273 5.84063 6.0021C5.83911 6.1769 5.90631 6.3453 6.02774 6.47103L7.55634 7.9997L6.02774 9.52837C5.96407 9.58986 5.91328 9.66343 5.87834 9.74476C5.8434 9.8261 5.82501 9.91358 5.82424 10.0021C5.82347 10.0906 5.84034 10.1784 5.87386 10.2603C5.90738 10.3423 5.95689 10.4167 6.01948 10.4793C6.08208 10.5419 6.15651 10.5914 6.23844 10.6249C6.32037 10.6584 6.40816 10.6753 6.49668 10.6745C6.5852 10.6738 6.67268 10.6554 6.75401 10.6204C6.83535 10.5855 6.90891 10.5347 6.97041 10.471L8.49908 8.94243L10.0277 10.471C10.1535 10.5925 10.3219 10.6597 10.4967 10.6581C10.6715 10.6566 10.8387 10.5865 10.9623 10.4629C11.0859 10.3393 11.156 10.1721 11.1575 9.9973C11.159 9.8225 11.0918 9.6541 10.9704 9.52837L9.44181 7.9997L10.9704 6.47103C11.0323 6.40915 11.0815 6.33568 11.115 6.25481C11.1485 6.17393 11.1658 6.08724 11.1658 5.9997C11.1658 5.91215 11.1485 5.82546 11.115 5.74459C11.0815 5.66372 11.0323 5.59024 10.9704 5.52836Z" fill="#FA981C"/>
</g>
<defs>
<clipPath id="clip0_6459_56020">
<rect width="16" height="16" fill="white" transform="translate(0.5)"/>
</clipPath>
</defs>
</svg>
