<svg width="25" height="24" viewBox="0 0 25 24" fill="none" xmlns="http://www.w3.org/2000/svg">
<g clip-path="url(#clip0_2829_7361)">
<path d="M14.7739 8.0625H5.30518" stroke="#DC3545" stroke-miterlimit="10" stroke-linecap="round" stroke-linejoin="round"/>
<path d="M8.43019 10.6875H5.30518" stroke="#DC3545" stroke-miterlimit="10" stroke-linecap="round" stroke-linejoin="round"/>
<path d="M14.7739 10.6875H11.2935" stroke="#DC3545" stroke-miterlimit="10" stroke-linecap="round" stroke-linejoin="round"/>
<path d="M14.7739 5.4375H5.30518" stroke="#DC3545" stroke-miterlimit="10" stroke-linecap="round" stroke-linejoin="round"/>
<path d="M14.7739 13.3125H5.30518" stroke="#DC3545" stroke-miterlimit="10" stroke-linecap="round" stroke-linejoin="round"/>
<path d="M7.71924 15.9375H5.30518" stroke="#DC3545" stroke-miterlimit="10" stroke-linecap="round" stroke-linejoin="round"/>
<path d="M12.7583 15.9375H9.82861" stroke="#DC3545" stroke-miterlimit="10" stroke-linecap="round" stroke-linejoin="round"/>
<path d="M9.43018 18.5625H5.30518" stroke="#DC3545" stroke-miterlimit="10" stroke-linecap="round" stroke-linejoin="round"/>
<path d="M18.852 2.34375V0.46875H1.22705V23.5312H18.852V16.875" stroke="#DC3545" stroke-miterlimit="10" stroke-linecap="round" stroke-linejoin="round"/>
<path d="M22.7 10.0537L20.5737 8.82611L20.9851 8.1136C21.3241 7.52646 22.0749 7.32528 22.662 7.66429C23.2492 8.00327 23.4504 8.75406 23.1114 9.3412L22.7 10.0537Z" stroke="#DC3545" stroke-miterlimit="10" stroke-linecap="round" stroke-linejoin="round"/>
<path d="M20.5737 8.8261L14.5752 19.2159L14.25 22.2344L16.7014 20.4435L22.7 10.0537L20.5737 8.8261Z" stroke="#DC3545" stroke-miterlimit="10" stroke-linecap="round" stroke-linejoin="round"/>
<path d="M14.7329 19.3072L16.5435 20.3525" stroke="#DC3545" stroke-miterlimit="10" stroke-linecap="round" stroke-linejoin="round"/>
<path d="M18.8521 10.6875V6.5625" stroke="#DC3545" stroke-miterlimit="10" stroke-linecap="round" stroke-linejoin="round"/>
</g>
<defs>
<clipPath id="clip0_2829_7361">
<rect width="24" height="24" fill="white" transform="translate(0.75)"/>
</clipPath>
</defs>
</svg>
