<svg width="16" height="14" viewBox="0 0 16 14" fill="none" xmlns="http://www.w3.org/2000/svg">
<path fill-rule="evenodd" clip-rule="evenodd" d="M1.31137 0C0.587128 0 0 0.587119 0 1.31138V4.4697C0 5.19396 0.587128 5.78108 1.31137 5.78108H4.46971C5.19395 5.78108 5.78109 5.19396 5.78109 4.4697V1.31138C5.78109 0.587119 5.19395 0 4.46971 0H1.31137ZM1.03319 1.31138C1.03319 1.15775 1.15774 1.0332 1.31137 1.0332H4.46971C4.62334 1.0332 4.74788 1.15775 4.74788 1.31138V4.4697C4.74788 4.62333 4.62334 4.74787 4.46971 4.74787H1.31137C1.15774 4.74787 1.03319 4.62333 1.03319 4.4697V1.31138Z" fill="#FA981C"/>
<path fill-rule="evenodd" clip-rule="evenodd" d="M11.5301 0C10.8059 0 10.2188 0.587119 10.2188 1.31138V4.4697C10.2188 5.19396 10.8059 5.78108 11.5301 5.78108H14.6885C15.4127 5.78108 15.9998 5.19396 15.9998 4.4697V1.31138C15.9998 0.587119 15.4127 0 14.6885 0H11.5301ZM11.252 1.31138C11.252 1.15775 11.3765 1.0332 11.5301 1.0332H14.6885C14.8421 1.0332 14.9666 1.15775 14.9666 1.31138V4.4697C14.9666 4.62333 14.8421 4.74787 14.6885 4.74787H11.5301C11.3765 4.74787 11.252 4.62333 11.252 4.4697V1.31138Z" fill="#FA981C"/>
<path fill-rule="evenodd" clip-rule="evenodd" d="M9.3127 7.75034H15.4834C15.7687 7.75034 16 7.51906 16 7.23373C16 6.94843 15.7687 6.71713 15.4834 6.71713H0.516592C0.231291 6.71713 0 6.94843 0 7.23373C0 7.51906 0.231291 7.75034 0.516592 7.75034H6.65784L4.28268 11.8642C3.77792 12.7385 4.40887 13.8313 5.41837 13.8313H10.5522C11.5617 13.8313 12.1926 12.7385 11.6878 11.8642L9.3127 7.75034ZM8.22617 7.93482C8.11909 7.74938 7.85143 7.74938 7.74436 7.93482L5.17746 12.3808C5.0704 12.5663 5.20422 12.7981 5.41837 12.7981H10.5522C10.7663 12.7981 10.9001 12.5663 10.7931 12.3808L8.22617 7.93482Z" fill="#FA981C"/>
</svg>
