<svg width="17" height="16" viewBox="0 0 17 16" fill="none" xmlns="http://www.w3.org/2000/svg">
<path d="M13.75 4C13.5511 4 13.3603 4.07901 13.2197 4.21965C13.079 4.3603 13 4.55105 13 4.74995V13.1426C12.9785 13.5218 12.808 13.8772 12.5256 14.1313C12.2433 14.3854 11.8719 14.5177 11.4925 14.4993H5.5075C5.12807 14.5177 4.75674 14.3854 4.47438 14.1313C4.19202 13.8772 4.02151 13.5218 4 13.1426V4.74995C4 4.55105 3.92098 4.3603 3.78033 4.21965C3.63968 4.07901 3.44891 4 3.25 4C3.05109 4 2.86032 4.07901 2.71967 4.21965C2.57902 4.3603 2.5 4.55105 2.5 4.74995V13.1426C2.52141 13.9197 2.84994 14.6567 3.41364 15.1921C3.97733 15.7275 4.73025 16.0177 5.5075 15.9992H11.4925C12.2697 16.0177 13.0227 15.7275 13.5864 15.1921C14.1501 14.6567 14.4786 13.9197 14.5 13.1426V4.74995C14.5 4.55105 14.421 4.3603 14.2803 4.21965C14.1397 4.07901 13.9489 4 13.75 4Z" fill="#FA981C"/>
<path d="M14.7222 2.4H11.6111V0.8C11.6111 0.587827 11.5292 0.384344 11.3833 0.234315C11.2374 0.0842854 11.0396 0 10.8333 0H6.16667C5.96039 0 5.76256 0.0842854 5.61669 0.234315C5.47083 0.384344 5.38889 0.587827 5.38889 0.8V2.4H2.27778C2.0715 2.4 1.87367 2.48429 1.72781 2.63431C1.58194 2.78434 1.5 2.98783 1.5 3.2C1.5 3.41217 1.58194 3.61566 1.72781 3.76569C1.87367 3.91571 2.0715 4 2.27778 4H14.7222C14.9285 4 15.1263 3.91571 15.2722 3.76569C15.4181 3.61566 15.5 3.41217 15.5 3.2C15.5 2.98783 15.4181 2.78434 15.2722 2.63431C15.1263 2.48429 14.9285 2.4 14.7222 2.4ZM6.94444 2.4V1.6H10.0556V2.4H6.94444Z" fill="#FA981C"/>
<path d="M7.5 11.3333V6.66667C7.5 6.48986 7.44732 6.32029 7.35355 6.19526C7.25979 6.07024 7.13261 6 7 6C6.86739 6 6.74021 6.07024 6.64645 6.19526C6.55268 6.32029 6.5 6.48986 6.5 6.66667V11.3333C6.5 11.5101 6.55268 11.6797 6.64645 11.8047C6.74021 11.9298 6.86739 12 7 12C7.13261 12 7.25979 11.9298 7.35355 11.8047C7.44732 11.6797 7.5 11.5101 7.5 11.3333Z" fill="#FA981C"/>
<path d="M10.5 11.3333V6.66667C10.5 6.48986 10.4473 6.32029 10.3536 6.19526C10.2598 6.07024 10.1326 6 10 6C9.86739 6 9.74021 6.07024 9.64645 6.19526C9.55268 6.32029 9.5 6.48986 9.5 6.66667V11.3333C9.5 11.5101 9.55268 11.6797 9.64645 11.8047C9.74021 11.9298 9.86739 12 10 12C10.1326 12 10.2598 11.9298 10.3536 11.8047C10.4473 11.6797 10.5 11.5101 10.5 11.3333Z" fill="#FA981C"/>
</svg>
