<svg width="18" height="16" viewBox="0 0 18 16" fill="none" xmlns="http://www.w3.org/2000/svg">
<path d="M8.9998 11.4467C8.56177 11.4474 8.12787 11.3619 7.72293 11.1949C7.31798 11.0279 6.94993 10.7827 6.6398 10.4733L1.19313 5.02666C1.0676 4.90113 0.99707 4.73086 0.99707 4.55333C0.99707 4.37579 1.0676 4.20553 1.19313 4.08C1.31867 3.95446 1.48893 3.88393 1.66646 3.88393C1.844 3.88393 2.01426 3.95446 2.1398 4.08L7.58646 9.52666C7.96147 9.9012 8.4698 10.1116 8.9998 10.1116C9.5298 10.1116 10.0381 9.9012 10.4131 9.52666L15.8598 4.08C15.9853 3.95446 16.1556 3.88393 16.3331 3.88393C16.5107 3.88393 16.6809 3.95446 16.8065 4.08C16.932 4.20553 17.0025 4.37579 17.0025 4.55333C17.0025 4.73086 16.932 4.90113 16.8065 5.02666L11.3598 10.4733C11.0497 10.7827 10.6816 11.0279 10.2767 11.1949C9.87172 11.3619 9.43783 11.4474 8.9998 11.4467V11.4467Z" fill="#FA981C"/>
</svg>
