<svg width="18" height="16" viewBox="0 0 18 16" fill="none" xmlns="http://www.w3.org/2000/svg">
<g id="fi-rr-angle-down">
<path id="Vector" d="M9.00007 11.4466C8.56204 11.4474 8.12815 11.3619 7.7232 11.1948C7.31826 11.0278 6.9502 10.7827 6.64007 10.4733L1.19341 5.02664C1.06787 4.9011 0.997345 4.73084 0.997345 4.55331C0.997345 4.37577 1.06787 4.20551 1.19341 4.07997C1.31894 3.95444 1.4892 3.88391 1.66674 3.88391C1.84427 3.88391 2.01454 3.95444 2.14007 4.07997L7.58674 9.52664C7.96174 9.90117 8.47007 10.1115 9.00007 10.1115C9.53007 10.1115 10.0384 9.90117 10.4134 9.52664L15.8601 4.07997C15.9856 3.95444 16.1559 3.88391 16.3334 3.88391C16.5109 3.88391 16.6812 3.95444 16.8067 4.07997C16.9323 4.20551 17.0028 4.37577 17.0028 4.55331C17.0028 4.73084 16.9323 4.9011 16.8067 5.02664L11.3601 10.4733C11.0499 10.7827 10.6819 11.0278 10.2769 11.1948C9.872 11.3619 9.43811 11.4474 9.00007 11.4466Z" fill="#DC3545"/>
</g>
</svg>
