<svg width="24" height="25" viewBox="0 0 24 25" fill="none" xmlns="http://www.w3.org/2000/svg">
<g clip-path="url(#clip0_1050_7708)">
<path fill-rule="evenodd" clip-rule="evenodd" d="M11.8834 24.2662C5.31977 24.2662 0 18.9457 0 12.3827C0 5.82114 5.32046 0.5 11.8834 0.5C18.4457 0.5 23.7662 5.82046 23.7662 12.3834C23.7662 18.9457 18.445 24.2662 11.8827 24.2662H11.8834Z" fill="white"/>
<path d="M7.38378 10.8495H9.5088V17.2314H7.38378V10.8495ZM16.4839 11.4323C16.0375 10.9455 15.4471 10.7014 14.7127 10.7014C14.4425 10.7014 14.1963 10.735 13.9755 10.8015C13.7541 10.868 13.5675 10.9613 13.4153 11.0813C13.2631 11.2019 13.141 11.3137 13.0519 11.4166C12.9655 11.5139 12.8818 11.6285 12.8002 11.7574V10.8495H10.6814L10.6882 11.1587C10.6923 11.3645 10.6944 12.0001 10.6944 13.065C10.6944 14.1299 10.6903 15.5185 10.6814 17.2314H12.8002V13.6705C12.8002 13.4511 12.8235 13.2776 12.8709 13.1487C12.9614 12.9293 13.0971 12.7462 13.2802 12.5981C13.4626 12.4499 13.6889 12.3759 13.9591 12.3759C14.3287 12.3759 14.6002 12.5034 14.7744 12.7592C14.9479 13.0143 15.035 13.3674 15.035 13.8186V17.2314H17.1538V13.5738C17.1538 12.6337 16.9303 11.9199 16.4839 11.4323ZM8.45966 7.77749C8.10309 7.77749 7.81509 7.88172 7.5936 8.09017C7.37143 8.29795 7.26172 8.56126 7.26172 8.87875C7.26172 9.19212 7.36938 9.45475 7.584 9.66457C7.79863 9.87509 8.08183 9.98 8.43429 9.98H8.44663C8.80732 9.98 9.09806 9.87509 9.31955 9.66457C9.54035 9.45406 9.64869 9.19212 9.64458 8.87875C9.64046 8.56126 9.53075 8.29795 9.31543 8.09017C9.10218 7.88172 8.81623 7.77749 8.46035 7.77749H8.45966Z" fill="#E82C2A"/>
</g>
<rect x="0.5" y="1" width="23" height="23" rx="11.5" stroke="#E9E9E9"/>
<defs>
<clipPath id="clip0_1050_7708">
<rect y="0.5" width="24" height="24" rx="12" fill="white"/>
</clipPath>
</defs>
</svg>
