<svg width="76" height="76" viewBox="0 0 76 76" fill="none" xmlns="http://www.w3.org/2000/svg">
<path id="Ellipse 11" d="M72.6562 38C74.5029 38 76.0153 39.5 75.853 41.3396C75.1833 48.9316 72.242 56.1757 67.3744 62.1069C61.7971 68.9029 54.036 73.5547 45.4134 75.2698C36.7909 76.985 27.8403 75.6573 20.0869 71.513C12.3335 67.3687 6.25694 60.6643 2.89258 52.542C-0.471783 44.4197 -0.915771 35.3821 1.63627 26.9692C4.1883 18.5562 9.57846 11.2885 16.8883 6.40416C24.1982 1.51986 32.9755 -0.678737 41.7246 0.18298C49.3606 0.935053 56.5628 3.9776 62.4046 8.87239C63.8202 10.0584 63.8115 12.1885 62.5056 13.4944C61.1997 14.8003 59.0926 14.7842 57.655 13.6249C52.9246 9.8104 47.1646 7.43882 41.0691 6.83847C33.8598 6.12841 26.6272 7.94007 20.6038 11.9648C14.5804 15.9895 10.1389 21.9782 8.03599 28.9105C5.93309 35.8429 6.29894 43.2899 9.0712 49.9827C11.8435 56.6755 16.8506 62.2001 23.2395 65.615C29.6284 69.0299 37.0037 70.1239 44.1087 68.7106C51.2138 67.2974 57.609 63.4642 62.2047 57.8643C66.0903 53.1297 68.4863 47.3798 69.134 41.3376C69.3308 39.5013 70.8094 38 72.6562 38Z" fill="#FA981C"/>
</svg>
