<svg width="48" height="48" viewBox="0 0 48 48" fill="none" xmlns="http://www.w3.org/2000/svg">
<circle cx="24" cy="24" r="24" fill="#F1F1F1"/>
<path d="M23.9987 23.9667C22.532 23.9667 21.332 23.5 20.3987 22.5667C19.4654 21.6333 18.9987 20.4333 18.9987 18.9667C18.9987 17.5 19.4654 16.3 20.3987 15.3667C21.332 14.4333 22.532 13.9667 23.9987 13.9667C25.4654 13.9667 26.6654 14.4333 27.5987 15.3667C28.532 16.3 28.9987 17.5 28.9987 18.9667C28.9987 20.4333 28.532 21.6333 27.5987 22.5667C26.6654 23.5 25.4654 23.9667 23.9987 23.9667ZM13.332 34.6667V31.5333C13.332 30.6889 13.5431 29.9667 13.9654 29.3667C14.3876 28.7667 14.932 28.3111 15.5987 28C17.0876 27.3333 18.5154 26.8333 19.882 26.5C21.2487 26.1667 22.6209 26 23.9987 26C25.3765 26 26.7431 26.1722 28.0987 26.5167C29.4543 26.8611 30.8756 27.3577 32.3627 28.0065C33.0583 28.3204 33.616 28.7756 34.0357 29.372C34.4555 29.9685 34.6654 30.6889 34.6654 31.5333V34.6667H13.332ZM15.332 32.6667H32.6654V31.5333C32.6654 31.1778 32.5598 30.8389 32.3487 30.5167C32.1376 30.1945 31.8765 29.9556 31.5654 29.8C30.1431 29.1111 28.8431 28.6389 27.6654 28.3833C26.4876 28.1278 25.2654 28 23.9987 28C22.732 28 21.4987 28.1278 20.2987 28.3833C19.0987 28.6389 17.7987 29.1111 16.3987 29.8C16.0876 29.9556 15.832 30.1945 15.632 30.5167C15.432 30.8389 15.332 31.1778 15.332 31.5333V32.6667ZM23.9987 21.9667C24.8654 21.9667 25.582 21.6833 26.1487 21.1167C26.7154 20.55 26.9987 19.8333 26.9987 18.9667C26.9987 18.1 26.7154 17.3833 26.1487 16.8167C25.582 16.25 24.8654 15.9667 23.9987 15.9667C23.132 15.9667 22.4154 16.25 21.8487 16.8167C21.282 17.3833 20.9987 18.1 20.9987 18.9667C20.9987 19.8333 21.282 20.55 21.8487 21.1167C22.4154 21.6833 23.132 21.9667 23.9987 21.9667Z" fill="black"/>
</svg>
