<svg width="28" height="28" viewBox="0 0 28 28" fill="none" xmlns="http://www.w3.org/2000/svg">
<g id="Register_">
<path id="Vector" d="M15.0254 6.78125H6.27539C5.43119 6.78125 4.74414 6.0942 4.74414 5.25V3.5C4.74414 2.6558 5.43119 1.96875 6.27539 1.96875H8.3347C8.62179 0.96005 9.5506 0.21875 10.6504 0.21875C11.3007 0.21875 11.9057 0.4725 12.3543 0.9331C12.6474 1.21809 12.8567 1.57439 12.967 1.96875H15.0254C15.8696 1.96875 16.5566 2.6558 16.5566 3.5V5.25C16.5566 6.0942 15.8696 6.78125 15.0254 6.78125ZM6.27539 3.28125C6.1549 3.28125 6.05664 3.37951 6.05664 3.5V5.25C6.05664 5.37049 6.1549 5.46875 6.27539 5.46875H15.0254C15.1459 5.46875 15.2441 5.37049 15.2441 5.25V3.5C15.2441 3.37951 15.1459 3.28125 15.0254 3.28125H12.4004C12.0381 3.28125 11.7441 2.98734 11.7441 2.625C11.7441 2.33188 11.6314 2.06062 11.4263 1.86147C11.2143 1.64404 10.9434 1.53125 10.6504 1.53125C10.0471 1.53125 9.55664 2.02169 9.55664 2.625C9.55664 2.98734 9.26273 3.28125 8.90039 3.28125H6.27539Z" fill="#222931"/>
<path id="Vector_2" d="M17.6504 27.7812H3.65039C2.32337 27.7812 1.24414 26.702 1.24414 25.375V6.125C1.24414 4.79797 2.32337 3.71875 3.65039 3.71875H5.40039C5.76273 3.71875 6.05664 4.01266 6.05664 4.375C6.05664 4.73734 5.76273 5.03125 5.40039 5.03125H3.65039C3.04708 5.03125 2.55664 5.52169 2.55664 6.125V25.375C2.55664 25.9783 3.04708 26.4688 3.65039 26.4688H17.6504C18.2537 26.4688 18.7441 25.9783 18.7441 25.375V23.625C18.7441 23.2627 19.0381 22.9688 19.4004 22.9688C19.7627 22.9688 20.0566 23.2627 20.0566 23.625V25.375C20.0566 26.702 18.9774 27.7812 17.6504 27.7812Z" fill="#222931"/>
<path id="Vector_3" d="M19.4004 11.9087C19.0381 11.9087 18.7441 11.6148 18.7441 11.2524V6.125C18.7441 5.52169 18.2537 5.03125 17.6504 5.03125H15.9004C15.5381 5.03125 15.2441 4.73734 15.2441 4.375C15.2441 4.01266 15.5381 3.71875 15.9004 3.71875H17.6504C18.9774 3.71875 20.0566 4.79841 20.0566 6.125V11.2524C20.0566 11.6148 19.7627 11.9087 19.4004 11.9087Z" fill="#222931"/>
<path id="Vector_4" d="M13.2128 24.2815C13.0401 24.2815 12.8727 24.2136 12.7488 24.0893C12.5933 23.9342 12.5266 23.7116 12.5693 23.4967L13.1879 20.403C13.2136 20.2757 13.276 20.1591 13.3674 20.0677L21.4107 12.0243C21.6671 11.7679 22.0824 11.7679 22.3387 12.0243L24.8141 14.4993C24.9372 14.6224 25.0064 14.7894 25.0064 14.9634C25.0064 15.1373 24.9372 15.3043 24.8141 15.4274L16.7708 23.4707C16.6794 23.5626 16.5623 23.625 16.4358 23.6502L13.3418 24.2688C13.2982 24.2774 13.2556 24.2815 13.2128 24.2815ZM14.4356 20.855L14.0494 22.7887L15.9831 22.4021L23.4224 14.9633L21.8748 13.4162L14.4356 20.855Z" fill="#222931"/>
<path id="Vector_5" d="M24.3505 15.6195C24.1821 15.6195 24.0146 15.5554 23.8864 15.4273L21.411 12.9522C21.288 12.8292 21.2188 12.6622 21.2188 12.4882C21.2188 12.3143 21.288 12.1473 21.411 12.0242L22.6483 10.7869C23.5874 9.8486 25.1144 9.84948 26.0517 10.7869C26.5063 11.241 26.7567 11.8452 26.7567 12.4881C26.7567 13.1311 26.5064 13.7353 26.0517 14.1898L24.8144 15.4272C24.6862 15.5554 24.5188 15.6195 24.3505 15.6195ZM22.8029 12.4882L24.3505 14.0353L25.1238 13.262C25.3305 13.0552 25.4442 12.7805 25.4442 12.4882C25.4442 12.196 25.3305 11.9217 25.1238 11.7149C24.6965 11.2894 24.0035 11.2876 23.5763 11.7149L22.8029 12.4882Z" fill="#222931"/>
<path id="Vector_6" d="M15.9004 10.2812H5.40039C5.03805 10.2812 4.74414 9.98734 4.74414 9.625C4.74414 9.26266 5.03805 8.96875 5.40039 8.96875H15.9004C16.2627 8.96875 16.5566 9.26266 16.5566 9.625C16.5566 9.98734 16.2627 10.2812 15.9004 10.2812Z" fill="#222931"/>
<path id="Vector_7" d="M15.9004 13.7812H5.40039C5.03805 13.7812 4.74414 13.4873 4.74414 13.125C4.74414 12.7627 5.03805 12.4688 5.40039 12.4688H15.9004C16.2627 12.4688 16.5566 12.7627 16.5566 13.125C16.5566 13.4873 16.2627 13.7812 15.9004 13.7812Z" fill="#222931"/>
<path id="Vector_8" d="M14.0282 17.2812H5.40039C5.03805 17.2812 4.74414 16.9873 4.74414 16.625C4.74414 16.2627 5.03805 15.9688 5.40039 15.9688H14.0282C14.3906 15.9688 14.6845 16.2627 14.6845 16.625C14.6845 16.9873 14.3905 17.2812 14.0282 17.2812Z" fill="#222931"/>
<path id="Vector_9" d="M11.2366 20.7812H5.40039C5.03805 20.7812 4.74414 20.4873 4.74414 20.125C4.74414 19.7627 5.03805 19.4688 5.40039 19.4688H11.2366C11.5989 19.4688 11.8928 19.7627 11.8928 20.125C11.8928 20.4873 11.5989 20.7812 11.2366 20.7812Z" fill="#222931"/>
<path id="Vector_10" d="M10.5367 24.2812H5.40039C5.03805 24.2812 4.74414 23.9873 4.74414 23.625C4.74414 23.2627 5.03805 22.9688 5.40039 22.9688H10.5367C10.8991 22.9688 11.193 23.2627 11.193 23.625C11.193 23.9873 10.8991 24.2812 10.5367 24.2812Z" fill="#222931"/>
</g>
</svg>
