<svg width="15" height="16" viewBox="0 0 15 16" fill="none" xmlns="http://www.w3.org/2000/svg">
<g id="Group">
<g id="Group_2">
<g id="Group_3">
<path id="Vector" d="M5.89637 8.95269C5.65808 8.78194 5.36662 8.70198 5.07455 8.72723C4.79812 8.72323 4.52187 8.74391 4.24908 8.78904V11.6363H4.85271V10.6036C4.92171 10.6085 4.99099 10.6085 5.05999 10.6036C5.38074 10.6244 5.69646 10.5157 5.93637 10.3018C6.10555 10.1154 6.19443 9.8697 6.18365 9.61816C6.18937 9.3651 6.08446 9.1221 5.89637 8.95269ZM5.15465 10.123C5.12174 10.1243 5.08877 10.1221 5.05633 10.1164L5.07452 10.1127C5.00687 10.1207 4.93852 10.1207 4.8709 10.1127V9.24726C4.95308 9.22798 5.03743 9.21941 5.1218 9.22179C5.42727 9.22179 5.59818 9.38179 5.59818 9.6436C5.60808 9.89848 5.40952 10.1131 5.15465 10.123Z" fill="#DC3545"/>
<path id="Vector_2" d="M10.4091 0H2.40909C1.60578 0 0.954529 0.651219 0.954529 1.45453V14.5454C0.954529 15.3488 1.60575 16 2.40906 16H12.5909C13.3942 16 14.0454 15.3488 14.0454 14.5454V4L10.4091 0ZM13.3182 14.5455C13.3182 14.9471 12.9926 15.2727 12.5909 15.2727H2.40909C2.00744 15.2727 1.68181 14.9471 1.68181 14.5455V1.45453C1.68181 1.05287 2.00744 0.72725 2.40909 0.72725H8.95456V4.36363C8.95456 4.76528 9.28015 5.09091 9.68184 5.09091H13.3182L13.3182 14.5455ZM9.68181 4.36363V0.727281H10.0454L13.3182 4.36366L9.68181 4.36363Z" fill="#DC3545"/>
<path id="Vector_3" d="M8.35819 9.05818C8.04247 8.81934 7.65144 8.7019 7.25638 8.72727C6.98 8.72534 6.70394 8.74602 6.43091 8.78909V11.6364C6.65991 11.667 6.89078 11.6816 7.12181 11.68C7.56666 11.7129 8.00841 11.5837 8.36544 11.3164C8.67625 11.0102 8.83935 10.5846 8.81272 10.1491C8.84272 9.73396 8.67406 9.32918 8.35819 9.05818ZM8.1691 10.1491C8.16547 10.8364 7.80547 11.16 7.25638 11.1564V11.1527C7.18625 11.1597 7.1156 11.1597 7.04547 11.1527V9.25821C7.13628 9.23902 7.22903 9.23049 7.32185 9.23274C7.7626 9.20177 8.14497 9.53396 8.17594 9.97471C8.18 10.0329 8.17772 10.0914 8.1691 10.1491Z" fill="#DC3545"/>
<path id="Vector_4" d="M9.34 11.6364H9.9509V10.4764H10.9182V9.9455H9.9509V9.28731H10.9873V8.75275H9.34V11.6364Z" fill="#DC3545"/>
</g>
</g>
</g>
</svg>
