<svg width="17" height="16" viewBox="0 0 17 16" fill="none" xmlns="http://www.w3.org/2000/svg">
<path d="M15.3548 7.33333H8.68815V0.666667C8.68815 0.489856 8.61791 0.320286 8.49289 0.195262C8.36786 0.0702379 8.1983 0 8.02148 0V0C7.84467 0 7.6751 0.0702379 7.55008 0.195262C7.42506 0.320286 7.35482 0.489856 7.35482 0.666667V7.33333H0.688151C0.51134 7.33333 0.341771 7.40357 0.216747 7.5286C0.0917223 7.65362 0.0214844 7.82319 0.0214844 8H0.0214844C0.0214844 8.17681 0.0917223 8.34638 0.216747 8.47141C0.341771 8.59643 0.51134 8.66667 0.688151 8.66667H7.35482V15.3333C7.35482 15.5101 7.42506 15.6797 7.55008 15.8047C7.6751 15.9298 7.84467 16 8.02148 16C8.1983 16 8.36786 15.9298 8.49289 15.8047C8.61791 15.6797 8.68815 15.5101 8.68815 15.3333V8.66667H15.3548C15.5316 8.66667 15.7012 8.59643 15.8262 8.47141C15.9512 8.34638 16.0215 8.17681 16.0215 8C16.0215 7.82319 15.9512 7.65362 15.8262 7.5286C15.7012 7.40357 15.5316 7.33333 15.3548 7.33333Z" fill="white"/>
</svg>
