<svg width="28" height="28" viewBox="0 0 28 28" fill="none" xmlns="http://www.w3.org/2000/svg">
<g id="searching">
<g id="Group">
<path id="Vector" d="M6.1032 13.1756H9.73821C10.3782 13.1756 10.899 12.6548 10.899 12.0146V7.99529C10.899 7.35527 10.3782 6.83447 9.73821 6.83447H6.1032C5.46318 6.83447 4.94238 7.35527 4.94238 7.99529V12.0146C4.94238 12.6548 5.46318 13.1756 6.1032 13.1756ZM5.81738 7.99529C5.81738 7.84042 5.94811 7.70947 6.1032 7.70947H9.73821C9.89331 7.70947 10.024 7.84042 10.024 7.99529V12.0146C10.024 12.1697 9.89331 12.3006 9.73821 12.3006H6.1032C5.94811 12.3006 5.81738 12.1697 5.81738 12.0146V7.99529Z" fill="#222931"/>
<path id="Vector_2" d="M12.4004 7.90967H17.271C17.5128 7.90967 17.7085 7.71376 17.7085 7.47217C17.7085 7.23058 17.5128 7.03467 17.271 7.03467H12.4004C12.1586 7.03467 11.9629 7.23058 11.9629 7.47217C11.9629 7.71376 12.1586 7.90967 12.4004 7.90967Z" fill="#222931"/>
<path id="Vector_3" d="M12.4004 10.543H17.271C17.5128 10.543 17.7085 10.3471 17.7085 10.1055C17.7085 9.86388 17.5128 9.66797 17.271 9.66797H12.4004C12.1586 9.66797 11.9629 9.86388 11.9629 10.1055C11.9629 10.3471 12.1586 10.543 12.4004 10.543Z" fill="#222931"/>
<path id="Vector_4" d="M27.4138 24.9038L24.8281 21.5964C24.7128 21.4486 24.5465 21.3546 24.3599 21.3318C24.1723 21.3089 23.9886 21.3598 23.8412 21.4753L23.4621 21.7719L22.9517 21.1197C23.9606 20.0823 24.544 18.7295 24.5906 17.2733C24.6407 15.7256 24.0848 14.2516 23.0257 13.1224C22.1411 12.1796 21.0119 11.6054 19.8277 11.3927V4.32521C19.8277 3.59485 19.2334 3.00076 18.5033 3.00076H17.5766V2.15355C17.5766 1.42318 16.9823 0.829102 16.2521 0.829102H1.76194C1.0318 0.829058 0.4375 1.42314 0.4375 2.15355V20.9534C0.4375 21.6838 1.0318 22.2779 1.76194 22.2779H2.68866V23.1266C2.68866 23.8561 3.28296 24.4496 4.0131 24.4496H18.5032C19.2333 24.4496 19.8276 23.8561 19.8276 23.1266V22.7904C20.7241 22.6304 21.5662 22.2595 22.2977 21.7034L22.7731 22.3108L22.3928 22.6083C22.0882 22.8465 22.0335 23.2883 22.2719 23.5938L24.8593 26.9017C24.9977 27.0781 25.2045 27.1706 25.4134 27.1705C25.5642 27.1705 25.7168 27.122 25.8445 27.022L27.2925 25.8891C27.5975 25.651 27.6522 25.209 27.4138 24.9038ZM1.76194 21.4029C1.51414 21.4029 1.3125 21.2012 1.3125 20.9534V2.15355C1.3125 1.90575 1.51414 1.70406 1.76194 1.70406H16.252C16.4998 1.70406 16.7014 1.9057 16.7014 2.1535V3.00072H4.01314C3.283 3.00072 2.6887 3.5948 2.6887 4.32516V21.4028L1.76194 21.4029ZM18.9526 23.1266C18.9526 23.3736 18.751 23.5746 18.5032 23.5746H4.01314C3.76534 23.5746 3.5637 23.3735 3.5637 23.1266V4.32521C3.5637 4.07741 3.76534 3.87576 4.01314 3.87576H18.5032C18.751 3.87576 18.9526 4.07741 18.9526 4.32521V11.2977C17.7639 11.2657 16.5681 11.602 15.5415 12.3006H12.4008C12.159 12.3006 11.9633 12.4965 11.9633 12.7381C11.9633 12.9797 12.159 13.1756 12.4008 13.1756H14.5249C14.0415 13.703 13.6714 14.2992 13.4189 14.9335H5.38029C5.13848 14.9335 4.94279 15.1294 4.94279 15.371C4.94279 15.6126 5.13848 15.8085 5.38029 15.8085H13.1512C13.0218 16.3855 12.9829 16.9782 13.0316 17.5665H5.38033C5.13853 17.5665 4.94283 17.7624 4.94283 18.004C4.94283 18.2455 5.13853 18.4415 5.38033 18.4415H13.17C13.3168 19.0547 13.5618 19.6499 13.9118 20.1992H5.38033C5.13853 20.1992 4.94283 20.3951 4.94283 20.6367C4.94283 20.8782 5.13853 21.0742 5.38033 21.0742H14.5925C15.6495 22.1892 17.0747 22.8311 18.6117 22.8805C18.7268 22.884 18.8374 22.8795 18.9527 22.8765C18.9526 22.9599 18.9526 23.0432 18.9526 23.1266ZM18.6399 22.0059C17.3261 21.9636 16.1072 21.4125 15.2082 20.4537C13.3518 18.4745 13.4522 15.3541 15.4313 13.4977C16.3507 12.6356 17.5393 12.1662 18.7937 12.1662C18.8475 12.1662 18.9014 12.1671 18.9556 12.1688C20.2694 12.2111 21.4883 12.7622 22.3873 13.721C24.2437 15.7002 24.1433 18.8206 22.1638 20.677C21.2055 21.5764 19.9601 22.0459 18.6399 22.0059ZM25.4416 26.2261L23.0678 23.1911L24.2445 22.2706L26.6179 25.3062L25.4416 26.2261Z" fill="#222931"/>
<path id="Vector_5" d="M21.663 14.4001C20.1808 12.8208 17.6909 12.7413 16.1117 14.2226C14.5314 15.7032 14.4515 18.1943 15.9327 19.7753C16.7043 20.5978 17.7502 21.0135 18.7983 21.0135C19.7621 21.0135 20.7281 20.6621 21.4856 19.9526C23.0644 18.4711 23.1438 15.9803 21.663 14.4001ZM20.8871 19.3143C19.6583 20.4664 17.7225 20.404 16.5711 19.1769C15.4197 17.9479 15.482 16.0119 16.7099 14.8609C17.2979 14.3091 18.0485 14.0361 18.7975 14.0361C19.6118 14.0361 20.4248 14.3593 21.0247 14.9985C22.1757 16.2268 22.1137 18.1631 20.8871 19.3143Z" fill="#222931"/>
<path id="Vector_6" d="M21.1318 16.5655C20.8583 15.3114 19.6146 14.5143 18.3602 14.7875C18.124 14.839 17.9744 15.0721 18.0257 15.3081C18.0774 15.544 18.3111 15.6931 18.5465 15.6425C19.3339 15.472 20.1064 15.9699 20.2773 16.7522C20.3217 16.9569 20.5029 17.0966 20.7041 17.0964C20.7349 17.0964 20.7665 17.0932 20.7977 17.0863C21.0339 17.0349 21.1834 16.8016 21.1318 16.5655Z" fill="#222931"/>
</g>
</g>
</svg>
