<svg width="17" height="16" viewBox="0 0 17 16" fill="none" xmlns="http://www.w3.org/2000/svg">
<path d="M15.75 2.25C16.0258 2.25 16.25 2.02575 16.25 1.75V0.75C16.25 0.47425 16.0258 0.25 15.75 0.25H1.25C0.97425 0.25 0.75 0.47425 0.75 0.75V1.75C0.75 2.02575 0.97425 2.25 1.25 2.25H1.75V13.75H1.25C0.97425 13.75 0.75 13.9742 0.75 14.25V15.25C0.75 15.5258 0.97425 15.75 1.25 15.75H9.259H12.25H15.241C15.7972 15.75 16.25 15.2972 16.25 14.741C16.25 14.5315 16.186 14.33 16.0655 14.159L15.25 13.0037V2.25H15.75ZM1.25 0.75H15.75L15.7505 1.75H1.25V0.75ZM1.25 14.25H8.3805C8.2965 14.4 8.25 14.5673 8.25 14.741C8.25 14.9275 8.30425 15.1 8.39275 15.25H1.25V14.25ZM12.75 15C12.75 14.862 12.862 14.75 13 14.75C13.138 14.75 13.25 14.862 13.25 15C13.25 15.138 13.138 15.25 13 15.25C12.862 15.25 12.75 15.138 12.75 15ZM15.75 14.741C15.75 15.0218 15.5218 15.25 15.241 15.25H13.704C13.732 15.1715 13.75 15.088 13.75 15C13.75 14.5865 13.4135 14.25 13 14.25C12.5865 14.25 12.25 14.5865 12.25 15C12.25 15.088 12.268 15.1715 12.296 15.25H12.25H9.259C8.97825 15.25 8.75 15.0218 8.75 14.741C8.75 14.6353 8.78225 14.5338 8.84325 14.4475L10.3942 12.25H14.1058L14.1152 12.2635C13.628 12.33 13.25 12.7445 13.25 13.25C13.25 13.8015 13.6985 14.25 14.25 14.25C14.636 14.25 14.9677 14.028 15.1342 13.707L15.657 14.4475C15.7177 14.5338 15.75 14.6353 15.75 14.741ZM11.25 7.25V6.75H13.25L13.2505 7.25H11.25ZM11.75 9.9325V7.75H12.75V8.25H12.25V8.75H12.75V9.25H12.25V9.75H12.75V9.9325C12.75 10.041 12.767 10.147 12.794 10.25H12.25V10.75H13.0468L13.7528 11.75H10.7472L11.521 10.6535C11.671 10.4415 11.75 10.1923 11.75 9.9325ZM14.75 13.25C14.75 13.5258 14.5258 13.75 14.25 13.75C13.9742 13.75 13.75 13.5258 13.75 13.25C13.75 12.9742 13.9742 12.75 14.25 12.75C14.346 12.75 14.436 12.78 14.5157 12.8308L14.7347 13.141C14.7428 13.177 14.75 13.2133 14.75 13.25ZM14.75 12.2955L13.3872 10.365C13.2972 10.2378 13.25 10.0885 13.25 9.9325V7.75C13.5258 7.75 13.75 7.52575 13.75 7.25V6.75C13.75 6.47425 13.5258 6.25 13.25 6.25H11.25C10.9742 6.25 10.75 6.47425 10.75 6.75V7.25C10.75 7.52575 10.9742 7.75 11.25 7.75V9.9325C11.25 10.0883 11.2028 10.2378 11.1125 10.3647L8.7235 13.75H2.25V2.25H14.75V12.2955Z" fill="#DC3545"/>
<path d="M11.5 12.75C11.0865 12.75 10.75 13.0865 10.75 13.5C10.75 13.9135 11.0865 14.25 11.5 14.25C11.9135 14.25 12.25 13.9135 12.25 13.5C12.25 13.0865 11.9135 12.75 11.5 12.75ZM11.5 13.75C11.362 13.75 11.25 13.638 11.25 13.5C11.25 13.362 11.362 13.25 11.5 13.25C11.638 13.25 11.75 13.362 11.75 13.5C11.75 13.638 11.638 13.75 11.5 13.75Z" fill="#DC3545"/>
<path d="M4.75 9.3455L3.75 9.8455V11.296C3.45975 11.3995 3.25 11.6745 3.25 12C3.25 12.4135 3.5865 12.75 4 12.75C4.4135 12.75 4.75 12.4135 4.75 12C4.75 11.6745 4.54025 11.3995 4.25 11.296V10.1545L5 9.7795L6.5 10.5295L8.25 9.6545V7.5955L6.75 6.8455V5.375L7.58325 4.75H9.296C9.3995 5.04025 9.6745 5.25 10 5.25C10.4135 5.25 10.75 4.9135 10.75 4.5C10.75 4.0865 10.4135 3.75 10 3.75C9.6745 3.75 9.3995 3.95975 9.296 4.25H7.41675L6.47375 4.95725L5 4.2205L3.25 5.0955V7.1545L4.75 7.9045V9.3455ZM4 12.25C3.862 12.25 3.75 12.138 3.75 12C3.75 11.862 3.862 11.75 4 11.75C4.138 11.75 4.25 11.862 4.25 12C4.25 12.138 4.138 12.25 4 12.25ZM10 4.25C10.138 4.25 10.25 4.362 10.25 4.5C10.25 4.638 10.138 4.75 10 4.75C9.862 4.75 9.75 4.638 9.75 4.5C9.75 4.362 9.862 4.25 10 4.25ZM7.75 9.3455L6.5 9.9705L5.25 9.3455V7.9045L6.5 7.2795L7.75 7.9045V9.3455ZM3.75 5.4045L5 4.7795L6.25 5.4045V6.8455L5 7.4705L3.75 6.8455V5.4045Z" fill="#DC3545"/>
<path d="M11.25 3.75H14.25V4.25H11.25V3.75Z" fill="#DC3545"/>
<path d="M11.25 4.75H14.25V5.25H11.25V4.75Z" fill="#DC3545"/>
<path d="M7.5 3.25H9.25V3.75H7.5V3.25Z" fill="#DC3545"/>
<path d="M6.25 11.75H7.25V12.25H6.25V11.75Z" fill="#DC3545"/>
<path d="M7.75 11.75H8.75V12.25H7.75V11.75Z" fill="#DC3545"/>
<path d="M6.25 12.75H8.75V13.25H6.25V12.75Z" fill="#DC3545"/>
</svg>
