<svg width="18" height="16" viewBox="0 0 18 16" fill="none" xmlns="http://www.w3.org/2000/svg">
<path d="M8.9998 11.4467C8.56177 11.4475 8.12787 11.3619 7.72293 11.1949C7.31798 11.0279 6.94992 10.7827 6.6398 10.4733L1.19313 5.02667C1.0676 4.90113 0.99707 4.73087 0.99707 4.55334C0.99707 4.3758 1.0676 4.20554 1.19313 4.08C1.31867 3.95447 1.48893 3.88394 1.66646 3.88394C1.844 3.88394 2.01426 3.95447 2.1398 4.08L7.58646 9.52667C7.96147 9.9012 8.4698 10.1116 8.9998 10.1116C9.5298 10.1116 10.0381 9.9012 10.4131 9.52667L15.8598 4.08C15.9853 3.95447 16.1556 3.88394 16.3331 3.88394C16.5107 3.88394 16.6809 3.95447 16.8065 4.08C16.932 4.20554 17.0025 4.3758 17.0025 4.55334C17.0025 4.73087 16.932 4.90113 16.8065 5.02667L11.3598 10.4733C11.0497 10.7827 10.6816 11.0279 10.2767 11.1949C9.87172 11.3619 9.43783 11.4475 8.9998 11.4467Z" fill="#FA981C"/>
</svg>
