<svg width="28" height="28" viewBox="0 0 28 28" fill="none" xmlns="http://www.w3.org/2000/svg">
<g id="l">
<g id="Group">
<path id="Vector" d="M14 0C6.1495 0 0 2.30606 0 5.25V19.6875C0 21.2485 1.617 22.603 4.67644 23.6036C4.72106 23.618 4.76656 23.625 4.8125 23.625C4.9035 23.625 4.99363 23.5966 5.06931 23.5419C5.18306 23.4596 5.25 23.3279 5.25 23.1875V16.4706C6.77513 16.0016 8.59338 15.6564 10.5411 15.4722L10.4589 14.6011C8.56188 14.7805 6.776 15.1086 5.25 15.5553V8.75C5.25 8.56056 5.12838 8.393 4.94856 8.33394C2.35987 7.48737 0.875 6.36344 0.875 5.25C0.875 3.13731 6.14906 0.875 14 0.875C21.8509 0.875 27.125 3.13731 27.125 5.25C27.125 6.36344 25.6401 7.48737 23.0514 8.33394C22.8716 8.393 22.75 8.56056 22.75 8.75V15.5553C21.224 15.1091 19.4381 14.7805 17.5411 14.6011L17.4589 15.4722C19.4066 15.6564 21.2249 16.0011 22.75 16.4706V23.1875C22.75 23.3275 22.8169 23.4596 22.9307 23.5419C23.0064 23.5966 23.0965 23.625 23.1875 23.625C23.233 23.625 23.2789 23.618 23.3236 23.6036C26.383 22.603 28 21.2489 28 19.6875V5.25C28 2.30606 21.8505 0 14 0ZM4.375 9.06456V22.5728C2.142 21.7534 0.875 20.7156 0.875 19.6875V7.12906C1.60344 7.86013 2.77944 8.51331 4.375 9.06456ZM27.125 19.6875C27.125 20.7161 25.858 21.7534 23.625 22.5728V9.06456C25.2206 8.51287 26.3966 7.86056 27.125 7.1295V19.6875Z" fill="#222931"/>
<path id="Vector_2" d="M17.9376 6.56264C18.075 6.56264 18.2049 6.49789 18.2876 6.38764L19.6001 4.63764C19.7169 4.48233 19.7169 4.26795 19.6001 4.11264L18.2876 2.36264C18.1227 2.14214 17.7525 2.14214 17.5876 2.36264L16.2751 4.11264C16.1583 4.26795 16.1583 4.48233 16.2751 4.63764L17.5876 6.38764C17.6699 6.49789 17.7998 6.56264 17.9376 6.56264ZM17.9376 3.35445L18.7032 4.37514L17.9376 5.39583L17.172 4.37514L17.9376 3.35445Z" fill="#222931"/>
<path id="Vector_3" d="M6.5625 13.5625H8.3125C8.55444 13.5625 8.75 13.3665 8.75 13.125V11.375C8.75 11.1335 8.55444 10.9375 8.3125 10.9375H6.5625C6.32056 10.9375 6.125 11.1335 6.125 11.375V13.125C6.125 13.3665 6.32056 13.5625 6.5625 13.5625ZM7 11.8125H7.875V12.6875H7V11.8125Z" fill="#222931"/>
<path id="Vector_4" d="M22.3125 6.125H24.0625C24.3044 6.125 24.5 5.929 24.5 5.6875V3.9375C24.5 3.696 24.3044 3.5 24.0625 3.5H22.3125C22.0706 3.5 21.875 3.696 21.875 3.9375V5.6875C21.875 5.929 22.0706 6.125 22.3125 6.125ZM22.75 4.375H23.625V5.25H22.75V4.375Z" fill="#222931"/>
<path id="Vector_5" d="M6.5625 8.16331C6.74275 8.16331 6.91163 8.05087 6.97463 7.8715C7.05556 7.64356 6.93613 7.39375 6.70819 7.31325C5.83625 7.00481 5.25 6.17575 5.25 5.25C5.25 4.04381 6.23131 3.0625 7.4375 3.0625C8.64369 3.0625 9.625 4.04381 9.625 5.25C9.625 5.4915 9.82056 5.6875 10.0625 5.6875C10.3044 5.6875 10.5 5.4915 10.5 5.25C10.5 3.56125 9.12581 2.1875 7.4375 2.1875C5.74919 2.1875 4.375 3.56125 4.375 5.25C4.375 6.54587 5.19531 7.70656 6.41681 8.13837C6.46494 8.15544 6.51437 8.16331 6.5625 8.16331Z" fill="#222931"/>
<path id="Vector_6" d="M16.6247 12.9138L19.0773 13.9647C19.2978 14.0596 19.5568 13.9568 19.6513 13.735L22.2763 7.61002C22.3266 7.4919 22.3231 7.35802 22.2662 7.2434C22.2094 7.12833 22.1048 7.04433 21.9805 7.01327L20.2305 6.57577C20.0232 6.52415 19.811 6.62871 19.7248 6.82252L18.1463 10.375L16.3499 9.65621C16.2983 9.63565 16.2432 9.62515 16.1876 9.62515H15.7125C16.0034 9.25283 16.1876 8.79783 16.1876 8.31265V7.43765C16.1876 6.27215 15.1652 5.25015 14.0001 5.25015C12.835 5.25015 11.8126 6.27215 11.8126 7.43765V8.31265C11.8126 8.79783 11.9968 9.25283 12.2877 9.62515H12.0515L8.24304 3.70096C8.12273 3.51327 7.88035 3.44633 7.67954 3.54608L5.92954 4.42108C5.81798 4.47665 5.73573 4.57727 5.70291 4.69758C5.6701 4.8179 5.69023 4.94608 5.75804 5.05065L11.3751 13.6917V17.9075L10.0665 27.5031C10.0495 27.6283 10.0875 27.7547 10.1707 27.8501C10.2534 27.945 10.3737 27.9997 10.5001 27.9997H12.6876C12.9064 27.9997 13.0914 27.8378 13.1212 27.6213L14.0001 21.1751L14.879 27.6213C14.9088 27.8378 15.0939 27.9997 15.3126 27.9997H17.5001C17.6265 27.9997 17.7464 27.945 17.8295 27.8501C17.9127 27.7547 17.9507 27.6283 17.9337 27.5031L16.6251 17.9075V12.913L16.6247 12.9138ZM12.6872 8.31265V7.43765C12.6872 6.69871 13.3924 6.12515 13.9997 6.12515C14.6069 6.12515 15.3122 6.69871 15.3122 7.43765V8.31265C15.3122 9.05158 14.6069 9.62515 13.9997 9.62515C13.3924 9.62515 12.6872 9.05158 12.6872 8.31265ZM16.9983 27.1251H15.6941L14.4332 17.8786C14.4035 17.662 14.2184 17.5001 13.9997 17.5001C13.7809 17.5001 13.5959 17.662 13.5661 17.8786L12.3052 27.1251H11.001L12.2462 17.9967C12.2488 17.977 12.2501 17.9573 12.2501 17.9376V13.5626C12.2501 13.4782 12.2256 13.3951 12.1797 13.3242L6.75816 4.98502L7.71891 4.50465L11.4442 10.2993C11.5247 10.4249 11.6634 10.5001 11.8122 10.5001H16.1032L18.2124 11.3441C18.4285 11.4303 18.6787 11.3305 18.7745 11.1157L20.3749 7.51421L21.27 7.73821L19.0195 12.9886L16.3591 11.8485C16.2244 11.7903 16.0686 11.8039 15.9461 11.8853C15.8236 11.9662 15.7497 12.1036 15.7497 12.2506V17.9381C15.7497 17.9578 15.751 17.9775 15.7536 17.9971L16.9987 27.1256L16.9983 27.1251Z" fill="#222931"/>
</g>
</g>
</svg>
