<svg width="17" height="16" viewBox="0 0 17 16" fill="none" xmlns="http://www.w3.org/2000/svg">
<g clip-path="url(#clip0_7804_81661)">
<path d="M15.8452 5.58874V0.794993C15.8452 0.584228 15.7614 0.382097 15.6124 0.233064C15.4634 0.0840309 15.2613 0.000305176 15.0505 0.000305176C14.8397 0.000305176 14.6376 0.0840309 14.4886 0.233064C14.3395 0.382097 14.2558 0.584228 14.2558 0.794993V5.58874C14.0167 5.75749 13.8375 5.99798 13.7443 6.27535C13.651 6.55273 13.6484 6.8526 13.7369 7.13154C13.8254 7.41047 14.0005 7.65399 14.2366 7.82681C14.4728 7.99963 14.7578 8.09279 15.0505 8.09279C15.3431 8.09279 15.6282 7.99963 15.8643 7.82681C16.1005 7.65399 16.2755 7.41047 16.3641 7.13154C16.4526 6.8526 16.45 6.55273 16.3567 6.27535C16.2634 5.99798 16.0843 5.75749 15.8452 5.58874ZM15.0505 0.468743C15.1367 0.468825 15.2194 0.503126 15.2804 0.564116C15.3414 0.625106 15.3757 0.707802 15.3758 0.794055V1.90968H14.7252V0.794993C14.7251 0.752205 14.7334 0.70982 14.7498 0.670262C14.7661 0.630703 14.79 0.594747 14.8202 0.564447C14.8504 0.534148 14.8863 0.5101 14.9258 0.493679C14.9653 0.477257 15.0077 0.468784 15.0505 0.468743ZM15.0505 7.62499C14.8495 7.62483 14.6541 7.55805 14.4951 7.43511C14.336 7.31216 14.2222 7.13998 14.1714 6.94547C14.1206 6.75097 14.1356 6.54511 14.2142 6.36008C14.2928 6.17505 14.4305 6.02128 14.6058 5.92281C14.642 5.90232 14.6722 5.87257 14.6932 5.83661C14.7141 5.80064 14.7252 5.75975 14.7252 5.71812V5.07374H14.9127C14.9719 5.06942 15.0273 5.04284 15.0677 4.99937C15.1081 4.95589 15.1305 4.89873 15.1305 4.83937C15.1305 4.78001 15.1081 4.72285 15.0677 4.67937C15.0273 4.63589 14.9719 4.60932 14.9127 4.60499H14.7252V3.72718H14.9127C14.9719 3.72285 15.0273 3.69628 15.0677 3.65281C15.1081 3.60933 15.1305 3.55217 15.1305 3.49281C15.1305 3.43344 15.1081 3.37628 15.0677 3.33281C15.0273 3.28933 14.9719 3.26276 14.9127 3.25843H14.7252V2.38031H15.3758V5.71874C15.3758 5.76041 15.3869 5.80134 15.4079 5.83731C15.4289 5.87329 15.4592 5.90301 15.4955 5.92343C15.6705 6.02206 15.8079 6.17584 15.8862 6.36077C15.9646 6.54571 15.9796 6.75138 15.9287 6.9457C15.8779 7.14002 15.7642 7.31205 15.6053 7.43494C15.4464 7.55782 15.2513 7.62465 15.0505 7.62499Z" fill="#DC3545"/>
<path d="M11.91 12.5144C11.1006 12.1994 10.339 11.9491 10.0137 11.845V10.6709C10.4131 10.3087 10.7503 9.88062 10.9446 9.48062C11.0243 9.31593 11.0943 9.04968 11.1568 8.66968C11.4534 8.64384 11.7305 8.51113 11.9365 8.29624C12.1928 8.03749 12.3568 7.67124 12.4115 7.23656C12.4397 7.04411 12.4291 6.84796 12.3803 6.65968C12.6165 6.22218 13.5334 4.38999 13.1478 3.03968C12.9071 2.19593 12.3553 1.87187 11.935 1.74781C11.7231 1.68669 11.5028 1.65959 11.2825 1.66749C11.0703 1.15187 10.5012 0.433119 8.9809 0.250619C8.1009 0.144994 7.34465 0.381244 6.67871 0.589682C6.13434 0.759369 5.66527 0.906244 5.23121 0.846244C4.63746 0.764682 4.31121 0.135619 4.3084 0.129682C4.29052 0.0949292 4.26431 0.0651469 4.23212 0.0429962C4.19992 0.0208455 4.16274 0.00701646 4.12389 0.0027449C4.08505 -0.00152665 4.04575 0.00389236 4.00951 0.0185177C3.97326 0.033143 3.94121 0.056519 3.91621 0.0865567C3.8934 0.114994 3.35152 0.790307 3.05715 1.92562C2.79309 2.94437 2.68902 4.53781 3.65621 6.39749C3.5159 6.61624 3.4659 6.89749 3.50871 7.23656C3.5634 7.67093 3.72746 8.03749 3.98371 8.29624C4.19014 8.51147 4.46783 8.64421 4.76496 8.66968C4.82746 9.04968 4.89715 9.31593 4.97715 9.48062C5.17152 9.88062 5.5084 10.3087 5.90809 10.6709V11.8437C5.58277 11.9478 4.82121 12.1981 4.01152 12.5131C2.55121 13.0809 1.6309 13.5831 1.27684 14.0056C0.607148 14.8041 0.428711 15.4872 0.428711 15.7653C0.428711 15.8275 0.453437 15.8872 0.497449 15.9313C0.541462 15.9753 0.601155 16 0.663398 16H15.2571C15.288 16 15.3185 15.9939 15.347 15.9821C15.3754 15.9703 15.4013 15.953 15.4231 15.9313C15.4449 15.9095 15.4622 15.8836 15.474 15.8551C15.4858 15.8266 15.4918 15.7961 15.4918 15.7653C15.4918 15.4872 15.3134 14.8041 14.6453 14.0069C14.2909 13.5844 13.3706 13.0822 11.91 12.5144ZM6.3759 11.0437C6.91152 11.4134 7.46684 11.615 7.95996 11.615C8.45309 11.615 9.00871 11.4134 9.54434 11.0437V11.9666C9.46746 12.1194 9.08434 12.7459 7.95996 12.7459C6.83559 12.7459 6.45496 12.125 6.3759 11.9662V11.0437ZM3.50621 2.06468C3.63203 1.56798 3.83086 1.0927 4.09621 0.654369C4.30059 0.910932 4.6559 1.24124 5.16715 1.31062C5.70496 1.38437 6.24527 1.21687 6.81715 1.03718C7.46996 0.833119 8.14465 0.622182 8.92559 0.715932C10.3706 0.889369 10.7809 1.58343 10.8971 1.98156C10.9134 2.03681 10.9493 2.08419 10.9982 2.11471C11.047 2.14523 11.1054 2.15679 11.1621 2.14718C11.3823 2.11979 11.6058 2.13852 11.8184 2.20218C12.2559 2.33718 12.5528 2.66187 12.6971 3.16781C12.9834 4.17031 12.3943 5.57156 12.0893 6.19624C11.9112 6.04437 11.6703 5.95468 11.3803 5.93281C11.3516 5.72406 11.2699 5.52617 11.1428 5.35812C10.4406 4.43343 10.2812 3.38437 10.2796 3.37406C10.2783 3.36455 10.2763 3.35516 10.2737 3.34593C10.2472 3.18051 10.1627 3.02992 10.0353 2.92113C9.9079 2.81234 9.74593 2.75245 9.5784 2.75218H6.34184C6.15513 2.75243 5.97614 2.82673 5.84415 2.95878C5.71216 3.09083 5.63794 3.26985 5.63777 3.45656V3.85781C5.3294 3.85295 5.02148 3.83208 4.71527 3.79531C4.68168 3.79082 4.64751 3.79362 4.61509 3.8035C4.58267 3.81339 4.55276 3.83014 4.52739 3.85261C4.50201 3.87508 4.48177 3.90274 4.46803 3.93373C4.45429 3.96471 4.44739 3.99829 4.44777 4.03218C4.44777 4.04156 4.46434 4.90437 4.51684 5.93437C4.34281 5.94678 4.17292 5.99329 4.01684 6.07124C3.34277 4.72687 3.1709 3.37968 3.50621 2.06468ZM6.10715 3.45718C6.10723 3.39496 6.13198 3.33532 6.17598 3.29132C6.21997 3.24733 6.27962 3.22258 6.34184 3.22249H9.5784C9.64062 3.22258 9.70026 3.24733 9.74426 3.29132C9.78825 3.33532 9.813 3.39496 9.81309 3.45718V4.74468C9.81309 4.80695 9.78837 4.86668 9.74437 4.91074C9.70036 4.9548 9.64067 4.9796 9.5784 4.97968H6.34184C6.27956 4.9796 6.21987 4.9548 6.17587 4.91074C6.13186 4.86668 6.10715 4.80695 6.10715 4.74468V3.45718ZM5.39746 9.27531C5.3484 9.17406 5.27246 8.93812 5.19496 8.38937C5.17371 8.21937 4.99465 8.15906 4.84746 8.20187C4.47684 8.20187 4.06309 7.88499 3.97402 7.17687C3.94277 6.91656 3.98059 6.72156 4.09027 6.59687C4.23621 6.43156 4.49277 6.39687 4.68246 6.39687C4.83871 6.43312 5.01121 6.32593 4.9984 6.15437C4.95496 5.37656 4.93277 4.66093 4.92309 4.28968C5.09246 4.30437 5.33559 4.32093 5.63746 4.32718V4.74343C5.63763 4.93017 5.71184 5.10922 5.84382 5.24132C5.9758 5.37342 6.15479 5.44779 6.34152 5.44812H9.5784C9.74878 5.44785 9.9133 5.38589 10.0415 5.27369C10.1698 5.16149 10.253 5.00665 10.2759 4.83781C10.414 5.12111 10.5791 5.39038 10.769 5.64187C10.879 5.78839 10.9331 5.96935 10.9215 6.15218C10.9071 6.32437 11.0809 6.43343 11.2375 6.39687C11.4271 6.39687 11.6837 6.43156 11.8296 6.59687C11.9393 6.72187 11.9784 6.91656 11.9456 7.17687C11.8568 7.88499 11.4431 8.20187 11.0725 8.20187C10.9253 8.15781 10.7462 8.21843 10.725 8.38937C10.6475 8.93749 10.5715 9.17406 10.5225 9.27531C10.0937 10.1581 8.90684 11.1453 7.95996 11.1453C7.01309 11.1453 5.82652 10.1581 5.39746 9.27531ZM0.939648 15.5312C1.01715 15.25 1.21496 14.8106 1.63496 14.3094C2.21559 13.6172 4.8459 12.6753 6.02684 12.2997C6.23121 12.6197 6.77246 13.2156 7.95996 13.2156C9.14746 13.2156 9.68902 12.6197 9.8934 12.2987C11.074 12.6737 13.7059 13.6159 14.2853 14.3084C14.7059 14.8103 14.9037 15.25 14.9809 15.5312H0.939648Z" fill="#DC3545"/>
<path d="M7.12874 9.38624C7.15728 9.39766 7.18779 9.40334 7.21853 9.40296C7.24927 9.40257 7.27963 9.39613 7.30787 9.384C7.33611 9.37186 7.36169 9.35428 7.38312 9.33225C7.40456 9.31022 7.42145 9.28418 7.43281 9.25561C7.48099 9.15683 7.55596 9.07357 7.64917 9.01533C7.74238 8.95709 7.85008 8.92621 7.95999 8.92621C8.0699 8.92621 8.1776 8.95709 8.27081 9.01533C8.36402 9.07357 8.439 9.15683 8.48718 9.25561C8.49867 9.28422 8.51568 9.31028 8.53725 9.3323C8.55881 9.35433 8.5845 9.3719 8.61285 9.384C8.6412 9.3961 8.67166 9.4025 8.70248 9.40283C8.7333 9.40316 8.76389 9.39742 8.79249 9.38593C8.8211 9.37443 8.84716 9.35742 8.86919 9.33586C8.89122 9.3143 8.90878 9.28861 8.92088 9.26026C8.93298 9.23191 8.93938 9.20145 8.93971 9.17063C8.94004 9.1398 8.9343 9.10922 8.92281 9.08061C8.91281 9.05499 8.66749 8.45561 7.95999 8.45561C7.25249 8.45561 7.00749 9.05374 6.99749 9.08061C6.97457 9.13856 6.97551 9.20323 7.0001 9.26049C7.02469 9.31775 7.07094 9.36295 7.12874 9.38624Z" fill="#DC3545"/>
<path d="M7.02268 6.53437C7.04564 6.47636 7.04461 6.4116 7.01982 6.35434C6.99503 6.29708 6.94851 6.25202 6.89049 6.22906C6.83248 6.2061 6.76772 6.20713 6.71046 6.23192C6.6532 6.25671 6.60814 6.30323 6.58518 6.36125C6.58518 6.36375 6.46268 6.61437 5.96862 6.58937C5.90846 6.58957 5.85066 6.61283 5.80713 6.65436C5.76361 6.6959 5.73767 6.75255 5.73467 6.81264C5.73166 6.87272 5.75182 6.93168 5.79098 6.97735C5.83015 7.02302 5.88534 7.05193 5.94518 7.05812C5.97643 7.05968 6.00581 7.06031 6.03487 7.06031C6.64768 7.0625 6.94362 6.73531 7.02268 6.53437Z" fill="#DC3545"/>
<path d="M3.75834 9.09124C3.70956 9.05258 3.64743 9.03488 3.5856 9.04203C3.52377 9.04918 3.46732 9.0806 3.42865 9.12937C3.41521 9.14656 3.09521 9.55718 3.09521 10.1978C3.09521 10.5347 3.2099 10.7812 3.30834 11C3.40209 11.2084 3.49396 11.4062 3.49396 11.6875C3.49232 11.7193 3.49717 11.7511 3.5082 11.781C3.51924 11.8108 3.53624 11.8381 3.55816 11.8612C3.58009 11.8843 3.60648 11.9027 3.63574 11.9152C3.66499 11.9278 3.6965 11.9343 3.72834 11.9343C3.76018 11.9343 3.79169 11.9278 3.82094 11.9152C3.8502 11.9027 3.87659 11.8843 3.89852 11.8612C3.92044 11.8381 3.93744 11.8108 3.94848 11.781C3.95951 11.7511 3.96436 11.7193 3.96271 11.6875C3.96271 11.3034 3.84146 11.0384 3.73428 10.8047C3.64303 10.605 3.56396 10.4325 3.56396 10.1981C3.56151 9.92132 3.64265 9.65023 3.79678 9.42031C3.83521 9.37153 3.85274 9.30951 3.84554 9.24783C3.83833 9.18616 3.80698 9.12985 3.75834 9.09124Z" fill="#DC3545"/>
<path d="M1.84092 12.4328C1.84402 12.4929 1.87007 12.5495 1.91368 12.5909C1.9573 12.6323 2.01515 12.6554 2.07529 12.6554C2.13544 12.6554 2.19329 12.6323 2.23691 12.5909C2.28052 12.5495 2.30657 12.4929 2.30967 12.4328C2.30967 12.0484 2.18842 11.7837 2.08154 11.55C1.99029 11.3503 1.91123 11.1778 1.91123 10.9431C1.91088 10.7621 1.94503 10.5826 2.01186 10.4144C2.02322 10.3856 2.02882 10.355 2.02833 10.3241C2.02784 10.2932 2.02127 10.2627 2.009 10.2343C1.99672 10.206 1.97898 10.1803 1.95679 10.1588C1.9346 10.1373 1.9084 10.1204 1.87967 10.1091C1.85094 10.0977 1.82026 10.0921 1.78937 10.0926C1.75848 10.0931 1.72799 10.0996 1.69964 10.1119C1.67129 10.1242 1.64563 10.1419 1.62413 10.1641C1.60264 10.1863 1.58572 10.2125 1.57436 10.2412C1.48588 10.4647 1.4406 10.7028 1.44092 10.9431C1.44092 11.28 1.55404 11.5272 1.65373 11.7453C1.75092 11.9541 1.84092 12.1509 1.84092 12.4328Z" fill="#DC3545"/>
<path d="M11.9569 11.6875C11.9552 11.7193 11.9601 11.7511 11.9711 11.781C11.9821 11.8108 11.9991 11.8381 12.0211 11.8612C12.043 11.8843 12.0694 11.9027 12.0986 11.9152C12.1279 11.9278 12.1594 11.9343 12.1912 11.9343C12.2231 11.9343 12.2546 11.9278 12.2838 11.9152C12.3131 11.9027 12.3395 11.8843 12.3614 11.8612C12.3833 11.8381 12.4003 11.8108 12.4114 11.781C12.4224 11.7511 12.4272 11.7193 12.4256 11.6875C12.4256 11.4062 12.5159 11.2087 12.6112 11C12.7109 10.7812 12.824 10.5347 12.824 10.1978C12.824 9.55718 12.5044 9.14656 12.4906 9.12937C12.4718 9.10442 12.4482 9.08348 12.4212 9.06778C12.3941 9.05208 12.3643 9.04193 12.3333 9.03793C12.3023 9.03393 12.2708 9.03615 12.2407 9.04448C12.2106 9.05281 12.1824 9.06707 12.1579 9.08642C12.1334 9.10577 12.1129 9.12983 12.0978 9.15718C12.0827 9.18453 12.0732 9.21463 12.0699 9.2457C12.0666 9.27677 12.0695 9.30819 12.0784 9.33812C12.0874 9.36805 12.1023 9.39589 12.1222 9.42C12.2762 9.64996 12.3572 9.92105 12.3547 10.1978C12.3547 10.4322 12.2759 10.6041 12.1844 10.8044C12.0781 11.0381 11.9569 11.3031 11.9569 11.6875Z" fill="#DC3545"/>
<path d="M13.6099 12.4328C13.613 12.4929 13.639 12.5495 13.6826 12.5909C13.7262 12.6323 13.7841 12.6554 13.8442 12.6554C13.9044 12.6554 13.9622 12.6323 14.0059 12.5909C14.0495 12.5495 14.0755 12.4929 14.0786 12.4328C14.0786 12.1516 14.1686 11.9541 14.2639 11.7453C14.3639 11.5266 14.4771 11.28 14.4771 10.9431C14.4774 10.7028 14.4321 10.4647 14.3436 10.2412C14.3207 10.1832 14.2756 10.1367 14.2183 10.1119C14.1611 10.0871 14.0963 10.0861 14.0383 10.1091C13.9803 10.132 13.9338 10.1771 13.909 10.2343C13.8842 10.2916 13.8832 10.3564 13.9061 10.4144C13.9729 10.5826 14.0071 10.7621 14.0067 10.9431C14.0067 11.1778 13.9277 11.3494 13.8364 11.55C13.7311 11.7837 13.6099 12.0484 13.6099 12.4328Z" fill="#DC3545"/>
<path d="M8.89736 6.53437C8.87441 6.47636 8.87544 6.4116 8.90023 6.35434C8.92501 6.29708 8.97154 6.25202 9.02955 6.22906C9.08757 6.2061 9.15233 6.20713 9.20958 6.23192C9.26684 6.25671 9.31191 6.30323 9.33486 6.36125C9.33486 6.36375 9.45736 6.61437 9.95143 6.58937C10.0116 6.58957 10.0694 6.61283 10.1129 6.65436C10.1564 6.6959 10.1824 6.75255 10.1854 6.81264C10.1884 6.87272 10.1682 6.93168 10.1291 6.97735C10.0899 7.02302 10.0347 7.05193 9.97486 7.05812C9.94361 7.05968 9.91424 7.06031 9.88518 7.06031C9.27236 7.0625 8.97674 6.73531 8.89736 6.53437Z" fill="#DC3545"/>
</g>
<defs>
<clipPath id="clip0_7804_81661">
<rect width="16" height="16" fill="white" transform="translate(0.428711)"/>
</clipPath>
</defs>
</svg>
