<svg width="23" height="24" viewBox="0 0 23 24" fill="none" xmlns="http://www.w3.org/2000/svg">
<path d="M2.8252 19.4218V20.1699C2.8252 20.5819 3.15895 20.9161 3.57098 20.9161H11.8683" stroke="#222931" stroke-miterlimit="10" stroke-linecap="round" stroke-linejoin="round"/>
<path d="M16.3179 1.84599H17.1152C17.5272 1.84599 17.8615 2.1802 17.8615 2.59223V12.1582" stroke="#222931" stroke-miterlimit="10" stroke-linecap="round" stroke-linejoin="round"/>
<path d="M6.86768 0.351534H15.5713C15.9834 0.351534 16.3176 0.685753 16.3176 1.09778V1.84591V13.7981" stroke="#222931" stroke-miterlimit="10" stroke-linecap="round" stroke-linejoin="round"/>
<path d="M11.8684 19.4218H2.82531H2.0275C1.61547 19.4218 1.28125 19.0875 1.28125 18.6755V4.28769" stroke="#222931" stroke-miterlimit="10" stroke-linecap="round" stroke-linejoin="round"/>
<path d="M19.7635 23.6484H13.8232C12.7435 23.6484 11.8682 22.7731 11.8682 21.6934V15.7531C11.8682 14.6734 12.7435 13.7981 13.8232 13.7981H19.7635C20.8432 13.7981 21.7185 14.6734 21.7185 15.7531V21.6934C21.7185 22.7731 20.8432 23.6484 19.7635 23.6484Z" stroke="#222931" stroke-miterlimit="10" stroke-linecap="round" stroke-linejoin="round"/>
<path d="M19.2556 17.9994L17.4915 15.8011C17.1333 15.3548 16.4541 15.3548 16.096 15.8011L14.3319 17.9994C13.8942 18.516 14.2994 19.3694 14.9796 19.3496H15.6638V21.5336C15.6638 21.7802 15.8636 21.9801 16.1102 21.9801H17.4773C17.7238 21.9801 17.9237 21.7802 17.9237 21.5336V19.3496H18.6079C19.2879 19.3694 19.6933 18.5161 19.2556 17.9994Z" stroke="#222931" stroke-miterlimit="10" stroke-linecap="round" stroke-linejoin="round"/>
<path d="M1.28125 4.2876L5.22381 0.351598V3.54149C5.22381 3.95357 4.88973 4.2876 4.4777 4.2876H1.28125Z" stroke="#222931" stroke-miterlimit="10" stroke-linecap="round" stroke-linejoin="round"/>
<path d="M11.0314 3.96423H7.7301C7.30584 3.96423 6.96191 3.62031 6.96191 3.19605V3.19445C6.96191 2.77019 7.30584 2.42622 7.7301 2.42622H11.0314C11.4557 2.42622 11.7996 2.77019 11.7996 3.19445V3.19605C11.7996 3.62031 11.4557 3.96423 11.0314 3.96423Z" stroke="#222931" stroke-miterlimit="10" stroke-linecap="round" stroke-linejoin="round"/>
<path d="M3.93604 6.94104H13.6783" stroke="#222931" stroke-miterlimit="10" stroke-linecap="round" stroke-linejoin="round"/>
<path d="M3.93604 9.02576H13.6783" stroke="#222931" stroke-miterlimit="10" stroke-linecap="round" stroke-linejoin="round"/>
<path d="M11.8589 11.1104H13.6782" stroke="#222931" stroke-miterlimit="10" stroke-linecap="round" stroke-linejoin="round"/>
<path d="M3.93604 11.1104H10.2088" stroke="#222931" stroke-miterlimit="10" stroke-linecap="round" stroke-linejoin="round"/>
<path d="M3.93604 13.1951H8.18408" stroke="#222931" stroke-miterlimit="10" stroke-linecap="round" stroke-linejoin="round"/>
<path d="M3.93604 15.2797H8.18408" stroke="#222931" stroke-miterlimit="10" stroke-linecap="round" stroke-linejoin="round"/>
</svg>
