<svg width="82" height="56" viewBox="0 0 82 56" fill="none" xmlns="http://www.w3.org/2000/svg">
<g clip-path="url(#clip0_348_461)">
<path d="M68.2326 10.3802C68.1251 10.3802 68.0219 10.3374 67.9459 10.2614C67.8699 10.1854 67.8271 10.0822 67.8271 9.97475V7.08246C67.8271 6.97493 67.8699 6.8718 67.9459 6.79576C68.0219 6.71972 68.1251 6.677 68.2326 6.677C68.3401 6.677 68.4433 6.71972 68.5193 6.79576C68.5953 6.8718 68.6381 6.97493 68.6381 7.08246V9.97475C68.6381 10.0822 68.5953 10.1854 68.5193 10.2614C68.4433 10.3374 68.3401 10.3802 68.2326 10.3802Z" fill="#57585A"/>
<path d="M70.0597 3.92215C69.6718 3.92215 69.2927 3.80714 68.9702 3.59165C68.6477 3.37617 68.3963 3.06989 68.2479 2.71155C68.0995 2.35321 68.0606 1.9589 68.1363 1.57849C68.212 1.19808 68.3988 0.848648 68.673 0.574387C68.9473 0.300125 69.2967 0.113351 69.6771 0.0376824C70.0575 -0.0379861 70.4518 0.000849694 70.8102 0.149279C71.1685 0.297708 71.4748 0.549064 71.6903 0.871561C71.9058 1.19406 72.0208 1.57321 72.0208 1.96108C72.0202 2.48101 71.8134 2.97949 71.4458 3.34713C71.0781 3.71478 70.5796 3.92158 70.0597 3.92215ZM70.0597 0.810921C69.8322 0.810921 69.6099 0.878377 69.4207 1.00476C69.2316 1.13114 69.0842 1.31077 68.9971 1.52093C68.91 1.73109 68.8873 1.96235 68.9316 2.18546C68.976 2.40857 69.0856 2.61351 69.2464 2.77436C69.4073 2.93521 69.6122 3.04475 69.8353 3.08913C70.0584 3.13351 70.2897 3.11073 70.4998 3.02368C70.71 2.93663 70.8896 2.78921 71.016 2.60007C71.1424 2.41093 71.2099 2.18856 71.2099 1.96108C71.2095 1.65615 71.0882 1.36381 70.8726 1.14819C70.657 0.932571 70.3646 0.811279 70.0597 0.810921Z" fill="#57585A"/>
<path d="M76.4531 6.95554C76.3748 6.95559 76.2982 6.93297 76.2324 6.89042C76.1667 6.84786 76.1147 6.78719 76.0827 6.71573C76.0508 6.64427 76.0401 6.56508 76.0522 6.48771C76.0642 6.41035 76.0984 6.33813 76.1506 6.27978L78.3536 3.81025C78.3891 3.77051 78.4321 3.73816 78.4801 3.71503C78.5281 3.6919 78.5802 3.67845 78.6334 3.67545C78.6866 3.67245 78.7399 3.67996 78.7901 3.69754C78.8404 3.71513 78.8868 3.74245 78.9265 3.77795C78.9663 3.81345 78.9986 3.85642 79.0218 3.90443C79.0449 3.95243 79.0583 4.00452 79.0613 4.05772C79.0643 4.11092 79.0568 4.16419 79.0392 4.21449C79.0216 4.26479 78.9943 4.31113 78.9588 4.35087L76.7558 6.81904C76.7179 6.86187 76.6713 6.89618 76.6191 6.91971C76.5669 6.94323 76.5103 6.95545 76.4531 6.95554Z" fill="#57585A"/>
<path d="M80.7838 10.6167H73.5091C73.4015 10.6167 73.2984 10.574 73.2223 10.4979C73.1463 10.4219 73.1036 10.3188 73.1036 10.2112C73.1036 10.1037 73.1463 10.0006 73.2223 9.92452C73.2984 9.84848 73.4015 9.80576 73.5091 9.80576H80.7838C80.8914 9.80576 80.9945 9.76305 81.0705 9.68701C81.1466 9.61097 81.1893 9.50784 81.1893 9.4003V1.22542C81.1893 1.11788 81.1466 1.01475 81.0705 0.93871C80.9945 0.862672 80.8914 0.819954 80.7838 0.819954H72.8298C72.7222 0.819954 72.6191 0.777236 72.5431 0.701197C72.467 0.625159 72.4243 0.522028 72.4243 0.414493C72.4243 0.306959 72.467 0.203828 72.5431 0.12779C72.6191 0.0517512 72.7222 0.00903321 72.8298 0.0090332H80.7838C81.1064 0.0090332 81.4158 0.137187 81.6439 0.365303C81.872 0.593419 82.0002 0.90281 82.0002 1.22542V9.4003C82.0002 9.72291 81.872 10.0323 81.6439 10.2604C81.4158 10.4886 81.1064 10.6167 80.7838 10.6167Z" fill="#57585A"/>
<path d="M70.0596 16.0002H68.2326C68.1251 16.0002 68.0219 15.9574 67.9459 15.8814C67.8699 15.8054 67.8271 15.7022 67.8271 15.5947V9.9748C67.8271 9.86726 67.8699 9.76413 67.9459 9.68809C68.0219 9.61206 68.1251 9.56934 68.2326 9.56934C68.3401 9.56934 68.4433 9.61206 68.5193 9.68809C68.5953 9.76413 68.6381 9.86726 68.6381 9.9748V15.1892H70.0596C70.1671 15.1892 70.2703 15.232 70.3463 15.308C70.4223 15.384 70.4651 15.4872 70.4651 15.5947C70.4651 15.7022 70.4223 15.8054 70.3463 15.8814C70.2703 15.9574 70.1671 16.0002 70.0596 16.0002Z" fill="#57585A"/>
<path d="M71.887 16.0003H70.0597C69.9522 16.0003 69.8491 15.9576 69.773 15.8815C69.697 15.8055 69.6543 15.7023 69.6543 15.5948V10.2114C69.6543 10.1038 69.697 10.0007 69.773 9.92467C69.8491 9.84864 69.9522 9.80592 70.0597 9.80592C70.1673 9.80592 70.2704 9.84864 70.3464 9.92467C70.4225 10.0007 70.4652 10.1038 70.4652 10.2114V15.1893H71.4816V7.52345C71.4815 7.35517 71.5314 7.19066 71.6249 7.05074C71.7184 6.91082 71.8513 6.80177 72.0068 6.73739C72.1622 6.673 72.3333 6.65618 72.4983 6.68904C72.6634 6.72191 72.815 6.80298 72.9339 6.92201L73.5694 7.55669C73.6165 7.604 73.6725 7.64149 73.7341 7.66701C73.7958 7.69253 73.8619 7.70557 73.9286 7.70536H75.8156C75.8833 7.70538 75.9502 7.69189 76.0126 7.6657C76.0749 7.6395 76.1314 7.60113 76.1788 7.55281C76.2261 7.5045 76.2633 7.44723 76.2882 7.38435C76.3131 7.32148 76.3252 7.25426 76.3238 7.18664C76.3182 6.91228 76.0822 6.68928 75.7978 6.68928H74.306C74.1985 6.68919 74.0954 6.6464 74.0195 6.57034L73.1466 5.69779C72.9883 5.53852 72.7999 5.41226 72.5924 5.32633C72.3849 5.2404 72.1624 5.1965 71.9378 5.19719H71.6232L71.0104 5.70671C70.7434 5.92859 70.4073 6.05006 70.0601 6.05006C69.713 6.05006 69.3768 5.92859 69.1099 5.70671L68.4966 5.19719H68.2327C67.8558 5.19762 67.4944 5.34755 67.2278 5.6141C66.9613 5.88065 66.8114 6.24204 66.8109 6.619C66.8109 6.72654 66.7682 6.82967 66.6922 6.9057C66.6161 6.98174 66.513 7.02446 66.4055 7.02446C66.2979 7.02446 66.1948 6.98174 66.1188 6.9057C66.0427 6.82967 66 6.72654 66 6.619C66.0006 6.02704 66.2361 5.45951 66.6547 5.04093C67.0732 4.62235 67.6408 4.38691 68.2327 4.38627H68.6431C68.7378 4.3863 68.8295 4.41948 68.9023 4.48006L69.6278 5.08312C69.7492 5.18426 69.9022 5.23964 70.0603 5.23964C70.2183 5.23964 70.3713 5.18426 70.4928 5.08312L71.2177 4.47979C71.2905 4.41921 71.3823 4.38603 71.477 4.386H71.9384C72.2695 4.38508 72.5975 4.44986 72.9034 4.57657C73.2093 4.70329 73.487 4.88942 73.7205 5.1242L74.4747 5.87836H75.7992C76.522 5.87836 77.1215 6.4579 77.1358 7.17043C77.1394 7.34587 77.1079 7.52026 77.0432 7.68338C76.9786 7.84651 76.882 7.99509 76.7592 8.12042C76.6363 8.24575 76.4898 8.34532 76.328 8.4133C76.1662 8.48127 75.9925 8.51628 75.817 8.51628H73.9276C73.7543 8.51677 73.5826 8.48289 73.4226 8.41658C73.2625 8.35028 73.1172 8.25288 72.995 8.13002L72.3606 7.49479C72.3554 7.48965 72.3489 7.48601 72.3418 7.48425C72.3347 7.48249 72.3273 7.48268 72.3203 7.48479C72.3124 7.48746 72.3055 7.49255 72.3007 7.49935C72.2958 7.50614 72.2932 7.51429 72.2933 7.52264V15.594C72.2934 15.6474 72.2829 15.7003 72.2626 15.7496C72.2422 15.7989 72.2123 15.8438 72.1745 15.8815C72.1368 15.9193 72.092 15.9492 72.0426 15.9696C71.9933 15.9899 71.9404 16.0004 71.887 16.0003Z" fill="#57585A"/>
<path d="M67.3191 11.294C66.9694 11.2937 66.6341 11.1546 66.3868 10.9073C66.1394 10.66 66.0004 10.3247 66 9.97497V6.61884C66 6.5113 66.0427 6.40817 66.1188 6.33213C66.1948 6.25609 66.2979 6.21338 66.4055 6.21338C66.513 6.21338 66.6161 6.25609 66.6922 6.33213C66.7682 6.40817 66.8109 6.5113 66.8109 6.61884V9.97497C66.8109 10.1097 66.8645 10.239 66.9598 10.3343C67.0551 10.4296 67.1843 10.4831 67.3191 10.4831C67.4539 10.4831 67.5831 10.4296 67.6784 10.3343C67.7737 10.239 67.8273 10.1097 67.8273 9.97497C67.8273 9.86743 67.87 9.7643 67.946 9.68826C68.0221 9.61222 68.1252 9.56951 68.2327 9.56951C68.3403 9.56951 68.4434 9.61222 68.5194 9.68826C68.5955 9.7643 68.6382 9.86743 68.6382 9.97497C68.6378 10.3247 68.4988 10.66 68.2514 10.9073C68.0041 11.1546 67.6688 11.2937 67.3191 11.294Z" fill="#57585A"/>
<path d="M78.7595 16.0002H66.4064C66.2989 16.0002 66.1958 15.9574 66.1197 15.8814C66.0437 15.8054 66.001 15.7022 66.001 15.5947C66.001 15.4872 66.0437 15.384 66.1197 15.308C66.1958 15.2319 66.2989 15.1892 66.4064 15.1892H78.7595C78.867 15.1892 78.9701 15.2319 79.0462 15.308C79.1222 15.384 79.1649 15.4872 79.1649 15.5947C79.1649 15.7022 79.1222 15.8054 79.0462 15.8814C78.9701 15.9574 78.867 16.0002 78.7595 16.0002Z" fill="#57585A"/>
<path d="M76.5535 4.48573H74.4514C74.3438 4.48573 74.2407 4.44301 74.1647 4.36697C74.0886 4.29093 74.0459 4.1878 74.0459 4.08026C74.0459 3.97273 74.0886 3.8696 74.1647 3.79356C74.2407 3.71752 74.3438 3.6748 74.4514 3.6748H76.5535C76.6611 3.6748 76.7642 3.71752 76.8402 3.79356C76.9163 3.8696 76.959 3.97273 76.959 4.08026C76.959 4.1878 76.9163 4.29093 76.8402 4.36697C76.7642 4.44301 76.6611 4.48573 76.5535 4.48573Z" fill="#57585A"/>
<path d="M78.6557 2.65272H74.4514C74.3438 2.65272 74.2407 2.61 74.1647 2.53396C74.0886 2.45792 74.0459 2.35479 74.0459 2.24726C74.0459 2.13972 74.0886 2.03659 74.1647 1.96055C74.2407 1.88452 74.3438 1.8418 74.4514 1.8418H78.6557C78.7632 1.8418 78.8664 1.88452 78.9424 1.96055C79.0185 2.03659 79.0612 2.13972 79.0612 2.24726C79.0612 2.35479 79.0185 2.45792 78.9424 2.53396C78.8664 2.61 78.7632 2.65272 78.6557 2.65272Z" fill="#57585A"/>
</g>
<g clip-path="url(#clip1_348_461)">
<path d="M68.2326 50.3802C68.1251 50.3802 68.0219 50.3374 67.9459 50.2614C67.8699 50.1854 67.8271 50.0822 67.8271 49.9748V47.0825C67.8271 46.9749 67.8699 46.8718 67.9459 46.7958C68.0219 46.7197 68.1251 46.677 68.2326 46.677C68.3401 46.677 68.4433 46.7197 68.5193 46.7958C68.5953 46.8718 68.6381 46.9749 68.6381 47.0825V49.9748C68.6381 50.0822 68.5953 50.1854 68.5193 50.2614C68.4433 50.3374 68.3401 50.3802 68.2326 50.3802Z" fill="#FA981C"/>
<path d="M70.0597 43.9221C69.6718 43.9221 69.2927 43.8071 68.9702 43.5917C68.6477 43.3762 68.3963 43.0699 68.2479 42.7115C68.0995 42.3532 68.0606 41.9589 68.1363 41.5785C68.212 41.1981 68.3988 40.8486 68.673 40.5744C68.9473 40.3001 69.2967 40.1134 69.6771 40.0377C70.0575 39.962 70.4518 40.0008 70.8102 40.1493C71.1685 40.2977 71.4748 40.5491 71.6903 40.8716C71.9058 41.1941 72.0208 41.5732 72.0208 41.9611C72.0202 42.481 71.8134 42.9795 71.4458 43.3471C71.0781 43.7148 70.5796 43.9216 70.0597 43.9221ZM70.0597 40.8109C69.8322 40.8109 69.6099 40.8784 69.4207 41.0048C69.2316 41.1311 69.0842 41.3108 68.9971 41.5209C68.91 41.7311 68.8873 41.9624 68.9316 42.1855C68.976 42.4086 69.0856 42.6135 69.2464 42.7744C69.4073 42.9352 69.6122 43.0447 69.8353 43.0891C70.0584 43.1335 70.2897 43.1107 70.4998 43.0237C70.71 42.9366 70.8896 42.7892 71.016 42.6001C71.1424 42.4109 71.2099 42.1886 71.2099 41.9611C71.2095 41.6561 71.0882 41.3638 70.8726 41.1482C70.657 40.9326 70.3646 40.8113 70.0597 40.8109Z" fill="#FA981C"/>
<path d="M76.4531 46.9555C76.3748 46.9556 76.2982 46.933 76.2324 46.8904C76.1667 46.8479 76.1147 46.7872 76.0827 46.7157C76.0508 46.6443 76.0401 46.5651 76.0522 46.4877C76.0642 46.4103 76.0984 46.3381 76.1506 46.2798L78.3536 43.8102C78.3891 43.7705 78.4321 43.7382 78.4801 43.715C78.5281 43.6919 78.5802 43.6784 78.6334 43.6754C78.6866 43.6724 78.7399 43.68 78.7901 43.6975C78.8404 43.7151 78.8868 43.7424 78.9265 43.7779C78.9663 43.8134 78.9986 43.8564 79.0218 43.9044C79.0449 43.9524 79.0583 44.0045 79.0613 44.0577C79.0643 44.1109 79.0568 44.1642 79.0392 44.2145C79.0216 44.2648 78.9943 44.3111 78.9588 44.3509L76.7558 46.819C76.7179 46.8619 76.6713 46.8962 76.6191 46.9197C76.5669 46.9432 76.5103 46.9554 76.4531 46.9555Z" fill="#FA981C"/>
<path d="M80.7838 50.6167H73.5091C73.4015 50.6167 73.2984 50.574 73.2223 50.4979C73.1463 50.4219 73.1036 50.3188 73.1036 50.2112C73.1036 50.1037 73.1463 50.0006 73.2223 49.9245C73.2984 49.8485 73.4015 49.8058 73.5091 49.8058H80.7838C80.8914 49.8058 80.9945 49.763 81.0705 49.687C81.1466 49.611 81.1893 49.5078 81.1893 49.4003V41.2254C81.1893 41.1179 81.1466 41.0147 81.0705 40.9387C80.9945 40.8627 80.8914 40.82 80.7838 40.82H72.8298C72.7222 40.82 72.6191 40.7772 72.5431 40.7012C72.467 40.6252 72.4243 40.522 72.4243 40.4145C72.4243 40.307 72.467 40.2038 72.5431 40.1278C72.6191 40.0518 72.7222 40.009 72.8298 40.009H80.7838C81.1064 40.009 81.4158 40.1372 81.6439 40.3653C81.872 40.5934 82.0002 40.9028 82.0002 41.2254V49.4003C82.0002 49.7229 81.872 50.0323 81.6439 50.2604C81.4158 50.4886 81.1064 50.6167 80.7838 50.6167Z" fill="#FA981C"/>
<path d="M70.0596 56.0002H68.2326C68.1251 56.0002 68.0219 55.9574 67.9459 55.8814C67.8699 55.8054 67.8271 55.7022 67.8271 55.5947V49.9748C67.8271 49.8673 67.8699 49.7641 67.9459 49.6881C68.0219 49.6121 68.1251 49.5693 68.2326 49.5693C68.3401 49.5693 68.4433 49.6121 68.5193 49.6881C68.5953 49.7641 68.6381 49.8673 68.6381 49.9748V55.1892H70.0596C70.1671 55.1892 70.2703 55.232 70.3463 55.308C70.4223 55.384 70.4651 55.4872 70.4651 55.5947C70.4651 55.7022 70.4223 55.8054 70.3463 55.8814C70.2703 55.9574 70.1671 56.0002 70.0596 56.0002Z" fill="#FA981C"/>
<path d="M71.887 56.0003H70.0597C69.9522 56.0003 69.8491 55.9576 69.773 55.8815C69.697 55.8055 69.6543 55.7023 69.6543 55.5948V50.2114C69.6543 50.1038 69.697 50.0007 69.773 49.9247C69.8491 49.8486 69.9522 49.8059 70.0597 49.8059C70.1673 49.8059 70.2704 49.8486 70.3464 49.9247C70.4225 50.0007 70.4652 50.1038 70.4652 50.2114V55.1893H71.4816V47.5234C71.4815 47.3552 71.5314 47.1907 71.6249 47.0507C71.7184 46.9108 71.8513 46.8018 72.0068 46.7374C72.1622 46.673 72.3333 46.6562 72.4983 46.689C72.6634 46.7219 72.815 46.803 72.9339 46.922L73.5694 47.5567C73.6165 47.604 73.6725 47.6415 73.7341 47.667C73.7958 47.6925 73.8619 47.7056 73.9286 47.7054H75.8156C75.8833 47.7054 75.9502 47.6919 76.0126 47.6657C76.0749 47.6395 76.1314 47.6011 76.1788 47.5528C76.2261 47.5045 76.2633 47.4472 76.2882 47.3843C76.3131 47.3215 76.3252 47.2543 76.3238 47.1866C76.3182 46.9123 76.0822 46.6893 75.7978 46.6893H74.306C74.1985 46.6892 74.0954 46.6464 74.0195 46.5703L73.1466 45.6978C72.9883 45.5385 72.7999 45.4123 72.5924 45.3263C72.3849 45.2404 72.1624 45.1965 71.9378 45.1972H71.6232L71.0104 45.7067C70.7434 45.9286 70.4073 46.0501 70.0601 46.0501C69.713 46.0501 69.3768 45.9286 69.1099 45.7067L68.4966 45.1972H68.2327C67.8558 45.1976 67.4944 45.3475 67.2278 45.6141C66.9613 45.8806 66.8114 46.242 66.8109 46.619C66.8109 46.7265 66.7682 46.8297 66.6922 46.9057C66.6161 46.9817 66.513 47.0245 66.4055 47.0245C66.2979 47.0245 66.1948 46.9817 66.1188 46.9057C66.0427 46.8297 66 46.7265 66 46.619C66.0006 46.027 66.2361 45.4595 66.6547 45.0409C67.0732 44.6223 67.6408 44.3869 68.2327 44.3863H68.6431C68.7378 44.3863 68.8295 44.4195 68.9023 44.4801L69.6278 45.0831C69.7492 45.1843 69.9022 45.2396 70.0603 45.2396C70.2183 45.2396 70.3713 45.1843 70.4928 45.0831L71.2177 44.4798C71.2905 44.4192 71.3823 44.386 71.477 44.386H71.9384C72.2695 44.3851 72.5975 44.4499 72.9034 44.5766C73.2093 44.7033 73.487 44.8894 73.7205 45.1242L74.4747 45.8784H75.7992C76.522 45.8784 77.1215 46.4579 77.1358 47.1704C77.1394 47.3459 77.1079 47.5203 77.0432 47.6834C76.9786 47.8465 76.882 47.9951 76.7592 48.1204C76.6363 48.2457 76.4898 48.3453 76.328 48.4133C76.1662 48.4813 75.9925 48.5163 75.817 48.5163H73.9276C73.7543 48.5168 73.5826 48.4829 73.4226 48.4166C73.2625 48.3503 73.1172 48.2529 72.995 48.13L72.3606 47.4948C72.3554 47.4896 72.3489 47.486 72.3418 47.4842C72.3347 47.4825 72.3273 47.4827 72.3203 47.4848C72.3124 47.4875 72.3055 47.4925 72.3007 47.4993C72.2958 47.5061 72.2932 47.5143 72.2933 47.5226V55.594C72.2934 55.6474 72.2829 55.7003 72.2626 55.7496C72.2422 55.7989 72.2123 55.8438 72.1745 55.8815C72.1368 55.9193 72.092 55.9492 72.0426 55.9696C71.9933 55.9899 71.9404 56.0004 71.887 56.0003Z" fill="#FA981C"/>
<path d="M67.3191 51.294C66.9694 51.2937 66.6341 51.1546 66.3868 50.9073C66.1394 50.66 66.0004 50.3247 66 49.975V46.6188C66 46.5113 66.0427 46.4082 66.1188 46.3321C66.1948 46.2561 66.2979 46.2134 66.4055 46.2134C66.513 46.2134 66.6161 46.2561 66.6922 46.3321C66.7682 46.4082 66.8109 46.5113 66.8109 46.6188V49.975C66.8109 50.1097 66.8645 50.239 66.9598 50.3343C67.0551 50.4296 67.1843 50.4831 67.3191 50.4831C67.4539 50.4831 67.5831 50.4296 67.6784 50.3343C67.7737 50.239 67.8273 50.1097 67.8273 49.975C67.8273 49.8674 67.87 49.7643 67.946 49.6883C68.0221 49.6122 68.1252 49.5695 68.2327 49.5695C68.3403 49.5695 68.4434 49.6122 68.5194 49.6883C68.5955 49.7643 68.6382 49.8674 68.6382 49.975C68.6378 50.3247 68.4988 50.66 68.2514 50.9073C68.0041 51.1546 67.6688 51.2937 67.3191 51.294Z" fill="#FA981C"/>
<path d="M78.7595 56.0002H66.4064C66.2989 56.0002 66.1958 55.9574 66.1197 55.8814C66.0437 55.8054 66.001 55.7022 66.001 55.5947C66.001 55.4872 66.0437 55.384 66.1197 55.308C66.1958 55.2319 66.2989 55.1892 66.4064 55.1892H78.7595C78.867 55.1892 78.9701 55.2319 79.0462 55.308C79.1222 55.384 79.1649 55.4872 79.1649 55.5947C79.1649 55.7022 79.1222 55.8054 79.0462 55.8814C78.9701 55.9574 78.867 56.0002 78.7595 56.0002Z" fill="#FA981C"/>
<path d="M76.5535 44.4857H74.4514C74.3438 44.4857 74.2407 44.443 74.1647 44.367C74.0886 44.2909 74.0459 44.1878 74.0459 44.0803C74.0459 43.9727 74.0886 43.8696 74.1647 43.7936C74.2407 43.7175 74.3438 43.6748 74.4514 43.6748H76.5535C76.6611 43.6748 76.7642 43.7175 76.8402 43.7936C76.9163 43.8696 76.959 43.9727 76.959 44.0803C76.959 44.1878 76.9163 44.2909 76.8402 44.367C76.7642 44.443 76.6611 44.4857 76.5535 44.4857Z" fill="#FA981C"/>
<path d="M78.6557 42.6527H74.4514C74.3438 42.6527 74.2407 42.61 74.1647 42.534C74.0886 42.4579 74.0459 42.3548 74.0459 42.2473C74.0459 42.1397 74.0886 42.0366 74.1647 41.9605C74.2407 41.8845 74.3438 41.8418 74.4514 41.8418H78.6557C78.7632 41.8418 78.8664 41.8845 78.9424 41.9605C79.0185 42.0366 79.0612 42.1397 79.0612 42.2473C79.0612 42.3548 79.0185 42.4579 78.9424 42.534C78.8664 42.61 78.7632 42.6527 78.6557 42.6527Z" fill="#FA981C"/>
</g>
<g clip-path="url(#clip2_348_461)">
<path fill-rule="evenodd" clip-rule="evenodd" d="M40.6667 12.1665H46C46.276 12.1665 46.5 11.9425 46.5 11.6665V1.99992C46.5 1.69059 46.3773 1.39392 46.158 1.17525C45.9393 0.955919 45.6427 0.833252 45.3333 0.833252C43.7047 0.833252 39.4993 0.833252 37.3333 0.833252C36.8473 0.833252 36.3807 1.02659 36.0367 1.36992C35.6933 1.71392 35.5 2.18059 35.5 2.66659V12.9999C35.5 13.2759 35.724 13.4999 36 13.4999C36.276 13.4999 36.5 13.2759 36.5 12.9999C36.5 12.9999 36.5 5.72792 36.5 2.66659C36.5 2.44525 36.588 2.23392 36.744 2.07725C36.9007 1.92125 37.112 1.83325 37.3333 1.83325H45.3333C45.3773 1.83325 45.42 1.85059 45.4513 1.88192C45.4827 1.91325 45.5 1.95592 45.5 1.99992V11.1665H40.6667C40.3907 11.1665 40.1667 11.3905 40.1667 11.6665C40.1667 11.9425 40.3907 12.1665 40.6667 12.1665Z" fill="#57585A"/>
<path fill-rule="evenodd" clip-rule="evenodd" d="M40.6667 11.1665H37.5C36.3953 11.1665 35.5 12.0619 35.5 13.1665C35.5 13.6972 35.7107 14.2059 36.086 14.5805C36.4607 14.9559 36.9693 15.1665 37.5 15.1665H45.3333C45.6427 15.1665 45.9393 15.0439 46.158 14.8245C46.3773 14.6059 46.5 14.3092 46.5 13.9999C46.5 13.5359 46.5 12.9999 46.5 12.9999C46.5 12.7239 46.276 12.4999 46 12.4999C45.724 12.4999 45.5 12.7239 45.5 12.9999V13.9999C45.5 14.0439 45.4827 14.0865 45.4513 14.1179C45.42 14.1492 45.3773 14.1665 45.3333 14.1665H37.5C37.2347 14.1665 36.9807 14.0612 36.7927 13.8739C36.6053 13.6859 36.5 13.4319 36.5 13.1665C36.5 12.6145 36.948 12.1665 37.5 12.1665H40.6667C40.9427 12.1665 41.1667 11.9425 41.1667 11.6665C41.1667 11.3905 40.9427 11.1665 40.6667 11.1665Z" fill="#57585A"/>
<path fill-rule="evenodd" clip-rule="evenodd" d="M38.6665 4.5H43.3332C43.6092 4.5 43.8332 4.276 43.8332 4C43.8332 3.724 43.6092 3.5 43.3332 3.5H38.6665C38.3905 3.5 38.1665 3.724 38.1665 4C38.1665 4.276 38.3905 4.5 38.6665 4.5Z" fill="#57585A"/>
</g>
<g clip-path="url(#clip3_348_461)">
<path fill-rule="evenodd" clip-rule="evenodd" d="M40.6667 52.1665H46C46.276 52.1665 46.5 51.9425 46.5 51.6665V41.9999C46.5 41.6906 46.3773 41.3939 46.158 41.1752C45.9393 40.9559 45.6427 40.8333 45.3333 40.8333C43.7047 40.8333 39.4993 40.8333 37.3333 40.8333C36.8473 40.8333 36.3807 41.0266 36.0367 41.3699C35.6933 41.7139 35.5 42.1806 35.5 42.6666V52.9999C35.5 53.2759 35.724 53.4999 36 53.4999C36.276 53.4999 36.5 53.2759 36.5 52.9999C36.5 52.9999 36.5 45.7279 36.5 42.6666C36.5 42.4452 36.588 42.2339 36.744 42.0772C36.9007 41.9212 37.112 41.8332 37.3333 41.8332H45.3333C45.3773 41.8332 45.42 41.8506 45.4513 41.8819C45.4827 41.9132 45.5 41.9559 45.5 41.9999V51.1665H40.6667C40.3907 51.1665 40.1667 51.3905 40.1667 51.6665C40.1667 51.9425 40.3907 52.1665 40.6667 52.1665Z" fill="#FA981C"/>
<path fill-rule="evenodd" clip-rule="evenodd" d="M40.6667 51.1665H37.5C36.3953 51.1665 35.5 52.0619 35.5 53.1665C35.5 53.6972 35.7107 54.2059 36.086 54.5805C36.4607 54.9559 36.9693 55.1665 37.5 55.1665H45.3333C45.6427 55.1665 45.9393 55.0439 46.158 54.8245C46.3773 54.6059 46.5 54.3092 46.5 53.9999C46.5 53.5359 46.5 52.9999 46.5 52.9999C46.5 52.7239 46.276 52.4999 46 52.4999C45.724 52.4999 45.5 52.7239 45.5 52.9999V53.9999C45.5 54.0439 45.4827 54.0865 45.4513 54.1179C45.42 54.1492 45.3773 54.1665 45.3333 54.1665H37.5C37.2347 54.1665 36.9807 54.0612 36.7927 53.8739C36.6053 53.6859 36.5 53.4319 36.5 53.1665C36.5 52.6145 36.948 52.1665 37.5 52.1665H40.6667C40.9427 52.1665 41.1667 51.9425 41.1667 51.6665C41.1667 51.3905 40.9427 51.1665 40.6667 51.1665Z" fill="#FA981C"/>
<path fill-rule="evenodd" clip-rule="evenodd" d="M38.6665 44.5H43.3332C43.6092 44.5 43.8332 44.276 43.8332 44C43.8332 43.724 43.6092 43.5 43.3332 43.5H38.6665C38.3905 43.5 38.1665 43.724 38.1665 44C38.1665 44.276 38.3905 44.5 38.6665 44.5Z" fill="#FA981C"/>
</g>
<path d="M15.4309 11.7989V7.27274L15.5606 7.19754C15.8358 7.0384 16 6.75446 16 6.43782C16 6.12118 15.8358 5.8367 15.5606 5.67756L8.9081 1.82886C8.3483 1.50404 7.6517 1.50459 7.0919 1.82886L0.438866 5.67811C0.164164 5.83725 0 6.12118 0 6.43782C0 6.75446 0.164164 7.0384 0.438866 7.19808L2.4559 8.36545V11.079C2.4559 11.709 2.79627 12.2948 3.34348 12.6093L6.12005 14.2034C6.69954 14.5358 7.34964 14.7026 7.99973 14.7026C8.64982 14.7026 9.29936 14.5364 9.87941 14.2034L12.6554 12.6093C13.2032 12.2954 13.5436 11.709 13.5436 11.079V8.3649L14.4459 7.8428V11.7989C14.2144 11.9558 14.0623 12.2202 14.0623 12.5205C14.0623 13.0022 14.4547 13.393 14.9384 13.393C15.4221 13.393 15.8145 13.0022 15.8145 12.5205C15.8145 12.2207 15.6624 11.9564 15.4309 11.7989ZM12.5591 11.0784C12.5591 11.3585 12.4081 11.619 12.164 11.7586L9.38801 13.3527C8.53217 13.8437 7.46783 13.8437 6.61254 13.3527L3.83597 11.7586C3.59246 11.619 3.44143 11.3585 3.44143 11.0784V8.93496L7.0919 11.0474C7.37207 11.2092 7.68617 11.2904 8.00027 11.2904C8.31437 11.2904 8.62848 11.2098 8.90865 11.0474L12.5591 8.93496V11.0784ZM8.41342 10.1994C8.15842 10.347 7.84158 10.347 7.58658 10.1994L1.08622 6.43782L7.58603 2.67631C7.84103 2.52862 8.15787 2.52862 8.41287 2.67631L14.9132 6.43728L8.41342 10.1994Z" fill="#57585A"/>
<path d="M15.4309 51.7989V47.2727L15.5606 47.1975C15.8358 47.0384 16 46.7545 16 46.4378C16 46.1212 15.8358 45.8367 15.5606 45.6776L8.9081 41.8289C8.3483 41.504 7.6517 41.5046 7.0919 41.8289L0.438866 45.6781C0.164164 45.8372 0 46.1212 0 46.4378C0 46.7545 0.164164 47.0384 0.438866 47.1981L2.4559 48.3654V51.079C2.4559 51.709 2.79627 52.2948 3.34348 52.6093L6.12005 54.2034C6.69954 54.5358 7.34964 54.7026 7.99973 54.7026C8.64982 54.7026 9.29936 54.5364 9.87941 54.2034L12.6554 52.6093C13.2032 52.2954 13.5436 51.709 13.5436 51.079V48.3649L14.4459 47.8428V51.7989C14.2144 51.9558 14.0623 52.2202 14.0623 52.5205C14.0623 53.0022 14.4547 53.393 14.9384 53.393C15.4221 53.393 15.8145 53.0022 15.8145 52.5205C15.8145 52.2207 15.6624 51.9564 15.4309 51.7989ZM12.5591 51.0784C12.5591 51.3585 12.4081 51.619 12.164 51.7586L9.38801 53.3527C8.53217 53.8437 7.46783 53.8437 6.61254 53.3527L3.83597 51.7586C3.59246 51.619 3.44143 51.3585 3.44143 51.0784V48.935L7.0919 51.0474C7.37207 51.2092 7.68617 51.2904 8.00027 51.2904C8.31437 51.2904 8.62848 51.2098 8.90865 51.0474L12.5591 48.935V51.0784ZM8.41342 50.1994C8.15842 50.347 7.84158 50.347 7.58658 50.1994L1.08622 46.4378L7.58603 42.6763C7.84103 42.5286 8.15787 42.5286 8.41287 42.6763L14.9132 46.4373L8.41342 50.1994Z" fill="#FA981C"/>
<defs>
<clipPath id="clip0_348_461">
<rect width="16" height="16" fill="white" transform="translate(66)"/>
</clipPath>
<clipPath id="clip1_348_461">
<rect width="16" height="16" fill="white" transform="translate(66 40)"/>
</clipPath>
<clipPath id="clip2_348_461">
<rect width="12" height="16" fill="white" transform="translate(35)"/>
</clipPath>
<clipPath id="clip3_348_461">
<rect width="12" height="16" fill="white" transform="translate(35 40)"/>
</clipPath>
</defs>
</svg>
