<svg width="16" height="12" viewBox="0 0 16 12" fill="none" xmlns="http://www.w3.org/2000/svg">
<path d="M2.27614 4.66672H9.99998C10.3682 4.66672 10.6666 4.36826 10.6666 4.00007C10.6666 3.63188 10.3682 3.33341 9.99998 3.33341H2.27614L3.80473 1.80482C4.06508 1.54447 4.06508 1.12235 3.80473 0.862006C3.54439 0.601662 3.12226 0.601662 2.86192 0.862006L0.195233 3.52866C0.179702 3.54419 0.165014 3.56054 0.151077 3.57754C0.144764 3.58522 0.139264 3.59335 0.133358 3.60126C0.126233 3.61076 0.118889 3.62004 0.112264 3.62994C0.10592 3.63941 0.10042 3.64926 0.0946079 3.65897C0.0892642 3.66791 0.0836392 3.67666 0.0787017 3.68588C0.0733892 3.69579 0.0688892 3.70601 0.0641392 3.71613C0.0596079 3.72572 0.0548267 3.73516 0.0507329 3.74501C0.0466704 3.75485 0.0433579 3.76491 0.0397954 3.77491C0.0360142 3.78544 0.0319829 3.79582 0.0287329 3.80657C0.0257017 3.81657 0.0234829 3.82672 0.0209517 3.83685C0.0181704 3.84782 0.0151079 3.85866 0.0128892 3.86985C0.0105767 3.88157 0.00920166 3.89338 0.00751416 3.90516C0.00613916 3.91488 0.00426416 3.92447 0.00329541 3.93432C-0.00101709 3.97807 -0.00101709 4.02216 0.00329541 4.06591C0.00426416 4.07576 0.00610791 4.08532 0.00751416 4.09507C0.00920166 4.10685 0.0105767 4.11869 0.0129204 4.13038C0.0151392 4.14157 0.0182017 4.15238 0.0209829 4.16335C0.0235142 4.17347 0.0257329 4.18363 0.0287642 4.19363C0.0320142 4.20438 0.0360454 4.21479 0.0398267 4.22529C0.0434204 4.23529 0.0467017 4.24535 0.0507642 4.25519C0.0548267 4.26504 0.0596392 4.27444 0.0641704 4.28404C0.0689517 4.29416 0.0734517 4.30438 0.0787642 4.31432C0.0837017 4.32351 0.0892954 4.33222 0.0946392 4.34116C0.100452 4.35091 0.105952 4.36076 0.112295 4.37026C0.118889 4.38013 0.126233 4.38938 0.133327 4.39888C0.139264 4.40682 0.144764 4.41494 0.151108 4.42266C0.164952 4.43954 0.179545 4.45576 0.194952 4.47116C0.195077 4.47129 0.195139 4.47141 0.195264 4.47151L2.86192 7.13816C3.12226 7.39851 3.54439 7.39851 3.80473 7.13816C4.06508 6.87782 4.06508 6.45569 3.80473 6.19535L2.27614 4.66672Z" fill="#FA981C"/>
<path d="M15.8488 8.42254C15.8552 8.41479 15.8607 8.40663 15.8667 8.39866C15.8738 8.38922 15.8811 8.37997 15.8877 8.37013C15.894 8.36063 15.8995 8.35076 15.9053 8.34101C15.9107 8.3321 15.9162 8.32338 15.9212 8.31422C15.9265 8.30429 15.931 8.29404 15.9358 8.28388C15.9403 8.27432 15.9451 8.26491 15.9492 8.2551C15.9532 8.24526 15.9565 8.23519 15.9601 8.22519C15.9639 8.21466 15.9679 8.20429 15.9712 8.19354C15.9742 8.18354 15.9764 8.17335 15.9789 8.16326C15.9817 8.15229 15.9848 8.14144 15.987 8.13029C15.9893 8.11857 15.9907 8.10676 15.9924 8.09497C15.9938 8.08526 15.9957 8.07569 15.9966 8.06582C16.0009 8.02207 16.0009 7.97797 15.9966 7.93422C15.9957 7.92438 15.9938 7.91482 15.9924 7.90507C15.9907 7.89329 15.9893 7.88144 15.987 7.86976C15.9848 7.85857 15.9817 7.84776 15.9789 7.83679C15.9764 7.82666 15.9742 7.81651 15.9712 7.80651C15.9679 7.79576 15.9639 7.78535 15.9601 7.77485C15.9565 7.76485 15.9532 7.75479 15.9492 7.74494C15.9451 7.73513 15.9403 7.72572 15.9358 7.71616C15.931 7.70601 15.9265 7.69576 15.9212 7.68582C15.9162 7.67666 15.9107 7.66794 15.9053 7.65904C15.8995 7.64929 15.894 7.63941 15.8877 7.62991C15.8811 7.62007 15.8738 7.61082 15.8667 7.60138C15.8607 7.59341 15.8552 7.58526 15.8488 7.57751C15.8351 7.56079 15.8206 7.54469 15.8053 7.52938C15.8051 7.52913 15.8049 7.52888 15.8047 7.52866L13.138 4.86201C12.8777 4.60166 12.4556 4.60166 12.1952 4.86201C11.9349 5.12235 11.9349 5.54447 12.1952 5.80482L13.7238 7.33341H5.99997C5.63178 7.33341 5.33331 7.63188 5.33331 8.00007C5.33331 8.36826 5.63178 8.66672 5.99997 8.66672H13.7238L12.1952 10.1953C11.9349 10.4557 11.9349 10.8778 12.1952 11.1381C12.4556 11.3985 12.8777 11.3985 13.138 11.1381L15.8047 8.47147C15.8049 8.47122 15.8051 8.47097 15.8053 8.47076C15.8206 8.45535 15.8351 8.43926 15.8488 8.42254Z" fill="#FA981C"/>
</svg>
