<svg width="25" height="24" viewBox="0 0 25 24" fill="none" xmlns="http://www.w3.org/2000/svg">
<path d="M23.3 18V21C23.3 21.8273 22.6273 22.5 21.8 22.5H3.80005C2.9728 22.5 2.30005 21.8273 2.30005 21V18C2.30005 17.586 2.6353 17.25 3.05005 17.25C3.4648 17.25 3.80005 17.586 3.80005 18V21H21.8V18C21.8 17.586 22.1353 17.25 22.55 17.25C22.9648 17.25 23.3 17.586 23.3 18Z" fill="#DC3545"/>
<path d="M7.01974 8.03025C6.72649 7.737 6.72649 7.263 7.01974 6.96975L12.269 1.7205C12.5622 1.4265 13.0415 1.43025 13.331 1.7205L18.5802 6.96975C18.8735 7.263 18.8735 7.737 18.5802 8.03025C18.434 8.1765 18.242 8.25 18.05 8.25C17.858 8.25 17.666 8.1765 17.5197 8.03025L13.55 4.0605V17.25C13.55 17.664 13.2147 18 12.8 18C12.3852 18 12.05 17.664 12.05 17.25V4.0605L8.08024 8.03025C7.78699 8.3235 7.31299 8.3235 7.01974 8.03025Z" fill="#DC3545"/>
</svg>
