<svg width="16" height="13" viewBox="0 0 16 13" fill="none" xmlns="http://www.w3.org/2000/svg">
<path d="M15.8805 5.954C15.2952 4.674 12.9999 0.5 7.99985 0.5C2.99985 0.5 0.70452 4.674 0.119186 5.954C0.040612 6.12553 -6.10352e-05 6.31199 -6.10352e-05 6.50067C-6.10352e-05 6.68934 0.040612 6.8758 0.119186 7.04733C0.70452 8.326 2.99985 12.5 7.99985 12.5C12.9999 12.5 15.2952 8.326 15.8805 7.046C15.9589 6.87466 15.9995 6.68843 15.9995 6.5C15.9995 6.31157 15.9589 6.12534 15.8805 5.954ZM7.99985 11.1667C3.79519 11.1667 1.83319 7.58933 1.33319 6.50733C1.83319 5.41067 3.79519 1.83333 7.99985 1.83333C12.1945 1.83333 14.1572 5.39533 14.6665 6.5C14.1572 7.60467 12.1945 11.1667 7.99985 11.1667Z" fill="#FA981C"/>
<path d="M7.99984 3.16687C7.34057 3.16687 6.6961 3.36237 6.14794 3.72864C5.59977 4.09491 5.17253 4.61551 4.92024 5.22459C4.66795 5.83368 4.60194 6.5039 4.73055 7.1505C4.85917 7.79711 5.17664 8.39105 5.64282 8.85723C6.10899 9.3234 6.70293 9.64087 7.34954 9.76949C7.99614 9.89811 8.66636 9.83209 9.27545 9.5798C9.88454 9.32751 10.4051 8.90027 10.7714 8.3521C11.1377 7.80394 11.3332 7.15947 11.3332 6.5002C11.3321 5.61647 10.9806 4.76924 10.3557 4.14435C9.7308 3.51946 8.88357 3.16793 7.99984 3.16687ZM7.99984 8.5002C7.60428 8.5002 7.2176 8.38291 6.8887 8.16314C6.5598 7.94338 6.30345 7.63102 6.15208 7.26557C6.0007 6.90012 5.9611 6.49798 6.03827 6.11002C6.11544 5.72206 6.30592 5.36569 6.58562 5.08599C6.86533 4.80628 7.2217 4.6158 7.60966 4.53863C7.99762 4.46146 8.39975 4.50107 8.76521 4.65244C9.13066 4.80382 9.44302 5.06016 9.66278 5.38906C9.88254 5.71796 9.99984 6.10464 9.99984 6.5002C9.99984 7.03064 9.78913 7.53934 9.41405 7.91442C9.03898 8.28949 8.53027 8.5002 7.99984 8.5002Z" fill="#FA981C"/>
</svg>
