<svg width="17" height="17" viewBox="0 0 17 17" fill="none" xmlns="http://www.w3.org/2000/svg">
<g clip-path="url(#clip0_7738_320355)">
<path d="M16.2556 7.954C15.6702 6.674 13.3749 2.5 8.37492 2.5C3.37491 2.5 1.07958 6.674 0.494248 7.954C0.415673 8.12553 0.375 8.31199 0.375 8.50067C0.375 8.68934 0.415673 8.8758 0.494248 9.04733C1.07958 10.326 3.37491 14.5 8.37492 14.5C13.3749 14.5 15.6702 10.326 16.2556 9.046C16.334 8.87466 16.3746 8.68843 16.3746 8.5C16.3746 8.31157 16.334 8.12534 16.2556 7.954ZM8.37492 13.1667C4.17025 13.1667 2.20825 9.58933 1.70825 8.50733C2.20825 7.41067 4.17025 3.83333 8.37492 3.83333C12.5696 3.83333 14.5322 7.39533 15.0416 8.5C14.5322 9.60467 12.5696 13.1667 8.37492 13.1667Z" fill="#1BA950"/>
<path d="M8.37533 5.16687C7.71606 5.16687 7.07159 5.36237 6.52343 5.72864C5.97526 6.09491 5.54802 6.61551 5.29573 7.22459C5.04344 7.83368 4.97743 8.5039 5.10604 9.1505C5.23466 9.79711 5.55213 10.3911 6.0183 10.8572C6.48448 11.3234 7.07842 11.6409 7.72503 11.7695C8.37163 11.8981 9.04185 11.8321 9.65094 11.5798C10.26 11.3275 10.7806 10.9003 11.1469 10.3521C11.5132 9.80394 11.7087 9.15947 11.7087 8.5002C11.7076 7.61647 11.3561 6.76924 10.7312 6.14435C10.1063 5.51946 9.25906 5.16793 8.37533 5.16687ZM8.37533 10.5002C7.97976 10.5002 7.59308 10.3829 7.26419 10.1631C6.93529 9.94338 6.67894 9.63102 6.52757 9.26557C6.37619 8.90012 6.33659 8.49798 6.41376 8.11002C6.49093 7.72206 6.68141 7.36569 6.96111 7.08599C7.24082 6.80628 7.59718 6.6158 7.98515 6.53863C8.37311 6.46146 8.77524 6.50107 9.14069 6.65244C9.50615 6.80382 9.8185 7.06016 10.0383 7.38906C10.258 7.71796 10.3753 8.10464 10.3753 8.5002C10.3753 9.03064 10.1646 9.53934 9.78954 9.91442C9.41447 10.2895 8.90576 10.5002 8.37533 10.5002Z" fill="#1BA950"/>
</g>
<defs>
<clipPath id="clip0_7738_320355">
<rect width="16" height="16" fill="white" transform="translate(0.375 0.5)"/>
</clipPath>
</defs>
</svg>
