<svg width="24" height="25" viewBox="0 0 24 25" fill="none" xmlns="http://www.w3.org/2000/svg">
<g clip-path="url(#clip0_1050_7717)">
<path fill-rule="evenodd" clip-rule="evenodd" d="M11.9928 23.9393C5.61145 23.9393 0.439453 18.7667 0.439453 12.386C0.439453 6.00667 5.61212 0.833332 11.9928 0.833332C18.3728 0.833332 23.5455 6.006 23.5455 12.3867C23.5455 18.7667 18.3721 23.9393 11.9921 23.9393H11.9928Z" fill="white"/>
<path d="M6.85907 10.3093V14.3627C6.85907 15.3373 7.6484 16.1267 8.6224 16.1267H16.0017C16.9757 16.1267 17.7657 15.3373 17.7657 14.3633V10.3093C17.7657 9.33533 16.9757 8.54533 16.0017 8.54533H8.6224C7.6484 8.54533 6.8584 9.33533 6.8584 10.3093H6.85907ZM10.9804 14.5273V10.1447L14.3031 12.336L10.9804 14.5273V14.5273Z" fill="#E82C2A"/>
</g>
<rect x="0.5" y="1" width="23" height="23" rx="11.5" stroke="#E9E9E9"/>
<defs>
<clipPath id="clip0_1050_7717">
<rect y="0.5" width="24" height="24" rx="12" fill="white"/>
</clipPath>
</defs>
</svg>
