<svg width="18" height="9" viewBox="0 0 18 9" fill="none" xmlns="http://www.w3.org/2000/svg">
<path d="M8.99923 0.553337C9.43726 0.552555 9.87115 0.638115 10.2761 0.805127C10.681 0.972138 11.0491 1.21732 11.3592 1.52667L16.8059 6.97334C16.9314 7.09887 17.002 7.26914 17.002 7.44667C17.002 7.62421 16.9314 7.79447 16.8059 7.92C16.6804 8.04554 16.5101 8.11607 16.3326 8.11607C16.155 8.11607 15.9848 8.04554 15.8592 7.92L10.4126 2.47334C10.0376 2.0988 9.52923 1.88843 8.99923 1.88843C8.46922 1.88843 7.96089 2.0988 7.58589 2.47334L2.13923 7.92C2.01369 8.04554 1.84343 8.11606 1.66589 8.11606C1.48836 8.11606 1.3181 8.04554 1.19256 7.92C1.06702 7.79447 0.996498 7.6242 0.996498 7.44667C0.996498 7.26914 1.06702 7.09887 1.19256 6.97334L6.63923 1.52667C6.94935 1.21732 7.31741 0.972138 7.72236 0.805126C8.1273 0.638115 8.56119 0.552555 8.99923 0.553337Z" fill="#FA981C"/>
</svg>
