<svg width="53" height="54" viewBox="0 0 53 54" fill="none" xmlns="http://www.w3.org/2000/svg">
<path d="M23.512 32.875L19.4616 28.8248C19.08 28.4432 19.0801 27.8245 19.4616 27.4428L20.4825 26.422C20.8641 26.0404 21.4829 26.0404 21.8644 26.422L23.512 28.0695C23.8935 28.4511 24.5123 28.4511 24.8939 28.0695L31.4869 21.4764C31.8685 21.0948 32.4873 21.0947 32.8689 21.4764L33.8898 22.4972C34.2714 22.8787 34.2714 23.4975 33.8898 23.8791L24.8939 32.8749C24.5123 33.2566 23.8935 33.2566 23.512 32.875Z" stroke="#DC3545" stroke-width="1.4" stroke-miterlimit="10" stroke-linecap="round" stroke-linejoin="round"/>
<path d="M50.5785 27C50.5785 28.1317 49.1855 29.1516 49.0303 30.2406C48.8713 31.3565 49.9197 32.7258 49.6091 33.7853C49.2931 34.8632 47.6687 35.4489 47.2079 36.4562C46.7421 37.4748 47.3598 39.0857 46.7584 40.0194C46.1534 40.9589 44.43 41.063 43.7008 41.9039C42.9701 42.7464 43.1109 44.4668 42.2683 45.1975C41.4273 45.9268 39.7446 45.5441 38.8051 46.1491C37.8713 46.7505 37.5235 48.4418 36.505 48.9077C35.4976 49.3684 33.992 48.5269 32.914 48.8429C31.8546 49.1535 31.0426 50.6774 29.9266 50.8364C28.8377 50.9915 27.6317 49.7591 26.4999 49.7591C25.3682 49.7591 24.1621 50.9916 23.0732 50.8364C21.9573 50.6774 21.1453 49.1535 20.0857 48.8428C19.0078 48.5269 17.5021 49.3683 16.4948 48.9076C15.4762 48.4417 15.1285 46.7504 14.1947 46.149C13.2552 45.544 11.5724 45.9267 10.7315 45.1974C9.88895 44.4667 10.0296 42.7464 9.29905 41.9038C8.56981 41.0628 6.84643 40.9588 6.24142 40.0193C5.64008 39.0856 6.25789 37.4747 5.79192 36.4561C5.33118 35.4488 3.70673 34.8631 3.39075 33.7852C3.0802 32.7257 4.12861 31.3564 3.96951 30.2405C3.81457 29.1516 2.42151 28.1317 2.42151 27C2.42151 25.8682 3.81457 24.8483 3.9697 23.7594C4.12871 22.6435 3.0803 21.2741 3.39095 20.2147C3.70692 19.1367 5.33138 18.5511 5.79211 17.5438C6.25799 16.5252 5.64028 14.9143 6.24161 13.9805C6.84663 13.041 8.57001 12.937 9.29924 12.0961C10.0299 11.2536 9.88914 9.53313 10.7317 8.80244C11.5727 8.07321 13.2555 8.45585 14.195 7.85083C15.1288 7.2495 15.4765 5.55819 16.4951 5.09232C17.5024 4.63158 19.0081 5.47312 20.086 5.15704C21.1455 4.84649 21.9575 3.32262 23.0734 3.16361C24.1622 3.00839 25.3683 4.2408 26.5 4.2408C27.6318 4.2408 28.8378 3.00829 29.9267 3.16352C31.0427 3.32252 31.8547 4.8464 32.9142 5.15704C33.9922 5.47302 35.4978 4.63158 36.5052 5.09232C37.5237 5.55819 37.8715 7.2495 38.8053 7.85083C39.7448 8.45585 41.4275 8.07321 42.2685 8.80244C43.111 9.53313 42.9703 11.2535 43.7009 12.0961C44.4301 12.9371 46.1535 13.041 46.7585 13.9805C47.3599 14.9143 46.7421 16.5252 47.208 17.5438C47.6688 18.5511 49.2932 19.1368 49.6092 20.2147C49.9197 21.2741 48.8713 22.6435 49.0304 23.7594C49.1855 24.8483 50.5785 25.8682 50.5785 27Z" stroke="#DC3545" stroke-width="1.4" stroke-miterlimit="10" stroke-linecap="round" stroke-linejoin="round"/>
<path d="M14.3606 13.3359C17.5887 10.4658 21.8408 8.7225 26.5 8.7225C36.5944 8.7225 44.7775 16.9056 44.7775 27C44.7775 37.0944 36.5944 45.2775 26.5 45.2775C16.4056 45.2775 8.22253 37.0944 8.22253 27C8.22253 22.8237 9.62325 18.9745 11.9804 15.8967" stroke="#DC3545" stroke-width="1.4" stroke-miterlimit="10" stroke-linecap="round" stroke-linejoin="round"/>
<path d="M34.4682 38.2486C32.2184 39.8452 29.4688 40.7837 26.5 40.7837C18.8875 40.7837 12.7162 34.6125 12.7162 26.9999C12.7162 19.3873 18.8875 13.2161 26.5 13.2161C34.1126 13.2161 40.2839 19.3874 40.2839 27C40.2839 30.4216 39.0372 33.5521 36.9733 35.9617" stroke="#DC3545" stroke-width="1.4" stroke-miterlimit="10" stroke-linecap="round" stroke-linejoin="round"/>
</svg>
