<svg width="17" height="16" viewBox="0 0 17 16" fill="none" xmlns="http://www.w3.org/2000/svg">
<g id="Clip path group">
<mask id="mask0_6491_3349" style="mask-type:luminance" maskUnits="userSpaceOnUse" x="0" y="0" width="17" height="16">
<g id="clip0_11_4288">
<path id="Vector" d="M16.2612 0.429688H0.738842V15.9521H16.2612V0.429688Z" fill="white"/>
</g>
</mask>
<g mask="url(#mask0_6491_3349)">
<g id="Group">
<path id="Vector_2" d="M9.47023 14.0118C9.47023 15.0789 10.3434 15.9521 11.4105 15.9521C12.4777 15.9521 13.3508 15.0789 13.3508 14.0118C13.3508 12.9446 12.4777 12.0715 11.4105 12.0715C10.3434 12.0715 9.47023 12.9446 9.47023 14.0118ZM11.4105 6.25058C12.4777 6.25058 13.3508 7.12372 13.3508 8.19088C13.3508 9.25805 12.4777 10.1312 11.4105 10.1312C10.3434 10.1312 9.47023 9.25805 9.47023 8.19088C9.47023 7.12372 10.3434 6.25058 11.4105 6.25058ZM11.4105 0.429688C12.4777 0.429688 13.3508 1.30282 13.3508 2.36999C13.3508 3.43715 12.4777 4.31028 11.4105 4.31028C10.3434 4.31028 9.47023 3.43715 9.47023 2.36999C9.47023 1.30282 10.3434 0.429688 11.4105 0.429688ZM5.58964 4.31028C4.52247 4.31028 3.64934 3.43715 3.64934 2.36999C3.64934 1.30282 4.52247 0.429688 5.58964 0.429688C6.6568 0.429688 7.52993 1.30282 7.52993 2.36999C7.52993 3.43715 6.6568 4.31028 5.58964 4.31028ZM5.58964 6.25058C6.6568 6.25058 7.52993 7.12372 7.52993 8.19088C7.52993 9.25805 6.6568 10.1312 5.58964 10.1312C4.52247 10.1312 3.64934 9.25805 3.64934 8.19088C3.64934 7.12372 4.52247 6.25058 5.58964 6.25058ZM5.58964 12.0715C6.6568 12.0715 7.52993 12.9446 7.52993 14.0118C7.52993 15.0789 6.6568 15.9521 5.58964 15.9521C4.52247 15.9521 3.64934 15.0789 3.64934 14.0118C3.64934 12.9446 4.52247 12.0715 5.58964 12.0715Z" fill="#D9D9D9"/>
</g>
</g>
</g>
</svg>
