<svg width="16" height="14" viewBox="0 0 16 14" fill="none" xmlns="http://www.w3.org/2000/svg">
<path d="M15.5 0.5H9.50002C9.43371 0.5 9.37012 0.526339 9.32324 0.573223C9.27635 0.620107 9.25002 0.683696 9.25002 0.75V5.775C9.12432 5.79239 9.00041 5.82092 8.87977 5.86025L7.81752 6.21375L7.15002 5.54675C7.09431 5.41857 7.01636 5.30126 6.91977 5.20025C7.02708 5.23176 7.13818 5.2485 7.25002 5.25C7.53977 5.25104 7.82096 5.15174 8.04581 4.96897C8.27065 4.7862 8.4253 4.53123 8.48348 4.24737C8.54165 3.96351 8.49977 3.66827 8.36494 3.41178C8.23011 3.1553 8.01066 2.9534 7.74385 2.84038C7.47704 2.72735 7.17933 2.71018 6.9013 2.79176C6.62326 2.87335 6.38204 3.04867 6.21861 3.28794C6.05517 3.52721 5.97961 3.81568 6.00475 4.10435C6.02989 4.39302 6.15418 4.66408 6.35652 4.8715C6.33877 4.867 6.32227 4.8595 6.30402 4.856L4.62502 4.51975C4.42266 4.47925 4.21276 4.50131 4.02324 4.58298C3.83372 4.66466 3.67354 4.80209 3.56402 4.977L2.67777 6.39575C2.56173 6.58017 2.50012 6.79361 2.50002 7.0115C2.49998 7.17002 2.55096 7.32434 2.6454 7.45165C2.73985 7.57896 2.87275 7.6725 3.02447 7.71845C3.17618 7.76439 3.33865 7.7603 3.48786 7.70678C3.63707 7.65326 3.7651 7.55315 3.85302 7.42125L4.60302 6.29625L4.87077 6.3855L3.95577 7.85C3.84035 8.03636 3.77212 8.24806 3.75702 8.46675L3.12127 9.2615L1.07127 9.44775C0.840828 9.47014 0.627786 9.58016 0.47613 9.7551C0.324473 9.93004 0.245782 10.1565 0.256305 10.3878C0.266829 10.6191 0.365762 10.8375 0.532678 10.998C0.699594 11.1584 0.921747 11.2486 1.15327 11.25C1.3934 11.2499 1.63334 11.2367 1.87202 11.2102L3.77752 10.9985C3.83424 10.9924 3.88717 10.9671 3.92752 10.9268L4.94352 9.9105L6.82502 10.225L7.36477 11.4843C7.44244 11.6643 7.57981 11.812 7.75371 11.9026C7.92761 11.9932 8.12742 12.0211 8.31947 11.9815C8.51151 11.942 8.68406 11.8374 8.80802 11.6855C8.93198 11.5336 8.99979 11.3436 9.00002 11.1475C9.00041 10.8515 8.94026 10.5585 8.82327 10.2865L8.38252 9.258C8.29407 9.05186 8.15413 8.87191 7.97613 8.73541C7.79813 8.59892 7.58804 8.51045 7.36602 8.4785L6.14502 8.3035L6.74802 7.218L7.08652 7.48875C7.24739 7.6175 7.43896 7.70224 7.64244 7.73468C7.84592 7.76711 8.05434 7.74611 8.24727 7.67375L9.25002 7.2985V11.75C9.25002 11.8163 9.27635 11.8799 9.32324 11.9268C9.37012 11.9737 9.43371 12 9.50002 12H11.75V13.25C11.75 13.3163 11.7764 13.3799 11.8232 13.4268C11.8701 13.4737 11.9337 13.5 12 13.5C12.0339 13.5001 12.0674 13.4932 12.0985 13.4797L15.5985 11.9797C15.6435 11.9605 15.6818 11.9284 15.7087 11.8876C15.7357 11.8468 15.75 11.7989 15.75 11.75V0.75C15.75 0.683696 15.7237 0.620107 15.6768 0.573223C15.6299 0.526339 15.5663 0.5 15.5 0.5ZM7.25002 3.25C7.39835 3.25 7.54336 3.29399 7.66669 3.3764C7.79003 3.45881 7.88616 3.57594 7.94293 3.71299C7.99969 3.85003 8.01454 4.00083 7.98561 4.14632C7.95667 4.2918 7.88524 4.42544 7.78035 4.53033C7.67546 4.63522 7.54182 4.70665 7.39633 4.73559C7.25085 4.76453 7.10005 4.74968 6.963 4.69291C6.82596 4.63614 6.70883 4.54001 6.62641 4.41668C6.544 4.29334 6.50002 4.14834 6.50002 4C6.50002 3.80109 6.57903 3.61032 6.71969 3.46967C6.86034 3.32902 7.0511 3.25 7.25002 3.25ZM3.63527 10.5112L1.81677 10.7133C1.59644 10.7377 1.37494 10.7499 1.15327 10.75C1.04917 10.7505 0.948927 10.7107 0.873511 10.6389C0.798095 10.5671 0.753348 10.469 0.748633 10.365C0.743918 10.261 0.7796 10.1592 0.848213 10.081C0.916827 10.0027 1.01306 9.95396 1.11677 9.945L3.27252 9.75C3.30608 9.74698 3.33868 9.73721 3.36836 9.72127C3.39805 9.70533 3.42421 9.68355 3.44527 9.65725L3.87327 9.122C3.98637 9.37665 4.17587 9.58983 4.41552 9.732L3.63527 10.5112ZM5.52602 8.61125C5.54401 8.64758 5.57057 8.67899 5.60341 8.70277C5.63625 8.72655 5.67438 8.74199 5.71452 8.74775L7.29502 8.974C7.38082 8.98598 7.46408 9.0119 7.54152 9.05075C7.71236 9.13632 7.84748 9.27949 7.92302 9.455L8.36377 10.4835C8.45383 10.6933 8.50019 10.9192 8.50002 11.1475C8.4999 11.2287 8.47182 11.3073 8.42049 11.3701C8.36916 11.433 8.29773 11.4762 8.21824 11.4926C8.13875 11.5089 8.05606 11.4973 7.98411 11.4598C7.91216 11.4222 7.85535 11.361 7.82327 11.2865L7.22977 9.9015C7.21326 9.86302 7.18734 9.8293 7.15441 9.80344C7.12147 9.77758 7.08257 9.76041 7.04127 9.7535L4.96227 9.407C4.82392 9.384 4.69339 9.32721 4.58226 9.24166C4.47112 9.15612 4.38283 9.04446 4.32521 8.9166C4.26758 8.78874 4.24241 8.64863 4.25193 8.50871C4.26145 8.36879 4.30536 8.23338 4.37977 8.1145L5.46202 6.3825C5.48203 6.35043 5.4945 6.31424 5.49851 6.27665C5.50252 6.23906 5.49795 6.20106 5.48514 6.16549C5.47234 6.12992 5.45164 6.09772 5.4246 6.07131C5.39756 6.0449 5.36488 6.02496 5.32902 6.013L4.57902 5.763C4.52702 5.74565 4.47077 5.74587 4.41891 5.76362C4.36705 5.78137 4.32247 5.81568 4.29202 5.86125L3.43702 7.14375C3.40863 7.18636 3.36729 7.21871 3.3191 7.23601C3.27091 7.25331 3.21844 7.25464 3.16943 7.23981C3.12043 7.22498 3.0775 7.19478 3.04699 7.15366C3.01648 7.11254 3.00001 7.0627 3.00002 7.0115C2.99987 6.88776 3.03452 6.76648 3.10002 6.6615L3.98652 5.24275C4.04174 5.15358 4.12296 5.08347 4.21923 5.04185C4.31551 5.00024 4.42223 4.98912 4.52502 5.01L6.20552 5.34625C6.30999 5.36715 6.40806 5.4124 6.49175 5.47835C6.57544 5.54429 6.64238 5.62905 6.68713 5.72574C6.73189 5.82244 6.75318 5.92832 6.7493 6.0348C6.74541 6.14127 6.71645 6.24533 6.66477 6.3385L5.53127 8.37875C5.5115 8.41407 5.50061 8.45365 5.49952 8.4941C5.49843 8.53456 5.50718 8.57467 5.52502 8.611L5.52602 8.61125ZM8.07177 7.20625C7.96002 7.24724 7.83965 7.259 7.72209 7.2404C7.60452 7.22181 7.49366 7.17348 7.40002 7.1L6.99527 6.775L7.10302 6.58125C7.14973 6.49668 7.18584 6.40666 7.21052 6.31325L7.57402 6.67675C7.60685 6.70954 7.64817 6.73254 7.69334 6.74318C7.73851 6.75382 7.78575 6.75168 7.82977 6.737L9.03902 6.33425C9.20601 6.27841 9.38094 6.24996 9.55702 6.25C9.60287 6.24914 9.64752 6.26463 9.68299 6.2937C9.71845 6.32278 9.74241 6.36353 9.75056 6.40865C9.75871 6.45378 9.75053 6.50034 9.72748 6.53998C9.70443 6.57962 9.66802 6.60976 9.62477 6.625L8.07177 7.20625ZM11.9015 2.02025C11.8566 2.03952 11.8182 2.07156 11.7913 2.1124C11.7644 2.15324 11.75 2.20108 11.75 2.25V11.5H9.75002V7.111L9.80002 7.092C9.9363 7.0413 10.0531 6.94887 10.1338 6.82791C10.2145 6.70694 10.2549 6.56359 10.2494 6.41829C10.2439 6.27298 10.1926 6.13313 10.1029 6.01866C10.0133 5.90419 9.88976 5.82093 9.75002 5.78075V1H14.282L11.9015 2.02025ZM15.25 11.5852L12.25 12.8708V2.41475L15.25 1.12925V11.5852Z" fill="#DC3545"/>
</svg>
