<svg width="24" height="25" viewBox="0 0 24 25" fill="none" xmlns="http://www.w3.org/2000/svg">
<g clip-path="url(#clip0_1050_7704)">
<path fill-rule="evenodd" clip-rule="evenodd" d="M12 24.5C5.37231 24.5 0 19.1277 0 12.5C0 5.87231 5.37231 0.5 12 0.5C18.6277 0.5 24 5.87231 24 12.5C24 19.1277 18.6277 24.5 12 24.5Z" fill="white"/>
<path d="M14.4648 7.88646L13.1633 7.88461C11.6993 7.88461 10.754 8.85477 10.754 10.3566V11.4966H9.44326C9.33064 11.4966 9.23926 11.5889 9.23926 11.7015V13.3529C9.23926 13.4655 9.33157 13.5578 9.44418 13.5578H10.7531V17.7246C10.7531 17.8382 10.8454 17.9295 10.958 17.9295H12.6666C12.7802 17.9295 12.8716 17.8372 12.8716 17.7246V13.5578H14.4039C14.5165 13.5578 14.6079 13.4655 14.6079 13.3529V11.7006C14.6079 11.6471 14.5866 11.5954 14.5488 11.5566C14.51 11.5178 14.4583 11.4966 14.4039 11.4966H12.8716V10.5302C12.8716 10.0658 12.9823 9.83046 13.5879 9.83046H14.4648C14.5783 9.83046 14.6697 9.73815 14.6697 9.62461V8.09231C14.6697 7.97877 14.5774 7.88646 14.4648 7.88646Z" fill="#E82C2A"/>
</g>
<rect x="0.5" y="1" width="23" height="23" rx="11.5" stroke="#E9E9E9"/>
<defs>
<clipPath id="clip0_1050_7704">
<rect y="0.5" width="24" height="24" rx="12" fill="white"/>
</clipPath>
</defs>
</svg>
