<svg width="17" height="16" viewBox="0 0 17 16" fill="none" xmlns="http://www.w3.org/2000/svg">
<g clip-path="url(#clip0_4800_245797)">
<path d="M8.5 0C6.91775 0 5.37104 0.469192 4.05544 1.34824C2.73985 2.22729 1.71447 3.47672 1.10897 4.93853C0.503466 6.40034 0.34504 8.00887 0.653721 9.56072C0.962403 11.1126 1.72433 12.538 2.84315 13.6569C3.96197 14.7757 5.38743 15.5376 6.93928 15.8463C8.49113 16.155 10.0997 15.9965 11.5615 15.391C13.0233 14.7855 14.2727 13.7602 15.1518 12.4446C16.0308 11.129 16.5 9.58225 16.5 8C16.4976 5.87899 15.654 3.84554 14.1542 2.34576C12.6545 0.845979 10.621 0.0023645 8.5 0ZM8.5 14.6667C7.18146 14.6667 5.89253 14.2757 4.7962 13.5431C3.69987 12.8106 2.84539 11.7694 2.34081 10.5512C1.83622 9.33305 1.7042 7.99261 1.96144 6.6994C2.21867 5.40619 2.85361 4.21831 3.78596 3.28596C4.71831 2.35361 5.9062 1.71867 7.1994 1.46143C8.49261 1.2042 9.83305 1.33622 11.0512 1.8408C12.2694 2.34539 13.3106 3.19987 14.0431 4.2962C14.7757 5.39253 15.1667 6.68146 15.1667 8C15.1647 9.76749 14.4616 11.462 13.2118 12.7118C11.962 13.9616 10.2675 14.6647 8.5 14.6667Z" fill="#FA981C"/>
<path d="M10.9714 5.52867C10.9095 5.46674 10.836 5.41761 10.7552 5.38409C10.6743 5.35057 10.5876 5.33331 10.5001 5.33331C10.4125 5.33331 10.3258 5.35057 10.2449 5.38409C10.1641 5.41761 10.0906 5.46674 10.0287 5.52867L8.50005 7.05727L6.97139 5.52867C6.84565 5.40723 6.67725 5.34004 6.50245 5.34155C6.32766 5.34307 6.16045 5.41319 6.03684 5.53679C5.91324 5.6604 5.84312 5.8276 5.8416 6.0024C5.84009 6.1772 5.90728 6.3456 6.02872 6.47134L7.55732 8L6.02872 9.52867C5.96505 9.59017 5.91426 9.66373 5.87932 9.74507C5.84438 9.8264 5.82599 9.91388 5.82522 10.0024C5.82445 10.0909 5.84132 10.1787 5.87484 10.2606C5.90836 10.3426 5.95786 10.417 6.02046 10.4796C6.08305 10.5422 6.15749 10.5917 6.23942 10.6252C6.32135 10.6587 6.40914 10.6756 6.49765 10.6748C6.58617 10.6741 6.67365 10.6557 6.75499 10.6207C6.83633 10.5858 6.90989 10.535 6.97139 10.4713L8.50005 8.94274L10.0287 10.4713C10.1545 10.5928 10.3229 10.66 10.4977 10.6585C10.6725 10.6569 10.8397 10.5868 10.9633 10.4632C11.0869 10.3396 11.157 10.1724 11.1585 9.9976C11.16 9.82281 11.0928 9.65441 10.9714 9.52867L9.44279 8L10.9714 6.47134C11.0333 6.40946 11.0824 6.33598 11.116 6.25511C11.1495 6.17424 11.1667 6.08755 11.1667 6C11.1667 5.91246 11.1495 5.82577 11.116 5.7449C11.0824 5.66402 11.0333 5.59055 10.9714 5.52867Z" fill="#FA981C"/>
</g>
<defs>
<clipPath id="clip0_4800_245797">
<rect width="16" height="16" fill="white" transform="translate(0.5)"/>
</clipPath>
</defs>
</svg>
