<svg width="17" height="16" viewBox="0 0 17 16" fill="none" xmlns="http://www.w3.org/2000/svg">
<g clip-path="url(#clip0_2212_118574)">
<path d="M12.937 0.62016L4.80902 8.74816C4.49858 9.05692 4.25247 9.4242 4.08494 9.82872C3.91741 10.2332 3.83178 10.667 3.83302 11.1048V12.0002C3.83302 12.177 3.90326 12.3465 4.02828 12.4716C4.15331 12.5966 4.32288 12.6668 4.49969 12.6668H5.39502C5.83286 12.6681 6.2666 12.5824 6.67113 12.4149C7.07565 12.2474 7.44292 12.0013 7.75169 11.6908L15.8797 3.56283C16.2693 3.17227 16.4881 2.64314 16.4881 2.09149C16.4881 1.53984 16.2693 1.01071 15.8797 0.62016C15.4835 0.241423 14.9565 0.0300598 14.4084 0.0300598C13.8602 0.0300598 13.3332 0.241423 12.937 0.62016ZM14.937 2.62016L6.80902 10.7482C6.4331 11.1218 5.92502 11.3321 5.39502 11.3335H5.16635V11.1048C5.16774 10.5748 5.37807 10.0667 5.75169 9.69083L13.8797 1.56283C14.0221 1.4268 14.2114 1.35089 14.4084 1.35089C14.6053 1.35089 14.7946 1.4268 14.937 1.56283C15.077 1.70317 15.1556 1.89329 15.1556 2.09149C15.1556 2.2897 15.077 2.47982 14.937 2.62016Z" fill="#FA981C"/>
<path d="M15.8333 5.986C15.6565 5.986 15.487 6.05624 15.3619 6.18126C15.2369 6.30629 15.1667 6.47586 15.1667 6.65267V10H12.5C11.9696 10 11.4609 10.2107 11.0858 10.5858C10.7107 10.9609 10.5 11.4696 10.5 12V14.6667H3.83333C3.3029 14.6667 2.79419 14.456 2.41912 14.0809C2.04405 13.7058 1.83333 13.1971 1.83333 12.6667V3.33333C1.83333 2.8029 2.04405 2.29419 2.41912 1.91912C2.79419 1.54405 3.3029 1.33333 3.83333 1.33333H9.86133C10.0381 1.33333 10.2077 1.2631 10.3327 1.13807C10.4578 1.01305 10.528 0.843478 10.528 0.666667C10.528 0.489856 10.4578 0.320286 10.3327 0.195262C10.2077 0.0702379 10.0381 0 9.86133 0L3.83333 0C2.9496 0.00105857 2.10237 0.352588 1.47748 0.97748C0.852588 1.60237 0.501059 2.4496 0.5 3.33333L0.5 12.6667C0.501059 13.5504 0.852588 14.3976 1.47748 15.0225C2.10237 15.6474 2.9496 15.9989 3.83333 16H11.3953C11.8333 16.0013 12.2671 15.9156 12.6718 15.7481C13.0764 15.5806 13.4438 15.3345 13.7527 15.024L15.5233 13.252C15.8338 12.9432 16.08 12.576 16.2477 12.1715C16.4153 11.767 16.5011 11.3332 16.5 10.8953V6.65267C16.5 6.47586 16.4298 6.30629 16.3047 6.18126C16.1797 6.05624 16.0101 5.986 15.8333 5.986ZM12.81 14.0813C12.542 14.3487 12.2031 14.5337 11.8333 14.6147V12C11.8333 11.8232 11.9036 11.6536 12.0286 11.5286C12.1536 11.4036 12.3232 11.3333 12.5 11.3333H15.1167C15.0342 11.7023 14.8493 12.0406 14.5833 12.3093L12.81 14.0813Z" fill="#FA981C"/>
</g>
<defs>
<clipPath id="clip0_2212_118574">
<rect width="16" height="16" fill="white" transform="translate(0.5)"/>
</clipPath>
</defs>
</svg>
