<svg width="16" height="16" viewBox="0 0 16 16" fill="none" xmlns="http://www.w3.org/2000/svg">
<path d="M9.34912 5.375H3.03662" stroke="#FA981C" stroke-miterlimit="10" stroke-linecap="round" stroke-linejoin="round"/>
<path d="M5.11996 7.125H3.03662" stroke="#FA981C" stroke-miterlimit="10" stroke-linecap="round" stroke-linejoin="round"/>
<path d="M9.34912 7.125H7.02881" stroke="#FA981C" stroke-miterlimit="10" stroke-linecap="round" stroke-linejoin="round"/>
<path d="M9.34912 3.625H3.03662" stroke="#FA981C" stroke-miterlimit="10" stroke-linecap="round" stroke-linejoin="round"/>
<path d="M9.34912 8.875H3.03662" stroke="#FA981C" stroke-miterlimit="10" stroke-linecap="round" stroke-linejoin="round"/>
<path d="M4.646 10.625H3.03662" stroke="#FA981C" stroke-miterlimit="10" stroke-linecap="round" stroke-linejoin="round"/>
<path d="M8.00537 10.625H6.05225" stroke="#FA981C" stroke-miterlimit="10" stroke-linecap="round" stroke-linejoin="round"/>
<path d="M5.78662 12.375H3.03662" stroke="#FA981C" stroke-miterlimit="10" stroke-linecap="round" stroke-linejoin="round"/>
<path d="M12.0679 1.5625V0.3125H0.317871V15.6875H12.0679V11.25" stroke="#FA981C" stroke-miterlimit="10" stroke-linecap="round" stroke-linejoin="round"/>
<path d="M14.6333 6.70288L13.2158 5.88448L13.4901 5.40947C13.7161 5.01805 14.2166 4.88393 14.608 5.10994C14.9995 5.33592 15.1336 5.83645 14.9076 6.22787L14.6333 6.70288Z" stroke="#FA981C" stroke-miterlimit="10" stroke-linecap="round" stroke-linejoin="round"/>
<path d="M13.2158 5.88439L9.21677 12.8109L9 14.8232L10.6343 13.6293L14.6333 6.7028L13.2158 5.88439Z" stroke="#FA981C" stroke-miterlimit="10" stroke-linecap="round" stroke-linejoin="round"/>
<path d="M9.32178 12.8717L10.5289 13.5686" stroke="#FA981C" stroke-miterlimit="10" stroke-linecap="round" stroke-linejoin="round"/>
<path d="M12.0679 7.125V4.375" stroke="#FA981C" stroke-miterlimit="10" stroke-linecap="round" stroke-linejoin="round"/>
</svg>
