<svg width="17" height="16" viewBox="0 0 17 16" fill="none" xmlns="http://www.w3.org/2000/svg">
<g clip-path="url(#clip0_4800_245790)">
<path d="M8.50004 0.000218391C4.08868 0.000218391 0.5 3.58913 0.5 8.00048C0.500371 12.4114 4.0892 16.0001 8.50004 16.0001C12.9112 16.0001 16.5001 12.4115 16.5001 8.0004C16.5 3.58913 12.9112 0.000218391 8.50004 0.000218391ZM8.50004 1.11414C10.1353 1.11414 11.639 1.68751 12.8215 2.64333L3.14319 12.3215C2.18752 11.1391 1.61407 9.63557 1.61392 8.0004C1.61392 4.20334 4.70305 1.11414 8.50004 1.11414ZM8.50004 14.8861C6.7387 14.8861 5.12998 14.2211 3.9109 13.1293L13.6291 3.41105C14.721 4.63012 15.3861 6.239 15.3861 8.00048C15.3861 11.7972 12.297 14.8861 8.50004 14.8861Z" fill="#FA981C"/>
</g>
<defs>
<clipPath id="clip0_4800_245790">
<rect width="16" height="16" fill="white" transform="translate(0.5)"/>
</clipPath>
</defs>
</svg>
