<svg width="17" height="16" viewBox="0 0 17 16" fill="none" xmlns="http://www.w3.org/2000/svg">
<g clip-path="url(#clip0_7804_81695)">
<path d="M14.9288 13.75C14.7508 13.7509 14.5764 13.7998 14.424 13.8917L12.8558 12.3235L8.75203 8.21974C8.68258 8.14985 8.59995 8.09443 8.50893 8.05671C8.41791 8.01899 8.3203 7.99971 8.22178 7.99999H8.14353C8.11111 7.86973 8.03978 7.75244 7.93903 7.66374C7.69403 7.45399 7.28177 7.40299 6.64602 7.50224C6.20961 7.4031 5.78535 7.25656 5.38078 7.06524L4.91578 5.67099C4.89482 5.608 4.84971 5.55591 4.79035 5.52619C4.731 5.49647 4.66226 5.49154 4.59927 5.51249C4.53629 5.53344 4.4842 5.57856 4.45448 5.63791C4.42475 5.69727 4.41982 5.766 4.44078 5.82899L4.94078 7.32899C4.95176 7.36212 4.96955 7.39258 4.99302 7.41841C5.01649 7.44425 5.0451 7.46488 5.07703 7.47899C5.56128 7.69249 6.41727 8.04549 6.71627 7.99724C7.33477 7.90049 7.54378 7.98474 7.61278 8.04374C7.64303 8.06874 7.67778 8.11649 7.67778 8.25024C7.67778 8.33774 7.67778 8.50024 7.05278 8.50024C6.34536 8.44915 5.6449 8.32686 4.96202 8.13524C4.85238 8.10672 4.75053 8.05395 4.664 7.98083C4.57746 7.90771 4.50844 7.81609 4.46202 7.71274L3.65578 5.89874C3.62886 5.83814 3.57896 5.79071 3.51708 5.76689C3.45519 5.74308 3.38638 5.74482 3.32578 5.77174C3.26517 5.79866 3.21775 5.84855 3.19393 5.91044C3.17011 5.97232 3.17186 6.04114 3.19878 6.10174L4.00503 7.91599C4.08138 8.08867 4.19596 8.24175 4.34014 8.36367C4.48431 8.48558 4.6543 8.57314 4.83728 8.61974C5.5606 8.82444 6.30358 8.9519 7.05378 8.99999C7.29677 8.99999 7.97353 8.99999 8.14078 8.49999H8.22178C8.28803 8.50025 8.35151 8.52656 8.39853 8.57324L12.0753 12.25H10.4288C10.0974 12.2496 9.77966 12.1178 9.54533 11.8834C9.311 11.6491 9.17917 11.3314 9.17878 11V10.25C9.24508 10.25 9.30867 10.2237 9.35555 10.1768C9.40244 10.1299 9.42878 10.0663 9.42878 9.99999C9.42878 9.93369 9.40244 9.8701 9.35555 9.82321C9.30867 9.77633 9.24508 9.74999 9.17878 9.74999H8.92878C8.86247 9.74999 8.79888 9.77633 8.752 9.82321C8.70511 9.8701 8.67878 9.93369 8.67878 9.99999V11C8.6793 11.464 8.86385 11.9088 9.19192 12.2368C9.52 12.5649 9.96481 12.7495 10.4288 12.75H11.3253L10.1835 13.8917C10.0311 13.7998 9.85673 13.7509 9.67878 13.75C9.49158 13.7493 9.30795 13.8011 9.14878 13.8997C8.9896 13.9982 8.86128 14.1394 8.77839 14.3072C8.69551 14.4751 8.6614 14.6628 8.67995 14.8491C8.6985 15.0353 8.76896 15.2127 8.88331 15.3609C8.99767 15.5091 9.15133 15.6222 9.3268 15.6874C9.50228 15.7526 9.69253 15.7672 9.8759 15.7296C10.0593 15.692 10.2284 15.6037 10.3641 15.4747C10.4997 15.3457 10.5965 15.1812 10.6433 15H13.9643C14.0114 15.1806 14.1081 15.3444 14.2436 15.4728C14.3791 15.6012 14.5479 15.6891 14.7308 15.7264C14.9138 15.7637 15.1035 15.7489 15.2784 15.6838C15.4534 15.6187 15.6066 15.5059 15.7206 15.3581C15.8346 15.2103 15.9049 15.0335 15.9235 14.8477C15.9421 14.662 15.9083 14.4747 15.8258 14.3073C15.7434 14.1398 15.6156 13.9988 15.457 13.9003C15.2985 13.8018 15.1154 13.7497 14.9288 13.75ZM12.5753 12.75L14.0705 14.2452C14.0233 14.3247 13.9875 14.4105 13.9643 14.5H10.6433C10.6201 14.4105 10.5843 14.3247 10.537 14.2452L12.0323 12.75H12.5753ZM9.67878 15.25C9.57988 15.25 9.48321 15.2207 9.40099 15.1657C9.31877 15.1108 9.25468 15.0327 9.21684 14.9413C9.17899 14.85 9.16909 14.7494 9.18838 14.6524C9.20768 14.5555 9.2553 14.4664 9.32522 14.3964C9.39515 14.3265 9.48424 14.2789 9.58123 14.2596C9.67822 14.2403 9.77875 14.2502 9.87012 14.288C9.96148 14.3259 10.0396 14.39 10.0945 14.4722C10.1495 14.5544 10.1788 14.6511 10.1788 14.75C10.1788 14.8826 10.1261 15.0098 10.0323 15.1035C9.93856 15.1973 9.81138 15.25 9.67878 15.25ZM14.9288 15.25C14.8299 15.25 14.7332 15.2207 14.651 15.1657C14.5688 15.1108 14.5047 15.0327 14.4668 14.9413C14.429 14.85 14.4191 14.7494 14.4384 14.6524C14.4577 14.5555 14.5053 14.4664 14.5752 14.3964C14.6451 14.3265 14.7342 14.2789 14.8312 14.2596C14.9282 14.2403 15.0288 14.2502 15.1201 14.288C15.2115 14.3259 15.2896 14.39 15.3445 14.4722C15.3995 14.5544 15.4288 14.6511 15.4288 14.75C15.4288 14.8826 15.3761 15.0098 15.2823 15.1035C15.1886 15.1973 15.0614 15.25 14.9288 15.25Z" fill="#DC3545"/>
<path d="M16.1787 10C16.1729 9.00722 15.776 8.05674 15.074 7.35473C14.372 6.65272 13.4215 6.25577 12.4287 6.25C12.363 6.25183 12.3005 6.27875 12.254 6.32525C12.2075 6.37174 12.1805 6.43427 12.1787 6.5V9.75H11.4287C11.3624 9.75 11.2988 9.77634 11.2519 9.82322C11.205 9.87011 11.1787 9.9337 11.1787 10C11.1787 10.0663 11.205 10.1299 11.2519 10.1768C11.2988 10.2237 11.3624 10.25 11.4287 10.25H15.6787V11C15.6783 11.3314 15.5465 11.6491 15.3122 11.8834C15.0778 12.1178 14.7601 12.2496 14.4287 12.25H13.9287C13.8624 12.25 13.7988 12.2763 13.7519 12.3232C13.705 12.3701 13.6787 12.4337 13.6787 12.5C13.6787 12.5663 13.705 12.6299 13.7519 12.6768C13.7988 12.7237 13.8624 12.75 13.9287 12.75H14.4287C14.8927 12.7495 15.3375 12.5649 15.6656 12.2369C15.9936 11.9088 16.1782 11.464 16.1787 11V10ZM12.6787 6.76325C13.3646 6.81803 14.0154 7.08943 14.537 7.53825L13.252 8.82325C13.2064 8.8704 13.1812 8.93355 13.1818 8.9991C13.1824 9.06465 13.2087 9.12735 13.255 9.17371C13.3014 9.22006 13.3641 9.24635 13.4296 9.24692C13.4952 9.24749 13.5583 9.22229 13.6055 9.17675L14.8905 7.89175C15.3394 8.41327 15.6108 9.06405 15.6655 9.75H12.6787V6.76325Z" fill="#DC3545"/>
<path d="M1.36791 3.74249C2.74541 4.08699 3.22366 3.55324 3.46791 2.45949C3.54941 2.09474 3.60166 1.94574 3.68591 1.89749C3.75066 2.94149 4.44216 3.49999 5.17866 3.49999C5.58666 3.49999 6.42866 3.13324 6.42866 1.99999C6.42866 0.477238 5.52316 0.249988 4.98341 0.249988C4.68176 0.237996 4.38487 0.328005 4.14066 0.505488C3.93094 0.328807 3.66236 0.237586 3.38841 0.249988C3.00241 0.274475 2.63927 0.441532 2.36952 0.718723C2.09977 0.995914 1.94264 1.36346 1.92866 1.74999C1.92866 2.40424 1.94766 2.62724 1.25191 3.32324C1.22065 3.35451 1.19823 3.39352 1.18696 3.43629C1.17569 3.47905 1.17597 3.52404 1.18776 3.56666C1.19956 3.60928 1.22244 3.64801 1.25409 3.6789C1.28574 3.70979 1.32502 3.73173 1.36791 3.74249ZM5.17866 2.99999C4.99003 2.99224 4.80749 2.93105 4.65231 2.82354C4.49712 2.71602 4.37569 2.56662 4.30216 2.39274C4.71076 2.20729 5.05875 1.91033 5.30616 1.53599C5.50061 1.55883 5.6966 1.5656 5.89216 1.55624C5.91742 1.70278 5.92964 1.85128 5.92866 1.99999C5.92866 2.83024 5.33716 2.99999 5.17866 2.99999ZM4.98341 0.749988C5.11892 0.738867 5.25508 0.761286 5.37987 0.815264C5.50465 0.869243 5.61423 0.95312 5.69891 1.05949C5.55603 1.06616 5.41292 1.05244 5.27391 1.01874C5.21292 0.994415 5.14485 0.994832 5.08417 1.0199C5.02348 1.04497 4.97496 1.09271 4.94891 1.15299C4.78018 1.47407 4.51341 1.73295 4.18741 1.89199C4.11791 0.969988 4.47591 0.749988 4.98341 0.749988ZM2.42866 1.74999C2.4393 1.49498 2.54271 1.25264 2.71944 1.0685C2.89617 0.884355 3.13406 0.771091 3.38841 0.749988C3.46917 0.743191 3.55047 0.752992 3.6273 0.778788C3.70413 0.804585 3.77487 0.845831 3.83516 0.899988C3.76655 1.05296 3.72162 1.21549 3.70191 1.38199C3.18991 1.42274 3.06516 1.96924 2.98016 2.34999C2.82541 3.04274 2.68016 3.40424 1.92291 3.33424C2.43141 2.73349 2.41341 2.42199 2.42866 1.74999Z" fill="#DC3545"/>
<path d="M5.77075 9.59C5.71054 9.48681 5.67879 9.36948 5.67875 9.25C5.67875 9.1837 5.65241 9.12011 5.60553 9.07322C5.55865 9.02634 5.49506 9 5.42875 9C5.36245 9 5.29886 9.02634 5.25198 9.07322C5.20509 9.12011 5.17875 9.1837 5.17875 9.25C5.17893 9.45799 5.23413 9.66223 5.33875 9.842L6.8455 12.425C6.00984 12.9678 5.03407 13.2552 4.03761 13.2521C3.04114 13.2489 2.06721 12.9553 1.235 12.4073C1.92475 10.672 2.92875 8.2825 2.92875 7.5V5.75C2.92875 4.64275 3.602 4.25 4.17875 4.25C4.59725 4.25 5.92875 5.4405 5.92875 6.27025C5.92362 6.32788 5.9062 6.38375 5.87765 6.43408C5.8491 6.4844 5.81009 6.52803 5.76325 6.562C5.71853 6.60692 5.69253 6.66715 5.69053 6.73051C5.68853 6.79387 5.71068 6.85562 5.75248 6.90327C5.79429 6.95092 5.85263 6.98091 5.91571 6.98717C5.97879 6.99344 6.04189 6.9755 6.09225 6.937C6.19775 6.85432 6.28293 6.74859 6.34126 6.6279C6.39958 6.50722 6.42951 6.37479 6.42875 6.24075C6.42025 5.1685 4.88275 3.75 4.17875 3.75C3.336 3.75 2.42875 4.375 2.42875 5.75V7.5C2.42875 8.2045 1.28425 10.925 0.696252 12.4078C0.675704 12.4597 0.673131 12.517 0.688944 12.5705C0.704757 12.6241 0.738046 12.6708 0.783502 12.7032C1.15961 12.9717 1.56745 13.1928 1.99775 13.3612L1.70375 14.6342C1.67266 14.7676 1.67208 14.9062 1.70205 15.0398C1.73203 15.1734 1.79179 15.2985 1.87688 15.4058C1.96196 15.5131 2.07017 15.5997 2.19344 15.6593C2.3167 15.7189 2.45184 15.7499 2.58875 15.75C2.76361 15.7506 2.93397 15.6946 3.07442 15.5905C3.21486 15.4863 3.31784 15.3395 3.368 15.172L3.799 13.7423C4.15815 13.7631 4.5185 13.7459 4.874 13.6908L5.259 14.9698C5.32602 15.1957 5.46446 15.3939 5.65358 15.5346C5.8427 15.6752 6.07231 15.7508 6.308 15.75C6.41988 15.75 6.53032 15.7247 6.63107 15.6761C6.73182 15.6275 6.82029 15.5567 6.88987 15.4691C6.95945 15.3815 7.00835 15.2793 7.03292 15.1702C7.05749 15.061 7.05709 14.9477 7.03175 14.8387L6.63325 13.1228C6.8733 12.9997 7.10415 12.8595 7.324 12.7032C7.37469 12.667 7.41005 12.6132 7.42313 12.5523C7.43622 12.4914 7.4261 12.4278 7.39475 12.374L5.77075 9.59ZM2.88975 15.027C2.87031 15.0916 2.8305 15.1483 2.77626 15.1885C2.72202 15.2286 2.65625 15.2502 2.58875 15.25C2.52685 15.2503 2.46569 15.2365 2.40988 15.2097C2.35407 15.1829 2.30507 15.1438 2.26656 15.0953C2.22806 15.0469 2.20105 14.9903 2.18757 14.9299C2.17409 14.8694 2.17449 14.8067 2.18875 14.7465L2.4725 13.5215C2.74006 13.5999 3.01306 13.6584 3.28925 13.6965L2.88975 15.027ZM6.54475 14.952C6.55303 14.9876 6.55316 15.0247 6.54512 15.0604C6.53708 15.0961 6.52108 15.1295 6.49832 15.1582C6.47556 15.1868 6.44662 15.2099 6.41367 15.2259C6.38071 15.2418 6.34459 15.25 6.308 15.25C6.17959 15.2505 6.05446 15.2094 5.95142 15.1328C5.84837 15.0561 5.77296 14.9481 5.7365 14.825L5.36625 13.5957C5.64029 13.5302 5.90904 13.4442 6.17025 13.3385L6.54475 14.952Z" fill="#DC3545"/>
</g>
<defs>
<clipPath id="clip0_7804_81695">
<rect width="16" height="16" fill="white" transform="translate(0.428711)"/>
</clipPath>
</defs>
</svg>
