<svg width="22" height="22" viewBox="0 0 22 22" fill="none" xmlns="http://www.w3.org/2000/svg">
<path d="M11.0007 10.9667C9.53399 10.9667 8.33398 10.5 7.40065 9.56667C6.46732 8.63333 6.00065 7.43333 6.00065 5.96667C6.00065 4.5 6.46732 3.3 7.40065 2.36667C8.33398 1.43333 9.53399 0.966667 11.0007 0.966667C12.4673 0.966667 13.6673 1.43333 14.6007 2.36667C15.534 3.3 16.0007 4.5 16.0007 5.96667C16.0007 7.43333 15.534 8.63333 14.6007 9.56667C13.6673 10.5 12.4673 10.9667 11.0007 10.9667ZM0.333984 21.6667V18.5333C0.333984 17.6889 0.545095 16.9667 0.967318 16.3667C1.38954 15.7667 1.93398 15.3111 2.60065 15C4.08954 14.3333 5.51732 13.8333 6.88398 13.5C8.25065 13.1667 9.62287 13 11.0007 13C12.3784 13 13.7451 13.1722 15.1007 13.5167C16.4562 13.8611 17.8776 14.3577 19.3647 15.0065C20.0603 15.3204 20.6179 15.7756 21.0377 16.372C21.4574 16.9684 21.6673 17.6889 21.6673 18.5333V21.6667H0.333984ZM2.33398 19.6667H19.6673V18.5333C19.6673 18.1778 19.5618 17.8389 19.3507 17.5167C19.1395 17.1944 18.8784 16.9556 18.5673 16.8C17.1451 16.1111 15.8451 15.6389 14.6673 15.3833C13.4895 15.1278 12.2673 15 11.0007 15C9.73398 15 8.50065 15.1278 7.30065 15.3833C6.10065 15.6389 4.80065 16.1111 3.40065 16.8C3.08954 16.9556 2.83398 17.1944 2.63398 17.5167C2.43398 17.8389 2.33398 18.1778 2.33398 18.5333V19.6667ZM11.0007 8.96667C11.8673 8.96667 12.584 8.68333 13.1507 8.11667C13.7173 7.55 14.0007 6.83333 14.0007 5.96667C14.0007 5.1 13.7173 4.38333 13.1507 3.81667C12.584 3.25 11.8673 2.96667 11.0007 2.96667C10.134 2.96667 9.41732 3.25 8.85065 3.81667C8.28398 4.38333 8.00065 5.1 8.00065 5.96667C8.00065 6.83333 8.28398 7.55 8.85065 8.11667C9.41732 8.68333 10.134 8.96667 11.0007 8.96667Z" fill="black"/>
</svg>
