<svg width="32" height="33" viewBox="0 0 32 33" fill="none" xmlns="http://www.w3.org/2000/svg">
<rect y="0.5" width="32" height="32" rx="16" fill="white"/>
<path d="M16.0002 10.1C14.7272 10.1 13.5063 10.6057 12.6061 11.5059C11.7059 12.4061 11.2002 13.627 11.2002 14.9V17.7688L10.6346 18.3344C10.5228 18.4463 10.4466 18.5888 10.4158 18.744C10.3849 18.8991 10.4007 19.06 10.4613 19.2061C10.5218 19.3523 10.6243 19.4772 10.7559 19.5651C10.8874 19.653 11.042 19.7 11.2002 19.7H20.8002C20.9584 19.7 21.1131 19.653 21.2446 19.5651C21.3761 19.4772 21.4786 19.3523 21.5392 19.2061C21.5997 19.06 21.6155 18.8991 21.5847 18.744C21.5538 18.5888 21.4777 18.4463 21.3658 18.3344L20.8002 17.7688V14.9C20.8002 13.627 20.2945 12.4061 19.3943 11.5059C18.4942 10.6057 17.2733 10.1 16.0002 10.1ZM16.0002 22.9C15.3637 22.9 14.7533 22.6471 14.3032 22.1971C13.8531 21.747 13.6002 21.1365 13.6002 20.5H18.4002C18.4002 21.1365 18.1474 21.747 17.6973 22.1971C17.2472 22.6471 16.6367 22.9 16.0002 22.9Z" fill="#FA981C"/>
</svg>
