<svg width="12" height="14" viewBox="0 0 12 14" fill="none" xmlns="http://www.w3.org/2000/svg">
<path d="M6.00022 0.600006C4.72718 0.600006 3.50628 1.10572 2.60611 2.00589C1.70593 2.90607 1.20022 4.12697 1.20022 5.40001V8.26881L0.63462 8.83441C0.522773 8.94629 0.446607 9.08882 0.415753 9.24398C0.384899 9.39914 0.400742 9.55997 0.461278 9.70613C0.521814 9.85229 0.624325 9.97722 0.755853 10.0651C0.887381 10.153 1.04202 10.2 1.20022 10.2H10.8002C10.9584 10.2 11.1131 10.153 11.2446 10.0651C11.3761 9.97722 11.4786 9.85229 11.5392 9.70613C11.5997 9.55997 11.6155 9.39914 11.5847 9.24398C11.5538 9.08882 11.4777 8.94629 11.3658 8.83441L10.8002 8.26881V5.40001C10.8002 4.12697 10.2945 2.90607 9.39433 2.00589C8.49416 1.10572 7.27326 0.600006 6.00022 0.600006ZM6.00022 13.4C5.3637 13.4 4.75325 13.1471 4.30316 12.6971C3.85308 12.247 3.60022 11.6365 3.60022 11H8.40022C8.40022 11.6365 8.14736 12.247 7.69728 12.6971C7.24719 13.1471 6.63674 13.4 6.00022 13.4Z" fill="#FA981C"/>
</svg>
