<svg width="17" height="16" viewBox="0 0 17 16" fill="none" xmlns="http://www.w3.org/2000/svg">
<path d="M4.93044 15.375H2.375C1.68466 15.375 1.125 14.8153 1.125 14.125V1.875C1.125 1.18466 1.68466 0.625 2.375 0.625H8.375C8.72016 0.625 9.03266 0.764906 9.25887 0.991125L10.5089 2.24113C10.7351 2.46731 10.875 2.77981 10.875 3.125V6.56809" stroke="#FA981C" stroke-width="1.2" stroke-miterlimit="10" stroke-linecap="round" stroke-linejoin="round"/>
<path d="M13.7414 7.23721C14.2295 6.74905 15.021 6.74905 15.5091 7.23721C15.9973 7.72537 15.9973 8.51684 15.5091 9.00499L10.3425 14.1716C10.2519 14.2622 10.148 14.3383 10.0342 14.3973L8.28384 15.3053C8.04847 15.4274 7.75169 15.3897 7.55416 15.1922C7.35666 14.9947 7.31897 14.6979 7.44106 14.4625L8.34903 12.7121C8.40803 12.5984 8.48416 12.4944 8.57475 12.4038L13.7414 7.23721Z" stroke="#FA981C" stroke-width="1.2" stroke-miterlimit="10" stroke-linecap="round" stroke-linejoin="round"/>
<path d="M3.625 5.375H8.375" stroke="#FA981C" stroke-width="1.2" stroke-miterlimit="10" stroke-linecap="round" stroke-linejoin="round"/>
<path d="M3.625 7.875H8.375" stroke="#FA981C" stroke-width="1.2" stroke-miterlimit="10" stroke-linecap="round" stroke-linejoin="round"/>
<path d="M3.625 10.375H5.875" stroke="#FA981C" stroke-width="1.2" stroke-miterlimit="10" stroke-linecap="round" stroke-linejoin="round"/>
</svg>
