<svg width="17" height="16" viewBox="0 0 17 16" fill="none" xmlns="http://www.w3.org/2000/svg">
<g clip-path="url(#clip0_3829_2390)">
<path d="M12.6875 0.620374L4.55951 8.74837C4.24907 9.05714 4.00296 9.42441 3.83543 9.82894C3.6679 10.2335 3.58227 10.6672 3.58351 11.105V12.0004C3.58351 12.1772 3.65375 12.3468 3.77877 12.4718C3.9038 12.5968 4.07336 12.667 4.25018 12.667H5.14551C5.58335 12.6683 6.01709 12.5827 6.42161 12.4151C6.82614 12.2476 7.19341 12.0015 7.50218 11.691L15.6302 3.56304C16.0198 3.17249 16.2386 2.64336 16.2386 2.09171C16.2386 1.54006 16.0198 1.01093 15.6302 0.620374C15.234 0.241636 14.707 0.0302734 14.1588 0.0302734C13.6107 0.0302734 13.0837 0.241636 12.6875 0.620374ZM14.6875 2.62037L6.55951 10.7484C6.18359 11.122 5.67551 11.3323 5.14551 11.3337H4.91684V11.105C4.91823 10.575 5.12855 10.067 5.50218 9.69104L13.6302 1.56304C13.7726 1.42701 13.9619 1.3511 14.1588 1.3511C14.3558 1.3511 14.5451 1.42701 14.6875 1.56304C14.8275 1.70338 14.9061 1.8935 14.9061 2.09171C14.9061 2.28991 14.8275 2.48003 14.6875 2.62037Z" fill="#DC3545"/>
<path d="M15.5833 5.986C15.4065 5.986 15.237 6.05624 15.1119 6.18126C14.9869 6.30629 14.9167 6.47586 14.9167 6.65267V10H12.25C11.7196 10 11.2109 10.2107 10.8358 10.5858C10.4607 10.9609 10.25 11.4696 10.25 12V14.6667H3.58333C3.0529 14.6667 2.54419 14.456 2.16912 14.0809C1.79405 13.7058 1.58333 13.1971 1.58333 12.6667V3.33333C1.58333 2.8029 1.79405 2.29419 2.16912 1.91912C2.54419 1.54405 3.0529 1.33333 3.58333 1.33333H9.61133C9.78815 1.33333 9.95771 1.2631 10.0827 1.13807C10.2078 1.01305 10.278 0.843478 10.278 0.666667C10.278 0.489856 10.2078 0.320286 10.0827 0.195262C9.95771 0.0702379 9.78815 0 9.61133 0L3.58333 0C2.6996 0.00105857 1.85237 0.352588 1.22748 0.97748C0.602588 1.60237 0.251059 2.4496 0.25 3.33333L0.25 12.6667C0.251059 13.5504 0.602588 14.3976 1.22748 15.0225C1.85237 15.6474 2.6996 15.9989 3.58333 16H11.1453C11.5833 16.0013 12.0171 15.9156 12.4218 15.7481C12.8264 15.5806 13.1938 15.3345 13.5027 15.024L15.2733 13.252C15.5838 12.9432 15.83 12.576 15.9977 12.1715C16.1653 11.767 16.2511 11.3332 16.25 10.8953V6.65267C16.25 6.47586 16.1798 6.30629 16.0547 6.18126C15.9297 6.05624 15.7601 5.986 15.5833 5.986ZM12.56 14.0813C12.292 14.3487 11.9531 14.5337 11.5833 14.6147V12C11.5833 11.8232 11.6536 11.6536 11.7786 11.5286C11.9036 11.4036 12.0732 11.3333 12.25 11.3333H14.8667C14.7842 11.7023 14.5993 12.0406 14.3333 12.3093L12.56 14.0813Z" fill="#DC3545"/>
</g>
<defs>
<clipPath id="clip0_3829_2390">
<rect width="16" height="16" fill="white" transform="translate(0.25)"/>
</clipPath>
</defs>
</svg>
