<svg width="16" height="17" viewBox="0 0 16 17" fill="none" xmlns="http://www.w3.org/2000/svg">
<g id="Reject" clip-path="url(#clip0_5938_195069)">
<path id="Vector" d="M8 0.5C6.41775 0.5 4.87104 0.969192 3.55544 1.84824C2.23985 2.72729 1.21447 3.97672 0.608967 5.43853C0.00346629 6.90034 -0.15496 8.50887 0.153721 10.0607C0.462403 11.6126 1.22433 13.038 2.34315 14.1569C3.46197 15.2757 4.88743 16.0376 6.43928 16.3463C7.99113 16.655 9.59966 16.4965 11.0615 15.891C12.5233 15.2855 13.7727 14.2602 14.6518 12.9446C15.5308 11.629 16 10.0823 16 8.5C15.9976 6.37899 15.154 4.34554 13.6542 2.84576C12.1545 1.34598 10.121 0.502364 8 0.5ZM8 15.1667C6.68146 15.1667 5.39253 14.7757 4.2962 14.0431C3.19987 13.3106 2.34539 12.2694 1.84081 11.0512C1.33622 9.83305 1.2042 8.49261 1.46144 7.1994C1.71867 5.90619 2.35361 4.71831 3.28596 3.78596C4.21831 2.85361 5.4062 2.21867 6.6994 1.96143C7.99261 1.7042 9.33305 1.83622 10.5512 2.3408C11.7694 2.84539 12.8106 3.69987 13.5431 4.7962C14.2757 5.89253 14.6667 7.18146 14.6667 8.5C14.6647 10.2675 13.9616 11.962 12.7118 13.2118C11.462 14.4616 9.7675 15.1647 8 15.1667Z" fill="#DC3545"/>
<path id="Vector_2" d="M10.4714 6.02867C10.4095 5.96674 10.336 5.91761 10.2552 5.88409C10.1743 5.85057 10.0876 5.83331 10.0001 5.83331C9.91251 5.83331 9.82582 5.85057 9.74495 5.88409C9.66407 5.91761 9.5906 5.96674 9.52872 6.02867L8.00005 7.55727L6.47139 6.02867C6.34565 5.90723 6.17725 5.84004 6.00245 5.84155C5.82766 5.84307 5.66045 5.91319 5.53684 6.03679C5.41324 6.1604 5.34312 6.3276 5.3416 6.5024C5.34009 6.6772 5.40728 6.8456 5.52872 6.97134L7.05732 8.5L5.52872 10.0287C5.46505 10.0902 5.41426 10.1637 5.37932 10.2451C5.34438 10.3264 5.32599 10.4139 5.32522 10.5024C5.32445 10.5909 5.34132 10.6787 5.37484 10.7606C5.40836 10.8426 5.45786 10.917 5.52046 10.9796C5.58305 11.0422 5.65749 11.0917 5.73942 11.1252C5.82135 11.1587 5.90914 11.1756 5.99765 11.1748C6.08617 11.1741 6.17365 11.1557 6.25499 11.1207C6.33633 11.0858 6.40989 11.035 6.47139 10.9713L8.00005 9.44274L9.52872 10.9713C9.65446 11.0928 9.82286 11.16 9.99765 11.1585C10.1725 11.1569 10.3397 11.0868 10.4633 10.9632C10.5869 10.8396 10.657 10.6724 10.6585 10.4976C10.66 10.3228 10.5928 10.1544 10.4714 10.0287L8.94279 8.5L10.4714 6.97134C10.5333 6.90946 10.5824 6.83598 10.616 6.75511C10.6495 6.67424 10.6667 6.58755 10.6667 6.5C10.6667 6.41246 10.6495 6.32577 10.616 6.2449C10.5824 6.16402 10.5333 6.09055 10.4714 6.02867Z" fill="#DC3545"/>
</g>
<defs>
<clipPath id="clip0_5938_195069">
<rect width="16" height="16" fill="white" transform="translate(0 0.5)"/>
</clipPath>
</defs>
</svg>
