<svg width="53" height="54" viewBox="0 0 53 54" fill="none" xmlns="http://www.w3.org/2000/svg">
<path d="M51.8946 21.7233C51.9189 21.6246 51.9266 21.5211 51.9124 21.4168C51.783 20.4754 51.595 19.5349 51.354 18.6206C51.352 18.6109 51.3496 18.6012 51.3471 18.5915C51.3467 18.5895 51.3459 18.5874 51.3455 18.5854C51.3451 18.5838 51.3447 18.5822 51.3443 18.5806C51.3439 18.579 51.3435 18.5777 51.3431 18.5761C51.3431 18.5757 51.3431 18.5753 51.3431 18.5753C50.092 13.5054 47.1385 8.91555 43.0262 5.64993C38.7828 2.2808 33.6701 0.5 28.2408 0.5C21.8858 0.5 15.911 2.97469 11.4174 7.46834C6.96656 11.9191 4.49754 17.8236 4.45104 24.1118L2.04873 25.7026C0.984455 26.407 0.349609 27.5901 0.349609 28.8675C0.349609 29.6127 0.56756 30.3365 0.980411 30.9609C1.54288 31.8096 2.39042 32.3571 3.31357 32.5638C3.03133 33.1003 2.87727 33.7049 2.87727 34.3324C2.87727 35.0781 3.09562 35.8019 3.50847 36.4242C4.06972 37.2721 4.91807 37.82 5.84204 38.0271C5.55939 38.5641 5.40533 39.169 5.40533 39.797C5.40533 40.5418 5.62328 41.2652 6.03613 41.8891C6.59778 42.7366 7.44613 43.2842 8.36969 43.4908C8.08745 44.0274 7.93298 44.6323 7.93298 45.2599C7.93298 46.0059 8.15215 46.7297 8.5654 47.3528C9.12504 48.1975 9.97985 48.7738 10.973 48.9755C11.2269 49.0269 11.4825 49.0524 11.736 49.0524C12.4727 49.0524 13.1941 48.8368 13.8225 48.4207L17.896 45.7233C18.3056 45.9218 18.7233 46.1094 19.1418 46.2825C20.6089 46.8906 22.141 47.3484 23.701 47.6496C24.4604 48.8793 25.3686 50.0135 26.4086 51.0216L27.9707 52.5359C28.6136 53.1578 29.4587 53.4999 30.3511 53.4999C31.0228 53.4999 31.675 53.3034 32.2379 52.931C33.1962 52.2961 33.7688 51.2302 33.7688 50.0798C33.7688 49.4066 33.5718 48.7543 33.2002 48.1951C33.0797 48.0123 32.9665 47.8243 32.8582 47.6343C40.2317 46.1867 46.4916 41.3388 49.7455 34.4873C49.9391 34.0793 49.7657 33.5912 49.3577 33.3975C48.9497 33.2039 48.4616 33.3773 48.2679 33.7853C45.179 40.2895 39.184 44.8559 32.1461 46.1054C31.4781 44.2797 31.3475 42.2672 31.787 40.3707L33.7809 31.7554C34.0943 32.0907 34.5015 32.3215 34.96 32.4149C35.11 32.4453 35.2605 32.4606 35.4101 32.4606C35.8431 32.4606 36.2669 32.3337 36.6361 32.089L50.3609 22.999C50.386 23.4293 50.3989 23.8611 50.3989 24.2926C50.3989 26.3374 50.1203 28.3629 49.5716 30.3119C49.4491 30.7466 49.7022 31.1982 50.1369 31.3207C50.2113 31.3418 50.2857 31.3515 50.3593 31.3515C50.7163 31.3515 51.0443 31.1161 51.1462 30.7555C51.7357 28.6621 52.0345 26.4878 52.0345 24.2926C52.0345 23.4325 51.986 22.5696 51.8946 21.7233ZM42.0557 26.538L30.2767 8.97094L37.2143 4.37701C43.3614 7.06802 48.0326 12.4945 49.7564 18.9748C49.7568 18.9768 49.7576 18.9793 49.758 18.9813C49.7592 18.9865 49.76 18.9914 49.7612 18.9963C49.9363 19.7075 50.0742 20.4325 50.1765 21.1596L42.0557 26.538ZM19.5033 44.659L21.6861 43.2134L22.1782 44.5393C22.3294 44.9465 22.4968 45.3484 22.6784 45.7443C21.6869 45.4879 20.7128 45.1632 19.7678 44.7714C19.6796 44.735 19.5915 44.6966 19.5033 44.659ZM30.193 40.002C29.6273 42.4443 29.8715 45.0536 30.8812 47.3484C30.8816 47.3488 30.8816 47.3492 30.882 47.35C30.8837 47.354 30.8857 47.3581 30.8877 47.3621C31.1526 47.9618 31.4712 48.5457 31.8363 49.0989C32.0304 49.3908 32.1327 49.7301 32.1327 50.0802C32.1327 50.6803 31.8343 51.2363 31.3345 51.5675C31.041 51.7616 30.7005 51.8647 30.3507 51.8647C29.8853 51.8647 29.4441 51.6855 29.1085 51.3613L27.5473 49.8477C26.5226 48.8542 25.6371 47.7277 24.9149 46.5C24.9084 46.4891 24.9016 46.4782 24.8951 46.4677C24.4309 45.6743 24.033 44.8341 23.7115 43.9699L22.8612 41.6776C22.7039 41.2543 22.2336 41.0383 21.8098 41.1952C21.8009 41.1985 21.7928 41.2029 21.7843 41.2061C21.7564 41.2138 21.7188 41.2324 21.6695 41.2636C21.6638 41.2668 21.6586 41.2704 21.6529 41.2737C21.6493 41.2761 21.6465 41.2777 21.6424 41.2801L12.9191 47.0572C12.4388 47.3751 11.8634 47.4875 11.2985 47.3726C10.7336 47.2578 10.2475 46.9303 9.9289 46.4491C9.69316 46.0945 9.56902 45.6832 9.56902 45.2603C9.56902 44.5336 9.93052 43.86 10.5363 43.4588L11.2811 42.9663C11.2811 42.9659 11.2815 42.9659 11.2819 42.9655C11.2859 42.9627 11.2904 42.9599 11.2944 42.957L12.9838 41.8382C13.3603 41.5887 13.4634 41.0812 13.2139 40.7047C12.9644 40.3283 12.457 40.2252 12.0805 40.4743L10.3798 41.6008C9.38868 42.2474 8.05348 41.9724 7.40044 40.9862C7.16551 40.6311 7.04096 40.2203 7.04096 39.7978C7.04096 39.0699 7.40287 38.3962 8.0086 37.9955L10.4554 36.3748C10.8318 36.1258 10.9358 35.6187 10.6867 35.2414C10.4376 34.865 9.93012 34.7615 9.55325 35.0101L7.85332 36.1359C6.86224 36.7837 5.52583 36.5087 4.87238 35.5208C4.63745 35.1666 4.51331 34.7558 4.51331 34.3328C4.51331 33.6054 4.8744 32.9321 5.48013 32.531L7.92732 30.9099C8.30418 30.6608 8.4077 30.1538 8.15862 29.7769C7.90993 29.4 7.40206 29.2965 7.02519 29.5456L5.33416 30.6645C4.34267 31.3212 3.0014 31.049 2.34472 30.0575C2.10939 29.7025 1.98525 29.2909 1.98525 28.8675C1.98525 28.1405 2.34674 27.4672 2.95167 27.0665L8.89091 23.1337C9.26778 22.8842 9.37089 22.3767 9.1214 21.9998C8.87191 21.6234 8.36403 21.5203 7.98798 21.7698L6.12307 23.0043C6.79269 11.3846 16.4565 2.13564 28.2408 2.13564C30.8287 2.13564 33.3385 2.57113 35.7028 3.41584L23.1507 11.7279C22.1268 12.408 21.8454 13.7946 22.5235 14.8192L22.5963 14.9292L21.5231 15.6409C20.9214 16.0384 20.2235 16.249 19.505 16.249C19.3105 16.249 19.1164 16.2333 18.9259 16.2025C17.6126 15.9919 16.2782 16.2802 15.1678 17.0153L10.9071 19.8369C10.5306 20.0864 10.4275 20.5935 10.677 20.9703C10.8343 21.2081 11.0943 21.3367 11.3595 21.3367C11.5148 21.3367 11.6713 21.2926 11.8104 21.2008L16.0711 18.3792C16.8382 17.8717 17.7602 17.6724 18.6655 17.8175C18.9409 17.862 19.2231 17.8847 19.505 17.8847C20.5454 17.8847 21.5551 17.5806 22.4261 17.0048L23.4996 16.2935L32.5262 29.9225L30.193 40.002ZM35.7323 30.7259C35.6005 30.8133 35.442 30.844 35.2867 30.8121C35.1307 30.7805 34.9968 30.6899 34.9087 30.5569L24.4139 14.7108C24.4131 14.7096 24.4127 14.7084 24.4119 14.7076C24.4111 14.7064 24.4103 14.7056 24.4095 14.7044L23.8874 13.9163C23.7067 13.6429 23.7823 13.2721 24.0548 13.091L28.9128 9.87429L40.6918 27.4413L35.7323 30.7259Z" fill="#DC3545"/>
</svg>
