<svg width="53" height="54" viewBox="0 0 53 54" fill="none" xmlns="http://www.w3.org/2000/svg">
<g clip-path="url(#clip0_4365_237685)">
<path d="M26.5231 21.5496C23.5178 21.5496 21.0728 23.9946 21.0728 27C21.0728 27.6429 21.1838 28.2728 21.4031 28.8722C21.5507 29.2757 21.9971 29.4831 22.4009 29.3356C22.8043 29.188 23.0118 28.7413 22.8643 28.3377C22.7079 27.9101 22.6286 27.46 22.6286 26.9999C22.6286 24.8525 24.3756 23.1053 26.5231 23.1053C28.6705 23.1053 30.4175 24.8525 30.4175 26.9999C30.4175 29.1473 28.6705 30.8945 26.5231 30.8945C25.8139 30.8945 25.1201 30.7022 24.5165 30.3385C24.1488 30.1171 23.6705 30.2354 23.4487 30.6033C23.227 30.9713 23.3455 31.4494 23.7135 31.6711C24.5596 32.181 25.531 32.4504 26.5232 32.4504C29.5284 32.4504 31.9735 30.0054 31.9735 27C31.9733 23.9946 29.5283 21.5496 26.5231 21.5496Z" fill="#FA981C"/>
<path d="M37.7109 24.8102L36.2684 24.5934C36.0271 23.6103 35.6408 22.6782 35.1153 21.8111L35.9825 20.6372C36.4222 20.0417 36.3616 19.2295 35.8382 18.7061L34.8168 17.6846C34.2933 17.1613 33.4813 17.1007 32.8858 17.5403L31.7119 18.4074C30.8449 17.8818 29.9128 17.4955 28.9298 17.2542L28.713 15.8117C28.6029 15.0797 27.9857 14.5484 27.2455 14.5484H25.801C25.0608 14.5484 24.4436 15.0798 24.3335 15.8117L24.1166 17.2542C23.1336 17.4955 22.2017 17.8817 21.3344 18.4074L20.1605 17.5402C19.5652 17.1005 18.7531 17.1613 18.2297 17.6846L17.2085 18.706C16.6848 19.2295 16.624 20.0417 17.0641 20.6373L17.931 21.8111C17.4055 22.6781 17.0191 23.6103 16.7781 24.5934L15.3358 24.8102C14.6036 24.9202 14.0723 25.5373 14.0723 26.2778V27.7222C14.0723 28.4627 14.6036 29.0798 15.3356 29.1898L16.7781 29.4066C17.0193 30.3897 17.4056 31.3218 17.931 32.1889L17.0641 33.3627C16.624 33.9583 16.6848 34.7705 17.2083 35.2939L18.2297 36.3154C18.7532 36.8387 19.5653 36.8994 20.1606 36.4596L21.3344 35.5925C22.2017 36.1182 23.1335 36.5044 24.1166 36.7457L24.3335 38.1882C24.4436 38.9202 25.0608 39.4515 25.801 39.4515H27.2454C27.9856 39.4515 28.6028 38.9201 28.7129 38.1881L28.9297 36.7457C29.9127 36.5044 30.8448 36.1181 31.7118 35.5925L32.8858 36.4597C33.4811 36.8994 34.2933 36.8386 34.8167 36.3154L35.8381 35.2939C36.3615 34.7705 36.4221 33.9583 35.9823 33.3627L35.1152 32.1889C35.6408 31.3219 36.0271 30.3897 36.2683 29.4066L37.7106 29.1898C38.4427 29.0798 38.9741 28.4627 38.9741 27.7222V26.2778C38.9742 25.5374 38.4429 24.9202 37.7109 24.8102ZM37.4184 27.6603L35.5062 27.9478C35.1787 27.997 34.9183 28.2482 34.8574 28.5736C34.6406 29.7287 34.1936 30.8076 33.5285 31.7801C33.3417 32.0534 33.3482 32.4151 33.5451 32.6815L34.6943 34.2373L33.7603 35.1712L32.2045 34.0219C31.9381 33.8252 31.5765 33.8188 31.3032 34.0054C30.3306 34.6705 29.2518 35.1175 28.0968 35.3342C27.7713 35.3953 27.5201 35.6558 27.4709 35.9833L27.1836 37.8954H25.8628L25.5753 35.9832C25.5262 35.6557 25.2749 35.3952 24.9495 35.3342C23.7946 35.1176 22.7158 34.6705 21.7431 34.0054C21.4697 33.8185 21.1081 33.8249 20.8418 34.022L19.286 35.1712L18.352 34.2373L19.5012 32.6815C19.698 32.4151 19.7047 32.0534 19.5177 31.7801C18.8526 30.8075 18.4056 29.7288 18.189 28.5737C18.128 28.2482 17.8676 27.997 17.5401 27.9478L15.628 27.6603V26.3397L17.5401 26.0522C17.8677 26.0029 18.128 25.7518 18.189 25.4263C18.4056 24.2713 18.8526 23.1925 19.5177 22.2199C19.7047 21.9466 19.6981 21.5849 19.5012 21.3185L18.352 19.7627L19.286 18.8288L20.8418 19.978C21.1081 20.1749 21.4697 20.1812 21.7431 19.9946C22.7158 19.3295 23.7946 18.8824 24.9495 18.6656C25.2749 18.6047 25.5262 18.3442 25.5753 18.0167L25.8628 16.1045H27.1836L27.4709 18.0166C27.5202 18.3441 27.7713 18.6045 28.0968 18.6656C29.2518 18.8824 30.3306 19.3294 31.3032 19.9946C31.5764 20.1814 31.938 20.175 32.2045 19.9781L33.7603 18.8288L34.6943 19.7627L33.5451 21.3185C33.3483 21.5849 33.3417 21.9466 33.5285 22.2199C34.1936 23.1924 34.6406 24.2712 34.8574 25.4264C34.9183 25.7518 35.1788 26.003 35.5062 26.0522L37.4184 26.3397V27.6603Z" fill="#FA981C"/>
<path d="M52.9379 26.7195C52.8159 26.4324 52.5341 26.246 52.2221 26.246H50.886C50.7078 20.4284 48.4691 14.891 44.5369 10.5796C40.5244 6.18042 35.0862 3.41583 29.1983 2.77248L27.0626 0.715729C26.5992 0.238005 25.7228 0.610764 25.7452 1.27606V2.63677C20.9681 2.78604 16.4013 4.30948 12.4931 7.06517C12.142 7.31268 12.058 7.79816 12.3056 8.14929C12.5533 8.50041 13.0385 8.58447 13.3898 8.33676C17.246 5.61771 21.7875 4.1804 26.5232 4.1804C26.9529 4.1804 27.3011 3.83217 27.3011 3.40248V3.10518L31.3716 7.02532L27.3009 10.3143V9.54799C27.3009 9.1183 26.9527 8.77007 26.523 8.77007C22.1472 8.77007 17.9164 10.3439 14.6098 13.2015C11.7665 15.6586 9.75936 18.9244 8.84843 22.5273L7.18131 20.4638C6.90368 20.1038 6.32347 20.0787 6.01583 20.4132L4.18888 22.3104C5.15468 17.6938 7.53906 13.4695 11.0494 10.2288C11.3651 9.93742 11.3848 9.4452 11.0934 9.12958C10.8021 8.81396 10.3098 8.7943 9.99414 9.08559C5.67412 13.0736 2.95021 18.4572 2.30168 24.2702L0.215637 26.4364C-0.26188 26.9002 0.110673 27.7761 0.775968 27.7539H2.15997C2.33802 33.5621 4.57044 39.0928 8.49171 43.4013C12.4926 47.7975 17.9182 50.567 23.7943 51.2221L25.9354 53.2842C26.4016 53.7622 27.2744 53.3886 27.2529 52.7238V51.3647C32.1191 51.2222 36.7606 49.6573 40.7184 46.8169C41.0675 46.5664 41.1474 46.0803 40.8969 45.7313C40.6462 45.3822 40.1602 45.3027 39.8112 45.5528C35.9219 48.3441 31.3268 49.8194 26.5137 49.8192L26.4749 49.8188C26.0452 49.8188 25.6969 50.167 25.6969 50.5967V50.8946L21.6265 46.9745L25.6969 43.6856V44.4513C25.6969 44.879 26.0423 45.2265 26.4699 45.2292L26.5229 45.2298C30.8894 45.2298 35.1136 43.6618 38.4169 40.8147C41.2573 38.3666 43.2673 35.1108 44.1858 31.5174L45.8166 33.536C46.0943 33.8958 46.6737 33.9215 46.982 33.5866L48.8694 31.6266C47.925 36.2019 45.5857 40.4017 42.1382 43.6388C41.825 43.933 41.8096 44.4252 42.1035 44.7384C42.3982 45.0521 42.8905 45.0668 43.2032 44.7731C47.4483 40.7869 50.1204 35.4338 50.75 29.6738L52.7823 27.5633C52.9988 27.3389 53.0601 27.0066 52.9379 26.7195ZM19.9631 46.3183C19.6031 46.5959 19.5778 47.176 19.9125 47.4838L21.8351 49.3354C17.1629 48.3591 12.8989 45.9323 9.64229 42.3541C5.81304 38.1466 3.70432 32.6937 3.70432 27.0027L3.70463 26.976C3.70463 26.5463 3.35641 26.1981 2.92671 26.1981H2.60509L6.52502 22.1274L9.81381 26.1981H9.07181C8.64212 26.1981 8.29389 26.5436 8.29389 26.9733L8.29369 27C8.29369 31.3676 9.86215 35.5925 12.7103 38.8963C15.1592 41.7371 18.4159 43.7469 22.01 44.6645L19.9631 46.3183ZM37.4015 39.6362C34.5647 42.0811 30.9856 43.4947 27.2529 43.658V42.057C27.2736 41.4227 26.4664 41.0373 25.9861 41.4518L23.5617 43.4106C19.8157 42.7386 16.3916 40.7838 13.8887 37.8803C11.4478 35.0488 10.0345 31.4772 9.8664 27.7538H11.4425C12.0768 27.7746 12.4622 26.9671 12.0477 26.4869L10.1047 24.082C10.7682 20.3256 12.7202 16.8907 15.627 14.3786C18.4547 11.9349 22.0216 10.5176 25.7451 10.3439V11.9428C25.7243 12.577 26.5318 12.9626 27.0119 12.548L29.4453 10.5818C33.2004 11.2462 36.6342 13.1987 39.1454 16.1052C41.594 18.9394 43.0115 22.5159 43.1797 26.246H41.5555C40.9213 26.2252 40.5359 27.0327 40.9504 27.5129L42.9324 29.966C42.2594 33.7111 40.3044 37.1342 37.4015 39.6362ZM46.473 31.8726L43.1842 27.8019H43.9743C44.404 27.8019 44.7522 27.4564 44.7522 27.0267L44.7525 27C44.7525 22.625 43.1794 18.3945 40.3228 15.0882C37.8665 12.2452 34.6019 10.2375 31 9.32585L33.035 7.68161C33.395 7.40398 33.4202 6.82388 33.0856 6.51612L31.1506 4.65264C35.8383 5.61875 40.1181 8.0437 43.3873 11.6281C47.2271 15.8381 49.3418 21.2972 49.3418 26.9972L49.3415 27.0239C49.3415 27.4536 49.6897 27.8018 50.1194 27.8018H50.393L46.473 31.8726Z" fill="#FA981C"/>
</g>
<defs>
<clipPath id="clip0_4365_237685">
<rect width="53" height="53" fill="white" transform="translate(0 0.5)"/>
</clipPath>
</defs>
</svg>
